<?xml version="1.0" encoding="UTF-8"?>
<svg xmlns="http://www.w3.org/2000/svg" xmlns:xlink="http://www.w3.org/1999/xlink" width="176pt" height="176pt" viewBox="0 0 176 176">
<path fill-rule="nonzero" fill="rgb(0%, 41.598511%, 32.199097%)" fill-opacity="1" d="M 134.039062 124.511719 C 134.210938 124.300781 134.378906 124.078125 134.550781 123.859375 C 134.851562 123.46875 135.148438 123.070312 135.449219 122.671875 C 135.640625 122.410156 135.820312 122.148438 136 121.890625 C 136.449219 121.261719 136.878906 120.621094 137.300781 119.96875 C 137.511719 119.648438 137.71875 119.320312 137.929688 118.988281 C 138.160156 118.628906 138.371094 118.261719 138.589844 117.898438 C 138.808594 117.53125 139.019531 117.160156 139.230469 116.789062 C 139.421875 116.460938 139.609375 116.128906 139.789062 115.789062 C 140.140625 115.140625 140.46875 114.488281 140.800781 113.828125 C 140.949219 113.519531 141.101562 113.199219 141.25 112.878906 C 141.460938 112.421875 141.671875 111.960938 141.878906 111.5 C 142.011719 111.191406 142.148438 110.890625 142.28125 110.578125 C 142.578125 109.859375 142.871094 109.140625 143.140625 108.398438 C 143.21875 108.179688 143.289062 107.960938 143.371094 107.738281 C 143.578125 107.148438 143.78125 106.558594 143.96875 105.96875 C 144.058594 105.691406 144.148438 105.398438 144.238281 105.121094 C 144.441406 104.46875 144.628906 103.808594 144.800781 103.148438 C 144.839844 102.988281 144.890625 102.828125 144.929688 102.660156 C 145.140625 101.851562 145.320312 101.03125 145.5 100.210938 C 145.550781 99.960938 145.601562 99.710938 145.648438 99.460938 C 145.78125 98.808594 145.898438 98.148438 146 97.488281 C 146.039062 97.269531 146.078125 97.050781 146.109375 96.820312 C 146.238281 95.96875 146.351562 95.109375 146.441406 94.25 C 146.460938 94.070312 146.46875 93.878906 146.488281 93.699219 C 146.558594 92.988281 146.609375 92.269531 146.648438 91.550781 C 146.660156 91.300781 146.679688 91.058594 146.691406 90.808594 C 146.730469 89.921875 146.761719 89.019531 146.761719 88.121094 C 146.761719 55.789062 120.460938 29.5 88.140625 29.5 C 55.820312 29.5 29.519531 55.800781 29.519531 88.121094 C 29.519531 89.019531 29.550781 89.910156 29.589844 90.800781 C 29.601562 91.039062 29.609375 91.269531 29.628906 91.511719 C 29.671875 92.28125 29.730469 93.050781 29.808594 93.820312 C 29.820312 93.941406 29.828125 94.058594 29.839844 94.191406 C 29.929688 95.058594 30.039062 95.921875 30.171875 96.769531 C 30.199219 96.988281 30.238281 97.21875 30.28125 97.441406 C 30.390625 98.140625 30.519531 98.839844 30.660156 99.539062 C 30.699219 99.71875 30.730469 99.898438 30.769531 100.078125 C 30.941406 100.910156 31.140625 101.738281 31.339844 102.558594 C 31.390625 102.761719 31.449219 102.960938 31.5 103.160156 C 31.679688 103.820312 31.859375 104.480469 32.058594 105.128906 C 32.121094 105.339844 32.191406 105.550781 32.25 105.761719 C 32.5 106.550781 32.769531 107.339844 33.050781 108.121094 C 33.109375 108.289062 33.179688 108.460938 33.238281 108.628906 C 33.480469 109.269531 33.730469 109.898438 33.988281 110.53125 C 34.078125 110.761719 34.179688 110.980469 34.269531 111.210938 C 34.589844 111.960938 34.929688 112.710938 35.28125 113.449219 C 35.339844 113.570312 35.398438 113.679688 35.449219 113.789062 C 35.761719 114.429688 36.089844 115.058594 36.421875 115.691406 C 36.539062 115.921875 36.671875 116.148438 36.800781 116.390625 C 37.140625 117 37.488281 117.609375 37.851562 118.210938 C 37.921875 118.328125 37.988281 118.449219 38.058594 118.570312 C 38.480469 119.25 38.910156 119.921875 39.351562 120.578125 C 39.5 120.808594 39.660156 121.039062 39.808594 121.261719 C 40.160156 121.769531 40.519531 122.269531 40.878906 122.769531 C 41.011719 122.949219 41.140625 123.140625 41.28125 123.320312 C 41.75 123.941406 42.230469 124.550781 42.71875 125.160156 C 42.898438 125.378906 43.078125 125.589844 43.261719 125.808594 C 43.628906 126.25 44 126.679688 44.378906 127.109375 C 44.558594 127.320312 44.75 127.53125 44.929688 127.730469 C 45.449219 128.289062 45.980469 128.851562 46.511719 129.390625 C 46.710938 129.589844 46.910156 129.78125 47.109375 129.980469 C 47.511719 130.371094 47.910156 130.75 48.308594 131.128906 C 48.539062 131.339844 48.761719 131.550781 48.988281 131.75 C 49.550781 132.261719 50.128906 132.75 50.710938 133.238281 C 50.910156 133.410156 51.121094 133.570312 51.320312 133.730469 C 51.761719 134.078125 52.199219 134.429688 52.648438 134.769531 C 52.910156 134.96875 53.171875 135.160156 53.429688 135.351562 C 53.941406 135.71875 54.449219 136.089844 54.96875 136.449219 C 55.25 136.640625 55.53125 136.828125 55.808594 137.019531 C 56.320312 137.359375 56.828125 137.679688 57.339844 138 C 57.621094 138.171875 57.898438 138.351562 58.191406 138.519531 C 58.671875 138.808594 59.160156 139.089844 59.648438 139.359375 C 59.878906 139.488281 60.109375 139.621094 60.339844 139.75 C 61.261719 138.96875 62.449219 137.96875 63.480469 137.128906 C 65.480469 135.511719 69.101562 133.378906 71.730469 132.128906 C 73.320312 131.371094 74.570312 131.398438 75.328125 131.53125 L 76.269531 131.078125 C 76.398438 131.011719 78.71875 129.761719 78.71875 125.25 C 78.71875 121.878906 78.230469 120.789062 77.039062 118.148438 L 76.660156 117.308594 C 74.480469 112.421875 71.769531 105.839844 69.589844 100.550781 C 68.480469 97.859375 67.5 95.480469 66.78125 93.800781 C 64.839844 89.238281 63.019531 82.921875 66.140625 74.371094 C 68.351562 68.308594 71.488281 65.199219 72.980469 63.980469 C 71.671875 62.761719 69.339844 59.71875 69.339844 53.5 C 69.339844 50.359375 71.539062 46.851562 72.53125 45.429688 L 64.511719 39.878906 L 77.839844 40.121094 C 78.800781 39.410156 82.691406 36.871094 89.21875 36.871094 C 95.75 36.871094 99.191406 39.261719 100.109375 39.988281 L 112.800781 39.828125 L 105.660156 45.078125 C 106.980469 46.160156 109.089844 48.800781 109.089844 54.621094 C 109.089844 60.441406 106.171875 63.441406 104.738281 64.601562 C 105.910156 65.851562 108.460938 68.800781 110.390625 72.660156 C 112.988281 77.859375 113.570312 87.699219 109.648438 96.429688 C 105.640625 105.351562 101.371094 116.960938 100.441406 120.441406 L 100.359375 120.761719 C 99.460938 124.140625 98.808594 126.578125 99.75 128.25 C 100.761719 130.039062 102.46875 131.089844 102.480469 131.101562 L 103.351562 131.621094 L 103.328125 131.640625 C 104.519531 131.949219 106.648438 132.851562 109.601562 135.488281 C 111.878906 137.53125 113.46875 139.25 114.46875 140.449219 C 116.238281 139.550781 117.96875 138.570312 119.628906 137.5 C 119.660156 137.480469 119.699219 137.460938 119.730469 137.441406 C 121.371094 136.390625 122.949219 135.25 124.46875 134.050781 C 124.511719 134.019531 124.539062 133.988281 124.578125 133.96875 C 125.078125 133.570312 125.570312 133.171875 126.058594 132.75 C 126.089844 132.730469 126.121094 132.699219 126.148438 132.679688 C 127.578125 131.460938 128.960938 130.160156 130.261719 128.808594 C 130.390625 128.679688 130.511719 128.550781 130.640625 128.421875 C 131.820312 127.171875 132.949219 125.871094 134.03125 124.519531 Z M 134.039062 124.511719 "/>
<path fill-rule="nonzero" fill="rgb(100%, 100%, 100%)" fill-opacity="1" d="M 88.121094 149.25 C 54.421875 149.25 27 121.828125 27 88.128906 C 27 54.429688 54.421875 27.011719 88.121094 27.011719 C 121.820312 27.011719 149.238281 54.429688 149.238281 88.128906 C 149.238281 121.828125 121.820312 149.25 88.121094 149.25 M 88 2.5 C 40.851562 2.5 2.5 40.851562 2.5 88 C 2.5 135.148438 40.851562 173.5 88 173.5 C 135.148438 173.5 173.5 135.148438 173.5 88 C 173.5 40.851562 135.140625 2.5 88 2.5 "/>
<path fill-rule="nonzero" fill="rgb(79.998779%, 54.098511%, 0%)" fill-opacity="1" d="M 25.539062 122.628906 L 23.570312 118.738281 L 19.019531 123.421875 L 19.039062 123.460938 L 25.53125 122.628906 Z M 16.179688 126.96875 L 14.46875 123.589844 L 26.628906 110.390625 L 28.359375 113.808594 L 25.589844 116.640625 L 28.429688 122.25 L 32.371094 121.738281 L 34.058594 125.078125 L 16.179688 126.980469 Z M 16.179688 126.96875 "/>
<path fill-rule="nonzero" fill="rgb(79.998779%, 54.098511%, 0%)" fill-opacity="1" d="M 16.871094 89.679688 L 10.730469 87.410156 L 10.730469 87.359375 L 16.929688 85.320312 Z M 25.660156 105.851562 L 20.378906 107.03125 L 17.828125 105.429688 L 24.101562 98.839844 L 23.300781 95.28125 L 23.339844 92.058594 L 19.609375 90.691406 L 19.699219 84.398438 L 23.460938 83.179688 L 23.511719 79.339844 L 6.621094 85.398438 L 6.570312 89.191406 L 22.148438 95.351562 L 14.730469 103.570312 L 6.808594 98.609375 L 7.820312 103.109375 L 16.058594 108 L 9.261719 109.519531 L 10.070312 113.128906 L 26.46875 109.449219 L 25.660156 105.839844 Z M 25.660156 105.851562 "/>
<path fill-rule="nonzero" fill="rgb(79.998779%, 54.098511%, 0%)" fill-opacity="1" d="M 21.738281 74.070312 L 22.601562 70.890625 C 23.160156 68.820312 22.421875 66.5 18.828125 65.53125 C 15.558594 64.648438 13.160156 65.21875 12.199219 68.761719 L 11.511719 71.308594 C 11.511719 71.308594 21.738281 74.070312 21.738281 74.070312 M 7.539062 74.058594 L 9.429688 67.058594 C 10.570312 62.851562 14.058594 60.410156 19.441406 61.859375 C 24.148438 63.128906 26.988281 66.488281 25.648438 71.441406 L 23.761719 78.441406 L 7.53125 74.050781 Z M 7.539062 74.058594 "/>
<path fill-rule="nonzero" fill="rgb(79.998779%, 54.098511%, 0%)" fill-opacity="1" d="M 13.46875 55.128906 L 19.441406 44.058594 L 22.179688 45.539062 L 17.96875 53.351562 L 21.140625 55.058594 L 25.011719 47.890625 L 27.539062 49.25 L 23.671875 56.421875 L 27.300781 58.378906 L 31.601562 50.398438 L 34.339844 51.878906 L 28.28125 63.109375 L 13.480469 55.128906 Z M 13.46875 55.128906 "/>
<path fill-rule="nonzero" fill="rgb(79.998779%, 54.098511%, 0%)" fill-opacity="1" d="M 23 38.691406 L 26.398438 35.101562 L 37.359375 40.328125 L 37.390625 40.300781 L 31.421875 29.789062 L 34.820312 26.199219 L 47.03125 37.761719 L 44.769531 40.148438 L 36.121094 31.960938 L 36.089844 31.988281 L 42.050781 43.019531 L 40.191406 44.988281 L 28.929688 39.730469 L 28.898438 39.761719 L 37.46875 47.871094 L 35.210938 50.261719 L 23 38.699219 Z M 23 38.691406 "/>
<path fill-rule="nonzero" fill="rgb(79.998779%, 54.098511%, 0%)" fill-opacity="1" d="M 39.890625 22.71875 L 42.921875 20.601562 L 52.558594 34.371094 L 49.53125 36.488281 Z M 39.890625 22.71875 "/>
<path fill-rule="nonzero" fill="rgb(79.998779%, 54.098511%, 0%)" fill-opacity="1" d="M 55.839844 25.921875 C 56.769531 27.960938 58.710938 28.03125 60.511719 27.210938 C 61.691406 26.671875 63.328125 25.511719 62.621094 23.949219 C 61.871094 22.300781 59.449219 23.058594 56.929688 23.488281 C 54.390625 23.921875 51.691406 24.089844 50.390625 21.21875 C 48.96875 18.089844 51.238281 15.238281 54.011719 13.988281 C 57.199219 12.539062 60.769531 12.589844 62.378906 16.128906 L 59.121094 17.609375 C 58.171875 15.820312 56.648438 15.941406 55.050781 16.671875 C 53.980469 17.160156 52.941406 18.171875 53.53125 19.460938 C 54.070312 20.640625 54.859375 20.460938 59.148438 19.699219 C 60.390625 19.46875 64.140625 18.621094 65.71875 22.089844 C 67 24.898438 65.75 28 61.589844 29.890625 C 58.199219 31.429688 54.269531 31.199219 52.601562 27.410156 L 55.859375 25.929688 Z M 55.839844 25.921875 "/>
<path fill-rule="nonzero" fill="rgb(79.998779%, 54.098511%, 0%)" fill-opacity="1" d="M 67.628906 9.261719 L 71.269531 8.640625 L 72.441406 15.511719 L 77.75 7.539062 L 82.300781 6.769531 L 76.941406 14.421875 L 85.75 23.238281 L 81.179688 24.019531 L 74.921875 17.421875 L 73.191406 19.890625 L 74.101562 25.230469 L 70.460938 25.851562 L 67.648438 9.28125 Z M 67.628906 9.261719 "/>
<path fill-rule="nonzero" fill="rgb(79.998779%, 54.098511%, 0%)" fill-opacity="1" d="M 107.171875 16.140625 L 110.75 17.230469 C 111.988281 17.609375 113.078125 17.328125 113.5 15.980469 C 113.96875 14.449219 112.890625 13.78125 111.628906 13.390625 L 108.320312 12.378906 Z M 105.089844 22.960938 L 108.871094 24.121094 C 110.261719 24.550781 111.621094 24.46875 112.128906 22.800781 C 112.628906 21.160156 111.800781 20.191406 110.289062 19.71875 L 106.441406 18.539062 L 105.089844 22.949219 Z M 105.628906 8.550781 L 113.199219 10.859375 C 116.261719 11.800781 118.03125 13.421875 117.109375 16.421875 C 116.628906 18 115.5 18.859375 113.898438 19.109375 C 115.691406 20.269531 116.21875 22.078125 115.601562 24.089844 C 114.601562 27.351562 111.398438 27.898438 108.5 27.019531 L 100.710938 24.640625 L 105.628906 8.558594 Z M 105.628906 8.550781 "/>
<path fill-rule="nonzero" fill="rgb(79.998779%, 54.098511%, 0%)" fill-opacity="1" d="M 123.75 31.210938 C 126.570312 32.960938 129.121094 31.21875 130.601562 28.851562 C 132.148438 26.351562 132.589844 23.289062 129.769531 21.539062 C 126.949219 19.789062 124.398438 21.53125 122.839844 24.019531 C 121.359375 26.398438 120.921875 29.460938 123.738281 31.210938 Z M 131.410156 18.890625 C 135.828125 21.640625 136.371094 26.558594 133.738281 30.789062 C 131.179688 34.910156 126.53125 36.589844 122.109375 33.839844 C 117.691406 31.089844 117.148438 26.171875 119.710938 22.058594 C 122.351562 17.820312 127 16.140625 131.421875 18.890625 Z M 131.410156 18.890625 "/>
<path fill-rule="nonzero" fill="rgb(79.998779%, 54.098511%, 0%)" fill-opacity="1" d="M 142.660156 27.609375 L 145.25 30.25 L 135.460938 39.839844 L 141.199219 45.691406 L 138.980469 47.871094 L 130.660156 39.378906 L 142.671875 27.609375 Z M 142.660156 27.609375 "/>
<path fill-rule="nonzero" fill="rgb(79.998779%, 54.098511%, 0%)" fill-opacity="1" d="M 144.589844 50.671875 L 146.289062 53.5 C 147.390625 55.339844 149.578125 56.410156 152.769531 54.5 C 155.679688 52.75 156.929688 50.628906 155.03125 47.480469 L 153.671875 45.21875 L 144.589844 50.679688 Z M 154.429688 40.441406 L 158.171875 46.648438 C 160.410156 50.378906 159.761719 54.601562 154.980469 57.46875 C 150.800781 59.980469 146.410156 59.710938 143.761719 55.308594 L 140.019531 49.089844 L 154.429688 40.429688 Z M 154.429688 40.441406 "/>
<path fill-rule="nonzero" fill="rgb(79.998779%, 54.098511%, 0%)" fill-opacity="1" d="M 164.511719 59 L 165.550781 62.550781 L 158.859375 64.5 L 167.390625 68.851562 L 168.679688 73.28125 L 160.46875 68.828125 L 152.730469 78.601562 L 151.429688 74.148438 L 157.269531 67.171875 L 154.621094 65.738281 L 149.421875 67.261719 L 148.378906 63.710938 L 164.519531 59 Z M 164.511719 59 "/>
<path fill-rule="nonzero" fill="rgb(79.998779%, 54.098511%, 0%)" fill-opacity="1" d="M 169.289062 78.71875 L 169.488281 82.410156 L 155.808594 83.160156 L 156.261719 91.339844 L 153.160156 91.511719 L 152.511719 79.640625 L 169.300781 78.730469 Z M 169.289062 78.71875 "/>
<path fill-rule="nonzero" fill="rgb(79.998779%, 54.098511%, 0%)" fill-opacity="1" d="M 156.839844 108.289062 C 152.371094 107.480469 150.671875 104.441406 151.46875 100.019531 C 152.269531 95.570312 154.898438 93.371094 159.390625 94.179688 L 169.679688 96.039062 L 169.019531 99.679688 L 158.730469 97.820312 C 156.921875 97.488281 155.050781 97.628906 154.519531 100.578125 C 154.050781 103.179688 155.03125 104.210938 157.488281 104.660156 L 167.78125 106.519531 L 167.121094 110.160156 L 156.828125 108.300781 Z M 156.839844 108.289062 "/>
<path fill-rule="nonzero" fill="rgb(79.998779%, 54.098511%, 0%)" fill-opacity="1" d="M 157.269531 117.171875 L 155.699219 120.570312 C 155.160156 121.75 155.28125 122.871094 156.570312 123.460938 C 158.019531 124.128906 158.839844 123.160156 159.390625 121.960938 L 160.839844 118.820312 Z M 150.800781 114.171875 L 149.140625 117.761719 C 148.53125 119.089844 148.421875 120.441406 150 121.171875 C 151.558594 121.890625 152.628906 121.199219 153.300781 119.761719 L 154.988281 116.109375 C 154.988281 116.109375 150.800781 114.171875 150.800781 114.171875 M 165 116.671875 L 161.679688 123.851562 C 160.339844 126.761719 158.488281 128.289062 155.640625 126.96875 C 154.140625 126.28125 153.441406 125.050781 153.421875 123.421875 C 152.03125 125.03125 150.160156 125.308594 148.261719 124.429688 C 145.160156 123 145.050781 119.75 146.328125 117 L 149.75 109.609375 L 165.011719 116.671875 Z M 165 116.671875 "/>
<path fill-rule="nonzero" fill="rgb(79.998779%, 54.098511%, 0%)" fill-opacity="1" d="M 36.691406 136.988281 C 38 138.308594 38 140.410156 36.691406 141.71875 C 35.371094 143.03125 33.25 143.019531 31.941406 141.710938 C 30.628906 140.390625 30.648438 138.289062 31.96875 136.980469 C 33.289062 135.671875 35.378906 135.679688 36.691406 137 Z M 36.691406 136.988281 "/>
<path fill-rule="nonzero" fill="rgb(79.998779%, 54.098511%, 0%)" fill-opacity="1" d="M 68.808594 167.71875 L 65.578125 166.730469 L 68.761719 156.390625 L 64.75 155.160156 L 65.5 152.71875 C 67.738281 153.460938 70.050781 153.320312 71.140625 150.988281 L 73.710938 151.78125 L 68.808594 167.730469 Z M 68.808594 167.71875 "/>
<path fill-rule="nonzero" fill="rgb(79.998779%, 54.098511%, 0%)" fill-opacity="1" d="M 81.308594 159.921875 C 82.679688 160.058594 83.878906 159.410156 84.019531 157.988281 C 84.109375 157.140625 83.851562 155.648438 81.761719 155.441406 C 80.410156 155.300781 79.140625 156.011719 78.988281 157.480469 C 78.839844 158.929688 79.949219 159.78125 81.308594 159.921875 M 80.550781 167.628906 C 82.160156 167.789062 83.511719 166.78125 83.679688 165.121094 C 83.839844 163.53125 82.671875 162.328125 81.101562 162.179688 C 79.460938 162.011719 78.070312 162.808594 77.890625 164.511719 C 77.71875 166.21875 78.929688 167.46875 80.539062 167.628906 Z M 82.019531 152.910156 C 86.140625 153.328125 87.28125 156.320312 87.109375 157.929688 C 86.941406 159.570312 85.960938 160.808594 84.339844 161.171875 L 84.339844 161.21875 C 86.261719 161.871094 87.238281 163.5 87.03125 165.589844 C 86.679688 169.070312 83.371094 170.488281 80.289062 170.171875 C 77.089844 169.839844 74.148438 167.921875 74.511719 164.339844 C 74.71875 162.230469 76.058594 160.859375 78.050781 160.578125 L 78.050781 160.53125 C 76.488281 159.921875 75.789062 158.5 75.960938 156.871094 C 76.261719 153.878906 79.308594 152.640625 82.011719 152.910156 Z M 82.019531 152.910156 "/>
<path fill-rule="nonzero" fill="rgb(79.998779%, 54.098511%, 0%)" fill-opacity="1" d="M 96.03125 167.691406 C 97.640625 167.539062 98.769531 166.289062 98.621094 164.628906 C 98.46875 163.039062 97.089844 162.089844 95.53125 162.230469 C 93.890625 162.378906 92.671875 163.429688 92.828125 165.128906 C 92.988281 166.839844 94.421875 167.828125 96.03125 167.679688 Z M 95.300781 159.980469 C 96.679688 159.851562 97.71875 158.988281 97.589844 157.570312 C 97.511719 156.71875 96.980469 155.308594 94.890625 155.5 C 93.539062 155.621094 92.429688 156.558594 92.558594 158.03125 C 92.691406 159.480469 93.949219 160.101562 95.300781 159.980469 Z M 94.648438 152.960938 C 98.78125 152.578125 100.460938 155.300781 100.609375 156.910156 C 100.761719 158.550781 100.03125 159.949219 98.511719 160.621094 L 98.511719 160.671875 C 100.53125 160.941406 101.800781 162.351562 102 164.441406 C 102.320312 167.929688 99.351562 169.949219 96.261719 170.230469 C 93.058594 170.519531 89.800781 169.199219 89.46875 165.609375 C 89.28125 163.5 90.320312 161.898438 92.230469 161.238281 L 92.230469 161.191406 C 90.570312 160.890625 89.621094 159.640625 89.46875 158 C 89.199219 155.011719 91.949219 153.199219 94.648438 152.949219 Z M 94.648438 152.960938 "/>
<path fill-rule="nonzero" fill="rgb(79.998779%, 54.098511%, 0%)" fill-opacity="1" d="M 110.519531 155.890625 C 110.078125 154.410156 108.679688 153.210938 107.058594 153.691406 C 105.511719 154.148438 105.058594 155.898438 105.480469 157.339844 C 105.929688 158.851562 107.148438 160.128906 108.820312 159.628906 C 110.558594 159.121094 110.988281 157.46875 110.519531 155.890625 Z M 107.558594 163.898438 C 108.078125 164.910156 109.179688 165.578125 110.300781 165.25 C 112.648438 164.550781 112.359375 161.289062 111.921875 159.480469 L 111.859375 159.449219 C 111.339844 160.96875 110.328125 161.839844 108.78125 162.300781 C 107.410156 162.710938 105.828125 162.480469 104.609375 161.75 C 103.46875 161.019531 102.691406 159.808594 102.320312 158.550781 C 101.351562 155.28125 102.851562 152.03125 106.179688 151.039062 C 111.019531 149.601562 113.578125 153.441406 114.78125 157.488281 C 115.941406 161.398438 115.519531 166.371094 110.980469 167.710938 C 108.21875 168.53125 105.679688 167.519531 104.480469 164.820312 L 107.558594 163.910156 Z M 107.558594 163.898438 "/>
<path fill-rule="nonzero" fill="rgb(79.998779%, 54.098511%, 0%)" fill-opacity="1" d="M 138.660156 136.929688 C 139.980469 135.621094 142.089844 135.621094 143.390625 136.929688 C 144.699219 138.25 144.691406 140.371094 143.371094 141.679688 C 142.050781 142.988281 139.941406 142.960938 138.640625 141.648438 C 137.339844 140.339844 137.339844 138.238281 138.660156 136.929688 "/>
<path fill-rule="nonzero" fill="rgb(79.998779%, 54.098511%, 0%)" fill-opacity="1" d="M 146.640625 91.550781 C 146.601562 92.269531 146.539062 92.988281 146.480469 93.699219 C 146.460938 93.878906 146.449219 94.070312 146.429688 94.25 C 146.339844 95.109375 146.230469 95.96875 146.101562 96.820312 C 146.070312 97.039062 146.03125 97.261719 145.988281 97.488281 C 145.878906 98.148438 145.769531 98.808594 145.640625 99.460938 C 145.589844 99.710938 145.539062 99.960938 145.488281 100.210938 C 145.320312 101.03125 145.128906 101.851562 144.921875 102.660156 C 144.878906 102.820312 144.828125 102.988281 144.789062 103.148438 C 144.609375 103.808594 144.429688 104.46875 144.230469 105.121094 C 144.140625 105.398438 144.050781 105.691406 143.960938 105.96875 C 143.769531 106.570312 143.570312 107.160156 143.359375 107.738281 C 143.28125 107.960938 143.210938 108.179688 143.128906 108.398438 C 142.859375 109.128906 142.570312 109.859375 142.269531 110.578125 C 142.140625 110.890625 142.011719 111.199219 141.871094 111.5 C 141.671875 111.960938 141.460938 112.429688 141.238281 112.878906 C 141.089844 113.199219 140.941406 113.519531 140.789062 113.828125 C 140.46875 114.488281 140.128906 115.140625 139.78125 115.789062 C 139.601562 116.128906 139.410156 116.449219 139.21875 116.789062 C 139.011719 117.160156 138.800781 117.53125 138.578125 117.898438 C 138.359375 118.269531 138.140625 118.628906 137.921875 118.988281 C 137.71875 119.320312 137.5 119.640625 137.289062 119.96875 C 136.871094 120.621094 136.429688 121.261719 135.988281 121.890625 C 135.808594 122.148438 135.621094 122.410156 135.441406 122.671875 C 135.148438 123.070312 134.851562 123.46875 134.539062 123.859375 C 134.371094 124.078125 134.199219 124.289062 134.03125 124.511719 C 132.960938 125.859375 131.828125 127.160156 130.640625 128.410156 C 130.519531 128.539062 130.390625 128.671875 130.261719 128.800781 C 128.949219 130.160156 127.578125 131.449219 126.148438 132.671875 C 126.121094 132.691406 126.089844 132.71875 126.058594 132.738281 C 125.570312 133.148438 125.078125 133.558594 124.578125 133.960938 C 124.539062 133.988281 124.511719 134.019531 124.46875 134.039062 C 122.949219 135.25 121.371094 136.378906 119.730469 137.429688 C 119.699219 137.449219 119.660156 137.46875 119.628906 137.488281 C 118.890625 137.96875 118.128906 138.421875 117.359375 138.859375 C 117.171875 138.96875 116.96875 139.078125 116.78125 139.191406 C 116.058594 139.601562 115.328125 139.988281 114.589844 140.371094 C 114.550781 140.390625 114.511719 140.410156 114.46875 140.429688 C 113.46875 139.230469 111.878906 137.511719 109.601562 135.46875 C 106.648438 132.828125 104.519531 131.929688 103.328125 131.621094 L 103.351562 131.601562 L 102.480469 131.078125 C 102.480469 131.078125 100.761719 130.019531 99.75 128.230469 C 98.808594 126.550781 99.460938 124.109375 100.359375 120.738281 L 100.441406 120.421875 C 101.371094 116.941406 105.640625 105.320312 109.648438 96.410156 C 113.570312 87.679688 112.988281 77.851562 110.390625 72.640625 C 108.460938 68.78125 105.910156 65.820312 104.738281 64.578125 C 106.171875 63.421875 109.089844 60.359375 109.089844 54.601562 C 109.089844 48.839844 106.980469 46.140625 105.660156 45.058594 L 112.800781 39.808594 L 100.109375 39.96875 C 99.191406 39.238281 95.679688 36.851562 89.21875 36.851562 C 82.761719 36.851562 78.808594 39.378906 77.839844 40.101562 L 64.511719 39.859375 L 72.53125 45.410156 C 71.539062 46.828125 69.339844 50.339844 69.339844 53.480469 C 69.339844 59.699219 71.671875 62.738281 72.980469 63.960938 C 71.488281 65.179688 68.351562 68.289062 66.140625 74.351562 C 63.019531 82.890625 64.839844 89.21875 66.78125 93.78125 C 67.488281 95.460938 68.480469 97.839844 69.589844 100.53125 C 71.769531 105.820312 74.480469 112.398438 76.660156 117.289062 L 77.039062 118.128906 C 78.230469 120.769531 78.71875 121.859375 78.71875 125.230469 C 78.71875 129.730469 76.398438 130.988281 76.269531 131.058594 L 75.328125 131.511719 C 74.578125 131.378906 73.320312 131.351562 71.730469 132.109375 C 69.109375 133.359375 65.480469 135.488281 63.480469 137.109375 C 62.449219 137.941406 61.261719 138.941406 60.351562 139.71875 C 60.121094 139.589844 59.878906 139.46875 59.648438 139.339844 C 59.160156 139.070312 58.671875 138.789062 58.191406 138.5 C 57.910156 138.328125 57.621094 138.160156 57.339844 137.980469 C 56.820312 137.660156 56.308594 137.328125 55.808594 137 C 55.53125 136.808594 55.25 136.621094 54.96875 136.429688 C 54.449219 136.070312 53.929688 135.710938 53.429688 135.328125 C 53.171875 135.140625 52.910156 134.941406 52.648438 134.75 C 52.199219 134.410156 51.761719 134.058594 51.320312 133.710938 C 51.121094 133.550781 50.910156 133.390625 50.710938 133.21875 C 50.128906 132.738281 49.558594 132.238281 48.988281 131.730469 C 48.761719 131.519531 48.539062 131.308594 48.308594 131.109375 C 47.898438 130.730469 47.5 130.351562 47.109375 129.960938 C 46.910156 129.761719 46.710938 129.570312 46.511719 129.371094 C 45.96875 128.828125 45.441406 128.269531 44.929688 127.710938 C 44.738281 127.511719 44.558594 127.300781 44.378906 127.089844 C 44 126.660156 43.628906 126.230469 43.261719 125.789062 C 43.078125 125.570312 42.898438 125.359375 42.71875 125.140625 C 42.230469 124.539062 41.75 123.929688 41.28125 123.300781 C 41.140625 123.121094 41.011719 122.941406 40.878906 122.75 C 40.511719 122.25 40.160156 121.75 39.808594 121.238281 C 39.648438 121.011719 39.5 120.789062 39.351562 120.558594 C 38.910156 119.898438 38.46875 119.230469 38.058594 118.550781 C 37.988281 118.429688 37.921875 118.308594 37.851562 118.191406 C 37.488281 117.589844 37.140625 116.980469 36.800781 116.371094 C 36.671875 116.140625 36.550781 115.910156 36.421875 115.671875 C 36.078125 115.039062 35.761719 114.410156 35.449219 113.769531 C 35.390625 113.648438 35.328125 113.539062 35.28125 113.429688 C 34.929688 112.691406 34.589844 111.941406 34.269531 111.191406 C 34.171875 110.960938 34.078125 110.738281 33.988281 110.511719 C 33.730469 109.878906 33.480469 109.25 33.238281 108.609375 C 33.179688 108.441406 33.109375 108.269531 33.050781 108.101562 C 32.769531 107.320312 32.5 106.53125 32.25 105.738281 C 32.179688 105.53125 32.121094 105.320312 32.058594 105.109375 C 31.859375 104.460938 31.671875 103.800781 31.5 103.140625 C 31.449219 102.941406 31.390625 102.738281 31.339844 102.539062 C 31.128906 101.71875 30.941406 100.890625 30.769531 100.058594 C 30.730469 99.878906 30.699219 99.699219 30.660156 99.519531 C 30.519531 98.820312 30.398438 98.128906 30.28125 97.421875 C 30.238281 97.199219 30.210938 96.980469 30.171875 96.75 C 30.039062 95.890625 29.929688 95.03125 29.839844 94.171875 C 29.828125 94.050781 29.820312 93.929688 29.808594 93.800781 C 29.738281 93.03125 29.679688 92.261719 29.628906 91.488281 C 29.621094 91.25 29.601562 91.019531 29.589844 90.78125 C 29.550781 89.890625 29.519531 89 29.519531 88.101562 C 29.519531 55.769531 55.820312 29.480469 88.140625 29.480469 C 120.460938 29.480469 146.761719 55.78125 146.761719 88.101562 C 146.761719 89 146.730469 89.898438 146.691406 90.789062 C 146.679688 91.039062 146.660156 91.28125 146.648438 91.53125 Z M 88.121094 27 C 54.421875 27 27 54.421875 27 88.121094 C 27 121.820312 54.421875 149.238281 88.121094 149.238281 C 121.820312 149.238281 149.238281 121.820312 149.238281 88.121094 C 149.238281 54.421875 121.820312 27 88.121094 27 "/>
<path fill-rule="nonzero" fill="rgb(79.998779%, 54.098511%, 0%)" fill-opacity="1" d="M 88 173.5 C 40.851562 173.5 2.5 135.148438 2.5 88 C 2.5 40.851562 40.851562 2.5 88 2.5 C 135.148438 2.5 173.5 40.851562 173.5 88 C 173.5 135.148438 135.140625 173.5 88 173.5 M 88 0 C 39.480469 0 0 39.480469 0 88 C 0 136.519531 39.480469 176 88 176 C 136.519531 176 176 136.519531 176 88 C 176 39.480469 136.519531 0 88 0 "/>
<path fill-rule="nonzero" fill="rgb(100%, 100%, 100%)" fill-opacity="1" d="M 103.101562 65.039062 L 102.378906 64.351562 L 103.238281 63.851562 C 103.421875 63.75 107.621094 61.199219 107.621094 54.621094 C 107.621094 47.421875 104.21875 45.871094 104.078125 45.808594 L 102.878906 45.289062 L 108.171875 41.390625 L 99.570312 41.5 L 99.351562 41.300781 C 99.351562 41.300781 96.058594 38.371094 89.230469 38.371094 C 82.398438 38.371094 78.621094 41.410156 78.589844 41.449219 L 78.378906 41.628906 L 78.101562 41.628906 L 69.46875 41.46875 L 74.699219 45.078125 L 74.210938 45.710938 C 74.210938 45.710938 70.871094 50.058594 70.871094 53.5 C 70.871094 61.03125 74.46875 63.261719 74.621094 63.351562 L 75.691406 63.988281 L 74.628906 64.640625 C 74.628906 64.640625 70.308594 67.390625 67.570312 74.878906 C 64.628906 82.929688 66.351562 88.898438 68.179688 93.199219 C 68.898438 94.890625 69.878906 97.269531 70.988281 99.96875 C 73.171875 105.25 75.878906 111.820312 78.050781 116.691406 L 78.429688 117.53125 C 79.679688 120.300781 80.238281 121.558594 80.238281 125.25 C 80.238281 128.941406 78.839844 130.871094 77.859375 131.761719 C 79.46875 132.910156 83.601562 135.371094 89.371094 135.371094 C 95.140625 135.371094 99.25 132.910156 100.871094 131.769531 C 100.171875 131.199219 99.179688 130.261719 98.46875 128.988281 C 97.230469 126.78125 97.941406 124.089844 98.941406 120.371094 L 99.019531 120.050781 C 100.070312 116.109375 104.558594 104.148438 108.308594 95.808594 C 112.039062 87.511719 111.519531 78.21875 109.070312 73.328125 C 106.660156 68.5 103.128906 65.070312 103.101562 65.03125 Z M 103.101562 65.039062 "/>
<path fill-rule="nonzero" fill="rgb(100%, 100%, 100%)" fill-opacity="1" d="M 66.789062 140.101562 L 67.460938 141.148438 L 78.628906 134.03125 C 78.179688 133.769531 77.78125 133.519531 77.449219 133.300781 L 66.789062 140.089844 Z M 66.789062 140.101562 "/>
<path fill-rule="nonzero" fill="rgb(100%, 100%, 100%)" fill-opacity="1" d="M 76.351562 144.039062 L 77.398438 144.710938 L 83.03125 135.929688 C 82.609375 135.800781 82.199219 135.671875 81.808594 135.519531 Z M 76.351562 144.039062 "/>
<path fill-rule="nonzero" fill="rgb(100%, 100%, 100%)" fill-opacity="1" d="M 87.75 146.121094 L 89 146.121094 L 89 136.859375 C 88.578125 136.859375 88.160156 136.839844 87.75 136.808594 Z M 87.75 146.121094 "/>
<path fill-rule="nonzero" fill="rgb(100%, 100%, 100%)" fill-opacity="1" d="M 99.101562 144.960938 L 100.160156 144.289062 L 95 136.128906 C 94.589844 136.238281 94.160156 136.339844 93.710938 136.429688 L 99.101562 144.949219 Z M 99.101562 144.960938 "/>
<path fill-rule="nonzero" fill="rgb(100%, 100%, 100%)" fill-opacity="1" d="M 108.460938 141.96875 L 109.300781 141.039062 L 100.949219 133.539062 C 100.621094 133.75 100.25 133.980469 99.820312 134.210938 Z M 108.460938 141.96875 "/>
<path fill-rule="nonzero" fill="rgb(79.998779%, 54.098511%, 0%)" fill-opacity="1" d="M 95.5 76.371094 L 96.726562 76.132812 L 97.480469 80.011719 L 96.25 80.25 Z M 95.5 76.371094 "/>
<path fill-rule="nonzero" fill="rgb(79.998779%, 54.098511%, 0%)" fill-opacity="1" d="M 88.777344 77.71875 L 89.949219 77.285156 L 91.699219 82.035156 L 90.527344 82.464844 Z M 88.777344 77.71875 "/>
<path fill-rule="nonzero" fill="rgb(79.998779%, 54.098511%, 0%)" fill-opacity="1" d="M 85.121094 80.75 L 86.371094 80.75 L 86.371094 85.5 L 85.121094 85.5 Z M 85.121094 80.75 "/>
<path fill-rule="nonzero" fill="rgb(79.998779%, 54.098511%, 0%)" fill-opacity="1" d="M 101.128906 65.328125 L 100.660156 65.570312 C 100.609375 65.601562 95.199219 68.371094 88.570312 68.371094 C 81.941406 68.371094 77.410156 65.441406 77.359375 65.410156 L 76.910156 65.121094 L 72.71875 69.808594 L 73.648438 70.640625 L 77.140625 66.730469 C 77.589844 66.988281 78.359375 67.390625 79.390625 67.808594 L 76.660156 72.808594 L 77.761719 73.410156 L 80.570312 68.261719 C 81.429688 68.558594 82.410156 68.839844 83.488281 69.078125 L 82.179688 74.78125 L 83.398438 75.058594 L 84.71875 69.308594 C 85.691406 69.46875 86.75 69.558594 87.859375 69.589844 L 87.859375 75.429688 L 89.109375 75.429688 L 89.109375 69.601562 C 90.308594 69.570312 91.46875 69.480469 92.550781 69.320312 L 94.109375 74.789062 L 95.308594 74.449219 L 93.789062 69.109375 C 94.980469 68.878906 96.078125 68.601562 97.03125 68.308594 L 99.25 73.390625 L 100.390625 72.890625 L 98.21875 67.921875 C 99.371094 67.519531 100.25 67.140625 100.75 66.910156 L 104 71.160156 L 104.988281 70.398438 L 101.109375 65.328125 Z M 101.128906 65.328125 "/>
<path fill-rule="nonzero" fill="rgb(79.998779%, 54.098511%, 0%)" fill-opacity="1" d="M 83.527344 57.207031 L 84.703125 56.785156 L 86.953125 63.03125 L 85.777344 63.457031 Z M 83.527344 57.207031 "/>
<path fill-rule="nonzero" fill="rgb(79.998779%, 54.098511%, 0%)" fill-opacity="1" d="M 84.371094 41.75 L 85.621094 41.75 L 85.621094 44 L 84.371094 44 Z M 84.371094 41.75 "/>
<path fill-rule="nonzero" fill="rgb(79.998779%, 54.098511%, 0%)" fill-opacity="1" d="M 91.371094 41.75 L 92.621094 41.75 L 92.621094 44 L 91.371094 44 Z M 91.371094 41.75 "/>
<path fill-rule="nonzero" fill="rgb(79.998779%, 54.098511%, 0%)" fill-opacity="1" d="M 87.75 41.75 L 89.25 41.75 L 89.25 45.25 L 87.75 45.25 Z M 87.75 41.75 "/>
<path fill-rule="nonzero" fill="rgb(79.998779%, 54.098511%, 0%)" fill-opacity="1" d="M 95.941406 53.128906 C 94.839844 53.128906 93.941406 52.230469 93.941406 51.128906 C 93.941406 50.03125 94.839844 49.128906 95.941406 49.128906 C 97.039062 49.128906 97.941406 50.03125 97.941406 51.128906 C 97.941406 52.230469 97.039062 53.128906 95.941406 53.128906 M 81.058594 53.121094 C 79.960938 53.121094 79.058594 52.21875 79.058594 51.121094 C 79.058594 50.019531 79.960938 49.121094 81.058594 49.121094 C 82.160156 49.121094 83.058594 50.019531 83.058594 51.121094 C 83.058594 52.21875 82.160156 53.121094 81.058594 53.121094 M 95.941406 47.878906 C 95.941406 47.878906 95.859375 47.890625 95.820312 47.890625 L 98.011719 45.640625 L 97.109375 44.769531 L 88.441406 53.679688 L 79.890625 44.769531 L 78.988281 45.640625 L 81.148438 47.890625 L 81.070312 47.890625 C 79.28125 47.890625 77.820312 49.351562 77.820312 51.140625 C 77.820312 52.929688 79.28125 54.390625 81.070312 54.390625 C 82.859375 54.390625 84.28125 52.960938 84.308594 51.191406 L 87.878906 54.910156 L 87.878906 65.761719 L 89.128906 65.761719 L 89.128906 54.78125 L 92.691406 51.121094 L 92.691406 51.140625 C 92.691406 52.929688 94.148438 54.390625 95.941406 54.390625 C 97.730469 54.390625 99.191406 52.929688 99.191406 51.140625 C 99.191406 49.351562 97.730469 47.890625 95.941406 47.890625 Z M 95.941406 47.878906 "/>
<path fill-rule="nonzero" fill="rgb(79.998779%, 54.098511%, 0%)" fill-opacity="1" d="M 91.339844 48.980469 L 90.460938 48.101562 L 88.511719 50.039062 L 86.691406 48.109375 L 85.78125 48.96875 L 88.480469 51.839844 Z M 91.339844 48.980469 "/>
<path fill-rule="nonzero" fill="rgb(79.998779%, 54.098511%, 0%)" fill-opacity="1" d="M 89.558594 120.25 L 90.808594 120.25 L 90.808594 132.25 L 89.558594 132.25 Z M 89.558594 120.25 "/>
<path fill-rule="nonzero" fill="rgb(79.998779%, 54.098511%, 0%)" fill-opacity="1" d="M 86.058594 120.121094 L 87.308594 120.121094 L 87.308594 132.238281 L 86.058594 132.238281 Z M 86.058594 120.121094 "/>
<path fill-rule="nonzero" fill="rgb(79.998779%, 54.098511%, 0%)" fill-opacity="1" d="M 78.152344 110.335938 L 79.324219 109.898438 L 81.324219 115.28125 L 80.15625 115.714844 Z M 78.152344 110.335938 "/>
<path fill-rule="nonzero" fill="rgb(79.998779%, 54.098511%, 0%)" fill-opacity="1" d="M 90.910156 114.058594 L 91.652344 108.226562 L 92.890625 108.386719 L 92.148438 114.21875 Z M 90.910156 114.058594 "/>
<path fill-rule="nonzero" fill="rgb(79.998779%, 54.098511%, 0%)" fill-opacity="1" d="M 94.933594 116.46875 L 96.808594 112.597656 L 97.933594 113.140625 L 96.058594 117.011719 Z M 94.933594 116.46875 "/>
<path fill-rule="nonzero" fill="rgb(79.998779%, 54.098511%, 0%)" fill-opacity="1" d="M 97.675781 107.824219 L 100.671875 104.699219 L 101.574219 105.566406 L 98.578125 108.691406 Z M 97.675781 107.824219 "/>
<path fill-rule="nonzero" fill="rgb(79.998779%, 54.098511%, 0%)" fill-opacity="1" d="M 96.960938 102.425781 L 99.835938 97.550781 L 100.914062 98.1875 L 98.039062 103.0625 Z M 96.960938 102.425781 "/>
<path fill-rule="nonzero" fill="rgb(79.998779%, 54.098511%, 0%)" fill-opacity="1" d="M 95.511719 93.109375 L 96.742188 92.882812 L 97.742188 98.261719 L 96.515625 98.488281 Z M 95.511719 93.109375 "/>
<path fill-rule="nonzero" fill="rgb(79.998779%, 54.098511%, 0%)" fill-opacity="1" d="M 92.5 96.121094 L 93.75 96.121094 L 93.75 101.5 L 92.5 101.5 Z M 92.5 96.121094 "/>
<path fill-rule="nonzero" fill="rgb(79.998779%, 54.098511%, 0%)" fill-opacity="1" d="M 87.808594 103.25 L 89.058594 103.25 L 89.058594 107.871094 L 87.808594 107.871094 Z M 87.808594 103.25 "/>
<path fill-rule="nonzero" fill="rgb(79.998779%, 54.098511%, 0%)" fill-opacity="1" d="M 78.425781 101.152344 L 79.558594 100.621094 L 81.433594 104.621094 L 80.300781 105.152344 Z M 78.425781 101.152344 "/>
<path fill-rule="nonzero" fill="rgb(79.998779%, 54.098511%, 0%)" fill-opacity="1" d="M 72.179688 95.769531 L 73.308594 95.234375 L 75.929688 100.730469 L 74.804688 101.265625 Z M 72.179688 95.769531 "/>
<path fill-rule="nonzero" fill="rgb(79.998779%, 54.098511%, 0%)" fill-opacity="1" d="M 77.367188 94.753906 L 78.375 94.015625 L 82.125 99.140625 L 81.117188 99.878906 Z M 77.367188 94.753906 "/>
<path fill-rule="nonzero" fill="rgb(79.998779%, 54.098511%, 0%)" fill-opacity="1" d="M 87.808594 87.191406 L 89.058594 87.191406 L 89.058594 92.808594 L 87.808594 92.808594 Z M 87.808594 87.191406 "/>
<path fill-rule="nonzero" fill="rgb(79.998779%, 54.098511%, 0%)" fill-opacity="1" d="M 102.871094 90.878906 L 104.121094 90.878906 L 104.121094 94.5 L 102.871094 94.5 Z M 102.871094 90.878906 "/>
<path fill-rule="nonzero" fill="rgb(79.998779%, 54.098511%, 0%)" fill-opacity="1" d="M 103.410156 83.511719 L 104.578125 83.058594 L 106.296875 87.488281 L 105.128906 87.9375 Z M 103.410156 83.511719 "/>
<path fill-rule="nonzero" fill="rgb(79.998779%, 54.098511%, 0%)" fill-opacity="1" d="M 79.878906 89.453125 L 80.25 84.949219 L 81.496094 85.050781 L 81.125 89.554688 Z M 79.878906 89.453125 "/>
<path fill-rule="nonzero" fill="rgb(79.998779%, 54.098511%, 0%)" fill-opacity="1" d="M 70.640625 91.246094 L 72.015625 84.75 L 73.238281 85.007812 L 71.863281 91.503906 Z M 70.640625 91.246094 "/>
<path fill-rule="nonzero" fill="rgb(79.998779%, 54.098511%, 0%)" fill-opacity="1" d="M 71.75 76.882812 L 73 76.847656 L 73.125 81.597656 L 71.875 81.628906 Z M 71.75 76.882812 "/>
<path fill-rule="nonzero" fill="rgb(79.998779%, 54.098511%, 0%)" fill-opacity="1" d="M 79.652344 81.664062 L 81.40625 76.535156 L 82.589844 76.941406 L 80.835938 82.070312 Z M 79.652344 81.664062 "/>
<path fill-rule="nonzero" fill="rgb(79.998779%, 54.098511%, 0%)" fill-opacity="1" d="M 94.074219 86.980469 L 96.199219 82.734375 L 97.316406 83.292969 L 95.191406 87.539062 Z M 94.074219 86.980469 "/>
<path fill-rule="nonzero" fill="rgb(79.998779%, 54.098511%, 0%)" fill-opacity="1" d="M 99.511719 76.21875 L 100.746094 76.042969 L 101.25 79.546875 L 100.011719 79.722656 Z M 99.511719 76.21875 "/>
<path fill-rule="nonzero" fill="rgb(79.998779%, 54.098511%, 0%)" fill-opacity="1" d="M 89.902344 63.035156 L 92.152344 56.789062 L 93.328125 57.210938 L 91.078125 63.457031 Z M 89.902344 63.035156 "/>
</svg>
