<svg width="1749" height="1792" viewBox="0 0 1749 1792" fill="none" xmlns="http://www.w3.org/2000/svg">
<path d="M153.528 1775.99V1325.72H1.11743V1276.2C68.3735 1272.34 106.195 1262.68 131.535 1242.92C156.918 1223.13 170.766 1192.45 179.219 1137.16H234.984V1775.99H153.528Z" fill="white"/>
<path d="M1039.29 1788.46C975.228 1788.46 920.323 1771.45 880.52 1739.27C840.716 1707.09 819.67 1662.67 819.67 1610.82C819.67 1540.16 862.181 1480.32 930.626 1454.66L933.334 1453.66L930.648 1452.58C864.162 1426.05 824.491 1369.06 824.491 1300.1C824.491 1248.87 845.031 1204.99 883.91 1173.26C922.811 1141.48 976.549 1124.7 1039.29 1124.7C1102.04 1124.7 1155.55 1141.48 1194.52 1173.26C1233.51 1205.06 1254.12 1248.92 1254.12 1300.1C1254.12 1368.97 1214.29 1425.96 1147.61 1452.56L1144.9 1453.63L1147.63 1454.64C1216.01 1480.19 1258.5 1540.05 1258.5 1610.82C1258.5 1662.72 1237.54 1707.14 1197.87 1739.27C1158.17 1771.45 1103.33 1788.46 1039.29 1788.46ZM1039.29 1481.31C955.613 1481.31 901.544 1530.23 901.544 1605.91C901.544 1681.59 955.613 1730.51 1039.29 1730.51C1122.97 1730.51 1176.6 1681.59 1176.6 1605.91C1176.6 1530.23 1122.71 1481.31 1039.29 1481.31ZM1039.29 1182.16C957.748 1182.16 905.044 1230.2 905.044 1304.54C905.044 1378.87 957.726 1426.92 1039.29 1426.92C1120.86 1426.92 1173.54 1378.87 1173.54 1304.54C1173.54 1230.2 1120.86 1182.16 1039.29 1182.16Z" fill="white"/>
<path d="M1515.76 1790.24C1460.08 1790.24 1412.36 1774.33 1377.75 1744.25C1341.95 1713.12 1320.29 1666.62 1315.07 1609.7H1395.21C1402.96 1685.94 1446.85 1729.62 1515.76 1729.62C1568.6 1729.62 1608.36 1702.66 1633.89 1649.5C1655.71 1604.05 1666.76 1540.84 1666.72 1461.57V1455.99L1664.6 1461.15C1641.36 1517.8 1578.64 1554.42 1504.82 1554.42C1388.67 1554.42 1307.52 1467.98 1307.52 1344.23C1307.52 1213.98 1393.14 1126.45 1520.58 1126.45C1598.01 1126.45 1656.86 1158.09 1695.49 1220.48C1730.1 1276.4 1747.67 1354.92 1747.67 1453.88C1747.67 1552.85 1729.48 1634.24 1695.05 1691.25C1655.4 1756.94 1595.08 1790.24 1515.78 1790.24H1515.76ZM1518.84 1186.62C1443.16 1186.62 1390.3 1249.41 1390.3 1339.32C1390.3 1429.23 1442.82 1493.35 1521.02 1493.35C1559.33 1493.35 1592.15 1478.83 1615.95 1451.35C1639.66 1423.97 1652.19 1386.32 1652.19 1342.44C1652.19 1298.56 1638.98 1259.21 1615.03 1230.93C1590.83 1202.35 1556.66 1186.62 1518.82 1186.62H1518.84Z" fill="white"/>
<path d="M543.95 1788.46C479.886 1788.46 424.981 1771.45 385.177 1739.27C345.374 1707.09 324.328 1662.67 324.328 1610.82C324.328 1540.16 366.839 1480.32 435.284 1454.66L437.991 1453.66L435.306 1452.58C368.82 1426.05 329.149 1369.06 329.149 1300.1C329.149 1248.87 349.689 1204.99 388.568 1173.26C427.468 1141.48 481.207 1124.7 543.95 1124.7C606.693 1124.7 660.212 1141.48 699.178 1173.26C738.167 1205.06 758.773 1248.92 758.773 1300.1C758.773 1368.97 718.948 1425.96 652.264 1452.56L649.556 1453.63L652.286 1454.64C720.687 1480.19 763.154 1540.05 763.154 1610.82C763.154 1662.72 742.196 1707.14 702.525 1739.27C662.831 1771.45 607.992 1788.46 543.95 1788.46ZM543.95 1481.31C460.271 1481.31 406.202 1530.23 406.202 1605.91C406.202 1681.59 460.271 1730.51 543.95 1730.51C627.629 1730.51 681.258 1681.59 681.258 1605.91C681.258 1530.23 627.365 1481.31 543.95 1481.31ZM543.95 1182.16C462.406 1182.16 409.724 1230.2 409.724 1304.54C409.724 1378.87 462.406 1426.92 543.95 1426.92C625.494 1426.92 678.198 1378.87 678.198 1304.54C678.198 1230.2 625.516 1182.16 543.95 1182.16Z" fill="white"/>
<path d="M801.329 1053.28V732.228H546.108L416.417 1053.28H4.09692L486.249 0H1358.99C1597.72 0 1740.25 104.521 1740.25 279.611C1740.25 399.505 1675.72 485.313 1558.54 521.282L1555.04 522.357L1558.56 523.433C1678.98 560.051 1745.31 647.63 1745.31 769.989C1745.31 947.365 1601.71 1053.28 1361.17 1053.28H801.329ZM1173.56 975.198L1174.92 974.84C1300.85 942.614 1373.06 855.663 1373.06 736.262C1373.06 650.454 1337.9 578.696 1268.6 522.94C1335.52 467.565 1369.47 398.026 1369.47 316.251C1369.47 198.329 1296.76 109.406 1174.95 78.413L1173.58 78.0544V975.176L1173.56 975.198ZM799.193 79.2646C761.327 187.685 666.927 432.762 579.593 649.355L578.976 650.902H801.351V73.1466L799.215 79.2646H799.193Z" fill="white"/>
</svg>
