<?xml version="1.0" encoding="UTF-8"?>
<svg id="Layer_1" xmlns="http://www.w3.org/2000/svg" xmlns:xlink="http://www.w3.org/1999/xlink" version="1.1" viewBox="0 0 2000 2000">
  <!-- Generator: Adobe Illustrator 30.3.0, SVG Export Plug-In . SVG Version: 2.1.3 Build 182)  -->
  <defs>
    <style>
      .st0 {
        fill: none;
      }

      .st1 {
        fill: url(#New_Pattern_3);
      }

      .st2 {
        fill: #d6a02a;
      }

      .st3 {
        fill: #006a52;
      }
    </style>
    <pattern id="New_Pattern_3" data-name="New Pattern 3" x="0" y="0" width="1031" height="1000" patternTransform="translate(4524.6 -5825.2) rotate(-45)" patternUnits="userSpaceOnUse" viewBox="0 0 1031 1000">
      <g>
        <rect class="st0" y="0" width="1031" height="1000"/>
        <path class="st3" d="M2072.6,950.1c0-64.4-28.3-102.9-75.4-102.9-32.7,0-55.7,17.7-65.3,48.8-9.5-30.3-31.9-47.4-64-47.4-46.5,0-74.4,38.2-74.4,102.2,0,0,0,25.5,0,40,0,10.9-2.4,21.7-7.7,31.3-10.3,18.8-28.1,29.3-51.9,29.3-23.3,0-43-9.5-57.6-27.3-14.7,18.4-35.3,28.3-59.1,28.3s-43.5-11.5-53.5-32.1c-4.5-9.2-6.6-19.3-6.6-29.5v-40.5c0-64.4-28.3-102.9-75.4-102.9-32.7,0-55.7,17.7-65.3,48.8-9.5-30.3-31.9-47.4-64-47.4-46.5,0-74.4,38.2-74.4,102.2,0,0,0,25.5,0,40,0,10.9-2.4,21.7-7.7,31.3-10.3,18.8-28.1,29.3-51.9,29.3-23.3,0-43-9.5-57.6-27.3-14.7,18.4-35.3,28.3-59.1,28.3-32.4,0-53.7-19.2-60.1-52.3h-21.3v50.2c0,64.4,28.3,102.9,75.4,102.9,32.7,0,55.7-17.7,65.3-48.8,9.5,30.3,31.9,47.4,64,47.4,46.5,0,74.4-38.2,74.4-102.2v-39.9c-.1-10.9,2.3-21.7,7.5-31.3,10.2-18.8,28.1-29.3,51.9-29.3,23.3,0,43,9.5,57.6,27.3,14.7-18.4,35.3-28.3,59.1-28.3,25.1,0,43.5,11.5,53.5,32.1,4.5,9.2,6.6,19.3,6.6,29.5v40.5c0,64.4,28.3,102.9,75.4,102.9,32.7,0,55.7-17.7,65.3-48.8,9.5,30.3,31.9,47.4,64,47.4,46.5,0,74.4-38.2,74.4-102.2v-39.9c-.1-10.9,2.3-21.7,7.5-31.3,10.2-18.8,28.1-29.3,51.9-29.3,23.3,0,43,9.5,57.6,27.3,14.7-18.4,35.3-28.3,59.1-28.3,32.4,0,53.7,19.2,60.1,52.3h21.3s0-50.2,0-50.2Z"/>
        <path class="st3" d="M1041.6,950.1c0-64.4-28.3-102.9-75.4-102.9-32.7,0-55.7,17.7-65.3,48.8-9.5-30.3-31.9-47.4-64-47.4-46.5,0-74.4,38.2-74.4,102.2,0,0,0,25.5,0,40,0,10.9-2.4,21.7-7.7,31.3-10.3,18.8-28.1,29.3-51.9,29.3-23.3,0-43-9.5-57.6-27.3-14.7,18.4-35.3,28.3-59.1,28.3s-43.5-11.5-53.5-32.1c-4.5-9.2-6.6-19.3-6.6-29.5v-40.5c0-64.4-28.3-102.9-75.4-102.9-32.7,0-55.7,17.7-65.3,48.8-9.5-30.3-31.9-47.4-64-47.4-46.5,0-74.4,38.2-74.4,102.2,0,0,0,25.5,0,40,0,10.9-2.4,21.7-7.7,31.3-10.3,18.8-28.1,29.3-51.9,29.3-23.3,0-43-9.5-57.6-27.3-14.7,18.4-35.3,28.3-59.1,28.3-32.4,0-53.7-19.2-60.1-52.3H-10.6v50.2c0,64.4,28.3,102.9,75.4,102.9,32.7,0,55.7-17.7,65.3-48.8,9.5,30.3,31.9,47.4,64,47.4,46.5,0,74.4-38.2,74.4-102.2v-39.9c-.1-10.9,2.3-21.7,7.5-31.3,10.2-18.8,28.1-29.3,51.9-29.3,23.3,0,43,9.5,57.6,27.3,14.7-18.4,35.3-28.3,59.1-28.3,25.1,0,43.5,11.5,53.5,32.1,4.5,9.2,6.6,19.3,6.6,29.5v40.5c0,64.4,28.3,102.9,75.4,102.9,32.7,0,55.7-17.7,65.3-48.8,9.5,30.3,31.9,47.4,64,47.4,46.5,0,74.4-38.2,74.4-102.2v-39.9c-.1-10.9,2.3-21.7,7.5-31.3,10.2-18.8,28.1-29.3,51.9-29.3,23.3,0,43,9.5,57.6,27.3,14.7-18.4,35.3-28.3,59.1-28.3,32.4,0,53.7,19.2,60.1,52.3h21.3s0-50.2,0-50.2Z"/>
        <path class="st3" d="M10.6,950.1c0-64.4-28.3-102.9-75.4-102.9-32.7,0-55.7,17.7-65.3,48.8-9.5-30.3-31.9-47.4-64-47.4-46.5,0-74.4,38.2-74.4,102.2,0,0,0,25.5,0,40,0,10.9-2.4,21.7-7.7,31.3-10.3,18.8-28.1,29.3-51.9,29.3-23.3,0-43-9.5-57.6-27.3-14.7,18.4-35.3,28.3-59.1,28.3s-43.5-11.5-53.5-32.1-6.6-19.3-6.6-29.5v-40.5c0-64.4-28.3-102.9-75.4-102.9-32.7,0-55.7,17.7-65.3,48.8-9.5-30.3-31.9-47.4-64-47.4-46.5,0-74.4,38.2-74.4,102.2,0,0,0,25.5,0,40,0,10.9-2.4,21.7-7.7,31.3-10.3,18.8-28.1,29.3-51.9,29.3-23.3,0-43-9.5-57.6-27.3-14.7,18.4-35.3,28.3-59.1,28.3-32.4,0-53.7-19.2-60.1-52.3h-21.3v50.2c0,64.4,28.3,102.9,75.4,102.9,32.7,0,55.7-17.7,65.3-48.8,9.5,30.3,31.9,47.4,64,47.4,46.5,0,74.4-38.2,74.4-102.2v-39.9c-.1-10.9,2.3-21.7,7.5-31.3,10.2-18.8,28.1-29.3,51.9-29.3,23.3,0,43,9.5,57.6,27.3,14.7-18.4,35.3-28.3,59.1-28.3,25.1,0,43.5,11.5,53.5,32.1,4.5,9.2,6.6,19.3,6.6,29.5v40.5c0,64.4,28.3,102.9,75.4,102.9,32.7,0,55.7-17.7,65.3-48.8,9.5,30.3,31.9,47.4,64,47.4,46.5,0,74.4-38.2,74.4-102.2v-39.9c-.1-10.9,2.3-21.7,7.5-31.3,10.2-18.8,28.1-29.3,51.9-29.3,23.3,0,43,9.5,57.6,27.3,14.7-18.4,35.3-28.3,59.1-28.3,32.4,0,53.7,19.2,60.1,52.3H10.6s0-50.2,0-50.2Z"/>
        <path class="st3" d="M2072.6,700.1c0-64.4-28.3-102.9-75.4-102.9-32.7,0-55.7,17.7-65.3,48.8-9.5-30.3-31.9-47.4-64-47.4-46.5,0-74.4,38.2-74.4,102.2,0,0,0,25.5,0,40,0,10.9-2.4,21.7-7.7,31.3-10.3,18.8-28.1,29.3-51.9,29.3-23.3,0-43-9.5-57.6-27.3-14.7,18.4-35.3,28.3-59.1,28.3-25.1,0-43.5-11.5-53.5-32.1-4.5-9.2-6.6-19.3-6.6-29.5v-40.5c0-64.4-28.3-102.9-75.4-102.9-32.7,0-55.7,17.7-65.3,48.8-9.5-30.3-31.9-47.4-64-47.4-46.5,0-74.4,38.2-74.4,102.2,0,0,0,25.5,0,40,0,10.9-2.4,21.7-7.7,31.3-10.3,18.8-28.1,29.3-51.9,29.3-23.3,0-43-9.5-57.6-27.3-14.7,18.4-35.3,28.3-59.1,28.3-32.4,0-53.7-19.2-60.1-52.3h-21.3v50.2c0,64.4,28.3,102.9,75.4,102.9,32.7,0,55.7-17.7,65.3-48.8,9.5,30.3,31.9,47.4,64,47.4,46.5,0,74.4-38.2,74.4-102.2v-39.9c-.1-10.9,2.3-21.7,7.5-31.3,10.2-18.8,28.1-29.3,51.9-29.3,23.3,0,43,9.5,57.6,27.3,14.7-18.4,35.3-28.3,59.1-28.3,25.1,0,43.5,11.5,53.5,32.1,4.5,9.2,6.6,19.3,6.6,29.5v40.5c0,64.4,28.3,102.9,75.4,102.9,32.7,0,55.7-17.7,65.3-48.8,9.5,30.3,31.9,47.4,64,47.4,46.5,0,74.4-38.2,74.4-102.2v-39.9c-.1-10.9,2.3-21.7,7.5-31.3,10.2-18.8,28.1-29.3,51.9-29.3,23.3,0,43,9.5,57.6,27.3,14.7-18.4,35.3-28.3,59.1-28.3,32.4,0,53.7,19.2,60.1,52.3h21.3s0-50.2,0-50.2Z"/>
        <path class="st3" d="M1041.6,700.1c0-64.4-28.3-102.9-75.4-102.9-32.7,0-55.7,17.7-65.3,48.8-9.5-30.3-31.9-47.4-64-47.4-46.5,0-74.4,38.2-74.4,102.2,0,0,0,25.5,0,40,0,10.9-2.4,21.7-7.7,31.3-10.3,18.8-28.1,29.3-51.9,29.3-23.3,0-43-9.5-57.6-27.3-14.7,18.4-35.3,28.3-59.1,28.3-25.1,0-43.5-11.5-53.5-32.1-4.5-9.2-6.6-19.3-6.6-29.5v-40.5c0-64.4-28.3-102.9-75.4-102.9-32.7,0-55.7,17.7-65.3,48.8-9.5-30.3-31.9-47.4-64-47.4-46.5,0-74.4,38.2-74.4,102.2,0,0,0,25.5,0,40,0,10.9-2.4,21.7-7.7,31.3-10.3,18.8-28.1,29.3-51.9,29.3-23.3,0-43-9.5-57.6-27.3-14.7,18.4-35.3,28.3-59.1,28.3-32.4,0-53.7-19.2-60.1-52.3H-10.6v50.2c0,64.4,28.3,102.9,75.4,102.9,32.7,0,55.7-17.7,65.3-48.8,9.5,30.3,31.9,47.4,64,47.4,46.5,0,74.4-38.2,74.4-102.2v-39.9c-.1-10.9,2.3-21.7,7.5-31.3,10.2-18.8,28.1-29.3,51.9-29.3,23.3,0,43,9.5,57.6,27.3,14.7-18.4,35.3-28.3,59.1-28.3,25.1,0,43.5,11.5,53.5,32.1,4.5,9.2,6.6,19.3,6.6,29.5v40.5c0,64.4,28.3,102.9,75.4,102.9,32.7,0,55.7-17.7,65.3-48.8,9.5,30.3,31.9,47.4,64,47.4,46.5,0,74.4-38.2,74.4-102.2v-39.9c-.1-10.9,2.3-21.7,7.5-31.3,10.2-18.8,28.1-29.3,51.9-29.3,23.3,0,43,9.5,57.6,27.3,14.7-18.4,35.3-28.3,59.1-28.3,32.4,0,53.7,19.2,60.1,52.3h21.3s0-50.2,0-50.2Z"/>
        <path class="st3" d="M10.6,700.1c0-64.4-28.3-102.9-75.4-102.9-32.7,0-55.7,17.7-65.3,48.8-9.5-30.3-31.9-47.4-64-47.4-46.5,0-74.4,38.2-74.4,102.2,0,0,0,25.5,0,40,0,10.9-2.4,21.7-7.7,31.3-10.3,18.8-28.1,29.3-51.9,29.3-23.3,0-43-9.5-57.6-27.3-14.7,18.4-35.3,28.3-59.1,28.3-25.1,0-43.5-11.5-53.5-32.1s-6.6-19.3-6.6-29.5v-40.5c0-64.4-28.3-102.9-75.4-102.9-32.7,0-55.7,17.7-65.3,48.8-9.5-30.3-31.9-47.4-64-47.4-46.5,0-74.4,38.2-74.4,102.2,0,0,0,25.5,0,40,0,10.9-2.4,21.7-7.7,31.3-10.3,18.8-28.1,29.3-51.9,29.3-23.3,0-43-9.5-57.6-27.3-14.7,18.4-35.3,28.3-59.1,28.3-32.4,0-53.7-19.2-60.1-52.3h-21.3v50.2c0,64.4,28.3,102.9,75.4,102.9,32.7,0,55.7-17.7,65.3-48.8,9.5,30.3,31.9,47.4,64,47.4,46.5,0,74.4-38.2,74.4-102.2v-39.9c-.1-10.9,2.3-21.7,7.5-31.3,10.2-18.8,28.1-29.3,51.9-29.3,23.3,0,43,9.5,57.6,27.3,14.7-18.4,35.3-28.3,59.1-28.3,25.1,0,43.5,11.5,53.5,32.1,4.5,9.2,6.6,19.3,6.6,29.5v40.5c0,64.4,28.3,102.9,75.4,102.9,32.7,0,55.7-17.7,65.3-48.8,9.5,30.3,31.9,47.4,64,47.4,46.5,0,74.4-38.2,74.4-102.2v-39.9c-.1-10.9,2.3-21.7,7.5-31.3,10.2-18.8,28.1-29.3,51.9-29.3,23.3,0,43,9.5,57.6,27.3,14.7-18.4,35.3-28.3,59.1-28.3,32.4,0,53.7,19.2,60.1,52.3H10.6s0-50.2,0-50.2Z"/>
        <path class="st3" d="M2072.6,450.1c0-64.4-28.3-102.9-75.4-102.9-32.7,0-55.7,17.7-65.3,48.8-9.5-30.3-31.9-47.4-64-47.4-46.5,0-74.4,38.2-74.4,102.2,0,0,0,25.5,0,40,0,10.9-2.4,21.7-7.7,31.3-10.3,18.8-28.1,29.3-51.9,29.3-23.3,0-43-9.5-57.6-27.3-14.7,18.4-35.3,28.3-59.1,28.3-25.1,0-43.5-11.5-53.5-32.1-4.5-9.2-6.6-19.3-6.6-29.5v-40.5c0-64.4-28.3-102.9-75.4-102.9-32.7,0-55.7,17.7-65.3,48.8-9.5-30.3-31.9-47.4-64-47.4-46.5,0-74.4,38.2-74.4,102.2,0,0,0,25.5,0,40,0,10.9-2.4,21.7-7.7,31.3-10.3,18.8-28.1,29.3-51.9,29.3-23.3,0-43-9.5-57.6-27.3-14.7,18.4-35.3,28.3-59.1,28.3-32.4,0-53.7-19.2-60.1-52.3h-21.3v50.2c0,64.4,28.3,102.9,75.4,102.9,32.7,0,55.7-17.7,65.3-48.8,9.5,30.3,31.9,47.4,64,47.4,46.5,0,74.4-38.2,74.4-102.2v-39.9c-.1-10.9,2.3-21.7,7.5-31.3,10.2-18.8,28.1-29.3,51.9-29.3,23.3,0,43,9.5,57.6,27.3,14.7-18.4,35.3-28.3,59.1-28.3,25.1,0,43.5,11.5,53.5,32.1,4.5,9.2,6.6,19.3,6.6,29.5v40.5c0,64.4,28.3,102.9,75.4,102.9,32.7,0,55.7-17.7,65.3-48.8,9.5,30.3,31.9,47.4,64,47.4,46.5,0,74.4-38.2,74.4-102.2v-39.9c-.1-10.9,2.3-21.7,7.5-31.3,10.2-18.8,28.1-29.3,51.9-29.3,23.3,0,43,9.5,57.6,27.3,14.7-18.4,35.3-28.3,59.1-28.3,32.4,0,53.7,19.2,60.1,52.3h21.3s0-50.2,0-50.2Z"/>
        <path class="st3" d="M1041.6,450.1c0-64.4-28.3-102.9-75.4-102.9-32.7,0-55.7,17.7-65.3,48.8-9.5-30.3-31.9-47.4-64-47.4-46.5,0-74.4,38.2-74.4,102.2,0,0,0,25.5,0,40,0,10.9-2.4,21.7-7.7,31.3-10.3,18.8-28.1,29.3-51.9,29.3-23.3,0-43-9.5-57.6-27.3-14.7,18.4-35.3,28.3-59.1,28.3-25.1,0-43.5-11.5-53.5-32.1-4.5-9.2-6.6-19.3-6.6-29.5v-40.5c0-64.4-28.3-102.9-75.4-102.9-32.7,0-55.7,17.7-65.3,48.8-9.5-30.3-31.9-47.4-64-47.4-46.5,0-74.4,38.2-74.4,102.2,0,0,0,25.5,0,40,0,10.9-2.4,21.7-7.7,31.3-10.3,18.8-28.1,29.3-51.9,29.3-23.3,0-43-9.5-57.6-27.3-14.7,18.4-35.3,28.3-59.1,28.3-32.4,0-53.7-19.2-60.1-52.3H-10.6v50.2c0,64.4,28.3,102.9,75.4,102.9,32.7,0,55.7-17.7,65.3-48.8,9.5,30.3,31.9,47.4,64,47.4,46.5,0,74.4-38.2,74.4-102.2v-39.9c-.1-10.9,2.3-21.7,7.5-31.3,10.2-18.8,28.1-29.3,51.9-29.3,23.3,0,43,9.5,57.6,27.3,14.7-18.4,35.3-28.3,59.1-28.3,25.1,0,43.5,11.5,53.5,32.1,4.5,9.2,6.6,19.3,6.6,29.5v40.5c0,64.4,28.3,102.9,75.4,102.9,32.7,0,55.7-17.7,65.3-48.8,9.5,30.3,31.9,47.4,64,47.4,46.5,0,74.4-38.2,74.4-102.2v-39.9c-.1-10.9,2.3-21.7,7.5-31.3,10.2-18.8,28.1-29.3,51.9-29.3,23.3,0,43,9.5,57.6,27.3,14.7-18.4,35.3-28.3,59.1-28.3,32.4,0,53.7,19.2,60.1,52.3h21.3s0-50.2,0-50.2Z"/>
        <path class="st3" d="M10.6,450.1c0-64.4-28.3-102.9-75.4-102.9-32.7,0-55.7,17.7-65.3,48.8-9.5-30.3-31.9-47.4-64-47.4-46.5,0-74.4,38.2-74.4,102.2,0,0,0,25.5,0,40,0,10.9-2.4,21.7-7.7,31.3-10.3,18.8-28.1,29.3-51.9,29.3-23.3,0-43-9.5-57.6-27.3-14.7,18.4-35.3,28.3-59.1,28.3-25.1,0-43.5-11.5-53.5-32.1s-6.6-19.3-6.6-29.5v-40.5c0-64.4-28.3-102.9-75.4-102.9-32.7,0-55.7,17.7-65.3,48.8-9.5-30.3-31.9-47.4-64-47.4-46.5,0-74.4,38.2-74.4,102.2,0,0,0,25.5,0,40,0,10.9-2.4,21.7-7.7,31.3-10.3,18.8-28.1,29.3-51.9,29.3-23.3,0-43-9.5-57.6-27.3-14.7,18.4-35.3,28.3-59.1,28.3-32.4,0-53.7-19.2-60.1-52.3h-21.3v50.2c0,64.4,28.3,102.9,75.4,102.9,32.7,0,55.7-17.7,65.3-48.8,9.5,30.3,31.9,47.4,64,47.4,46.5,0,74.4-38.2,74.4-102.2v-39.9c-.1-10.9,2.3-21.7,7.5-31.3,10.2-18.8,28.1-29.3,51.9-29.3,23.3,0,43,9.5,57.6,27.3,14.7-18.4,35.3-28.3,59.1-28.3,25.1,0,43.5,11.5,53.5,32.1,4.5,9.2,6.6,19.3,6.6,29.5v40.5c0,64.4,28.3,102.9,75.4,102.9,32.7,0,55.7-17.7,65.3-48.8,9.5,30.3,31.9,47.4,64,47.4,46.5,0,74.4-38.2,74.4-102.2v-39.9c-.1-10.9,2.3-21.7,7.5-31.3,10.2-18.8,28.1-29.3,51.9-29.3,23.3,0,43,9.5,57.6,27.3,14.7-18.4,35.3-28.3,59.1-28.3,32.4,0,53.7,19.2,60.1,52.3H10.6s0-50.2,0-50.2Z"/>
        <path class="st3" d="M2072.6,200.1c0-64.4-28.3-102.9-75.4-102.9-32.7,0-55.7,17.7-65.3,48.8-9.5-30.3-31.9-47.4-64-47.4-46.5,0-74.4,38.2-74.4,102.2,0,0,0,25.5,0,40,0,10.9-2.4,21.7-7.7,31.3-10.3,18.8-28.1,29.3-51.9,29.3-23.3,0-43-9.5-57.6-27.3-14.7,18.4-35.3,28.3-59.1,28.3-25.1,0-43.5-11.5-53.5-32.1-4.5-9.2-6.6-19.3-6.6-29.5v-40.5c0-64.4-28.3-102.9-75.4-102.9-32.7,0-55.7,17.7-65.3,48.8-9.5-30.3-31.9-47.4-64-47.4-46.5,0-74.4,38.2-74.4,102.2,0,0,0,25.5,0,40,0,10.9-2.4,21.7-7.7,31.3-10.3,18.8-28.1,29.3-51.9,29.3-23.3,0-43-9.5-57.6-27.3-14.7,18.4-35.3,28.3-59.1,28.3-32.4,0-53.7-19.2-60.1-52.3h-21.3v50.2c0,64.4,28.3,102.9,75.4,102.9,32.7,0,55.7-17.7,65.3-48.8,9.5,30.3,31.9,47.4,64,47.4,46.5,0,74.4-38.2,74.4-102.2v-39.9c-.1-10.9,2.3-21.7,7.5-31.3,10.2-18.8,28.1-29.3,51.9-29.3,23.3,0,43,9.5,57.6,27.3,14.7-18.4,35.3-28.3,59.1-28.3,25.1,0,43.5,11.5,53.5,32.1,4.5,9.2,6.6,19.3,6.6,29.5v40.5c0,64.4,28.3,102.9,75.4,102.9,32.7,0,55.7-17.7,65.3-48.8,9.5,30.3,31.9,47.4,64,47.4,46.5,0,74.4-38.2,74.4-102.2v-39.9c-.1-10.9,2.3-21.7,7.5-31.3,10.2-18.8,28.1-29.3,51.9-29.3,23.3,0,43,9.5,57.6,27.3,14.7-18.4,35.3-28.3,59.1-28.3,32.4,0,53.7,19.2,60.1,52.3h21.3s0-50.2,0-50.2Z"/>
        <path class="st3" d="M1041.6,200.1c0-64.4-28.3-102.9-75.4-102.9-32.7,0-55.7,17.7-65.3,48.8-9.5-30.3-31.9-47.4-64-47.4-46.5,0-74.4,38.2-74.4,102.2,0,0,0,25.5,0,40,0,10.9-2.4,21.7-7.7,31.3-10.3,18.8-28.1,29.3-51.9,29.3-23.3,0-43-9.5-57.6-27.3-14.7,18.4-35.3,28.3-59.1,28.3-25.1,0-43.5-11.5-53.5-32.1-4.5-9.2-6.6-19.3-6.6-29.5v-40.5c0-64.4-28.3-102.9-75.4-102.9-32.7,0-55.7,17.7-65.3,48.8-9.5-30.3-31.9-47.4-64-47.4-46.5,0-74.4,38.2-74.4,102.2,0,0,0,25.5,0,40,0,10.9-2.4,21.7-7.7,31.3-10.3,18.8-28.1,29.3-51.9,29.3-23.3,0-43-9.5-57.6-27.3-14.7,18.4-35.3,28.3-59.1,28.3-32.4,0-53.7-19.2-60.1-52.3H-10.6v50.2c0,64.4,28.3,102.9,75.4,102.9,32.7,0,55.7-17.7,65.3-48.8,9.5,30.3,31.9,47.4,64,47.4,46.5,0,74.4-38.2,74.4-102.2v-39.9c-.1-10.9,2.3-21.7,7.5-31.3,10.2-18.8,28.1-29.3,51.9-29.3,23.3,0,43,9.5,57.6,27.3,14.7-18.4,35.3-28.3,59.1-28.3,25.1,0,43.5,11.5,53.5,32.1,4.5,9.2,6.6,19.3,6.6,29.5v40.5c0,64.4,28.3,102.9,75.4,102.9,32.7,0,55.7-17.7,65.3-48.8,9.5,30.3,31.9,47.4,64,47.4,46.5,0,74.4-38.2,74.4-102.2v-39.9c-.1-10.9,2.3-21.7,7.5-31.3,10.2-18.8,28.1-29.3,51.9-29.3,23.3,0,43,9.5,57.6,27.3,14.7-18.4,35.3-28.3,59.1-28.3,32.4,0,53.7,19.2,60.1,52.3h21.3s0-50.2,0-50.2Z"/>
        <path class="st3" d="M10.6,200.1c0-64.4-28.3-102.9-75.4-102.9-32.7,0-55.7,17.7-65.3,48.8-9.5-30.3-31.9-47.4-64-47.4-46.5,0-74.4,38.2-74.4,102.2,0,0,0,25.5,0,40,0,10.9-2.4,21.7-7.7,31.3-10.3,18.8-28.1,29.3-51.9,29.3-23.3,0-43-9.5-57.6-27.3-14.7,18.4-35.3,28.3-59.1,28.3-25.1,0-43.5-11.5-53.5-32.1s-6.6-19.3-6.6-29.5v-40.5c0-64.4-28.3-102.9-75.4-102.9-32.7,0-55.7,17.7-65.3,48.8-9.5-30.3-31.9-47.4-64-47.4-46.5,0-74.4,38.2-74.4,102.2,0,0,0,25.5,0,40,0,10.9-2.4,21.7-7.7,31.3-10.3,18.8-28.1,29.3-51.9,29.3-23.3,0-43-9.5-57.6-27.3-14.7,18.4-35.3,28.3-59.1,28.3-32.4,0-53.7-19.2-60.1-52.3h-21.3v50.2c0,64.4,28.3,102.9,75.4,102.9,32.7,0,55.7-17.7,65.3-48.8,9.5,30.3,31.9,47.4,64,47.4,46.5,0,74.4-38.2,74.4-102.2v-39.9c-.1-10.9,2.3-21.7,7.5-31.3,10.2-18.8,28.1-29.3,51.9-29.3,23.3,0,43,9.5,57.6,27.3,14.7-18.4,35.3-28.3,59.1-28.3,25.1,0,43.5,11.5,53.5,32.1,4.5,9.2,6.6,19.3,6.6,29.5v40.5c0,64.4,28.3,102.9,75.4,102.9,32.7,0,55.7-17.7,65.3-48.8,9.5,30.3,31.9,47.4,64,47.4,46.5,0,74.4-38.2,74.4-102.2v-39.9c-.1-10.9,2.3-21.7,7.5-31.3,10.2-18.8,28.1-29.3,51.9-29.3,23.3,0,43,9.5,57.6,27.3,14.7-18.4,35.3-28.3,59.1-28.3,32.4,0,53.7,19.2,60.1,52.3H10.6s0-50.2,0-50.2Z"/>
        <path class="st3" d="M2072.6-49.9c0-64.4-28.3-102.9-75.4-102.9-32.7,0-55.7,17.7-65.3,48.8-9.5-30.3-31.9-47.4-64-47.4-46.5,0-74.4,38.2-74.4,102.2,0,0,0,25.5,0,40,0,10.9-2.4,21.7-7.7,31.3-10.3,18.8-28.1,29.3-51.9,29.3-23.3,0-43-9.5-57.6-27.3-14.7,18.4-35.3,28.3-59.1,28.3-25.1,0-43.5-11.5-53.5-32.1-4.5-9.2-6.6-19.3-6.6-29.5v-40.5c0-64.4-28.3-102.9-75.4-102.9-32.7,0-55.7,17.7-65.3,48.8-9.5-30.3-31.9-47.4-64-47.4-46.5,0-74.4,38.2-74.4,102.2,0,0,0,25.5,0,40,0,10.9-2.4,21.7-7.7,31.3-10.3,18.8-28.1,29.3-51.9,29.3-23.3,0-43-9.5-57.6-27.3-14.7,18.4-35.3,28.3-59.1,28.3-32.4,0-53.7-19.2-60.1-52.3h-21.3v50.2c0,64.4,28.3,102.9,75.4,102.9,32.7,0,55.7-17.7,65.3-48.8,9.5,30.3,31.9,47.4,64,47.4,46.5,0,74.4-38.2,74.4-102.2V9.5c-.1-10.9,2.3-21.7,7.5-31.3,10.2-18.8,28.1-29.3,51.9-29.3,23.3,0,43,9.5,57.6,27.3,14.7-18.4,35.3-28.3,59.1-28.3,25.1,0,43.5,11.5,53.5,32.1,4.5,9.2,6.6,19.3,6.6,29.5v40.5c0,64.4,28.3,102.9,75.4,102.9,32.7,0,55.7-17.7,65.3-48.8,9.5,30.3,31.9,47.4,64,47.4,46.5,0,74.4-38.2,74.4-102.2V9.5c-.1-10.9,2.3-21.7,7.5-31.3,10.2-18.8,28.1-29.3,51.9-29.3,23.3,0,43,9.5,57.6,27.3,14.7-18.4,35.3-28.3,59.1-28.3,32.4,0,53.7,19.2,60.1,52.3h21.3s0-50.2,0-50.2Z"/>
        <path class="st3" d="M1041.6-49.9c0-64.4-28.3-102.9-75.4-102.9-32.7,0-55.7,17.7-65.3,48.8-9.5-30.3-31.9-47.4-64-47.4-46.5,0-74.4,38.2-74.4,102.2,0,0,0,25.5,0,40,0,10.9-2.4,21.7-7.7,31.3-10.3,18.8-28.1,29.3-51.9,29.3-23.3,0-43-9.5-57.6-27.3-14.7,18.4-35.3,28.3-59.1,28.3-25.1,0-43.5-11.5-53.5-32.1-4.5-9.2-6.6-19.3-6.6-29.5v-40.5c0-64.4-28.3-102.9-75.4-102.9-32.7,0-55.7,17.7-65.3,48.8-9.5-30.3-31.9-47.4-64-47.4-46.5,0-74.4,38.2-74.4,102.2,0,0,0,25.5,0,40,0,10.9-2.4,21.7-7.7,31.3-10.3,18.8-28.1,29.3-51.9,29.3-23.3,0-43-9.5-57.6-27.3-14.7,18.4-35.3,28.3-59.1,28.3-32.4,0-53.7-19.2-60.1-52.3H-10.6v50.2c0,64.4,28.3,102.9,75.4,102.9,32.7,0,55.7-17.7,65.3-48.8,9.5,30.3,31.9,47.4,64,47.4,46.5,0,74.4-38.2,74.4-102.2V9.5c-.1-10.9,2.3-21.7,7.5-31.3,10.2-18.8,28.1-29.3,51.9-29.3,23.3,0,43,9.5,57.6,27.3,14.7-18.4,35.3-28.3,59.1-28.3,25.1,0,43.5,11.5,53.5,32.1,4.5,9.2,6.6,19.3,6.6,29.5v40.5c0,64.4,28.3,102.9,75.4,102.9,32.7,0,55.7-17.7,65.3-48.8,9.5,30.3,31.9,47.4,64,47.4,46.5,0,74.4-38.2,74.4-102.2V9.5c-.1-10.9,2.3-21.7,7.5-31.3,10.2-18.8,28.1-29.3,51.9-29.3,23.3,0,43,9.5,57.6,27.3,14.7-18.4,35.3-28.3,59.1-28.3,32.4,0,53.7,19.2,60.1,52.3h21.3s0-50.2,0-50.2Z"/>
        <path class="st3" d="M10.6-49.9c0-64.4-28.3-102.9-75.4-102.9-32.7,0-55.7,17.7-65.3,48.8-9.5-30.3-31.9-47.4-64-47.4-46.5,0-74.4,38.2-74.4,102.2,0,0,0,25.5,0,40,0,10.9-2.4,21.7-7.7,31.3-10.3,18.8-28.1,29.3-51.9,29.3-23.3,0-43-9.5-57.6-27.3-14.7,18.4-35.3,28.3-59.1,28.3-25.1,0-43.5-11.5-53.5-32.1-4.5-9.2-6.6-19.3-6.6-29.5v-40.5c0-64.4-28.3-102.9-75.4-102.9-32.7,0-55.7,17.7-65.3,48.8-9.5-30.3-31.9-47.4-64-47.4-46.5,0-74.4,38.2-74.4,102.2,0,0,0,25.5,0,40,0,10.9-2.4,21.7-7.7,31.3-10.3,18.8-28.1,29.3-51.9,29.3-23.3,0-43-9.5-57.6-27.3-14.7,18.4-35.3,28.3-59.1,28.3-32.4,0-53.7-19.2-60.1-52.3h-21.3v50.2c0,64.4,28.3,102.9,75.4,102.9,32.7,0,55.7-17.7,65.3-48.8,9.5,30.3,31.9,47.4,64,47.4,46.5,0,74.4-38.2,74.4-102.2V9.5c-.1-10.9,2.3-21.7,7.5-31.3,10.2-18.8,28.1-29.3,51.9-29.3,23.3,0,43,9.5,57.6,27.3,14.7-18.4,35.3-28.3,59.1-28.3,25.1,0,43.5,11.5,53.5,32.1,4.5,9.2,6.6,19.3,6.6,29.5v40.5c0,64.4,28.3,102.9,75.4,102.9,32.7,0,55.7-17.7,65.3-48.8,9.5,30.3,31.9,47.4,64,47.4,46.5,0,74.4-38.2,74.4-102.2V9.5c-.1-10.9,2.3-21.7,7.5-31.3,10.2-18.8,28.1-29.3,51.9-29.3,23.3,0,43,9.5,57.6,27.3,14.7-18.4,35.3-28.3,59.1-28.3,32.4,0,53.7,19.2,60.1,52.3H10.6s0-50.2,0-50.2Z"/>
      </g>
    </pattern>
  </defs>
  <rect class="st2" x="-2.6" y="-2.8" width="2000.9" height="2003.2"/>
  <path class="st3" d="M3489.9,963c-45.5-45.5-92.8-52.8-126.1-19.5-23.1,23.1-26.9,51.9-11.7,80.7-28.1-14.7-56.1-11-78.8,11.7-32.9,32.9-25.6,79.7,19.6,124.9,0,0,18.1,18,28.3,28.2,7.7,7.7,13.6,17.1,16.7,27.5,6,20.5.8,40.5-16,57.4-16.5,16.5-37.2,23.7-60,21.4,2.6,23.4-4.9,45-21.8,61.8-17.7,17.7-38.9,22.6-60.5,15.2-9.6-3.3-18.3-9-25.5-16.2l-28.6-28.6c-45.5-45.5-92.8-52.8-126.1-19.5-23.1,23.1-26.9,51.9-11.7,80.7-28.1-14.7-56.1-11-78.8,11.7-32.9,32.9-25.6,79.7,19.6,124.9,0,0,18.1,18,28.3,28.2,7.7,7.7,13.6,17.1,16.7,27.5,6,20.5.8,40.5-16,57.4-16.5,16.5-37.2,23.7-60,21.4,2.6,23.4-4.9,45-21.8,61.8-22.9,22.9-51.5,24.4-79.5,5.5l-15.1,15.1,35.5,35.5c45.5,45.5,92.8,52.8,126.1,19.5,23.1-23.1,26.9-51.9,11.7-80.7,28.1,14.7,56.1,11,78.8-11.7,32.9-32.9,25.6-79.7-19.6-124.9l-28.3-28.1c-7.7-7.7-13.6-17.1-16.7-27.5-6.1-20.6-.9-40.6,16-57.4,16.5-16.5,37.2-23.7,60-21.4-2.6-23.4,4.9-45,21.8-61.8s38.9-22.6,60.5-15.2,18.3,9,25.5,16.2l28.6,28.6c45.5,45.5,92.8,52.8,126.1,19.5,23.1-23.1,26.9-51.9,11.7-80.7,28.1,14.7,56.1,11,78.8-11.7,32.9-32.9,25.6-79.7-19.6-124.9l-28.3-28.1c-7.7-7.7-13.6-17.1-16.7-27.5-6.1-20.6-.9-40.6,16-57.4,16.5-16.5,37.2-23.7,60-21.4-2.6-23.4,4.9-45,21.8-61.8,22.9-22.9,51.5-24.4,79.5-5.5l15.1-15.1-35.5-35.5Z"/>
  <path class="st3" d="M3653.5,624.6c0-64.4-28.3-102.9-75.4-102.9-32.7,0-55.7,17.7-65.3,48.8-9.5-30.3-31.9-47.4-64-47.4-46.5,0-74.4,38.2-74.4,102.2,0,0,0,25.5,0,40,0,10.9-2.4,21.7-7.7,31.3-10.3,18.8-28.1,29.3-51.9,29.3-23.3,0-43-9.5-57.6-27.3-14.7,18.4-35.3,28.3-59.1,28.3-25.1,0-43.5-11.5-53.5-32.1-4.5-9.2-6.6-19.3-6.6-29.5v-40.5c0-64.4-28.3-102.9-75.4-102.9-32.7,0-55.7,17.7-65.3,48.8-9.5-30.3-31.9-47.4-64-47.4-46.5,0-74.4,38.2-74.4,102.2,0,0,0,25.5,0,40,0,10.9-2.4,21.7-7.7,31.3-10.3,18.8-28.1,29.3-51.9,29.3-23.3,0-43-9.5-57.6-27.3-14.7,18.4-35.3,28.3-59.1,28.3-32.4,0-53.7-19.2-60.1-52.3h-21.3v50.2c0,64.4,28.3,102.9,75.4,102.9,32.7,0,55.7-17.7,65.3-48.8,9.5,30.3,31.9,47.4,64,47.4,46.5,0,74.4-38.2,74.4-102.2v-39.9c-.1-10.9,2.3-21.7,7.5-31.3,10.2-18.8,28.1-29.3,51.9-29.3,23.3,0,43,9.5,57.6,27.3,14.7-18.4,35.3-28.3,59.1-28.3s43.5,11.5,53.5,32.1c4.5,9.2,6.6,19.3,6.6,29.5v40.5c0,64.4,28.3,102.9,75.4,102.9,32.7,0,55.7-17.7,65.3-48.8,9.5,30.3,31.9,47.4,64,47.4,46.5,0,74.4-38.2,74.4-102.2v-39.9c-.1-10.9,2.3-21.7,7.5-31.3,10.2-18.8,28.1-29.3,51.9-29.3,23.3,0,43,9.5,57.6,27.3,14.7-18.4,35.3-28.3,59.1-28.3,32.4,0,53.7,19.2,60.1,52.3h21.3s0-50.2,0-50.2Z"/>
  <rect class="st1" x="-2.4" y="-2.4" width="2000.6" height="2000.6"/>
</svg>