<svg width="254" height="253" viewBox="0 0 254 253" fill="none" xmlns="http://www.w3.org/2000/svg">
<g clip-path="url(#clip0_80_2985)">
<path d="M149.384 172.799C148.465 171.531 147.393 170.473 146.404 169.79C146.794 168.411 147.24 167.06 147.755 165.625C148.145 164.525 148.562 163.397 148.952 162.171C149.426 160.709 150.373 158.703 151.556 156.168C155.358 148.089 161.721 134.565 162.278 116.987C162.334 115.064 162.181 113.254 161.861 111.527C165.523 118.714 165.718 127.99 162.418 139.189C159.73 148.312 154.759 160.583 149.384 172.813M150.749 182.117C150.818 181.992 150.888 181.866 150.958 181.741C152.253 182.897 153.478 184.123 154.592 185.432L151.445 185.669L149.273 184.318C149.481 184.039 149.718 183.719 149.941 183.371C149.983 183.315 150.011 183.273 150.038 183.217C150.275 182.869 150.512 182.507 150.763 182.103M140.249 201.687L127.982 192.772V183.036L137.339 180.195C137.339 180.195 137.339 180.264 137.339 180.292C137.339 180.641 137.339 180.989 137.339 181.323C137.339 181.421 137.339 181.504 137.339 181.602C137.325 181.95 137.297 182.298 137.27 182.632C137.27 182.702 137.256 182.772 137.242 182.855C137.214 183.148 137.172 183.44 137.13 183.705C137.13 183.761 137.116 183.816 137.102 183.872C137.061 184.178 137.005 184.457 136.963 184.708C136.963 184.763 136.935 184.819 136.935 184.875C136.894 185.112 136.838 185.348 136.796 185.516L136.351 187.354L138.147 186.755C138.397 186.672 139.511 186.184 141.252 183.928C141.155 184.471 141.057 185 140.932 185.516L140.486 187.354L142.269 186.755C142.505 186.672 143.48 186.254 144.998 184.401C144.9 184.986 144.789 185.557 144.65 186.115L144.204 187.939L145.986 187.34C145.986 187.34 146.112 187.298 146.209 187.243C146.516 187.09 147.086 186.727 147.866 185.933L150.136 187.34L150.679 198.219L140.222 201.687H140.249ZM126.91 181.17L116.758 178.092C116.87 177.632 117.009 177.186 117.204 176.81C118.262 174.832 120.226 174.345 120.309 174.331L123.596 172.799C124.682 172.701 125.782 172.632 126.91 172.632C128.037 172.632 129.124 172.701 130.21 172.799L133.287 174.261L133.51 174.331C133.593 174.345 135.571 174.832 136.615 176.81C136.74 177.047 136.838 177.326 136.921 177.604C136.977 177.771 137.019 177.924 137.061 178.092L126.91 181.17ZM125.851 192.772L113.584 201.687L103.126 198.219L103.586 189.151L103.669 187.326L105.939 185.92C105.939 185.92 105.967 185.947 105.981 185.961C106.19 186.17 106.371 186.337 106.552 186.491C106.649 186.574 106.733 186.644 106.816 186.7C106.872 186.741 106.928 186.783 106.983 186.825C107.415 187.145 107.721 187.285 107.833 187.326L109.615 187.925L109.17 186.101C109.03 185.543 108.919 184.972 108.821 184.387C110.353 186.24 111.328 186.672 111.551 186.741L113.333 187.34L112.887 185.502C112.762 184.986 112.665 184.443 112.567 183.914C114.308 186.17 115.422 186.658 115.672 186.741L117.455 187.34L117.009 185.502C116.772 184.499 116.396 182.284 116.466 180.181L125.823 183.022V192.758L125.851 192.772ZM102.402 185.669L99.2413 185.432C100.355 184.109 101.581 182.883 102.876 181.741C102.931 181.852 102.987 181.978 103.057 182.089C103.6 182.981 104.115 183.705 104.574 184.332L102.388 185.683L102.402 185.669ZM91.6802 139.161C88.3522 127.865 88.575 118.519 92.3485 111.304C92.0144 113.087 91.8333 114.981 91.903 116.959C92.4599 134.523 98.8235 148.061 102.625 156.14C103.809 158.675 104.755 160.667 105.229 162.143C105.619 163.369 106.037 164.497 106.426 165.598C106.914 166.935 107.331 168.216 107.707 169.512C106.691 170.152 105.563 171.211 104.588 172.506C99.2552 160.36 94.3398 148.215 91.6662 139.147M151.306 137.225C149.955 142.197 147.866 146.042 146.669 148.006C145.819 146.488 144.371 144.356 142.589 143.395L142.185 143.172C143.898 139.718 145.402 135.554 145.29 131.932C146.209 133.381 146.71 135.247 146.864 136.125L147.379 139.105L148.813 136.431C148.911 136.25 150.971 132.364 152.573 126.542C152.865 129.467 152.447 133.032 151.306 137.211M101.219 126.416C102.834 132.322 104.923 136.264 105.02 136.445L106.454 139.105L106.969 136.125C107.123 135.247 107.624 133.381 108.543 131.932C108.418 135.554 109.935 139.704 111.634 143.159L111.189 143.395C109.406 144.356 107.972 146.488 107.109 148.006C105.897 146.042 103.822 142.197 102.472 137.225C101.316 132.977 100.912 129.383 101.232 126.416M117.218 168.3C117.121 166.127 117.107 164.135 117.107 162.923C117.107 159.957 117.093 159.009 116.591 158.661C116.396 158.341 116.16 157.993 115.895 157.603C114.085 154.928 111.105 150.471 112.595 144.969C113.987 147.504 115.338 149.44 115.895 150.109L117.608 152.184L117.733 149.496C117.789 148.326 118.304 147.713 119.265 147.658C121.465 147.56 125.044 150.318 125.949 155.875L126.199 156.753L128.121 155.848C128.831 150.555 132.298 147.713 134.499 147.713C134.526 147.713 134.568 147.713 134.596 147.713C135.529 147.755 136.03 148.354 136.086 149.482L136.211 152.17L137.924 150.095C138.481 149.426 139.804 147.518 141.182 145.025C142.631 150.499 139.665 154.914 137.868 157.589C137.59 158.006 137.325 158.383 137.116 158.717C136.713 159.023 136.713 159.539 136.726 162.115C136.726 164.442 136.685 166.475 136.587 168.314C136.559 168.314 136.545 168.3 136.518 168.3C136.448 168.3 136.392 168.286 136.323 168.272C136.044 168.244 135.78 168.244 135.501 168.272C135.459 168.272 135.418 168.286 135.362 168.286C135.125 168.314 134.888 168.369 134.652 168.439C134.596 168.453 134.54 168.467 134.471 168.495C134.22 168.578 133.969 168.676 133.733 168.787C133.677 168.815 133.621 168.843 133.566 168.871C133.357 168.982 133.148 169.094 132.939 169.219C132.911 169.247 132.869 169.261 132.841 169.289C132.619 169.428 132.41 169.581 132.201 169.734C132.159 169.762 132.131 169.79 132.09 169.818C131.672 170.152 131.31 170.473 131.031 170.751C129.653 170.598 128.274 170.501 126.868 170.501C125.461 170.501 124.083 170.598 122.704 170.751C121.66 169.72 119.446 167.91 117.162 168.272M106.357 180.613C106.357 181.588 106.44 182.563 106.552 183.468C106.064 182.855 105.48 182.047 104.839 181.003C104.143 179.874 104.073 178.482 104.602 176.866C105.438 174.359 107.471 172.116 108.863 171.294C107.819 172.534 106.872 174.052 106.357 175.626C105.758 177.451 105.772 179.15 106.357 180.627M110.116 179.289C110.047 180.487 110.144 181.755 110.284 182.869C109.796 182.256 109.211 181.448 108.571 180.39C107.875 179.262 107.791 177.869 108.334 176.253C109.267 173.453 111.704 170.974 113.055 170.431C113.249 170.347 113.458 170.319 113.667 170.319C113.723 170.319 113.779 170.347 113.834 170.347C112.456 171.712 111.147 173.607 110.492 175.598C110.061 176.894 109.949 178.133 110.13 179.276M114.503 182.967C113.987 182.34 113.389 181.504 112.706 180.39C112.01 179.262 111.927 177.869 112.47 176.253C113.403 173.453 115.839 170.974 117.19 170.445C117.385 170.361 117.594 170.333 117.803 170.333C118.792 170.333 119.933 171.085 120.769 171.796L119.724 172.297C119.126 172.464 116.703 173.258 115.352 175.807C114.266 177.869 114.28 180.794 114.503 182.981M138.467 175.835C137.116 173.286 134.693 172.492 134.095 172.325L133.05 171.824C134.067 170.96 135.543 170.041 136.629 170.473C137.966 171.016 140.417 173.481 141.349 176.295C141.879 177.911 141.809 179.303 141.113 180.432C140.43 181.546 139.832 182.382 139.316 183.008C139.539 180.822 139.553 177.897 138.467 175.835ZM143.327 175.64C142.672 173.648 141.349 171.754 139.971 170.375C140.249 170.347 140.514 170.375 140.765 170.473C142.101 171.016 144.552 173.481 145.485 176.295C146.014 177.911 145.945 179.303 145.248 180.432C144.594 181.49 144.023 182.298 143.536 182.911C143.689 181.783 143.772 180.515 143.703 179.331C143.884 178.189 143.772 176.949 143.341 175.654M147.448 175.64C146.933 174.066 145.986 172.562 144.942 171.308C146.335 172.13 148.368 174.373 149.203 176.88C149.732 178.496 149.663 179.888 148.966 181.017C148.326 182.075 147.741 182.883 147.254 183.496C147.365 182.605 147.448 181.616 147.448 180.641C148.047 179.164 148.061 177.465 147.448 175.64ZM103.558 95.7594L104.198 95.1604L103.725 94.4361C100.536 89.4497 98.8514 84.7557 98.7121 80.4796C98.5311 74.6435 100.272 70.7574 101.4 68.8771C102.346 69.866 103.307 70.7853 104.268 71.6628C102.778 73.2228 100.286 76.705 100.801 82.2068C101.469 89.3661 107.554 93.9486 112.943 94.6451C113.458 94.7147 113.974 94.7426 114.475 94.7426C117.26 94.7426 119.711 93.7118 121.604 91.8175C121.646 91.9568 121.688 92.11 121.757 92.2633C123.414 96.1772 126.004 99.2137 126.116 99.339L126.924 100.272L127.717 99.3251C127.843 99.1719 130.92 95.4808 132.187 91.9708C132.187 91.9429 132.187 91.9011 132.201 91.8733C134.095 93.7397 136.545 94.7704 139.33 94.7704C139.873 94.7704 140.43 94.7286 140.987 94.659C146.39 93.9208 152.42 89.3104 152.963 82.2207C153.422 76.2871 151.264 73.1532 149.732 71.7046C150.693 70.841 151.654 69.9217 152.601 68.9328C153.603 70.6042 155.413 74.4624 155.218 80.5214C155.01 86.9147 151.417 92.8065 150.317 94.464L149.83 95.2022L150.484 95.8011C153.52 98.5869 160.552 106.248 160.203 116.945C159.66 134.091 153.408 147.365 149.676 155.304C148.451 157.895 147.49 159.957 146.975 161.544C146.585 162.742 146.181 163.857 145.791 164.943C145.304 166.322 144.858 167.631 144.469 168.954C143.8 168.857 143.146 168.927 142.519 169.122C142.171 168.899 141.837 168.704 141.53 168.578C140.57 168.202 139.609 168.272 138.718 168.55C138.815 166.475 138.843 164.302 138.843 162.171C138.843 161.294 138.843 160.374 138.857 159.984C139.066 159.65 139.33 159.246 139.623 158.814C141.224 156.446 143.967 152.379 143.661 147.254C144.58 148.479 145.29 149.858 145.583 150.541L146.307 152.198L147.379 150.75C147.532 150.541 151.208 145.526 153.311 137.824C155.121 131.18 155.191 125.887 153.561 122.029C154.661 113.992 151.278 108.434 151.125 108.184L149.356 109.284C149.356 109.284 152.628 114.688 151.431 122.224H151.403C151.403 122.224 151.403 122.28 151.417 122.28C151.347 122.711 151.264 123.157 151.166 123.603C150.261 127.586 149.022 130.915 148.117 133.018C147.407 131.194 146.153 128.993 144.065 128.199L141.837 127.336L142.728 129.55C144.079 132.935 142.394 138.047 140.361 142.211C139.4 144.161 138.37 145.916 137.52 147.184C136.921 146.265 135.933 145.721 134.707 145.666C132.452 145.554 129.889 147.114 128.107 149.9V117.237C128.706 116.443 131.129 113.546 137.283 109.939L136.225 108.128C131.171 111.095 128.455 113.63 127.174 115.078C126.018 113.616 123.428 111.178 117.622 107.863L116.591 109.674C124.222 114.034 125.796 116.652 126.018 117.098V150.109C124.153 147.1 121.437 145.429 119.154 145.596C117.914 145.666 116.926 146.237 116.327 147.17C113.681 143.186 109.128 134.509 111.119 129.536L112.01 127.322L109.782 128.185C107.694 128.993 106.44 131.18 105.73 133.005C104.825 130.901 103.586 127.572 102.681 123.589C100.815 115.329 104.449 109.326 104.491 109.256L102.722 108.156C102.569 108.407 99.2273 113.908 100.272 121.876C98.5868 125.748 98.6425 131.096 100.481 137.796C102.583 145.499 106.259 150.513 106.412 150.722L107.485 152.17L108.209 150.513C108.501 149.844 109.211 148.451 110.13 147.226C109.838 152.351 112.581 156.419 114.182 158.786C114.489 159.246 114.767 159.65 114.976 160.012C115.032 160.458 115.032 161.725 115.032 162.951C115.032 164.832 115.074 166.712 115.143 168.509C114.238 168.216 113.263 168.133 112.303 168.509C111.996 168.634 111.662 168.829 111.314 169.052C110.799 168.899 110.27 168.829 109.74 168.857C109.351 167.548 108.919 166.266 108.432 164.915C108.042 163.843 107.638 162.714 107.248 161.517C106.733 159.929 105.772 157.867 104.547 155.263C100.815 147.323 94.5765 134.049 94.0195 116.903C93.6853 106.206 100.592 98.5451 103.586 95.7594M94.5486 60.3388C108.083 67.3588 115.909 74.9499 120.337 80.7303C119.376 79.9364 118.346 79.1703 117.19 78.46C112.679 75.6882 107.471 72.3035 102.597 67.122L102.625 67.0803L94.5486 60.3388ZM113.152 78.5993C114.28 79.2678 115.31 79.8946 116.271 80.4936C116.271 80.5353 116.285 80.5771 116.299 80.6189C116.522 81.97 115.589 83.2654 114.238 83.4882C113.946 83.5439 111.69 83.3629 111.37 81.4268C111.161 80.1453 111.982 78.9196 113.138 78.6132M109.323 81.7471C109.796 84.6443 112.595 85.5775 114.127 85.5775C114.294 85.5775 114.447 85.5775 114.586 85.5497C116.564 85.2293 118.012 83.6832 118.346 81.8168C120.017 83.1121 121.395 84.4911 122.495 85.8004V85.8561C122.495 86.1625 122.454 86.4689 122.398 86.7754C120.727 90.9958 117.399 93.1268 113.208 92.5836C108.557 91.9847 103.419 87.8757 102.876 82.0257C102.43 77.2203 104.644 74.2535 105.842 73.0417C107.694 74.6017 109.546 75.9667 111.342 77.1925C109.88 78.1535 109.03 79.9225 109.323 81.7611M130.21 91.2465C129.43 93.3636 127.856 95.6618 126.896 96.9433C126.032 95.7872 124.654 93.7536 123.665 91.4275C123.401 90.8008 123.609 90.0625 123.958 88.9204C124.027 88.6697 124.111 88.419 124.194 88.1543C124.389 88.3911 124.584 88.6279 124.779 88.8647C125.615 90.174 126.018 91.0654 126.032 91.0793L126.993 93.2243L127.94 91.0793C127.94 91.0793 128.344 90.1879 129.165 88.9065C129.346 88.6836 129.527 88.4468 129.722 88.1961C129.792 88.3632 129.862 88.5304 129.931 88.6975C130.182 89.6725 130.419 90.6475 130.21 91.2186M110.548 60.9099H110.868L111.147 60.7567C118.012 56.5223 124.57 56.1741 127.091 56.202H127.272C129.722 56.1741 136.253 56.5781 143.034 60.7567L143.313 60.9238H143.633C148.771 60.6731 152.545 60.3667 155.26 60.0881C137.91 69.866 129.639 81.2039 126.951 87.6389C124.807 82.8196 117.859 70.8967 98.4615 60.0602C101.274 60.3527 105.201 60.6592 110.548 60.9099ZM137.701 80.605C137.701 80.605 137.701 80.5214 137.729 80.4796C138.69 79.8807 139.72 79.2539 140.834 78.5993C142.046 78.9335 142.825 80.1314 142.631 81.3989C142.324 83.335 140.054 83.5161 139.776 83.4604C138.411 83.2375 137.492 81.9561 137.715 80.5911M139.428 85.5357C139.567 85.5636 139.72 85.5636 139.887 85.5636C141.419 85.5636 144.218 84.6304 144.691 81.7332C144.984 79.8946 144.134 78.1257 142.658 77.1646C144.455 75.9389 146.293 74.5878 148.145 73.0417C149.3 74.0585 151.292 76.6214 150.888 82.0257C150.442 87.8061 145.374 91.929 140.709 92.5558C136.866 93.085 133.733 91.4275 131.909 87.9872C131.909 87.9872 131.909 87.9593 131.909 87.9454C131.714 87.1793 131.505 86.3993 131.505 85.8143V85.7725C132.619 84.4632 133.997 83.0704 135.682 81.775C136.002 83.6554 137.464 85.2014 139.442 85.5357M151.556 67.0106H151.542C146.641 72.2339 141.363 75.6603 136.796 78.46C135.585 79.1982 134.499 80.0061 133.51 80.8418C137.91 74.9778 145.764 67.2753 159.424 60.2134L151.57 67.0106H151.556ZM161.373 106.763C160.83 106.039 160.259 105.37 159.66 104.729C157.516 100.161 154.508 96.7622 152.517 94.8401C154.174 92.1658 157.084 86.6779 157.279 80.5632C157.502 73.6546 155.33 69.3088 154.16 67.5121L168.433 55.1713L160.802 57.1909C160.802 57.1909 156.694 58.2216 143.842 58.8206C136.699 54.5166 129.876 54.1127 127.244 54.1127H127.077C124.417 54.0848 117.552 54.447 110.311 58.8206C97.3475 58.2077 92.9612 57.2327 92.9195 57.2188L85.428 55.4638L99.7843 67.4703C98.545 69.4481 96.3867 73.9053 96.5956 80.5771C96.7348 85.0064 98.3779 89.8118 101.483 94.854C99.5337 96.7761 96.5956 100.147 94.4929 104.688C93.8803 105.356 93.2676 106.053 92.7106 106.791C86.6255 114.925 85.5951 126.026 89.6611 139.788C92.4599 149.259 97.6538 162.06 103.238 174.707C102.987 175.208 102.764 175.71 102.597 176.225C102.207 177.409 102.082 178.537 102.193 179.596C97.4032 183.635 93.6157 188.817 91.3042 194.722C91.2763 194.792 91.2485 194.862 91.2206 194.931C91.1928 195.015 91.165 195.098 91.1232 195.182C91.0953 195.266 91.0536 195.349 91.0257 195.433C90.8586 195.878 90.6915 196.338 90.5523 196.798C89.6332 199.653 89.0484 202.648 88.8395 205.74C89.5915 205.81 90.3434 205.907 91.0953 206.032C91.2624 203.665 91.6384 200.419 92.5017 197.536C92.6549 197.049 92.822 196.561 93.003 196.074C93.0169 196.046 93.0309 196.004 93.0448 195.976C93.0866 195.851 93.1423 195.725 93.1979 195.6C94.7436 191.895 96.9437 188.622 97.7652 187.452L101.539 187.73L100.996 198.678L96.0107 207.091C96.707 207.272 97.4032 207.467 98.0855 207.676L102.486 200.238L107.652 201.951L112.901 203.692L116.034 213.331C116.396 213.415 116.759 213.484 117.121 213.554C117.538 213.624 117.984 213.693 118.402 213.763L114.99 203.261L126.896 194.611L138.801 203.261L136.754 209.556L135.278 214.083C135.752 213.972 136.267 213.916 136.81 213.916C137.061 213.916 137.27 213.958 137.506 213.986L138.815 209.96L140.848 203.692L146.098 201.951L151.264 200.238L156.736 209.473C157.321 209.125 157.976 208.86 158.727 208.721L152.768 198.664L152.225 187.716L156.012 187.438C156.834 188.566 159.02 191.728 160.482 195.377C160.538 195.516 160.593 195.67 160.649 195.809C160.9 196.464 161.123 197.118 161.331 197.759C161.359 197.842 161.373 197.912 161.401 197.996C161.582 198.609 161.749 199.207 161.888 199.792C161.888 199.82 161.902 199.862 161.916 199.89C162.473 202.202 162.71 204.25 162.807 205.837C163.406 205.517 164.088 205.28 164.854 205.169C164.771 204.013 164.645 202.857 164.451 201.729C164.451 201.687 164.437 201.645 164.423 201.603C164.339 201.116 164.242 200.628 164.13 200.155C164.047 199.792 163.963 199.416 163.866 199.026C163.81 198.831 163.768 198.636 163.713 198.441C163.615 198.079 163.504 197.703 163.392 197.341C163.337 197.16 163.281 196.965 163.225 196.784C163.114 196.436 162.988 196.087 162.863 195.739C162.78 195.516 162.71 195.293 162.626 195.085C162.612 195.029 162.585 194.987 162.571 194.931C162.459 194.639 162.334 194.346 162.223 194.068C159.897 188.413 156.193 183.468 151.57 179.568C151.626 179.053 151.612 178.523 151.556 177.98C151.556 177.966 151.556 177.952 151.556 177.938C151.528 177.688 151.487 177.451 151.431 177.2C151.431 177.158 151.431 177.131 151.417 177.089C151.347 176.81 151.278 176.518 151.18 176.239C151.041 175.835 150.874 175.417 150.693 175.013C156.332 162.255 161.596 149.315 164.423 139.76C168.475 125.998 167.458 114.897 161.373 106.763Z" fill="#006A52"/>
<path d="M110.785 99.7711C111.216 99.9661 111.815 100.231 112.553 100.523L109.169 104.771L110.799 106.067L114.586 101.303C115.185 101.526 115.825 101.749 116.494 101.972L114.21 104.758L115.825 106.081L118.652 102.64C121.159 103.351 123.888 103.908 126.352 103.922H126.506C129.332 103.922 132.41 103.379 135.181 102.696L137.966 106.095L139.581 104.771L137.395 102.111C138.091 101.916 138.745 101.707 139.358 101.512L143.006 106.095L144.636 104.799L141.461 100.802C142.254 100.523 142.895 100.273 143.341 100.091L147.741 105.733L149.384 104.451L144.009 97.5425L143.271 97.849C143.173 97.8907 133.733 101.833 126.492 101.833H126.352C119.891 101.791 111.035 97.5982 110.952 97.5565L110.242 97.2222L104.463 103.685L106.022 105.078L110.757 99.7711H110.785Z" fill="#006A52"/>
<path d="M126.854 63.9606L130.391 66.4956L134.777 63.2224L133.538 61.5509L130.377 63.9049L126.826 61.3838L123.428 63.9049L120.114 61.537L118.903 63.2363L123.456 66.4956L126.854 63.9606Z" fill="#006A52"/>
<path d="M126.993 248.585C59.4027 248.585 4.4002 193.817 4.4002 126.5C4.4002 59.1828 59.4027 4.40145 126.993 4.40145C194.583 4.40145 249.586 59.1689 249.586 126.486C249.586 193.803 194.597 248.571 126.993 248.571M126.993 0C56.9658 0 0 56.7453 0 126.5C0 196.255 56.9658 253 126.993 253C197.02 253 253.986 196.255 253.986 126.5C253.986 56.7453 197.02 0 126.993 0Z" fill="#006A52"/>
<path d="M126.993 211.354C80.0668 211.354 41.8853 173.328 41.8853 126.598C41.8853 79.8671 80.0668 41.8419 126.993 41.8419C173.919 41.8419 212.101 79.8671 212.101 126.598C212.101 173.328 173.919 211.354 126.993 211.354ZM126.993 37.4404C77.6439 37.4404 37.4851 77.4435 37.4851 126.598C37.4851 175.752 77.6299 215.755 126.993 215.755C176.356 215.755 216.501 175.766 216.501 126.598C216.501 77.4296 176.356 37.4404 126.993 37.4404Z" fill="#006A52"/>
<path d="M23.1429 134.69L15.2894 137.81L23.6163 139.37L23.1568 134.69H23.1429ZM11.2791 142.156L10.4854 134.175L31.1635 125.441L31.7483 131.264L27.4456 132.977L28.1697 140.206L32.737 141.042L33.3079 146.78L11.3069 142.142L11.2791 142.156Z" fill="#006A52"/>
<path d="M10.1372 121.277L10.8195 115.761L19.2161 116.792L11.6271 109.229L12.4487 102.571L20.1351 110.747L33.7674 104.953L32.9737 111.332L24.048 114.926L26.6797 117.711L32.1103 118.38L31.428 123.896L10.1372 121.277Z" fill="#006A52"/>
<path d="M29.8268 89.6724L21.3884 89.0735L28.2254 94.0878L29.8268 89.6724ZM15.9021 91.2463L18.6453 83.7109L41.0779 84.8252L39.0728 90.327L34.4498 89.9928L31.9712 96.8178L35.7169 99.5617L33.7396 104.98L15.9021 91.2603V91.2463Z" fill="#006A52"/>
<path d="M42.1779 74.6436C44.1691 71.5375 42.6095 68.7239 39.6157 66.8157C36.5244 64.8239 33.7952 65.0607 31.8736 68.0414L30.8014 69.7129L41.0917 76.3151L42.1639 74.6436H42.1779ZM23.9226 71.8997L28.3228 65.0328C31.9154 59.4335 37.3878 58.57 42.707 61.9825C48.3047 65.5761 49.7668 71.3286 46.2578 76.8026L41.969 83.4744L23.9226 71.8857V71.8997Z" fill="#006A52"/>
<path d="M37.4434 52.1766L48.0818 41.0615L51.3402 44.1676L44.5449 51.2712L47.3995 54.0012L53.6517 47.4687L56.7987 50.4773L50.5465 56.9959L53.5403 59.8513L60.3355 52.7477L63.5939 55.8677L52.9554 66.9967L37.4434 52.1766Z" fill="#006A52"/>
<path d="M53.791 35.7268L60.4052 31.4786L71.5728 41.2704L67.2562 27.0771L73.8843 22.8149L85.4836 40.8665L81.2505 43.5965L72.9653 30.7125L77.5604 45.9644L73.2856 48.7083L61.3521 38.1922L69.6234 51.0622L65.3903 53.7783L53.791 35.7268Z" fill="#006A52"/>
<path d="M86.0773 18.0753L80.9072 20.1479L88.8899 40.0714L94.06 37.9988L86.0773 18.0753Z" fill="#006A52"/>
<path d="M94.7854 30.3645L100.327 28.9438C100.829 30.6709 102.305 31.4927 104.254 30.9913C105.897 30.5734 106.663 29.5427 106.329 28.2613C106.05 27.1888 105.34 26.7709 103.795 26.8266L100.634 26.9659C96.2335 27.1609 93.8663 25.7123 92.9891 22.272C91.9865 18.3859 94.5347 14.848 99.4919 13.5665C104.463 12.2851 107.986 14.263 109.114 17.8705L103.628 19.2773C103.238 17.9123 102.054 17.2159 100.369 17.6476C98.9349 18.0237 98.0437 19.0962 98.364 20.308C98.6286 21.3387 99.464 21.7705 101.191 21.6869L104.393 21.5477C107.875 21.3805 110.673 22.3973 111.62 26.1163C112.72 30.4063 110.284 33.8327 105.215 35.1281C100.132 36.4374 96.0247 34.9052 94.7854 30.3645Z" fill="#006A52"/>
<path d="M115.073 10.9481L120.616 10.767L120.908 19.2356L127.188 10.5441L133.886 10.3213L127.021 19.1938L134.874 31.7575L128.455 31.9803L123.512 23.7067L121.172 26.7432L121.354 32.2171L115.811 32.3982L115.073 10.9481Z" fill="#006A52"/>
<path d="M155.678 22.6758C156.987 23.024 158.115 22.5783 158.463 21.2272C158.769 20.0572 158.101 19.1519 156.792 18.8037L153.812 18.0097L152.782 21.8958L155.664 22.6619L155.678 22.6758ZM153.742 31.2698C155.33 31.6877 156.555 31.2141 156.959 29.7098C157.335 28.303 156.625 27.3141 155.023 26.8962L151.695 26.0187L150.526 30.4341L153.742 31.2837V31.2698ZM149.551 12.4243L159.02 14.9315C163.253 16.0597 165.021 18.5808 164.186 21.7287C163.545 24.1383 161.735 25.5173 159.465 25.6287C161.819 26.8544 162.905 29.2362 162.222 31.7852C161.262 35.3788 158.24 36.9109 154.132 35.8105L144.037 33.1362L149.551 12.3965V12.4243Z" fill="#006A52"/>
<path d="M173.042 38.9305C175.52 40.2119 177.916 38.9166 179.893 35.0862C181.87 31.2558 181.508 28.5537 179.057 27.2722C176.621 26.0186 174.184 27.2861 172.206 31.1165C170.229 34.9469 170.577 37.6491 173.056 38.9166M167.096 28.4979C170.368 22.1465 175.66 20.3775 181.146 23.1911C186.632 26.0186 188.248 31.3533 184.975 37.7048C181.703 44.0702 176.426 45.853 170.925 43.0255C165.383 40.1701 163.824 34.8633 167.096 28.4979Z" fill="#006A52"/>
<path d="M195.405 32.1753L199.763 35.6575L189.362 48.6807L196.129 54.0851L193.135 57.8179L182.01 48.9454L195.405 32.1753Z" fill="#006A52"/>
<path d="M202.938 61.8713C205.319 64.6849 208.466 64.0302 211.182 61.7459C213.995 59.378 214.565 56.7037 212.296 53.9877L211.015 52.4694L201.671 60.3531L202.952 61.8713H202.938ZM210.931 45.2544L216.181 51.4944C220.469 56.5784 219.676 62.0663 214.858 66.1334C209.775 70.4235 203.857 70.117 199.652 65.1445L194.542 59.0716L210.931 45.2544Z" fill="#006A52"/>
<path d="M226.722 65.3672L229.298 70.2979L221.778 74.2119L232.333 76.134L235.424 82.0537L224.466 79.6858L216.515 92.1938L213.549 86.483L218.868 78.474L215.122 77.6662L210.263 80.2012L207.7 75.2705L226.722 65.3672Z" fill="#006A52"/>
<path d="M237.179 87.5L238.753 92.8486L222.767 97.5426L225.218 105.858L220.623 107.195L216.612 93.545L237.179 87.5Z" fill="#006A52"/>
<path d="M228.1 107.641L242.261 106.262L242.804 111.805L229.228 113.142C227.083 113.351 225.886 114.647 226.095 116.722C226.29 118.714 227.738 119.745 229.924 119.536L243.431 118.213L243.974 123.756L229.813 125.149C224.786 125.636 221.904 122.224 221.416 117.168C220.915 112.028 223.073 108.17 228.1 107.669" fill="#006A52"/>
<path d="M234.659 138.339C234.505 139.677 235.118 140.735 236.497 140.888C237.694 141.028 238.502 140.22 238.641 138.883L238.975 135.818L234.979 135.373L234.645 138.353L234.659 138.339ZM225.858 137.699C225.677 139.342 226.332 140.484 227.877 140.652C229.325 140.819 230.203 139.969 230.384 138.325L230.76 134.899L226.22 134.398L225.858 137.713V137.699ZM243.877 130.762L242.791 140.512C242.303 144.872 240.075 146.989 236.831 146.627C234.352 146.348 232.723 144.76 232.277 142.532C231.414 145.039 229.228 146.474 226.596 146.167C222.892 145.749 220.943 142.978 221.416 138.757L222.572 128.353L243.891 130.748L243.877 130.762Z" fill="#006A52"/>
<path d="M96.4703 224.502L91.6941 223.067L92.9195 218.986C96.3032 219.934 98.5868 219.376 99.5337 217.05L104.087 218.429L97.8906 238.96L92.5853 237.358L96.4703 224.502Z" fill="#006A52"/>
<path d="M113.653 228.653C115.129 228.834 116.368 227.998 116.522 226.647C116.675 225.31 115.672 224.223 114.196 224.042C112.706 223.861 111.467 224.683 111.314 226.02C111.147 227.371 112.149 228.472 113.653 228.653ZM112.539 237.86C114.322 238.069 115.644 237.121 115.811 235.645C115.993 234.168 114.934 232.901 113.152 232.692C111.356 232.483 110.019 233.458 109.838 234.935C109.657 236.411 110.743 237.651 112.525 237.86M104.212 234.795C104.491 232.413 106.287 230.491 108.933 230.046C106.649 229.001 105.688 226.842 105.925 224.794C106.329 221.382 109.643 219.293 114.698 219.892C119.669 220.491 122.44 223.36 122.022 226.814C121.771 228.931 120.295 230.658 117.886 231.104C120.393 232.177 121.646 234.461 121.354 236.843C120.908 240.52 117.385 242.679 112.038 242.038C106.649 241.384 103.767 238.472 104.212 234.781" fill="#006A52"/>
<path d="M134.29 238.556C136.072 238.444 137.2 237.26 137.102 235.784C137.005 234.308 135.724 233.249 133.941 233.36C132.145 233.472 131.003 234.698 131.101 236.174C131.198 237.65 132.479 238.681 134.29 238.556ZM133.677 229.293C135.167 229.196 136.225 228.151 136.128 226.786C136.044 225.449 134.861 224.558 133.371 224.655C131.867 224.753 130.808 225.783 130.892 227.12C130.976 228.485 132.173 229.377 133.663 229.279M125.531 237.065C125.378 234.684 126.784 232.455 129.291 231.522C126.854 230.923 125.517 228.973 125.378 226.925C125.155 223.485 128.023 220.825 133.106 220.49C138.105 220.156 141.349 222.482 141.572 225.95C141.711 228.081 140.584 230.045 138.3 230.937C140.96 231.522 142.617 233.555 142.77 235.937C143.006 239.642 139.943 242.4 134.554 242.762C129.137 243.124 125.768 240.771 125.531 237.079" fill="#006A52"/>
<path d="M153.756 227.664C155.274 227.246 156.151 225.783 155.692 224.07C155.218 222.357 153.742 221.549 152.238 221.953C150.637 222.385 149.843 223.819 150.317 225.533C150.79 227.246 152.169 228.096 153.77 227.664M147.295 235.088L152.726 233.611C153.241 234.809 154.397 235.38 155.831 234.99C157.808 234.447 158.936 232.581 157.641 227.873C157.237 229.864 155.65 231.452 153.283 232.107C149.44 233.152 146.098 231.466 144.914 227.121C143.758 222.872 146.098 218.889 151.041 217.538C156.834 215.95 161.039 219.07 162.863 225.769C164.715 232.581 162.654 237.483 156.625 239.127C152.057 240.367 148.548 238.737 147.281 235.102" fill="#006A52"/>
<path d="M80.7354 220.769C80.7354 223.805 78.2707 226.271 75.2351 226.271C72.1995 226.271 69.7349 223.805 69.7349 220.769C69.7349 217.732 72.1995 215.267 75.2351 215.267C78.2707 215.267 80.7354 217.732 80.7354 220.769Z" fill="#006A52"/>
<path d="M185.393 220.769C185.393 223.805 182.928 226.271 179.893 226.271C176.857 226.271 174.393 223.805 174.393 220.769C174.393 217.732 176.857 215.267 179.893 215.267C182.928 215.267 185.393 217.732 185.393 220.769Z" fill="#006A52"/>
</g>
<defs>
<clipPath id="clip0_80_2985">
<rect width="254" height="253" fill="white"/>
</clipPath>
</defs>
</svg>
