<svg width="1792" height="1792" viewBox="0 0 1792 1792" fill="none" xmlns="http://www.w3.org/2000/svg">
<g clip-path="url(#clip0_1440_182)">
<path d="M896 0C1390.02 0 1792 401.978 1792 896C1792 1390.02 1390.02 1792 896 1792C401.978 1792 0 1390.02 0 896C0 401.978 401.978 0 896 0ZM896 25.4551C415.927 25.4551 25.4541 415.927 25.4541 896C25.4541 1376.07 415.927 1766.55 896 1766.55C1375.97 1766.55 1766.55 1376.07 1766.55 896C1766.55 415.927 1376.07 25.4551 896 25.4551ZM963.709 1557.41C1005.76 1553.54 1022.87 1581.24 1024.39 1597.63C1025.92 1614.33 1018.49 1628.58 1003.01 1635.4V1635.91C1023.58 1638.66 1036.51 1653.02 1038.55 1674.3C1041.8 1709.83 1011.56 1730.4 980.102 1733.25C947.52 1736.2 914.327 1722.76 910.967 1686.21C909.033 1664.73 919.622 1648.44 939.069 1641.72V1641.21C922.167 1638.15 912.494 1625.42 910.967 1608.73C908.218 1578.28 936.218 1559.85 963.709 1557.31V1557.41ZM773.411 1597.22C776.466 1566.78 807.52 1554.15 835.011 1556.9H835.113C877.062 1561.18 888.669 1591.62 886.938 1608.01C885.207 1624.71 875.229 1637.34 858.735 1641V1641.51C878.284 1648.13 888.262 1664.73 886.124 1686.01C882.56 1721.44 848.858 1735.9 817.498 1732.64C784.917 1729.28 754.983 1709.73 758.647 1673.28C760.786 1651.8 774.429 1637.85 794.691 1635V1634.49C778.807 1628.28 771.68 1613.82 773.411 1597.22ZM1081.11 1537.86C1130.39 1523.2 1156.45 1562.3 1168.67 1603.53C1180.48 1643.35 1176.2 1693.95 1129.98 1707.59C1101.88 1715.94 1076.01 1705.66 1063.8 1678.17L1095.16 1668.9V1668.8C1100.45 1679.08 1111.65 1685.91 1123.05 1682.55C1146.98 1675.42 1144.03 1642.23 1139.55 1623.8L1138.94 1623.49C1133.64 1638.97 1123.36 1647.83 1107.58 1652.51C1093.63 1656.68 1077.54 1654.34 1065.12 1646.91C1053.51 1639.48 1045.57 1627.16 1041.8 1614.33C1031.93 1581.03 1047.2 1547.94 1081.11 1537.86ZM750.502 1545.4L700.611 1707.8V1707.69L667.723 1697.61L700.102 1592.33L659.272 1579.81L666.909 1554.97C689.716 1562.5 713.236 1561.08 724.334 1537.35L750.502 1545.4ZM1004.13 1676.23C1002.6 1660.04 988.553 1650.37 972.669 1651.8C955.971 1653.32 943.549 1664.01 945.178 1681.32C946.807 1698.73 961.367 1708.81 977.76 1707.29V1707.39C994.153 1705.86 1005.66 1693.13 1004.13 1676.23ZM825.746 1651.29C809.047 1649.56 794.896 1657.7 793.062 1675.01C791.332 1692.42 803.651 1705.15 820.044 1706.78H820.146C836.538 1708.41 850.284 1698.12 852.015 1681.22C853.644 1665.03 841.731 1652.81 825.746 1651.29ZM993.643 1604.35C992.828 1595.69 987.433 1581.34 966.153 1583.27C952.407 1584.49 941.105 1594.06 942.429 1609.03C943.753 1623.8 956.582 1630.11 970.327 1628.89C984.378 1627.56 994.967 1618.81 993.643 1604.35ZM832.466 1582.66C818.72 1581.24 805.789 1588.47 804.262 1603.43C802.735 1618.2 814.037 1626.85 827.884 1628.28C841.833 1629.7 854.051 1623.08 855.477 1608.63C856.393 1599.97 853.746 1584.8 832.466 1582.66ZM1125.29 1587.24C1120.81 1572.17 1106.56 1559.96 1090.07 1564.84C1074.28 1569.53 1069.7 1587.35 1073.98 1602.01C1078.56 1617.38 1090.98 1630.41 1107.99 1625.32C1125.7 1620.13 1130.08 1603.33 1125.29 1587.24ZM897.222 274.91C1240.35 274.91 1519.53 554.095 1519.53 897.222C1519.53 1240.35 1240.35 1519.54 897.222 1519.54C554.095 1519.54 274.909 1240.35 274.909 897.222C274.909 554.095 554.095 274.91 897.222 274.91ZM893.455 1487.77H906.182V1393.48C901.905 1393.48 897.629 1393.28 893.455 1392.97V1487.77ZM967.273 1386.05C963.099 1387.17 958.72 1388.19 954.139 1389.11L1009.02 1475.85V1475.96L1019.81 1469.13L967.273 1386.05ZM777.382 1466.59L788.073 1473.41L845.396 1384.01C841.12 1382.69 836.945 1381.37 832.975 1379.84L777.382 1466.59ZM325.513 1394.71C338.953 1381.37 360.233 1381.47 373.571 1394.91V1394.81C386.909 1408.25 386.909 1429.63 373.571 1442.97C360.131 1456.31 338.546 1456.2 325.207 1442.87C311.869 1429.43 312.073 1408.04 325.513 1394.71ZM1411.81 1394.2C1425.25 1380.86 1446.73 1380.86 1459.97 1394.2C1473.31 1407.64 1473.21 1429.22 1459.77 1442.56C1446.33 1455.9 1424.84 1455.59 1411.61 1442.25C1398.37 1428.92 1398.37 1407.53 1411.81 1394.2ZM1027.85 1359.68C1024.49 1361.82 1020.73 1364.16 1016.35 1366.5L1104.32 1445.51L1112.87 1436.04L1027.85 1359.68ZM680.043 1426.37V1426.47L686.865 1437.16L800.596 1364.67C796.014 1362.02 791.942 1359.48 788.582 1357.24L680.043 1426.37ZM897.426 300.161C568.349 300.161 300.567 567.842 300.567 897.02C300.567 906.182 300.873 915.244 301.28 924.306C301.382 926.75 301.586 929.092 301.688 931.535C302.196 939.375 302.807 947.215 303.52 955.055C303.622 956.379 303.724 957.601 303.826 958.822C304.742 967.579 305.862 976.335 307.186 985.092C307.593 987.433 307.898 989.673 308.306 991.913C309.527 999.142 310.749 1006.17 312.175 1013.3C312.582 1015.13 312.887 1016.96 313.295 1018.79C315.026 1027.24 316.96 1035.7 319.098 1044.04C319.607 1046.08 320.218 1048.12 320.727 1050.15C322.458 1056.87 324.393 1063.59 326.429 1070.21C327.04 1072.35 327.651 1074.49 328.364 1076.63C330.909 1084.67 333.658 1092.71 336.509 1100.66C337.12 1102.39 337.833 1104.12 338.444 1105.85C340.887 1112.36 343.433 1118.78 346.08 1125.19C346.996 1127.54 347.913 1129.78 348.931 1132.12C352.189 1139.75 355.651 1147.39 359.215 1154.92C359.724 1156.04 360.335 1157.16 360.946 1158.39C364.102 1164.9 367.36 1171.32 370.822 1177.73C372.146 1180.18 373.367 1182.52 374.691 1184.86C378.153 1191.07 381.716 1197.28 385.382 1203.39C386.095 1204.61 386.807 1205.83 387.52 1207.06C391.695 1213.98 396.175 1220.8 400.655 1227.52C402.182 1229.86 403.709 1232.1 405.338 1234.44C408.902 1239.64 412.466 1244.73 416.233 1249.82C417.556 1251.75 418.88 1253.59 420.306 1255.42C425.091 1261.83 429.978 1268.04 434.967 1274.15C436.8 1276.39 438.633 1278.53 440.466 1280.77C444.233 1285.25 448 1289.63 451.869 1294.01C453.702 1296.15 455.535 1298.28 457.469 1300.32C462.662 1306.02 468.058 1311.72 473.556 1317.22C475.593 1319.26 477.629 1321.19 479.666 1323.23C483.636 1327.2 487.709 1331.07 491.884 1334.94C494.226 1336.98 496.466 1339.11 498.807 1341.25C504.611 1346.44 510.415 1351.54 516.32 1356.42C518.356 1358.15 520.495 1359.78 522.531 1361.41C527.011 1364.98 531.491 1368.54 536.073 1372C538.72 1373.94 541.367 1375.97 544.015 1377.91C549.106 1381.78 554.4 1385.44 559.695 1389.11C562.546 1391.04 565.396 1392.98 568.247 1394.91C573.338 1398.27 578.531 1401.63 583.826 1404.89C586.676 1406.72 589.629 1408.45 592.48 1410.18C597.367 1413.14 602.357 1415.99 607.346 1418.74C609.687 1420.06 612.131 1421.28 614.473 1422.6C623.738 1414.66 635.855 1404.48 646.342 1396.03C666.706 1379.54 703.666 1357.85 730.342 1345.12C746.531 1337.38 759.36 1337.69 766.997 1339.01L776.567 1334.43C777.896 1333.72 801.513 1320.88 801.513 1275.07C801.513 1240.76 796.524 1229.66 784.407 1202.78L780.538 1194.23C758.342 1144.44 730.749 1077.44 708.553 1023.58C697.251 996.19 687.171 971.957 679.942 954.853C660.189 908.423 641.658 843.972 673.426 757.019C695.927 695.317 727.898 663.652 743.069 651.23C729.731 638.808 706.007 607.855 706.007 544.524C706.007 512.554 728.407 476.816 738.487 462.357L656.829 405.848L792.553 408.292C802.429 400.961 842.647 375.201 908.422 375.201C974.196 375.201 1009.93 399.535 1019.3 406.968L1148.51 405.339L1075.81 458.793C1089.25 469.79 1110.73 497.281 1110.73 555.928C1110.73 614.574 1081 645.732 1066.44 657.542C1078.36 670.168 1104.32 700.307 1123.97 739.608C1150.44 792.655 1156.35 892.742 1116.44 981.63C1075.61 1072.35 1032.13 1190.66 1022.66 1226.1L1021.85 1229.35C1012.68 1263.67 1006.07 1288.51 1015.64 1305.62C1025.89 1323.8 1043.34 1334.58 1043.43 1334.63L1052.29 1339.93L1052.09 1340.13C1064.2 1343.29 1085.89 1352.45 1115.93 1379.33C1139.14 1400.1 1155.33 1417.62 1165.51 1429.83C1165.92 1429.63 1166.33 1429.43 1166.73 1429.22C1174.27 1425.35 1181.7 1421.38 1189.03 1417.21C1190.97 1416.09 1193 1414.97 1194.94 1413.85C1202.78 1409.37 1210.52 1404.79 1218.05 1399.9C1218.36 1399.7 1218.76 1399.49 1219.07 1399.29C1235.77 1388.6 1251.85 1377.09 1267.33 1364.77C1267.74 1364.57 1268.04 1364.26 1268.45 1363.96C1273.54 1359.88 1278.53 1355.71 1283.52 1351.54C1283.83 1351.33 1284.13 1351.03 1284.44 1350.82C1299 1338.4 1312.95 1325.27 1326.28 1311.42C1327.61 1310.1 1328.93 1308.77 1330.15 1307.45C1342.27 1294.72 1353.77 1281.48 1364.67 1267.74C1366.4 1265.5 1368.13 1263.36 1369.86 1261.12C1373.02 1257.15 1376.07 1253.08 1379.03 1249C1380.86 1246.36 1382.79 1243.71 1384.63 1241.06C1389.11 1234.65 1393.59 1228.13 1397.86 1221.51C1400 1218.15 1402.24 1214.9 1404.28 1211.54C1406.52 1207.87 1408.76 1204.2 1411 1200.44C1413.24 1196.67 1415.37 1192.9 1417.51 1189.14C1419.45 1185.67 1421.38 1182.42 1423.21 1178.95C1426.78 1172.34 1430.24 1165.72 1433.5 1159C1435.03 1155.84 1436.55 1152.58 1438.08 1149.32C1440.32 1144.74 1442.46 1139.96 1444.49 1135.27C1445.92 1132.22 1447.24 1129.06 1448.57 1125.91C1451.62 1118.58 1454.57 1111.14 1457.32 1103.71C1458.14 1101.47 1458.85 1099.23 1459.67 1096.99C1461.8 1091.08 1463.84 1085.08 1465.77 1078.97C1466.69 1076.12 1467.61 1073.16 1468.52 1070.31C1470.56 1063.7 1472.39 1056.98 1474.23 1050.26C1474.63 1048.63 1475.14 1046.9 1475.55 1045.27C1477.69 1037.02 1479.62 1028.67 1481.35 1020.32C1481.86 1017.78 1482.37 1015.23 1482.88 1012.68C1484.2 1006.07 1485.32 999.346 1486.44 992.626C1486.85 990.284 1487.26 988.044 1487.56 985.804C1488.89 977.15 1490.01 968.393 1490.92 959.637C1491.13 957.804 1491.23 955.87 1491.43 954.037C1492.04 946.808 1492.65 939.477 1493.06 932.146L1493.16 931.942C1493.27 929.397 1493.47 926.953 1493.57 924.408C1493.98 915.346 1494.28 906.182 1494.28 897.02C1494.28 567.943 1226.5 300.161 897.426 300.161ZM911.884 1224.36V1346.55H924.611V1224.36H911.884ZM876.247 1223.04V1346.44H888.974V1223.04H876.247ZM1680.1 1187.91H1680L1646.2 1261.02C1632.55 1290.65 1613.72 1306.23 1584.7 1292.79C1569.43 1285.76 1562.3 1273.24 1562.09 1256.64C1547.94 1273.03 1528.9 1275.88 1509.56 1266.92C1477.99 1252.36 1476.87 1219.27 1489.91 1191.27L1524.73 1116.03L1680.1 1187.91ZM288.757 1158.79L260.553 1187.61L289.469 1244.73L329.586 1239.53L346.793 1273.54L164.742 1292.89V1292.79L147.331 1258.37L271.142 1123.97L288.757 1158.79ZM1585.31 1227.62C1579.81 1239.64 1581.03 1251.04 1594.17 1257.05C1608.93 1263.87 1617.28 1253.99 1622.88 1241.77L1637.64 1209.8L1601.29 1193L1585.31 1227.62ZM193.658 1256.64L193.862 1257.05L259.942 1248.6H260.044L239.986 1208.99L193.658 1256.64ZM1518.52 1199.01C1512.31 1212.55 1511.19 1226.3 1527.27 1233.73C1543.16 1241.06 1554.05 1234.04 1560.87 1219.37L1578.08 1182.21L1535.42 1162.46L1518.52 1199.01ZM966.616 1185.85L978.071 1191.4L997.151 1152L985.697 1146.45L966.616 1185.85ZM795.739 1123.42L816.123 1178.2L828.046 1173.76L807.672 1118.98L795.739 1123.42ZM925.613 1161.34L938.238 1162.95L945.813 1103.56L933.188 1101.95L925.613 1161.34ZM238.865 846.924L200.582 859.345L199.665 923.389L237.644 937.338L237.236 970.124L245.382 1006.37L181.542 1073.47L207.505 1089.76L261.265 1077.75V1077.64L269.513 1114.4L102.531 1151.87L94.2832 1115.11L163.52 1099.64L79.6221 1049.85L69.3379 1004.03L149.978 1054.53L225.527 970.836L66.8945 908.116L67.4033 869.527L239.375 807.826L238.865 846.924ZM1542.24 1018.39C1550.39 973.076 1577.16 950.676 1622.88 958.923L1727.65 977.862L1720.93 1014.92L1616.16 995.985C1597.73 992.625 1578.69 994.051 1573.29 1024.09C1568.51 1050.56 1578.49 1061.05 1603.53 1065.63L1708.31 1084.57L1701.59 1121.63L1596.81 1102.69L1596.92 1102.59C1551.4 1094.34 1534.09 1063.39 1542.24 1018.39ZM994.521 1097.86L1003.71 1106.67L1034.22 1074.85L1025.04 1066.05L994.521 1097.86ZM894.065 1051.27V1098.31H906.793V1051.27H894.065ZM798.508 1029.89L817.608 1070.64L829.135 1065.25L810.034 1024.5L798.508 1029.89ZM987.251 1042.88L998.217 1049.35L1027.49 999.711L1016.52 993.245L987.251 1042.88ZM941.818 978.676V1033.45H954.546V978.676H941.818ZM734.924 975.119L761.631 1031.08L773.116 1025.6L746.409 969.642L734.924 975.119ZM787.735 964.755L825.906 1016.94L836.18 1009.42L798.008 957.241L787.735 964.755ZM972.494 948.041L982.687 1002.8L995.189 1000.47L985.008 945.709L972.494 948.041ZM1047.4 925.323V962.183H1060.13V925.323H1047.4ZM894.065 887.753V944.975H906.793V887.753H894.065ZM1725.72 839.084L1586.43 846.72L1591.01 930.007L1559.45 931.738L1552.83 810.88L1723.68 801.62L1725.72 839.084ZM719.244 929.034L731.696 931.671L745.696 865.53L733.244 862.894L719.244 929.034ZM109.251 889.484V889.993L171.767 913.105L172.378 868.713L109.251 889.484ZM813.295 910.785L825.981 911.844L829.789 865.975L817.103 864.926L813.295 910.785ZM1052.92 850.288L1070.41 895.373L1082.28 890.771L1064.78 845.687L1052.92 850.288ZM957.829 885.622L969.212 891.313L990.85 848.062L979.465 842.369L957.829 885.622ZM866.676 822.183V870.545H879.403V822.183H866.676ZM903.917 791.318L921.725 839.661L933.669 835.263L915.861 786.919L903.917 791.318ZM811.019 831.496L823.063 835.609L840.911 783.396L828.866 779.273L811.019 831.496ZM730.553 782.79L731.825 831.133L744.553 830.797L743.28 782.454L730.553 782.79ZM972.372 777.603L980.008 817.088L992.511 814.675L984.865 775.19L972.372 777.603ZM1013.2 776.042L1018.3 811.72L1030.9 809.928L1025.8 774.239L1013.2 776.042ZM1723.78 801.615L1723.68 801.62L1723.68 801.513L1723.78 801.615ZM1685.6 636.873L1617.48 656.727L1704.33 701.018L1717.47 746.124L1633.88 700.815L1555.07 800.291L1541.83 754.982L1601.29 683.913L1574.31 669.354L1521.37 684.829L1510.78 648.684L1675.02 600.753L1685.6 636.873ZM96.0146 682.793C107.622 639.928 143.156 615.084 197.934 629.848C245.89 642.778 274.807 676.989 261.163 727.389L241.92 798.662L76.7891 753.996L96.0146 682.793ZM740.422 710.793L749.891 719.244L785.426 679.433C790.007 682.08 797.847 686.153 808.335 690.429L780.538 741.338L791.738 747.447L820.349 695.011C829.106 698.066 839.084 700.916 850.08 703.36L836.742 761.396L849.164 764.247L862.604 705.702C872.48 707.331 883.273 708.247 894.575 708.553V768.015H907.302V708.655C919.52 708.349 931.331 707.433 942.327 705.804L958.211 761.498L970.429 758.036L954.953 703.666C967.069 701.324 978.269 698.473 987.942 695.521L1010.55 747.244L1022.15 742.153L1000.06 691.549C1011.77 687.476 1020.73 683.607 1025.82 681.266L1058.91 724.538L1068.99 716.8L1029.54 665.254L1024.9 667.622C1024.39 667.927 969.309 696.131 901.804 696.131C834.304 696.131 788.183 666.304 787.666 665.993L783.084 663.04L740.422 710.793ZM191.723 667.215C158.429 658.255 133.993 664.058 124.218 700.102L117.193 726.066L221.353 754.168L230.109 721.789C235.811 700.713 228.276 677.091 191.723 667.215ZM76.7891 753.996L76.7705 754.066L76.6689 753.964L76.7891 753.996ZM900.48 546.561L813.426 455.841L804.262 464.699L826.255 487.607H825.44C807.215 487.607 792.35 502.473 792.35 520.699C792.35 538.924 807.216 553.79 825.44 553.79C843.665 553.79 858.124 539.23 858.429 521.208L894.778 559.084V669.557H907.505V557.761L943.753 520.495V520.699C943.753 538.924 958.618 553.79 976.844 553.79C995.069 553.79 1009.93 538.924 1009.93 520.699C1009.93 502.473 995.069 487.607 976.844 487.607V487.506C976.824 487.508 976.024 487.607 975.622 487.607L997.92 464.699L988.756 455.841L900.48 546.561ZM1029.48 665.178L1029.54 665.254L1029.69 665.178H1029.48ZM915.361 641.808L927.335 646.124L950.254 582.519L938.28 578.201L915.361 641.808ZM850.463 582.482L873.362 646.089L885.336 641.782L862.437 578.176L850.463 582.482ZM225.833 463.68L182.967 543.2L215.243 560.611L254.647 487.607L280.407 501.455L241.003 574.458L277.963 594.415L321.745 513.164L349.643 528.233L287.942 642.575L137.251 561.324H137.149L197.934 448.611L225.833 463.68ZM1572.38 411.753L1610.46 474.982C1633.27 512.96 1626.65 555.927 1577.98 585.149C1535.42 610.706 1490.72 607.957 1463.74 563.157L1425.66 499.826L1572.38 411.651V411.753ZM1675.02 600.753L1675.01 600.727H1675.11L1675.02 600.753ZM1472.23 515.987L1489.5 544.727C1500.7 563.462 1523 574.357 1555.48 554.909C1585.11 537.091 1597.83 515.506 1578.49 483.433L1564.64 460.422L1472.23 515.987ZM976.844 500.232C988.044 500.232 997.207 509.397 997.207 520.597C997.207 531.797 988.044 540.961 976.844 540.961C965.644 540.961 956.48 531.797 956.48 520.597C956.481 509.397 965.644 500.233 976.844 500.232ZM825.338 500.131C836.538 500.131 845.702 509.295 845.702 520.495C845.702 531.695 836.538 540.858 825.338 540.858C814.138 540.858 804.976 531.695 804.976 520.495C804.976 509.295 814.138 500.131 825.338 500.131ZM901.193 509.499L882.662 489.848L873.396 498.604L900.887 527.826L930.007 498.706L921.047 489.746L901.193 509.499ZM478.851 384.466L455.84 408.8L367.767 325.411L367.462 325.716L428.145 438.022L409.207 458.08L294.56 404.524L294.254 404.829L381.513 487.404L358.502 511.738L234.182 394.036V393.935L268.8 357.382L380.393 410.633L380.698 410.327L319.913 303.316L354.531 266.764L478.851 384.466ZM1478.91 308L1379.23 405.644L1437.67 465.207L1415.07 487.404L1330.36 400.96L1452.59 281.169L1478.91 308ZM893.455 425.091V460.727H908.728V425.091H893.455ZM859.04 425.091V448H871.768V425.091H859.04ZM930.312 425.091V448H943.04V425.091H930.312ZM535.156 349.949L504.306 371.535L406.153 231.331L437.004 209.746L535.156 349.949ZM1218.87 224.611C1245.75 181.44 1293.09 164.334 1338.09 192.334H1337.99C1383 220.334 1388.49 270.429 1361.72 313.498C1335.65 355.447 1288.31 372.553 1243.3 344.553C1198.3 316.553 1192.8 266.458 1218.87 224.611ZM1321.29 219.316C1292.58 201.498 1266.62 219.214 1250.73 244.567C1235.67 268.8 1231.19 299.956 1259.9 317.774H1260C1288.71 335.593 1314.68 317.876 1329.75 293.745C1345.53 268.291 1350.01 237.134 1321.29 219.316ZM549.92 142.443C582.4 127.68 618.749 128.189 635.142 164.232L601.949 179.302C592.276 161.076 576.8 162.298 560.509 169.731C549.614 174.72 539.025 185.003 545.033 198.138C550.531 210.152 558.574 208.32 602.254 200.582C614.88 198.24 653.062 189.585 669.149 224.916C682.182 253.527 669.454 285.091 627.098 304.334C592.582 320.014 552.567 317.672 535.563 279.083L568.627 264.071C578.124 284.686 597.821 285.374 616.102 277.047C628.115 271.549 644.814 259.738 637.585 243.854C629.949 227.055 605.309 234.792 579.651 239.171C553.789 243.549 526.299 245.28 513.062 216.058C498.604 184.189 521.716 155.171 549.92 142.443ZM1452.59 281.169L1452.54 281.12H1452.64L1452.59 281.169ZM1152.58 110.575C1183.74 120.146 1201.76 136.64 1192.39 167.186C1187.51 183.273 1176 192.029 1159.71 194.575C1177.93 206.386 1183.33 224.815 1177.02 245.28C1166.84 278.473 1134.25 284.073 1104.73 275.113L1025.41 250.88L1075.51 87.1562V87.0547L1152.58 110.575ZM568.756 264.014L568.627 264.071C568.602 264.018 568.577 263.965 568.553 263.912L568.756 264.014ZM783.389 146.822L873.091 236.626L826.56 244.567L762.822 177.367L745.207 202.517L754.473 256.887L717.411 263.2L688.8 94.4873L688.596 94.2842L725.658 87.9707L737.571 157.92L791.636 76.7715L837.963 68.9307L783.389 146.822ZM1070.01 233.673V233.775L1108.49 245.586C1122.65 249.964 1136.49 249.149 1141.69 232.146C1146.78 215.449 1138.33 205.571 1122.95 200.786L1083.75 188.771L1070.01 233.673ZM1091.19 164.335L1127.64 175.433C1140.26 179.302 1151.36 176.451 1155.64 162.706C1160.42 147.128 1149.43 140.306 1136.6 136.335L1102.89 126.051L1091.19 164.335Z" fill="white"/>
</g>
<defs>
<clipPath id="clip0_1440_182">
<rect width="1792" height="1792" fill="white"/>
</clipPath>
</defs>
</svg>
