<svg width="3995" height="1819" viewBox="0 0 3995 1819" fill="none" xmlns="http://www.w3.org/2000/svg">
<path d="M0 1294.48V1346.93H157.303V1803.63H243.638V1153.4H183.972C167.7 1259.21 131.085 1287.24 0 1294.48Z" fill="#D7A02A"/>
<path d="M1072.65 1755.25C987.214 1755.25 931.614 1705.96 931.614 1630C931.614 1554.03 987.214 1504.74 1072.65 1504.74C1157.62 1504.74 1213.22 1554.03 1213.22 1630C1213.22 1705.96 1157.62 1755.25 1072.65 1755.25ZM1072.65 1201.33C1155.82 1201.33 1210.06 1249.71 1210.06 1324.32C1210.06 1398.93 1155.82 1447.31 1072.65 1447.31C989.022 1447.31 935.232 1398.93 935.232 1324.32C935.232 1249.71 989.022 1201.33 1072.65 1201.33ZM1184.83 1475.49C1248.39 1450.59 1295.49 1394.78 1295.49 1319.8C1295.49 1213.09 1204.64 1140.74 1072.65 1140.74C940.203 1140.74 849.8 1213.09 849.8 1319.8C849.8 1394.8 896.608 1450.62 960.095 1475.51C889.335 1501.59 844.826 1562.12 844.826 1634.97C844.826 1743.04 937.49 1816.29 1072.65 1816.29C1207.8 1816.29 1300.01 1743.04 1300.01 1634.97C1300.01 1562.1 1255.81 1501.56 1184.83 1475.49Z" fill="#D7A02A"/>
<path d="M1569.87 1514.69C1488.96 1514.69 1436.07 1451.39 1436.07 1359.59C1436.07 1269.61 1488.96 1205.85 1567.61 1205.85C1648.07 1205.85 1704.12 1272.32 1704.12 1362.76C1704.12 1452.74 1649.88 1514.69 1569.87 1514.69ZM1569.42 1142.54C1434.71 1142.54 1348.38 1233.88 1348.38 1364.57C1348.38 1495.25 1436.97 1578.9 1553.14 1578.9C1628.98 1578.9 1695.02 1541.3 1719.11 1483.59C1719.19 1629.58 1680.54 1754.34 1564.44 1754.34C1493.48 1754.34 1448.73 1710.48 1441.04 1632.71H1356.06C1366.91 1754.8 1449.63 1818.1 1564.44 1818.1C1739.83 1818.1 1804.92 1663.01 1804.92 1475.8C1804.92 1287.24 1739.37 1142.54 1569.42 1142.54Z" fill="#D7A02A"/>
<path d="M561.41 1755.25C475.978 1755.25 420.379 1705.96 420.379 1630C420.379 1554.03 475.978 1504.74 561.41 1504.74C646.389 1504.74 701.989 1554.03 701.989 1630C701.989 1705.96 646.389 1755.25 561.41 1755.25ZM561.41 1201.33C644.58 1201.33 698.823 1249.71 698.823 1324.32C698.823 1398.93 644.58 1447.31 561.41 1447.31C477.787 1447.31 423.996 1398.93 423.996 1324.32C423.996 1249.71 477.787 1201.33 561.41 1201.33ZM673.595 1475.49C737.156 1450.59 784.255 1394.78 784.255 1319.8C784.255 1213.09 693.4 1140.74 561.41 1140.74C428.968 1140.74 338.565 1213.09 338.565 1319.8C338.565 1394.8 385.375 1450.62 448.859 1475.51C378.099 1501.59 333.591 1562.12 333.591 1634.97C333.591 1743.04 426.255 1816.29 561.41 1816.29C696.565 1816.29 788.777 1743.04 788.777 1634.97C788.777 1562.1 744.575 1501.56 673.595 1475.49Z" fill="#D7A02A"/>
<path d="M1212.38 988.82V81.7817C1337.24 113.009 1412.3 202.969 1412.3 321.924C1412.3 405.194 1376.63 475.824 1307.51 531.584C1379.6 588.088 1416.02 660.948 1416.02 747.935C1416.02 868.378 1342.44 956.106 1212.38 988.82ZM599.229 660.204C694.649 427.67 789.369 184.759 825.909 81.9226V660.204H599.229ZM1608.92 530.962C1729.32 494.654 1797.29 408.34 1797.29 284.751C1797.29 106.317 1650.13 4.26769e-05 1402.64 4.26769e-05H501.125L2.42969 1070.6H430.519L564.386 744.962H825.909V1070.6H1404.87C1654.59 1070.6 1802.49 962.798 1802.49 782.135C1802.49 656.136 1732.66 567.944 1608.92 530.962Z" fill="#006C51"/>
<g clip-path="url(#clip0_1403_501)">
<mask id="mask0_1403_501" style="mask-type:luminance" maskUnits="userSpaceOnUse" x="2178" y="0" width="1817" height="1818">
<path d="M2178 3.05176e-05H3994.65V1817.3H2178V3.05176e-05Z" fill="white"/>
</mask>
<g mask="url(#mask0_1403_501)">
<path d="M3561.55 1285.63C3563.3 1283.46 3565.06 1281.19 3566.81 1278.92C3569.91 1274.89 3573 1270.76 3576.1 1266.63C3578.06 1263.95 3579.92 1261.26 3581.78 1258.58C3586.42 1252.08 3590.86 1245.47 3595.2 1238.76C3597.36 1235.45 3599.53 1232.04 3601.7 1228.64C3604.07 1224.92 3606.24 1221.1 3608.51 1217.38C3610.78 1213.56 3612.95 1209.74 3615.12 1205.92C3617.08 1202.51 3619.04 1199.11 3620.9 1195.59C3624.51 1188.88 3627.92 1182.17 3631.32 1175.36C3632.87 1172.16 3634.42 1168.85 3635.97 1165.55C3638.14 1160.8 3640.3 1156.05 3642.47 1151.3C3643.81 1148.1 3645.26 1145 3646.6 1141.8C3649.7 1134.36 3652.69 1126.93 3655.48 1119.29C3656.3 1117.02 3657.03 1114.75 3657.85 1112.47C3660.02 1106.38 3662.08 1100.29 3664.04 1094.2C3664.97 1091.31 3665.9 1088.31 3666.83 1085.42C3668.9 1078.71 3670.86 1071.89 3672.61 1065.08C3673.02 1063.43 3673.54 1061.78 3673.95 1060.02C3676.12 1051.66 3677.98 1043.19 3679.84 1034.72C3680.35 1032.14 3680.87 1029.56 3681.38 1026.98C3682.73 1020.27 3683.97 1013.45 3685 1006.64C3685.41 1004.37 3685.82 1002.09 3686.13 999.719C3687.47 990.942 3688.61 982.062 3689.54 973.182C3689.75 971.324 3689.85 969.362 3690.06 967.503C3690.78 960.172 3691.29 952.738 3691.71 945.303C3691.81 942.722 3692.02 940.244 3692.12 937.662C3692.53 928.473 3692.84 919.18 3692.84 909.887C3692.84 576.062 3421.38 304.604 3087.77 304.604C2754.17 304.604 2482.7 576.165 2482.7 909.887C2482.7 919.18 2483.01 928.369 2483.43 937.559C2483.53 940.037 2483.63 942.412 2483.84 944.89C2484.25 952.841 2484.87 960.792 2485.7 968.742C2485.8 969.981 2485.9 971.22 2486.01 972.563C2486.93 981.546 2488.07 990.426 2489.41 999.203C2489.72 1001.47 2490.13 1003.85 2490.55 1006.12C2491.68 1013.35 2493.02 1020.58 2494.47 1027.8C2494.88 1029.66 2495.19 1031.52 2495.61 1033.38C2497.36 1041.95 2499.42 1050.52 2501.49 1058.99C2502 1061.05 2502.62 1063.12 2503.14 1065.18C2505 1072 2506.86 1078.81 2508.92 1085.52C2509.54 1087.69 2510.26 1089.86 2510.88 1092.03C2513.46 1100.19 2516.25 1108.34 2519.14 1116.4C2519.76 1118.15 2520.48 1119.91 2521.1 1121.66C2523.58 1128.27 2526.16 1134.78 2528.84 1141.28C2529.77 1143.66 2530.8 1145.93 2531.73 1148.3C2535.03 1156.05 2538.54 1163.79 2542.16 1171.43C2542.78 1172.67 2543.4 1173.81 2543.91 1174.94C2547.11 1181.55 2550.52 1188.06 2553.92 1194.56C2555.16 1196.94 2556.5 1199.31 2557.85 1201.79C2561.36 1208.09 2564.97 1214.39 2568.68 1220.58C2569.41 1221.82 2570.13 1223.06 2570.85 1224.3C2575.19 1231.32 2579.63 1238.24 2584.17 1245.05C2585.72 1247.43 2587.37 1249.8 2588.91 1252.08C2592.53 1257.34 2596.24 1262.5 2599.96 1267.67C2601.3 1269.53 2602.64 1271.49 2604.09 1273.35C2608.94 1279.75 2613.89 1286.05 2618.95 1292.34C2620.81 1294.62 2622.67 1296.78 2624.53 1299.06C2628.34 1303.6 2632.16 1308.04 2636.09 1312.48C2637.94 1314.65 2639.91 1316.82 2641.76 1318.88C2647.13 1324.66 2652.6 1330.45 2658.07 1336.02C2660.14 1338.09 2662.2 1340.05 2664.26 1342.11C2668.39 1346.14 2672.52 1350.06 2676.65 1353.99C2679.03 1356.16 2681.3 1358.32 2683.67 1360.39C2689.45 1365.66 2695.44 1370.72 2701.42 1375.78C2703.49 1377.53 2705.66 1379.18 2707.72 1380.83C2712.26 1384.45 2716.8 1388.06 2721.45 1391.57C2724.13 1393.64 2726.82 1395.6 2729.5 1397.56C2734.76 1401.38 2740.03 1405.2 2745.39 1408.92C2748.29 1410.88 2751.18 1412.84 2754.07 1414.81C2759.33 1418.32 2764.59 1421.62 2769.86 1424.92C2772.75 1426.68 2775.64 1428.54 2778.63 1430.29C2783.59 1433.29 2788.64 1436.18 2793.7 1438.97C2796.08 1440.31 2798.45 1441.65 2800.82 1442.99C2810.32 1434.94 2822.6 1424.61 2833.23 1415.94C2853.88 1399.21 2891.24 1377.22 2918.39 1364.31C2934.8 1356.47 2947.7 1356.78 2955.55 1358.12L2965.25 1353.47C2966.59 1352.75 2990.54 1339.84 2990.54 1293.27C2990.54 1258.48 2985.48 1247.22 2973.2 1219.96L2969.28 1211.29C2946.78 1160.8 2918.8 1092.86 2896.3 1038.23C2884.84 1010.46 2874.73 985.883 2867.3 968.536C2847.27 921.451 2828.49 856.194 2860.69 767.911C2883.5 705.338 2915.91 673.225 2931.29 660.628C2917.77 648.031 2893.72 616.641 2893.72 552.416C2893.72 519.994 2916.43 483.752 2926.65 469.089L2843.87 411.783L2981.46 414.261C2991.37 406.93 3031.52 380.703 3098.92 380.703C3166.32 380.703 3201.83 405.381 3211.33 412.918L3342.31 411.266L3268.61 465.475C3282.24 476.627 3304.02 503.886 3304.02 563.981C3304.02 624.076 3273.88 655.052 3259.12 667.03C3271.19 679.937 3297.51 710.397 3317.43 750.254C3344.27 803.947 3350.26 905.55 3309.8 995.692C3268.41 1087.8 3224.33 1207.68 3214.73 1243.61L3213.91 1246.91C3204.62 1281.81 3197.91 1307.01 3207.61 1324.25C3218.03 1342.73 3235.69 1353.58 3235.79 1353.68L3244.77 1359.05L3244.56 1359.25C3256.85 1362.46 3278.83 1371.75 3309.28 1399.01C3332.81 1420.07 3349.23 1437.83 3359.55 1450.22C3377.82 1440.93 3395.67 1430.81 3412.81 1419.76C3413.12 1419.56 3413.53 1419.35 3413.84 1419.14C3430.77 1408.3 3447.08 1396.53 3462.77 1384.14C3463.18 1383.83 3463.49 1383.52 3463.9 1383.31C3469.06 1379.18 3474.12 1375.05 3479.18 1370.72C3479.49 1370.51 3479.8 1370.2 3480.11 1369.99C3494.87 1357.4 3509.11 1343.97 3522.53 1330.03C3523.87 1328.69 3525.11 1327.35 3526.45 1326.01C3538.63 1313.1 3550.3 1299.68 3561.44 1285.74L3561.55 1285.63Z" fill="#006A52"/>
<path d="M3087.57 1541.09C2739.72 1541.09 2456.69 1257.96 2456.69 909.99C2456.69 562.019 2739.72 278.893 3087.57 278.893C3435.41 278.893 3718.44 562.019 3718.44 909.99C3718.44 1257.96 3435.41 1541.09 3087.57 1541.09ZM3086.33 25.8136C2599.65 25.8136 2203.8 421.798 2203.8 908.647C2203.8 1395.5 2599.65 1791.48 3086.33 1791.48C3573 1791.48 3968.85 1395.5 3968.85 908.647C3968.85 421.798 3572.9 25.8136 3086.33 25.8136Z" fill="white"/>
<path d="M2441.62 1266.22L2421.29 1226.05L2374.32 1274.38L2374.53 1274.79L2441.52 1266.22H2441.62ZM2345.01 1311.03L2327.36 1276.13L2452.87 1139.84L2470.73 1175.15L2442.14 1204.37L2471.45 1262.3L2512.12 1257.03L2529.56 1291.52L2345.01 1311.14V1311.03Z" fill="#CC8A00"/>
<path d="M2352.13 925.994L2288.75 902.555V902.039L2352.75 880.975L2352.13 925.994ZM2442.86 1092.96L2388.36 1105.14L2362.04 1088.62L2426.76 1020.58L2418.5 983.817L2418.91 950.569L2380.41 936.423L2381.34 871.475L2420.15 858.878L2420.67 819.228L2246.33 881.801L2245.81 920.935L2406.63 984.54L2330.04 1069.42L2248.29 1018.2L2258.72 1064.67L2343.77 1115.16L2273.58 1130.85L2281.94 1168.13L2451.22 1130.13L2442.86 1092.86V1092.96Z" fill="#CC8A00"/>
<path d="M2402.4 764.813L2411.28 731.978C2417.06 710.604 2409.42 686.648 2372.36 676.633C2338.61 667.546 2313.84 673.432 2303.93 709.984L2296.81 736.314L2402.4 764.813ZM2255.83 764.71L2275.34 692.431C2287.1 648.96 2323.13 623.766 2378.66 638.738C2427.27 651.851 2456.59 686.545 2442.76 737.657L2423.25 809.935L2255.72 764.606L2255.83 764.71Z" fill="#CC8A00"/>
<path d="M2317.04 569.247L2378.66 454.943L2406.94 470.225L2363.48 550.868L2396.21 568.524L2436.15 494.49L2462.27 508.533L2422.32 582.567L2459.79 602.805L2504.17 520.407L2532.45 535.689L2469.9 651.645L2317.14 569.247H2317.04Z" fill="#CC8A00"/>
<path d="M2415.4 399.495L2450.5 362.426L2563.63 416.429L2563.94 416.119L2502.31 307.598L2537.41 270.529L2663.44 389.892L2640.11 414.57L2550.83 330.004L2550.52 330.314L2612.04 444.205L2592.84 464.546L2476.61 410.234L2476.3 410.543L2564.76 494.284L2541.43 518.962L2415.4 399.598V399.495Z" fill="#CC8A00"/>
<path d="M2589.74 234.596L2621.02 212.706L2720.52 354.889L2689.24 376.779L2589.74 234.596Z" fill="#CC8A00"/>
<path d="M2754.37 267.638C2763.97 288.702 2784 289.425 2802.58 280.958C2814.76 275.382 2831.69 263.405 2824.36 247.297C2816.62 230.26 2791.64 238.107 2765.63 242.547C2739.41 246.987 2711.54 248.742 2698.12 219.108C2683.46 186.789 2706.89 157.361 2735.49 144.454C2768.41 129.482 2805.26 129.999 2821.88 166.551L2788.23 181.833C2778.42 163.35 2762.74 164.589 2746.22 172.127C2735.18 177.186 2724.44 187.615 2730.53 200.935C2736.1 213.119 2744.26 211.261 2788.54 203.413C2801.34 201.038 2840.05 192.262 2856.36 228.091C2869.57 257.106 2856.66 289.115 2813.73 308.63C2778.73 324.532 2738.17 322.157 2720.93 283.023L2754.58 267.741L2754.37 267.638Z" fill="#CC8A00"/>
<path d="M2876.07 95.6145L2913.64 89.2126L2925.72 160.149L2980.53 77.8545L3027.49 69.9039L2972.17 148.894L3063.1 239.966L3015.93 248.019L2951.32 179.871L2933.46 205.375L2942.85 260.513L2905.28 266.915L2876.28 95.821L2876.07 95.6145Z" fill="#CC8A00"/>
<path d="M3284.2 166.654L3321.15 177.909C3333.95 181.833 3345.2 178.942 3349.54 165.002C3354.39 149.204 3343.24 142.286 3330.23 138.259L3296.07 127.83L3284.2 166.654ZM3262.73 237.074L3301.75 249.052C3316.09 253.492 3330.13 252.666 3335.39 235.422C3340.56 218.488 3331.99 208.473 3316.4 203.62L3276.66 191.436L3262.73 236.971V237.074ZM3268.3 88.2834L3346.44 112.135C3378.02 121.841 3396.29 138.569 3386.8 169.545C3381.84 185.86 3370.18 194.74 3353.66 197.321C3372.14 209.299 3377.61 227.988 3371.21 248.742C3360.89 282.404 3327.86 288.083 3297.93 278.996L3217.52 254.421L3268.3 88.3866V88.2834Z" fill="#CC8A00"/>
<path d="M3455.34 322.26C3484.44 340.33 3510.76 322.363 3526.04 297.892C3542.04 272.078 3546.58 240.482 3517.47 222.412C3488.37 204.343 3462.04 222.309 3445.94 248.02C3430.67 272.594 3426.12 304.19 3455.23 322.26H3455.34ZM3534.4 195.05C3580.02 223.445 3585.6 274.246 3558.45 317.923C3532.03 360.465 3484.03 377.812 3438.41 349.416C3392.78 321.021 3387.21 270.219 3413.63 227.782C3440.88 184.001 3488.88 166.654 3534.5 195.05H3534.4Z" fill="#CC8A00"/>
<path d="M3650.52 285.088L3677.26 312.348L3576.2 411.37L3635.45 471.774L3612.54 494.284L3526.66 406.62L3650.63 285.088H3650.52Z" fill="#CC8A00"/>
<path d="M3670.44 523.195L3687.99 552.416C3699.34 571.415 3721.95 582.464 3754.88 562.742C3784.91 544.672 3797.82 522.782 3778.2 490.257L3764.17 466.921L3670.44 523.298V523.195ZM3772.01 417.565L3810.61 481.686C3833.74 520.201 3827.03 563.775 3777.69 593.409C3734.54 619.326 3689.23 616.538 3661.88 571.106L3623.27 506.881L3772.01 417.462V417.565Z" fill="#CC8A00"/>
<path d="M3876.06 609.207L3886.79 645.863L3817.74 665.997L3905.78 710.914L3919.1 756.656L3834.36 710.707L3754.46 811.588L3741.05 765.639L3801.33 693.567L3773.97 678.801L3720.3 694.496L3709.56 657.84L3876.16 609.207H3876.06Z" fill="#CC8A00"/>
<path d="M3925.39 812.827L3927.46 850.928L3786.26 858.672L3790.9 943.135L3758.9 944.89L3752.19 822.326L3925.5 812.93L3925.39 812.827Z" fill="#CC8A00"/>
<path d="M3796.89 1118.15C3750.75 1109.79 3733.2 1078.4 3741.46 1032.76C3749.72 986.812 3776.86 964.096 3823.21 972.46L3929.42 991.665L3922.61 1029.25L3816.4 1010.04C3797.71 1006.64 3778.41 1008.08 3772.94 1038.54C3768.09 1065.39 3778.2 1076.02 3803.6 1080.67L3909.81 1099.88L3903 1137.46L3796.78 1118.26L3796.89 1118.15Z" fill="#CC8A00"/>
<path d="M3801.33 1209.84L3785.12 1244.95C3779.55 1257.13 3780.78 1268.7 3794.1 1274.79C3809.07 1281.71 3817.53 1271.69 3823.21 1259.3L3838.17 1226.88L3801.33 1209.84ZM3734.54 1178.87L3717.41 1215.94C3711.11 1229.67 3709.98 1243.61 3726.29 1251.15C3742.39 1258.58 3753.43 1251.46 3760.35 1236.59L3777.79 1198.9L3734.54 1178.87ZM3881.11 1204.68L3846.84 1278.82C3833.01 1308.87 3813.92 1324.66 3784.5 1311.03C3769.02 1303.91 3761.79 1291.21 3761.59 1274.38C3747.24 1291 3727.94 1293.89 3708.33 1284.81C3676.33 1270.04 3675.19 1236.48 3688.4 1208.09L3723.7 1131.78L3881.22 1204.68H3881.11Z" fill="#CC8A00"/>
<path d="M2556.71 1414.5C2570.23 1428.13 2570.23 1449.81 2556.71 1463.34C2543.09 1476.86 2521.2 1476.76 2507.68 1463.23C2494.16 1449.6 2494.37 1427.92 2507.99 1414.39C2521.62 1400.87 2543.19 1400.97 2556.71 1414.6V1414.5Z" fill="#CC8A00"/>
<path d="M2888.25 1731.8L2854.91 1721.58L2887.73 1614.81L2846.34 1602.11L2854.08 1576.92C2877.21 1584.56 2901.05 1583.11 2912.3 1559.05L2938.83 1567.21L2888.25 1731.9V1731.8Z" fill="#CC8A00"/>
<path d="M3017.27 1651.26C3031.41 1652.71 3043.8 1645.99 3045.25 1631.33C3046.17 1622.56 3043.49 1607.17 3021.92 1605C3007.98 1603.56 2994.88 1610.89 2993.33 1626.07C2991.78 1641.04 3003.24 1649.81 3017.27 1651.26ZM3009.43 1730.87C3026.05 1732.52 3039.98 1722.09 3041.74 1704.95C3043.39 1688.54 3031.31 1676.15 3015.11 1674.6C2998.18 1672.84 2983.83 1681.1 2981.97 1698.65C2980.22 1716.31 2992.71 1729.22 3009.33 1730.87H3009.43ZM3024.6 1578.88C3067.13 1583.22 3078.9 1614.09 3077.14 1630.71C3075.39 1647.65 3065.27 1660.45 3048.55 1664.17V1664.68C3068.37 1671.4 3078.48 1688.23 3076.31 1709.81C3072.7 1745.74 3038.54 1760.4 3006.75 1757.1C2973.72 1753.69 2943.37 1733.86 2947.08 1696.9C2949.25 1675.11 2963.08 1660.97 2983.62 1658.08V1657.56C2967.52 1651.26 2960.3 1636.6 2962.05 1619.77C2965.15 1588.89 2996.63 1576.09 3024.5 1578.88H3024.6Z" fill="#CC8A00"/>
<path d="M3169.21 1731.49C3185.83 1729.94 3197.49 1717.03 3195.95 1699.89C3194.4 1683.48 3180.15 1673.67 3164.05 1675.11C3147.12 1676.66 3134.53 1687.5 3136.18 1705.06C3137.83 1722.71 3152.59 1732.94 3169.21 1731.39V1731.49ZM3161.68 1651.88C3175.92 1650.54 3186.66 1641.66 3185.31 1627C3184.49 1618.22 3179.02 1603.66 3157.45 1605.62C3143.51 1606.86 3132.05 1616.57 3133.4 1631.75C3134.74 1646.72 3147.74 1653.12 3161.68 1651.88ZM3154.97 1579.39C3197.6 1575.47 3214.94 1603.56 3216.49 1620.18C3218.03 1637.11 3210.5 1651.57 3194.81 1658.49V1659C3215.66 1661.79 3228.77 1676.35 3230.83 1697.93C3234.14 1733.97 3203.48 1754.83 3171.59 1757.72C3138.56 1760.71 3104.91 1747.08 3101.5 1710.01C3099.54 1688.23 3110.27 1671.71 3129.99 1664.89V1664.37C3112.85 1661.28 3103.05 1648.37 3101.5 1631.44C3098.71 1600.56 3127.1 1581.87 3154.97 1579.29V1579.39Z" fill="#CC8A00"/>
<path d="M3318.78 1609.65C3314.23 1594.37 3299.78 1581.98 3283.06 1586.93C3267.06 1591.68 3262.42 1609.75 3266.75 1624.62C3271.4 1640.21 3283.99 1653.43 3301.23 1648.27C3319.19 1643 3323.63 1625.96 3318.78 1609.65ZM3288.22 1692.36C3293.59 1702.79 3304.94 1709.7 3316.51 1706.3C3340.76 1699.07 3337.77 1665.41 3333.23 1646.72L3332.61 1646.41C3327.24 1662.1 3316.82 1671.09 3300.82 1675.84C3286.68 1680.07 3270.37 1677.69 3257.77 1670.16C3246.01 1662.62 3237.96 1650.12 3234.14 1637.11C3224.12 1603.35 3239.61 1569.79 3273.98 1559.57C3323.94 1544.7 3350.36 1584.35 3362.75 1626.17C3374.72 1666.54 3370.39 1717.86 3323.52 1731.7C3295.04 1740.16 3268.82 1729.73 3256.43 1701.86L3288.22 1692.46V1692.36Z" fill="#CC8A00"/>
<path d="M3609.23 1413.88C3622.86 1400.35 3644.64 1400.35 3658.06 1413.88C3671.58 1427.51 3671.48 1449.4 3657.85 1462.92C3644.23 1476.45 3622.45 1476.14 3609.03 1462.61C3595.61 1449.09 3595.61 1427.4 3609.23 1413.88Z" fill="#CC8A00"/>
<path d="M3691.6 945.303C3691.19 952.738 3690.57 960.172 3689.95 967.503C3689.75 969.362 3689.64 971.324 3689.44 973.182C3688.51 982.062 3687.37 990.942 3686.03 999.719C3685.72 1001.99 3685.31 1004.26 3684.89 1006.64C3683.76 1013.45 3682.62 1020.27 3681.28 1026.98C3680.77 1029.56 3680.25 1032.14 3679.73 1034.72C3677.98 1043.19 3676.02 1051.66 3673.85 1060.02C3673.44 1061.67 3672.92 1063.43 3672.51 1065.08C3670.65 1071.89 3668.79 1078.71 3666.73 1085.42C3665.8 1088.31 3664.87 1091.31 3663.94 1094.2C3661.98 1100.39 3659.92 1106.48 3657.75 1112.47C3656.92 1114.75 3656.2 1117.02 3655.37 1119.29C3652.59 1126.83 3649.59 1134.36 3646.5 1141.8C3645.16 1145 3643.81 1148.2 3642.37 1151.3C3640.3 1156.05 3638.14 1160.9 3635.87 1165.55C3634.32 1168.85 3632.77 1172.16 3631.22 1175.36C3627.92 1182.17 3624.41 1188.88 3620.8 1195.59C3618.94 1199.11 3616.98 1202.41 3615.02 1205.92C3612.85 1209.74 3610.68 1213.56 3608.41 1217.38C3606.14 1221.2 3603.87 1224.92 3601.6 1228.64C3599.53 1232.04 3597.26 1235.35 3595.09 1238.76C3590.76 1245.47 3586.22 1252.08 3581.68 1258.58C3579.82 1261.26 3577.86 1263.95 3576 1266.63C3573.01 1270.76 3569.91 1274.89 3566.71 1278.92C3564.95 1281.19 3563.2 1283.36 3561.44 1285.63C3550.4 1299.57 3538.74 1313 3526.45 1325.9C3525.21 1327.24 3523.87 1328.59 3522.53 1329.93C3509.01 1343.97 3494.87 1357.29 3480.11 1369.89C3479.8 1370.1 3479.49 1370.41 3479.18 1370.61C3474.12 1374.85 3469.06 1379.08 3463.9 1383.21C3463.49 1383.52 3463.18 1383.83 3462.77 1384.04C3447.08 1396.53 3430.77 1408.2 3413.84 1419.04C3413.53 1419.25 3413.12 1419.45 3412.81 1419.66C3405.17 1424.61 3397.33 1429.26 3389.38 1433.8C3387.42 1434.94 3385.35 1436.08 3383.39 1437.21C3375.96 1441.45 3368.42 1445.47 3360.79 1449.4C3360.37 1449.6 3359.96 1449.81 3359.55 1450.02C3349.23 1437.63 3332.81 1419.87 3309.28 1398.8C3278.83 1371.54 3256.85 1362.25 3244.56 1359.05L3244.77 1358.84L3235.79 1353.47C3235.79 1353.47 3218.03 1342.53 3207.61 1324.04C3197.91 1306.7 3204.62 1281.5 3213.91 1246.71L3214.73 1243.4C3224.33 1207.47 3268.41 1087.49 3309.8 995.485C3350.26 905.343 3344.27 803.843 3317.43 750.047C3297.51 710.191 3271.19 679.627 3259.12 666.823C3273.88 654.846 3304.02 623.25 3304.02 563.774C3304.02 504.299 3282.24 476.42 3268.61 465.269L3342.31 411.06L3211.33 412.712C3201.83 405.174 3165.6 380.496 3098.92 380.496C3032.24 380.496 2991.47 406.62 2981.46 414.054L2843.87 411.576L2926.65 468.883C2916.43 483.545 2893.72 519.788 2893.72 552.21C2893.72 616.435 2917.77 647.824 2931.29 660.422C2915.91 673.019 2883.5 705.131 2860.69 767.704C2828.49 855.884 2847.27 921.245 2867.3 968.329C2874.63 985.676 2884.84 1010.25 2896.3 1038.03C2918.8 1092.65 2946.78 1160.59 2969.28 1211.08L2973.2 1219.76C2985.48 1247.02 2990.54 1258.27 2990.54 1293.07C2990.54 1339.53 2966.59 1352.54 2965.25 1353.27L2955.55 1357.91C2947.81 1356.57 2934.8 1356.26 2918.39 1364.11C2891.35 1377.01 2853.88 1399.01 2833.23 1415.73C2822.6 1424.31 2810.32 1434.63 2800.93 1442.68C2798.55 1441.34 2796.08 1440.1 2793.7 1438.76C2788.64 1435.97 2783.59 1433.08 2778.63 1430.09C2775.74 1428.33 2772.75 1426.58 2769.86 1424.72C2764.49 1421.41 2759.23 1418.01 2754.07 1414.6C2751.18 1412.64 2748.29 1410.68 2745.39 1408.71C2740.03 1405 2734.66 1401.28 2729.5 1397.36C2726.82 1395.39 2724.13 1393.33 2721.45 1391.37C2716.8 1387.86 2712.26 1384.24 2707.72 1380.63C2705.66 1378.98 2703.49 1377.32 2701.42 1375.57C2695.44 1370.61 2689.55 1365.45 2683.67 1360.18C2681.3 1358.02 2679.03 1355.85 2676.65 1353.78C2672.42 1349.86 2668.29 1345.93 2664.26 1341.91C2662.2 1339.84 2660.14 1337.88 2658.07 1335.82C2652.5 1330.24 2647.03 1324.46 2641.76 1318.67C2639.8 1316.61 2637.94 1314.44 2636.09 1312.27C2632.16 1307.83 2628.34 1303.39 2624.53 1298.85C2622.67 1296.58 2620.81 1294.41 2618.95 1292.14C2613.89 1285.94 2608.94 1279.64 2604.09 1273.14C2602.64 1271.28 2601.3 1269.42 2599.96 1267.46C2596.14 1262.3 2592.53 1257.13 2588.91 1251.87C2587.26 1249.49 2585.72 1247.22 2584.17 1244.85C2579.63 1238.03 2575.08 1231.11 2570.85 1224.09C2570.13 1222.85 2569.41 1221.61 2568.68 1220.38C2564.97 1214.18 2561.36 1207.88 2557.85 1201.58C2556.5 1199.21 2555.27 1196.83 2553.92 1194.36C2550.41 1187.85 2547.11 1181.35 2543.91 1174.74C2543.29 1173.5 2542.67 1172.36 2542.16 1171.23C2538.54 1163.59 2535.03 1155.84 2531.73 1148.1C2530.7 1145.72 2529.77 1143.45 2528.84 1141.08C2526.16 1134.57 2523.58 1128.07 2521.1 1121.46C2520.48 1119.7 2519.76 1117.95 2519.14 1116.19C2516.25 1108.14 2513.46 1099.98 2510.88 1091.82C2510.16 1089.65 2509.54 1087.49 2508.92 1085.32C2506.86 1078.61 2504.89 1071.79 2503.14 1064.98C2502.62 1062.91 2502 1060.85 2501.49 1058.78C2499.32 1050.31 2497.36 1041.74 2495.6 1033.17C2495.19 1031.31 2494.88 1029.46 2494.47 1027.6C2493.02 1020.37 2491.79 1013.25 2490.55 1005.91C2490.13 1003.64 2489.82 1001.37 2489.41 998.996C2488.07 990.116 2486.93 981.236 2486.01 972.356C2485.9 971.117 2485.8 969.878 2485.7 968.536C2484.97 960.585 2484.35 952.634 2483.84 944.684C2483.73 942.206 2483.53 939.831 2483.43 937.353C2483.01 928.163 2482.7 918.973 2482.7 909.68C2482.7 575.855 2754.17 304.397 3087.77 304.397C3421.38 304.397 3692.84 575.959 3692.84 909.68C3692.84 918.973 3692.53 928.266 3692.12 937.456C3692.02 940.037 3691.81 942.515 3691.71 945.097L3691.6 945.303ZM3087.57 278.79C2739.72 278.79 2456.69 561.916 2456.69 909.887C2456.69 1257.86 2739.72 1540.98 3087.57 1540.98C3435.41 1540.98 3718.44 1257.86 3718.44 909.887C3718.44 561.916 3435.41 278.79 3087.57 278.79Z" fill="#CC8A00"/>
<path d="M3086.33 1791.48C2599.65 1791.48 2203.8 1395.5 2203.8 908.648C2203.8 421.798 2599.65 25.8139 3086.33 25.8139C3573 25.8139 3968.85 421.798 3968.85 908.648C3968.85 1395.5 3572.9 1791.48 3086.33 1791.48ZM3086.33 3.05176e-05C2585.51 3.05176e-05 2178 407.652 2178 908.648C2178 1409.64 2585.51 1817.3 3086.33 1817.3C3587.15 1817.3 3994.65 1409.64 3994.65 908.648C3994.65 407.652 3587.15 3.05176e-05 3086.33 3.05176e-05Z" fill="#CC8A00"/>
<path d="M3242.19 671.573L3234.76 664.448L3243.63 659.286C3245.49 658.253 3288.84 631.923 3288.84 563.981C3288.84 489.637 3253.75 473.632 3252.3 473.013L3239.92 467.644L3294.52 427.374L3205.75 428.51L3203.48 426.445C3203.48 426.445 3169.52 396.191 3099.02 396.191C3028.52 396.191 2989.51 427.581 2989.2 427.994L2987.03 429.852H2984.14L2895.06 428.2L2949.05 465.475L2943.99 471.98C2943.99 471.98 2909.51 516.896 2909.51 552.416C2909.51 630.168 2946.67 653.194 2948.22 654.123L2959.26 660.731L2948.32 667.443C2948.32 667.443 2903.73 695.838 2875.45 773.176C2845.1 856.297 2862.86 917.94 2881.75 962.34C2889.18 979.79 2899.29 1004.37 2910.75 1032.24C2933.25 1086.76 2961.23 1154.6 2983.62 1204.89L2987.55 1213.56C3000.45 1242.16 3006.23 1255.17 3006.23 1293.27C3006.23 1331.38 2991.78 1351.3 2981.66 1360.49C2998.28 1372.37 3040.91 1397.77 3100.47 1397.77C3160.03 1397.77 3202.45 1372.37 3219.17 1360.6C3211.94 1354.71 3201.73 1345 3194.4 1331.89C3181.6 1309.07 3188.93 1281.3 3199.25 1242.89L3200.07 1239.58C3210.91 1198.9 3257.26 1075.4 3295.96 989.29C3334.47 903.588 3329.1 807.664 3303.81 757.172C3278.93 707.299 3242.5 671.883 3242.19 671.47V671.573Z" fill="white"/>
<path d="M2867.4 1446.61L2874.32 1457.45L2989.61 1383.93C2984.97 1381.25 2980.84 1378.67 2977.43 1376.39L2867.4 1446.51V1446.61Z" fill="white"/>
<path d="M2966.08 1487.29L2976.92 1494.21L3035.03 1403.55C3030.69 1402.21 3026.46 1400.87 3022.43 1399.32L2966.08 1487.29Z" fill="white"/>
<path d="M3083.75 1508.77H3096.65V1413.15C3092.31 1413.15 3087.98 1412.95 3083.75 1412.64V1508.77Z" fill="white"/>
<path d="M3200.9 1496.79L3211.84 1489.87L3158.58 1405.62C3154.35 1406.75 3149.91 1407.78 3145.27 1408.71L3200.9 1496.69V1496.79Z" fill="white"/>
<path d="M3297.51 1465.92L3306.18 1456.31L3220 1378.87C3216.59 1381.04 3212.77 1383.42 3208.33 1385.79L3297.51 1465.92Z" fill="white"/>
<path d="M3163.75 788.579L3176.41 786.132L3184.17 826.174L3171.49 828.622L3163.75 788.579Z" fill="#CC8A00"/>
<path d="M3094.35 802.488L3106.46 798.027L3124.51 847.053L3112.41 851.513L3094.35 802.488Z" fill="#CC8A00"/>
<path d="M3056.6 833.787H3069.5V882.834H3056.6V833.787Z" fill="#CC8A00"/>
<path d="M3221.85 674.568L3217 677.046C3216.49 677.356 3160.64 705.957 3092.21 705.957C3023.78 705.957 2977.02 675.703 2976.5 675.394L2971.86 672.399L2928.61 720.826L2938.21 729.396L2974.23 689.023C2978.88 691.708 2986.82 695.838 2997.46 700.175L2969.28 751.803L2980.63 757.998L3009.64 704.821C3018.51 707.919 3028.63 710.81 3039.78 713.288L3026.25 772.144L3038.85 775.035L3052.47 715.663C3062.48 717.315 3073.42 718.245 3084.88 718.554V778.856H3097.78V718.658C3110.17 718.348 3122.14 717.419 3133.29 715.767L3149.39 772.247L3161.78 768.737L3146.09 713.598C3158.37 711.223 3169.73 708.332 3179.53 705.338L3202.45 757.791L3214.22 752.629L3191.82 701.311C3203.69 697.181 3212.77 693.257 3217.93 690.882L3251.48 734.766L3261.7 726.918L3221.65 674.568H3221.85Z" fill="#CC8A00"/>
<path d="M3040.16 590.705L3052.3 586.337L3075.52 650.841L3063.38 655.208L3040.16 590.705Z" fill="#CC8A00"/>
<path d="M3048.86 431.091H3061.76V454.324H3048.86V431.091Z" fill="#CC8A00"/>
<path d="M3121.11 431.091H3134.01V454.324H3121.11V431.091Z" fill="#CC8A00"/>
<path d="M3083.75 431.091H3099.23V467.231H3083.75V431.091Z" fill="#CC8A00"/>
<path d="M3168.28 548.596C3156.93 548.596 3147.64 539.303 3147.64 527.945C3147.64 516.587 3156.93 507.294 3168.28 507.294C3179.64 507.294 3188.93 516.587 3188.93 527.945C3188.93 539.303 3179.64 548.596 3168.28 548.596ZM3014.69 548.493C3003.34 548.493 2994.05 539.2 2994.05 527.842C2994.05 516.484 3003.34 507.191 3014.69 507.191C3026.05 507.191 3035.34 516.484 3035.34 527.842C3035.34 539.2 3026.05 548.493 3014.69 548.493ZM3168.28 494.387C3168.28 494.387 3167.46 494.49 3167.04 494.49L3189.65 471.258L3180.36 462.275L3090.87 554.275L3002.62 462.275L2993.33 471.258L3015.62 494.49H3014.8C2996.32 494.49 2981.25 509.566 2981.25 528.048C2981.25 546.531 2996.32 561.606 3014.8 561.606C3033.27 561.606 3047.93 546.841 3048.24 528.565L3085.09 566.976V679.008H3097.99V565.633L3134.74 527.842V528.048C3134.74 546.531 3149.81 561.606 3168.28 561.606C3186.76 561.606 3201.83 546.531 3201.83 528.048C3201.83 509.566 3186.76 494.49 3168.28 494.49V494.387Z" fill="#CC8A00"/>
<path d="M3120.8 505.745L3111.72 496.659L3091.59 516.69L3072.81 496.762L3063.41 505.642L3091.28 535.276L3120.8 505.745Z" fill="#CC8A00"/>
<path d="M3102.43 1241.65H3115.33V1365.55H3102.43V1241.65Z" fill="#CC8A00"/>
<path d="M3066.3 1240.3H3079.21V1365.45H3066.3V1240.3Z" fill="#CC8A00"/>
<path d="M2984.69 1139.28L2996.78 1134.78L3017.44 1190.33L3005.35 1194.83L2984.69 1139.28Z" fill="#CC8A00"/>
<path d="M3116.35 1177.73L3124.03 1117.5L3136.83 1119.13L3129.15 1179.36L3116.35 1177.73Z" fill="#CC8A00"/>
<path d="M3157.91 1202.59L3177.26 1162.63L3188.87 1168.26L3169.53 1208.22L3157.91 1202.59Z" fill="#CC8A00"/>
<path d="M3186.2 1113.36L3217.14 1081.09L3226.45 1090.03L3195.51 1122.29L3186.2 1113.36Z" fill="#CC8A00"/>
<path d="M3178.83 1057.6L3208.51 1007.27L3219.63 1013.82L3189.95 1064.16L3178.83 1057.6Z" fill="#CC8A00"/>
<path d="M3163.87 961.423L3176.56 959.059L3186.88 1014.59L3174.21 1016.95L3163.87 961.423Z" fill="#CC8A00"/>
<path d="M3132.78 992.491H3145.68V1048.04H3132.78V992.491Z" fill="#CC8A00"/>
<path d="M3084.37 1066.11H3097.27V1113.82H3084.37V1066.11Z" fill="#CC8A00"/>
<path d="M2987.49 1044.43L2999.18 1038.96L3018.54 1080.28L3006.86 1085.76L2987.49 1044.43Z" fill="#CC8A00"/>
<path d="M2923.03 988.883L2934.68 983.328L2961.75 1040.08L2950.11 1045.63L2923.03 988.883Z" fill="#CC8A00"/>
<path d="M2976.57 978.373L2986.99 970.753L3025.68 1023.67L3015.27 1031.29L2976.57 978.373Z" fill="#CC8A00"/>
<path d="M3084.37 900.284H3097.27V958.313H3084.37V900.284Z" fill="#CC8A00"/>
<path d="M3239.81 938.385H3252.72V975.764H3239.81V938.385Z" fill="#CC8A00"/>
<path d="M3245.4 862.29L3257.43 857.623L3275.17 903.344L3263.13 908.012L3245.4 862.29Z" fill="#CC8A00"/>
<path d="M3002.48 923.641L3006.34 877.135L3019.21 878.199L3015.35 924.715L3002.48 923.641Z" fill="#CC8A00"/>
<path d="M2907.14 942.148L2921.33 875.073L2933.96 877.747L2919.76 944.822L2907.14 942.148Z" fill="#CC8A00"/>
<path d="M2918.6 793.839L2931.51 793.498L2932.8 842.524L2919.89 842.865L2918.6 793.839Z" fill="#CC8A00"/>
<path d="M3000.18 843.233L3018.27 790.274L3030.48 794.455L3012.39 847.405L3000.18 843.233Z" fill="#CC8A00"/>
<path d="M3149.01 898.123L3170.94 854.26L3182.48 860.032L3160.55 903.895L3149.01 898.123Z" fill="#CC8A00"/>
<path d="M3205.14 786.996L3217.91 785.169L3223.08 821.36L3210.31 823.177L3205.14 786.996Z" fill="#CC8A00"/>
<path d="M3105.95 650.866L3129.19 586.363L3141.33 590.741L3118.09 655.244L3105.95 650.866Z" fill="#CC8A00"/>
</g>
</g>
<defs>
<clipPath id="clip0_1403_501">
<rect width="1816.65" height="1817.3" fill="white" transform="translate(2178)"/>
</clipPath>
</defs>
</svg>
