<svg width="3988" height="1792" viewBox="0 0 3988 1792" fill="none" xmlns="http://www.w3.org/2000/svg">
<path d="M153.528 1776.62V1326.36H1.11743V1276.83C68.3735 1272.98 106.195 1263.32 131.535 1243.56C156.918 1223.77 170.766 1193.09 179.219 1137.8H234.984V1776.62H153.528Z" fill="white"/>
<path d="M1039.29 1789.1C975.228 1789.1 920.323 1772.09 880.52 1739.91C840.716 1707.73 819.67 1663.31 819.67 1611.46C819.67 1540.8 862.181 1480.96 930.626 1455.3L933.334 1454.29L930.648 1453.22C864.162 1426.69 824.491 1369.7 824.491 1300.74C824.491 1249.51 845.031 1205.63 883.91 1173.9C922.811 1142.12 976.549 1125.34 1039.29 1125.34C1102.04 1125.34 1155.55 1142.12 1194.52 1173.9C1233.51 1205.7 1254.12 1249.56 1254.12 1300.74C1254.12 1369.61 1214.29 1426.6 1147.61 1453.2L1144.9 1454.27L1147.63 1455.28C1216.01 1480.83 1258.5 1540.69 1258.5 1611.46C1258.5 1663.36 1237.54 1707.78 1197.87 1739.91C1158.17 1772.09 1103.33 1789.1 1039.29 1789.1ZM1039.29 1481.95C955.613 1481.95 901.544 1530.87 901.544 1606.55C901.544 1682.23 955.613 1731.15 1039.29 1731.15C1122.97 1731.15 1176.6 1682.23 1176.6 1606.55C1176.6 1530.87 1122.71 1481.95 1039.29 1481.95ZM1039.29 1182.8C957.748 1182.8 905.044 1230.84 905.044 1305.18C905.044 1379.51 957.726 1427.56 1039.29 1427.56C1120.86 1427.56 1173.54 1379.51 1173.54 1305.18C1173.54 1230.84 1120.86 1182.8 1039.29 1182.8Z" fill="white"/>
<path d="M1515.76 1790.88C1460.08 1790.88 1412.36 1774.97 1377.75 1744.89C1341.95 1713.76 1320.29 1667.26 1315.07 1610.34H1395.21C1402.96 1686.58 1446.85 1730.26 1515.76 1730.26C1568.6 1730.26 1608.36 1703.3 1633.89 1650.14C1655.71 1604.69 1666.76 1541.47 1666.72 1462.21V1456.63L1664.6 1461.78C1641.36 1518.44 1578.64 1555.05 1504.82 1555.05C1388.67 1555.05 1307.52 1468.62 1307.52 1344.87C1307.52 1214.62 1393.14 1127.09 1520.58 1127.09C1598.01 1127.09 1656.86 1158.73 1695.49 1221.12C1730.1 1277.04 1747.67 1355.56 1747.67 1454.52C1747.67 1553.49 1729.48 1634.88 1695.05 1691.89C1655.4 1757.58 1595.08 1790.88 1515.78 1790.88H1515.76ZM1518.84 1187.26C1443.16 1187.26 1390.3 1250.05 1390.3 1339.96C1390.3 1429.87 1442.82 1493.99 1521.02 1493.99C1559.33 1493.99 1592.15 1479.47 1615.95 1451.99C1639.66 1424.61 1652.19 1386.96 1652.19 1343.08C1652.19 1299.2 1638.98 1259.85 1615.03 1231.57C1590.83 1202.99 1556.66 1187.26 1518.82 1187.26H1518.84Z" fill="white"/>
<path d="M543.95 1789.1C479.886 1789.1 424.981 1772.09 385.177 1739.91C345.374 1707.73 324.328 1663.31 324.328 1611.46C324.328 1540.8 366.839 1480.96 435.284 1455.3L437.991 1454.29L435.306 1453.22C368.82 1426.69 329.149 1369.7 329.149 1300.74C329.149 1249.51 349.689 1205.63 388.568 1173.9C427.468 1142.12 481.207 1125.34 543.95 1125.34C606.693 1125.34 660.212 1142.12 699.178 1173.9C738.167 1205.7 758.773 1249.56 758.773 1300.74C758.773 1369.61 718.948 1426.6 652.264 1453.2L649.556 1454.27L652.286 1455.28C720.687 1480.83 763.154 1540.69 763.154 1611.46C763.154 1663.36 742.196 1707.78 702.525 1739.91C662.831 1772.09 607.992 1789.1 543.95 1789.1ZM543.95 1481.95C460.271 1481.95 406.202 1530.87 406.202 1606.55C406.202 1682.23 460.271 1731.15 543.95 1731.15C627.629 1731.15 681.258 1682.23 681.258 1606.55C681.258 1530.87 627.365 1481.95 543.95 1481.95ZM543.95 1182.8C462.406 1182.8 409.724 1230.84 409.724 1305.18C409.724 1379.51 462.406 1427.56 543.95 1427.56C625.494 1427.56 678.198 1379.51 678.198 1305.18C678.198 1230.84 625.516 1182.8 543.95 1182.8Z" fill="white"/>
<path d="M801.329 1053.91V732.867H546.108L416.417 1053.91H4.09692L486.249 0.638916H1358.99C1597.72 0.638916 1740.25 105.16 1740.25 280.25C1740.25 400.144 1675.72 485.952 1558.54 521.921L1555.04 522.996L1558.56 524.072C1678.98 560.69 1745.31 648.269 1745.31 770.628C1745.31 948.004 1601.71 1053.91 1361.17 1053.91H801.329ZM1173.56 975.837L1174.92 975.479C1300.85 943.253 1373.06 856.302 1373.06 736.901C1373.06 651.092 1337.9 579.335 1268.6 523.579C1335.52 468.203 1369.47 398.665 1369.47 316.89C1369.47 198.968 1296.76 110.045 1174.95 79.0519L1173.58 78.6933V975.815L1173.56 975.837ZM799.193 79.9035C761.327 188.324 666.927 433.401 579.593 649.994L578.976 651.541H801.351V73.7855L799.215 79.9035H799.193Z" fill="white"/>
<g clip-path="url(#clip0_1403_502)">
<mask id="mask0_1403_502" style="mask-type:luminance" maskUnits="userSpaceOnUse" x="2211" y="0" width="1777" height="1777">
<path d="M2211.68 0.000183105H3987.72V1776.04H2211.68V0.000183105Z" fill="white"/>
</mask>
<g mask="url(#mask0_1403_502)">
<path d="M2469.41 1237.48L2449.53 1198.22L2403.61 1245.45L2403.81 1245.85L2469.3 1237.48H2469.41ZM2374.95 1281.27L2357.7 1247.17L2480.41 1113.96L2497.86 1148.47L2469.91 1177.03L2498.57 1233.64L2538.33 1228.5L2555.38 1262.2L2374.95 1281.37V1281.27Z" fill="white"/>
<path d="M2381.92 904.974L2319.96 882.067V881.563L2382.52 860.977L2381.92 904.974ZM2470.62 1068.15L2417.34 1080.06L2391.6 1063.91L2454.87 997.409L2446.8 961.485L2447.21 928.991L2409.57 915.166L2410.47 851.693L2448.42 839.382L2448.92 800.632L2278.48 861.784L2277.98 900.03L2435.2 962.191L2360.32 1045.14L2280.4 995.088L2290.59 1040.5L2373.74 1089.84L2305.12 1105.18L2313.3 1141.61L2478.79 1104.48L2470.62 1068.05V1068.15Z" fill="white"/>
<path d="M2431.06 747.452L2439.74 715.362C2445.39 694.473 2437.92 671.062 2401.69 661.274C2368.7 652.393 2344.48 658.145 2334.79 693.868L2327.83 719.6L2431.06 747.452ZM2287.76 747.351L2306.84 676.713C2318.34 634.229 2353.56 609.607 2407.85 624.239C2455.38 637.055 2484.04 670.961 2470.52 720.912L2451.44 791.55L2287.66 747.25L2287.76 747.351Z" fill="white"/>
<path d="M2347.61 556.325L2407.85 444.616L2435.5 459.551L2393.02 538.363L2425 555.619L2464.06 483.265L2489.59 496.989L2450.54 569.343L2487.17 589.122L2530.56 508.594L2558.21 523.529L2497.06 636.853L2347.71 556.325H2347.61Z" fill="white"/>
<path d="M2443.77 390.427L2478.08 354.2L2588.68 406.977L2588.99 406.674L2528.74 300.616L2563.05 264.389L2686.26 381.042L2663.46 405.16L2576.17 322.514L2575.87 322.816L2636.01 434.122L2617.24 454.001L2503.61 400.922L2503.31 401.225L2589.79 483.064L2566.99 507.182L2443.77 390.528V390.427Z" fill="white"/>
<path d="M2614.21 229.271L2644.79 207.878L2742.07 346.833L2711.49 368.227L2614.21 229.271Z" fill="white"/>
<path d="M2775.17 261.562C2784.55 282.148 2804.13 282.855 2822.29 274.58C2834.2 269.131 2850.75 257.425 2843.59 241.683C2836.02 225.033 2811.6 232.702 2786.17 237.041C2760.54 241.38 2733.29 243.096 2720.17 214.134C2705.84 182.549 2728.75 153.789 2756.7 141.175C2788.89 126.543 2824.92 127.047 2841.16 162.77L2808.27 177.705C2798.68 159.642 2783.34 160.853 2767.2 168.219C2756.4 173.164 2745.9 183.356 2751.86 196.374C2757.31 208.281 2765.28 206.465 2808.57 198.796C2821.08 196.475 2858.92 187.897 2874.87 222.913C2887.78 251.27 2875.17 282.552 2833.19 301.624C2798.98 317.165 2759.32 314.844 2742.47 276.598L2775.37 261.663L2775.17 261.562Z" fill="white"/>
<path d="M2894.14 93.4442L2930.87 87.1877L2942.68 156.514L2996.26 76.0875L3042.18 68.3173L2988.09 145.515L3076.99 234.519L3030.88 242.39L2967.71 175.788L2950.25 200.713L2959.43 254.6L2922.7 260.856L2894.34 93.6461L2894.14 93.4442Z" fill="white"/>
<path d="M3293.15 162.872L3329.27 173.871C3341.79 177.706 3352.79 174.88 3357.02 161.257C3361.77 145.818 3350.87 139.056 3338.15 135.121L3304.75 124.929L3293.15 162.872ZM3272.16 231.693L3310.3 243.399C3324.33 247.738 3338.05 246.931 3343.2 230.079C3348.24 213.529 3339.87 203.741 3324.63 198.998L3285.78 187.09L3272.16 231.592V231.693ZM3277.61 86.2797L3354 109.59C3384.88 119.076 3402.74 135.424 3393.45 165.697C3388.61 181.641 3377.21 190.32 3361.06 192.842C3379.12 204.548 3384.47 222.813 3378.22 243.096C3368.12 275.993 3335.83 281.544 3306.57 272.663L3227.96 248.646L3277.61 86.3807V86.2797Z" fill="white"/>
<path d="M3460.46 314.945C3488.91 332.604 3514.65 315.046 3529.58 291.13C3545.22 265.902 3549.66 235.023 3521.21 217.363C3492.75 199.704 3467.02 217.262 3451.27 242.389C3436.34 266.406 3431.9 297.285 3460.36 314.945H3460.46ZM3537.76 190.622C3582.36 218.373 3587.81 268.021 3561.27 310.707C3535.44 352.282 3488.51 369.235 3443.91 341.485C3399.31 313.734 3393.86 264.085 3419.69 222.611C3446.33 179.824 3493.25 162.871 3537.86 190.622H3537.76Z" fill="white"/>
<path d="M3651.28 278.617L3677.42 305.258L3578.63 402.032L3636.55 461.065L3614.15 483.064L3530.19 397.39L3651.38 278.617H3651.28Z" fill="white"/>
<path d="M3670.76 511.319L3687.91 539.877C3699.01 558.445 3721.11 569.242 3753.3 549.968C3782.67 532.309 3795.28 510.915 3776.11 479.128L3762.38 456.322L3670.76 511.42V511.319ZM3770.05 408.087L3807.8 470.753C3830.4 508.393 3823.84 550.977 3775.6 579.939C3733.42 605.268 3689.12 602.543 3662.38 558.142L3624.64 495.375L3770.05 407.986V408.087Z" fill="white"/>
<path d="M3871.77 595.378L3882.27 631.202L3814.76 650.88L3900.84 694.776L3913.85 739.48L3831 694.574L3752.9 793.165L3739.78 748.259L3798.71 677.823L3771.97 663.393L3719.5 678.731L3709 642.908L3871.87 595.378H3871.77Z" fill="white"/>
<path d="M3920.01 794.376L3922.03 831.612L3783.98 839.18L3788.52 921.726L3757.24 923.441L3750.68 803.659L3920.11 794.476L3920.01 794.376Z" fill="white"/>
<path d="M3794.37 1092.77C3749.27 1084.6 3732.11 1053.92 3740.18 1009.32C3748.26 964.411 3774.8 942.211 3820.11 950.385L3923.94 969.154L3917.28 1005.89L3813.45 987.116C3795.18 983.786 3776.31 985.199 3770.96 1014.97C3766.22 1041.2 3776.11 1051.6 3800.93 1056.14L3904.77 1074.91L3898.11 1111.64L3794.27 1092.87L3794.37 1092.77Z" fill="white"/>
<path d="M3798.71 1182.38L3782.87 1216.69C3777.42 1228.6 3778.63 1239.9 3791.65 1245.85C3806.28 1252.61 3814.56 1242.83 3820.11 1230.72L3834.74 1199.03L3798.71 1182.38ZM3733.42 1152.11L3716.67 1188.33C3710.52 1201.76 3709.41 1215.38 3725.35 1222.74C3741.09 1230.01 3751.89 1223.05 3758.65 1208.52L3775.7 1171.68L3733.42 1152.11ZM3876.72 1177.33L3843.21 1249.79C3829.69 1279.15 3811.02 1294.59 3782.26 1281.27C3767.13 1274.31 3760.06 1261.9 3759.86 1245.45C3745.84 1261.7 3726.96 1264.52 3707.79 1255.64C3676.51 1241.21 3675.4 1208.42 3688.32 1180.66L3722.83 1106.09L3876.82 1177.33H3876.72Z" fill="white"/>
<path d="M2581.92 1382.39C2595.14 1395.71 2595.14 1416.9 2581.92 1430.12C2568.6 1443.34 2547.21 1443.24 2533.99 1430.02C2520.77 1416.7 2520.97 1395.51 2534.29 1382.29C2547.61 1369.07 2568.7 1369.17 2581.92 1382.49V1382.39Z" fill="white"/>
<path d="M2906.05 1692.49L2873.46 1682.5L2905.55 1578.15L2865.08 1565.74L2872.65 1541.12C2895.25 1548.59 2918.56 1547.17 2929.56 1523.66L2955.5 1531.63L2906.05 1692.59V1692.49Z" fill="white"/>
<path d="M3032.19 1613.78C3046.01 1615.19 3058.12 1608.63 3059.54 1594.3C3060.44 1585.72 3057.82 1570.69 3036.73 1568.57C3023.11 1567.16 3010.29 1574.32 3008.78 1589.15C3007.26 1603.79 3018.47 1612.36 3032.19 1613.78ZM3024.52 1691.58C3040.77 1693.19 3054.39 1683 3056.11 1666.25C3057.72 1650.21 3045.91 1638.1 3030.07 1636.58C3013.52 1634.87 2999.49 1642.94 2997.68 1660.1C2995.96 1677.35 3008.17 1689.97 3024.42 1691.58H3024.52ZM3039.35 1543.04C3080.93 1547.28 3092.43 1577.45 3090.72 1593.7C3089 1610.25 3079.11 1622.76 3062.77 1626.39V1626.9C3082.14 1633.45 3092.03 1649.9 3089.91 1670.99C3086.38 1706.11 3052.98 1720.44 3021.9 1717.21C2989.6 1713.88 2959.94 1694.51 2963.57 1658.38C2965.69 1637.09 2979.21 1623.26 2999.29 1620.44V1619.93C2983.55 1613.78 2976.49 1599.45 2978.2 1583C2981.23 1552.83 3012.01 1540.31 3039.25 1543.04H3039.35Z" fill="white"/>
<path d="M3180.73 1692.18C3196.98 1690.67 3208.38 1678.06 3206.87 1661.31C3205.35 1645.26 3191.43 1635.67 3175.69 1637.09C3159.14 1638.6 3146.82 1649.2 3148.44 1666.35C3150.05 1683.61 3164.48 1693.6 3180.73 1692.08V1692.18ZM3173.36 1614.38C3187.29 1613.07 3197.78 1604.39 3196.47 1590.06C3195.67 1581.48 3190.32 1567.26 3169.23 1569.17C3155.6 1570.38 3144.4 1579.87 3145.71 1594.7C3147.03 1609.34 3159.74 1615.59 3173.36 1614.38ZM3166.81 1543.54C3208.48 1539.71 3225.43 1567.16 3226.95 1583.4C3228.46 1599.95 3221.1 1614.08 3205.76 1620.84V1621.34C3226.14 1624.07 3238.96 1638.3 3240.98 1659.39C3244.2 1694.61 3214.23 1714.99 3183.05 1717.82C3150.76 1720.74 3117.86 1707.42 3114.53 1671.2C3112.62 1649.9 3123.11 1633.76 3142.38 1627.1V1626.59C3125.63 1623.56 3116.05 1610.95 3114.53 1594.4C3111.81 1564.23 3139.56 1545.96 3166.81 1543.44V1543.54Z" fill="white"/>
<path d="M3326.95 1573.11C3322.51 1558.17 3308.38 1546.07 3292.04 1550.91C3276.4 1555.55 3271.85 1573.21 3276.09 1587.74C3280.63 1602.98 3292.94 1615.9 3309.8 1610.85C3327.36 1605.7 3331.69 1589.05 3326.95 1573.11ZM3297.08 1653.94C3302.33 1664.13 3313.43 1670.89 3324.73 1667.56C3348.45 1660.5 3345.52 1627.6 3341.08 1609.34L3340.47 1609.03C3335.23 1624.37 3325.03 1633.15 3309.39 1637.79C3295.57 1641.93 3279.62 1639.61 3267.31 1632.24C3255.81 1624.88 3247.94 1612.67 3244.2 1599.95C3234.42 1566.95 3249.55 1534.16 3283.16 1524.17C3332 1509.64 3357.83 1548.39 3369.94 1589.26C3381.65 1628.71 3377.41 1678.86 3331.59 1692.39C3303.74 1700.66 3278.11 1690.47 3266 1663.22L3297.08 1654.04V1653.94Z" fill="white"/>
<path d="M3610.92 1381.78C3624.24 1368.56 3645.53 1368.56 3658.65 1381.78C3671.87 1395.1 3671.77 1416.49 3658.45 1429.71C3645.13 1442.93 3623.83 1442.63 3610.71 1429.41C3597.6 1416.19 3597.6 1395 3610.92 1381.78Z" fill="white"/>
<path d="M3099.7 1750.82C2623.9 1750.82 2236.91 1363.82 2236.91 888.022C2236.91 412.224 2623.9 25.2281 3099.7 25.2281C3575.5 25.2281 3962.49 412.224 3962.49 888.022C3962.49 1363.82 3575.4 1750.82 3099.7 1750.82ZM3099.7 0.000183105C2610.08 0.000183105 2211.68 398.399 2211.68 888.022C2211.68 1377.64 2610.08 1776.04 3099.7 1776.04C3589.32 1776.04 3987.72 1377.64 3987.72 888.022C3987.72 398.399 3589.32 0.000183105 3099.7 0.000183105Z" fill="white"/>
<path d="M3100.91 272.462C3440.98 272.462 3717.68 549.162 3717.68 889.234C3717.68 1229.31 3440.98 1506 3100.91 1506C2760.84 1506 2484.14 1229.31 2484.14 889.234C2484.14 549.162 2760.84 272.462 3100.91 272.462ZM3097.18 1474.52H3109.79V1381.07C3105.55 1381.07 3101.31 1380.87 3097.18 1380.57V1474.52ZM3170.34 1373.71C3166.2 1374.82 3161.86 1375.83 3157.32 1376.74L3211.71 1462.71V1462.81L3222.41 1456.05L3170.34 1373.71ZM2982.14 1453.53L2992.73 1460.29L3049.55 1371.69C3045.31 1370.38 3041.17 1369.07 3037.24 1367.55L2982.14 1453.53ZM3230.38 1347.57C3227.05 1349.69 3223.32 1352.01 3218.98 1354.33L3306.16 1432.64L3314.64 1423.26L3230.38 1347.57ZM2885.67 1413.67V1413.77L2892.43 1424.37L3005.14 1352.52C3000.6 1349.89 2996.57 1347.37 2993.24 1345.15L2885.67 1413.67ZM3101.11 297.489C2774.97 297.489 2509.57 562.785 2509.57 889.032C2509.57 898.114 2509.87 907.095 2510.27 916.076C2510.38 918.498 2510.58 920.819 2510.68 923.241C2511.18 931.011 2511.79 938.781 2512.5 946.551C2512.6 947.863 2512.7 949.074 2512.8 950.285C2513.71 958.963 2514.82 967.642 2516.13 976.32C2516.53 978.641 2516.83 980.861 2517.24 983.082C2518.45 990.246 2519.66 997.209 2521.07 1004.27C2521.48 1006.09 2521.78 1007.91 2522.18 1009.72C2523.9 1018.1 2525.82 1026.47 2527.93 1034.75C2528.44 1036.77 2529.04 1038.78 2529.55 1040.8C2531.26 1047.46 2533.18 1054.12 2535.2 1060.68C2535.81 1062.8 2536.41 1064.92 2537.12 1067.04C2539.64 1075.01 2542.36 1082.98 2545.19 1090.85C2545.8 1092.57 2546.5 1094.29 2547.11 1096C2549.53 1102.46 2552.05 1108.82 2554.68 1115.17C2555.58 1117.5 2556.49 1119.72 2557.5 1122.04C2560.73 1129.6 2564.16 1137.17 2567.69 1144.64C2568.2 1145.75 2568.8 1146.86 2569.41 1148.07C2572.54 1154.53 2575.77 1160.89 2579.2 1167.24C2580.51 1169.67 2581.72 1171.99 2583.03 1174.31C2586.46 1180.46 2590 1186.62 2593.63 1192.67L2595.75 1196.31C2599.88 1203.17 2604.32 1209.93 2608.76 1216.59C2610.28 1218.91 2611.79 1221.13 2613.41 1223.45C2616.94 1228.6 2620.47 1233.64 2624.2 1238.69C2625.52 1240.61 2626.83 1242.42 2628.24 1244.24C2632.98 1250.6 2637.83 1256.75 2642.77 1262.81C2644.59 1265.03 2646.4 1267.15 2648.22 1269.37C2651.95 1273.81 2655.69 1278.15 2659.52 1282.49C2661.34 1284.6 2663.16 1286.72 2665.07 1288.74C2670.22 1294.39 2675.57 1300.04 2681.02 1305.49C2683.04 1307.51 2685.05 1309.43 2687.07 1311.45C2691.01 1315.38 2695.04 1319.22 2699.18 1323.05C2701.5 1325.07 2703.72 1327.19 2706.04 1329.31C2711.79 1334.45 2717.55 1339.5 2723.4 1344.34C2725.42 1346.06 2727.54 1347.67 2729.56 1349.29C2734 1352.82 2738.44 1356.35 2742.98 1359.78C2745.6 1361.7 2748.22 1363.72 2750.85 1365.64C2755.89 1369.47 2761.14 1373.1 2766.39 1376.74L2774.87 1382.49C2779.91 1385.82 2785.06 1389.15 2790.3 1392.38C2793.13 1394.19 2796.06 1395.91 2798.88 1397.63C2803.73 1400.55 2808.67 1403.38 2813.62 1406.1C2815.94 1407.41 2818.36 1408.63 2820.68 1409.94C2829.86 1402.07 2841.87 1391.97 2852.26 1383.6C2872.45 1367.25 2909.08 1345.76 2935.52 1333.14C2951.56 1325.47 2964.28 1325.78 2971.84 1327.09L2981.33 1322.55C2982.64 1321.84 3006.05 1309.12 3006.05 1263.72C3006.05 1229.71 3001.11 1218.71 2989.1 1192.07L2985.27 1183.59C2963.27 1134.25 2935.92 1067.85 2913.92 1014.46C2902.72 987.319 2892.73 963.302 2885.56 946.349C2865.99 900.333 2847.62 836.456 2879.11 750.278C2901.41 689.126 2933.09 657.742 2948.13 645.431C2934.91 633.12 2911.4 602.443 2911.4 539.676C2911.4 507.99 2933.6 472.57 2943.59 458.241L2862.66 402.235L2997.17 404.657C3006.96 397.391 3046.82 371.86 3112.01 371.86C3177.2 371.86 3212.62 395.978 3221.9 403.344L3349.96 401.73L3277.91 454.708C3291.23 465.607 3312.52 492.853 3312.52 550.978C3312.52 609.103 3283.06 639.982 3268.62 651.688C3280.43 664.201 3306.16 694.071 3325.64 733.022C3351.88 785.597 3357.73 884.793 3318.17 972.889C3277.71 1062.8 3234.62 1180.06 3225.23 1215.18L3224.43 1218.41C3215.34 1252.41 3208.78 1277.04 3218.27 1293.99C3228.46 1312.05 3245.82 1322.75 3245.82 1322.75L3254.6 1328L3254.4 1328.2C3266.4 1331.33 3287.9 1340.41 3317.67 1367.05C3340.68 1387.64 3356.72 1404.99 3366.81 1417.1L3368.02 1416.5C3375.49 1412.66 3382.86 1408.73 3390.12 1404.59C3392.04 1403.48 3394.06 1402.37 3395.98 1401.26C3403.75 1396.82 3411.41 1392.28 3418.88 1387.43C3419.18 1387.23 3419.59 1387.03 3419.89 1386.83C3436.44 1376.23 3452.39 1364.83 3467.72 1352.62C3468.13 1352.42 3468.43 1352.11 3468.83 1351.81C3473.88 1347.78 3478.82 1343.64 3483.77 1339.5C3484.07 1339.3 3484.37 1339 3484.68 1338.79C3499.11 1326.48 3512.93 1313.47 3526.15 1299.74C3527.46 1298.43 3528.77 1297.12 3529.99 1295.81C3541.99 1283.19 3553.4 1270.07 3564.2 1256.45C3565.91 1254.23 3567.63 1252.11 3569.34 1249.89C3572.47 1245.96 3575.5 1241.92 3578.42 1237.88C3580.24 1235.26 3582.16 1232.63 3583.97 1230.01C3588.41 1223.65 3592.85 1217.2 3597.09 1210.64C3599.21 1207.31 3601.43 1204.08 3603.45 1200.75C3605.67 1197.11 3607.89 1193.48 3610.11 1189.75C3612.33 1186.01 3614.45 1182.28 3616.57 1178.55C3618.49 1175.12 3620.4 1171.89 3622.22 1168.46C3625.75 1161.9 3629.18 1155.34 3632.41 1148.68C3633.92 1145.55 3635.44 1142.32 3636.95 1139.09C3639.17 1134.55 3641.29 1129.81 3643.31 1125.16C3644.72 1122.14 3646.03 1119.01 3647.35 1115.88C3650.37 1108.61 3653.3 1101.25 3656.02 1093.88C3656.83 1091.66 3657.54 1089.44 3658.35 1087.22C3660.46 1081.37 3662.48 1075.42 3664.4 1069.36C3665.31 1066.54 3666.22 1063.61 3667.12 1060.78C3669.14 1054.22 3670.96 1047.56 3672.78 1040.9C3673.18 1039.29 3673.68 1037.57 3674.09 1035.96C3676.21 1027.78 3678.12 1019.51 3679.84 1011.24L3681.35 1003.67C3682.67 997.108 3683.77 990.448 3684.88 983.788C3685.29 981.467 3685.69 979.247 3686 977.027C3687.31 968.449 3688.42 959.771 3689.33 951.092C3689.53 949.276 3689.63 947.359 3689.83 945.542C3690.44 938.378 3691.04 931.112 3691.44 923.846L3691.54 923.644C3691.65 921.121 3691.85 918.7 3691.95 916.177C3692.35 907.196 3692.66 898.114 3692.66 889.032C3692.66 562.886 3427.26 297.489 3101.11 297.489ZM3112.11 387.198C3043.19 387.198 3005.04 417.875 3004.74 418.279L3002.62 420.095H2999.8L2912.71 418.48L2965.49 454.91L2960.54 461.267C2960.47 461.366 2926.84 505.202 2926.84 539.876C2926.84 615.863 2963.17 638.367 2964.68 639.275L2975.48 645.733L2964.78 652.292C2964.73 652.327 2921.17 680.089 2893.54 755.625C2863.87 836.859 2881.23 897.104 2899.69 940.496C2906.96 957.55 2916.85 981.567 2928.05 1008.81C2950.05 1062.09 2977.39 1128.39 2999.29 1177.54L3003.13 1186.01C3015.74 1213.97 3021.39 1226.68 3021.39 1263.92C3021.39 1301.15 3007.26 1320.63 2997.38 1329.61C3013.62 1341.22 3055.3 1366.04 3113.52 1366.04C3171.75 1366.04 3213.22 1341.22 3229.57 1329.71C3222.51 1323.96 3212.52 1314.47 3205.35 1301.66C3192.84 1279.36 3200 1252.21 3210.1 1214.67L3210.9 1211.44C3221.5 1171.68 3266.81 1050.99 3304.65 966.833C3342.29 883.077 3337.04 789.331 3312.32 739.985C3288 691.248 3252.38 656.637 3252.08 656.228V656.329L3244.81 649.366L3253.49 644.32C3255.31 643.308 3297.69 617.575 3297.69 551.179C3297.69 478.525 3263.38 462.882 3261.96 462.276L3249.86 457.029L3303.24 417.673L3216.45 418.783L3214.23 416.765C3214.23 416.765 3181.03 387.198 3112.11 387.198Z" fill="white"/>
<path d="M3175.39 770.679L3187.77 768.287L3195.35 807.42L3182.96 809.812L3175.39 770.679Z" fill="white"/>
<path d="M3107.55 784.272L3119.38 779.912L3137.03 827.825L3125.2 832.184L3107.55 784.272Z" fill="white"/>
<path d="M3070.64 814.861H3083.25V862.794H3070.64V814.861Z" fill="white"/>
<path d="M3232.2 659.255L3227.45 661.677C3226.95 661.98 3172.36 689.932 3105.45 689.932C3038.55 689.932 2992.83 660.365 2992.33 660.062L2987.79 657.136L2945.51 704.464L2954.89 712.839L2990.11 673.383C2994.65 676.006 3002.42 680.043 3012.81 684.281L2985.27 734.737L2996.37 740.792L3024.72 688.822C3033.4 691.85 3043.29 694.675 3054.19 697.097L3040.97 754.617L3053.28 757.442L3066.6 699.418C3076.39 701.033 3087.09 701.941 3098.29 702.243V761.176H3110.9V702.344C3123.01 702.042 3134.72 701.133 3145.61 699.519L3161.36 754.717L3173.47 751.286L3158.13 697.4C3170.14 695.079 3181.24 692.253 3190.82 689.327L3213.22 740.59L3224.73 735.544L3202.83 685.391C3214.44 681.355 3223.32 677.52 3228.36 675.199L3261.16 718.087L3271.15 710.417L3231.99 659.255H3232.2Z" fill="white"/>
<path d="M3054.57 577.296L3066.43 573.027L3089.13 636.067L3077.26 640.335L3054.57 577.296Z" fill="white"/>
<path d="M3063.07 421.306H3075.68V444.011H3063.07V421.306Z" fill="white"/>
<path d="M3133.71 421.306H3146.32V444.011H3133.71V421.306Z" fill="white"/>
<path d="M3097.18 421.305H3112.31V456.625H3097.18V421.305Z" fill="white"/>
<path d="M3179.82 536.143C3168.72 536.143 3159.64 527.061 3159.64 515.961C3159.64 504.861 3168.72 495.779 3179.82 495.779C3190.92 495.779 3200.01 504.861 3200.01 515.961C3200.01 527.061 3190.92 536.143 3179.82 536.143ZM3029.67 536.043C3018.57 536.043 3009.48 526.961 3009.48 515.86C3009.48 504.76 3018.57 495.678 3029.67 495.678C3040.77 495.678 3049.85 504.76 3049.85 515.86C3049.85 526.961 3040.77 536.043 3029.67 536.043ZM3179.82 483.165C3179.82 483.165 3179.02 483.266 3178.61 483.266L3200.71 460.561L3191.63 451.781L3104.14 541.694L3017.86 451.781L3008.78 460.561L3030.57 483.266H3029.77C3011.7 483.266 2996.97 497.999 2996.97 516.062C2996.97 534.125 3011.7 548.858 3029.77 548.858C3047.83 548.858 3062.16 534.428 3062.46 516.567L3098.49 554.106V663.595H3111.1V552.794L3147.03 515.86V516.062C3147.03 534.125 3161.76 548.858 3179.82 548.858C3197.89 548.858 3212.62 534.125 3212.62 516.062C3212.62 497.999 3197.89 483.266 3179.82 483.266V483.165Z" fill="white"/>
<path d="M3133.4 494.265L3124.52 485.385L3104.85 504.962L3086.48 485.486L3077.3 494.164L3104.54 523.126L3133.4 494.265Z" fill="white"/>
<path d="M3115.44 1213.46H3128.06V1334.56H3115.44V1213.46Z" fill="white"/>
<path d="M3080.12 1212.15H3092.74V1334.45H3080.12V1212.15Z" fill="white"/>
<path d="M3000.33 1113.42L3012.16 1109.02L3032.35 1163.31L3020.53 1167.71L3000.33 1113.42Z" fill="white"/>
<path d="M3129.05 1151L3136.56 1092.13L3149.07 1093.73L3141.56 1152.59L3129.05 1151Z" fill="white"/>
<path d="M3169.69 1175.29L3188.6 1136.24L3199.95 1141.74L3181.04 1180.79L3169.69 1175.29Z" fill="white"/>
<path d="M3197.34 1088.09L3227.59 1056.55L3236.69 1065.28L3206.45 1096.82L3197.34 1088.09Z" fill="white"/>
<path d="M3190.14 1033.6L3219.15 984.401L3230.02 990.809L3201.01 1040L3190.14 1033.6Z" fill="white"/>
<path d="M3175.51 939.599L3187.91 937.288L3198.01 991.559L3185.61 993.869L3175.51 939.599Z" fill="white"/>
<path d="M3145.11 969.962H3157.72V1024.25H3145.11V969.962Z" fill="white"/>
<path d="M3097.78 1041.91H3110.4V1088.53H3097.78V1041.91Z" fill="white"/>
<path d="M3003.08 1020.72L3014.5 1015.38L3033.43 1055.76L3022.01 1061.11L3003.08 1020.72Z" fill="white"/>
<path d="M2940.06 966.436L2951.44 961.007L2977.91 1016.47L2966.53 1021.9L2940.06 966.436Z" fill="white"/>
<path d="M2992.4 956.164L3002.58 948.717L3040.41 1000.43L3030.23 1007.88L2992.4 956.164Z" fill="white"/>
<path d="M3097.78 879.848H3110.4V936.56H3097.78V879.848Z" fill="white"/>
<path d="M3249.75 917.084H3262.37V953.614H3249.75V917.084Z" fill="white"/>
<path d="M3255.22 842.717L3266.97 838.155L3284.32 882.839L3272.55 887.4L3255.22 842.717Z" fill="white"/>
<path d="M3017.73 902.675L3021.5 857.224L3034.08 858.263L3030.3 903.724L3017.73 902.675Z" fill="white"/>
<path d="M2924.52 920.761L2938.39 855.209L2950.73 857.823L2936.86 923.375L2924.52 920.761Z" fill="white"/>
<path d="M2935.73 775.819L2948.34 775.486L2949.6 823.399L2936.99 823.732L2935.73 775.819Z" fill="white"/>
<path d="M3015.47 824.092L3033.16 772.334L3045.1 776.421L3027.41 828.169L3015.47 824.092Z" fill="white"/>
<path d="M3160.98 877.736L3182.42 834.869L3193.7 840.509L3172.26 883.377L3160.98 877.736Z" fill="white"/>
<path d="M3215.86 769.131L3228.34 767.345L3233.4 802.715L3220.91 804.491L3215.86 769.131Z" fill="white"/>
<path d="M3118.89 636.092L3141.6 573.053L3153.47 577.331L3130.75 640.371L3118.89 636.092Z" fill="white"/>
</g>
</g>
<defs>
<clipPath id="clip0_1403_502">
<rect width="1776.04" height="1776.04" fill="white" transform="translate(2211.68)"/>
</clipPath>
</defs>
</svg>
