<svg viewBox="0 0 78 80" fill="none" xmlns="http://www.w3.org/2000/svg" aria-label="AB 1889">
  <!-- AB letterform -->
  <svg x="0" y="0" width="78" height="47.05" viewBox="0 0 77.74 47.05">
    <path d="M35.6131 46.9999V32.6891H24.2365L18.4555 46.9999H0.0761719L21.5683 0.0498047H60.4711C71.1127 0.0498047 77.4658 4.70885 77.4658 12.5136C77.4658 17.8579 74.5895 21.6828 69.3659 23.2861L69.2099 23.3341L69.3669 23.382C74.7347 25.0143 77.6915 28.9181 77.6915 34.3723C77.6915 42.2789 71.2903 46.9999 60.5683 46.9999H35.6131ZM52.2054 43.5196L52.2662 43.5036C57.8794 42.0672 61.0982 38.1913 61.0982 32.8689C61.0982 29.044 59.531 25.8454 56.4418 23.36C59.425 20.8917 60.9382 17.792 60.9382 14.1468C60.9382 8.89041 57.6969 4.92662 52.2672 3.54509L52.2064 3.52911V43.5186L52.2054 43.5196ZM35.5179 3.58305C33.83 8.41592 29.622 19.3403 25.7291 28.9951L25.7016 29.064H35.614V3.31034L35.5189 3.58305H35.5179Z" fill="white"/>
  </svg>
  <!-- 1 -->
  <svg x="0" y="50.74" width="10.52" height="28.58" viewBox="0 0 10.5228 28.5766">
    <path d="M6.84379 28.5267V8.45601H0.0500478V6.24836C3.04801 6.07654 4.73393 5.646 5.86344 4.76494C6.99492 3.88287 7.61217 2.51533 7.989 0.0509438H10.4747V28.5267H6.84379Z" fill="white"/>
  </svg>
  <!-- 8 (first) -->
  <svg x="14.4" y="50.18" width="19.67" height="29.69" viewBox="0 0 19.658 29.6885">
    <path d="M9.8388 29.6395C6.98313 29.6395 4.53569 28.8813 2.76145 27.4468C0.987206 26.0124 0.049054 24.0325 0.049054 21.7209C0.049054 18.5713 1.944 15.9041 4.99495 14.7603L5.11566 14.7154L4.99594 14.6674C2.03232 13.4847 0.263965 10.9444 0.263965 7.87063C0.263965 5.58706 1.17954 3.63113 2.91257 2.21664C4.64658 0.800142 7.04201 0.0519388 9.8388 0.0519388C12.6356 0.0519388 15.0212 0.800142 16.7582 2.21664C18.4961 3.63413 19.4146 5.58906 19.4146 7.87063C19.4146 10.9404 17.6394 13.4807 14.6669 14.6664L14.5462 14.7144L14.6679 14.7593C17.7159 15.8981 19.6099 18.5663 19.6099 21.7209C19.6099 24.0345 18.6757 26.0144 16.9073 27.4468C15.138 28.8813 12.6935 29.6395 9.8388 29.6395ZM9.8388 15.948C6.10876 15.948 3.69862 18.1287 3.69862 21.5021C3.69862 24.8756 6.10876 27.0562 9.8388 27.0562C13.5688 27.0562 15.9594 24.8756 15.9594 21.5021C15.9594 18.1287 13.5571 15.948 9.8388 15.948ZM9.8388 2.61322C6.20395 2.61322 3.85465 4.75494 3.85465 8.06842C3.85465 11.3819 6.20297 13.5236 9.8388 13.5236C13.4746 13.5236 15.8229 11.3819 15.8229 8.06842C15.8229 4.75494 13.4746 2.61322 9.8388 2.61322Z" fill="white"/>
  </svg>
  <!-- 8 (second) -->
  <svg x="36.5" y="50.18" width="19.67" height="29.69" viewBox="0 0 19.658 29.6885">
    <path d="M9.8388 29.6395C6.98313 29.6395 4.53569 28.8813 2.76145 27.4468C0.987204 26.0124 0.0490529 24.0325 0.0490529 21.7209C0.0490529 18.5713 1.944 15.9041 4.99495 14.7603L5.11566 14.7154L4.99594 14.6674C2.03232 13.4847 0.263964 10.9444 0.263964 7.87063C0.263964 5.58706 1.17955 3.63113 2.91257 2.21664C4.64658 0.800142 7.04201 0.0519388 9.8388 0.0519388C12.6356 0.0519388 15.0212 0.800142 16.7581 2.21664C18.4961 3.63413 19.4146 5.58906 19.4146 7.87063C19.4146 10.9404 17.6394 13.4807 14.6669 14.6664L14.5462 14.7144L14.6679 14.7593C17.7169 15.8981 19.6099 18.5663 19.6099 21.7209C19.6099 24.0345 18.6757 26.0144 16.9073 27.4468C15.138 28.8813 12.6935 29.6395 9.8388 29.6395ZM9.8388 15.948C6.10876 15.948 3.69862 18.1287 3.69862 21.5021C3.69862 24.8756 6.10876 27.0562 9.8388 27.0562C13.5688 27.0562 15.9593 24.8756 15.9593 21.5021C15.9593 18.1287 13.5571 15.948 9.8388 15.948ZM9.8388 2.61322C6.20395 2.61322 3.85563 4.75494 3.85563 8.06842C3.85563 11.3819 6.20395 13.5236 9.8388 13.5236C13.4736 13.5236 15.8229 11.3819 15.8229 8.06842C15.8229 4.75494 13.4746 2.61322 9.8388 2.61322Z" fill="white"/>
  </svg>
  <!-- 9 -->
  <svg x="58.2" y="50.18" width="19.72" height="29.69" viewBox="0 0 19.7169 29.6885">
    <path d="M9.33147 29.6385C6.84969 29.6385 4.72217 28.9293 3.17952 27.5887C1.58387 26.2012 0.618248 24.1284 0.385673 21.5911H3.95771C4.30314 24.9894 6.25991 26.9364 9.33147 26.9364C11.6867 26.9364 13.4589 25.7347 14.5973 23.3652C15.5698 21.3393 16.0624 18.5213 16.0604 14.9881V14.7393L15.9662 14.9691C14.93 17.4944 12.1342 19.1267 8.84375 19.1267C3.66626 19.1267 0.0490718 15.2738 0.0490718 9.75764C0.0490718 3.9518 3.86547 0.0499469 9.54638 0.0499469C12.9977 0.0499469 15.6208 1.46045 17.343 4.24149C18.8857 6.73384 19.6688 10.2341 19.6688 14.6454C19.6688 19.0568 18.8582 22.6849 17.3234 25.2262C15.556 28.1541 12.8672 29.6385 9.33245 29.6385H9.33147ZM9.46886 2.7321C6.09505 2.7321 3.73887 5.53113 3.73887 9.53887C3.73887 13.5466 6.08033 16.4046 9.56601 16.4046C11.2735 16.4046 12.7367 15.7573 13.7975 14.5326C14.8544 13.3119 15.4128 11.6336 15.4128 9.67772C15.4128 7.7218 14.824 5.96766 13.7563 4.707C12.6778 3.43335 11.1548 2.7321 9.46788 2.7321H9.46886Z" fill="white"/>
  </svg>
</svg>
