<svg width="3778" height="1798" viewBox="0 0 3778 1798" fill="none" xmlns="http://www.w3.org/2000/svg">
<path d="M152.411 1783.59V1333.33H0V1283.8C67.2561 1279.95 105.078 1270.3 130.418 1250.54C155.801 1230.75 169.649 1200.07 178.102 1144.78H233.867V1783.59H152.411Z" fill="white"/>
<path d="M1038.17 1796.07C974.111 1796.07 919.206 1779.07 879.403 1746.89C839.599 1714.71 818.553 1670.28 818.553 1618.43C818.553 1547.77 861.064 1487.94 929.509 1462.28L932.217 1461.27L929.531 1460.19C863.045 1433.66 823.374 1376.67 823.374 1307.71C823.374 1256.48 843.914 1212.6 882.793 1180.88C921.694 1149.09 975.432 1132.31 1038.17 1132.31C1100.92 1132.31 1154.43 1149.09 1193.4 1180.88C1232.39 1212.67 1253 1256.53 1253 1307.71C1253 1376.58 1213.17 1433.57 1146.49 1460.17L1143.78 1461.24L1146.51 1462.26C1214.89 1487.81 1257.38 1547.66 1257.38 1618.43C1257.38 1670.33 1236.42 1714.76 1196.75 1746.89C1157.05 1779.07 1102.21 1796.07 1038.17 1796.07ZM1038.17 1488.92C954.496 1488.92 900.427 1537.85 900.427 1613.53C900.427 1689.21 954.496 1738.12 1038.17 1738.12C1121.85 1738.12 1175.48 1689.21 1175.48 1613.53C1175.48 1537.85 1121.59 1488.92 1038.17 1488.92ZM1038.17 1189.78C956.631 1189.78 903.927 1237.82 903.927 1312.16C903.927 1386.49 956.609 1434.54 1038.17 1434.54C1119.74 1434.54 1172.42 1386.49 1172.42 1312.16C1172.42 1237.82 1119.74 1189.78 1038.17 1189.78Z" fill="white"/>
<path d="M1514.64 1797.85C1458.96 1797.85 1411.24 1781.94 1376.63 1751.86C1340.83 1720.73 1319.17 1674.23 1313.95 1617.31H1394.09C1401.84 1693.55 1445.73 1737.23 1514.64 1737.23C1567.48 1737.23 1607.24 1710.27 1632.77 1657.11C1654.59 1611.66 1665.64 1548.44 1665.6 1469.18V1463.6L1663.48 1468.76C1640.24 1525.42 1577.52 1562.03 1503.7 1562.03C1387.55 1562.03 1306.4 1475.59 1306.4 1351.84C1306.4 1221.59 1392.02 1134.06 1519.46 1134.06C1596.89 1134.06 1655.74 1165.7 1694.37 1228.09C1728.98 1284.01 1746.55 1362.53 1746.55 1461.49C1746.55 1560.46 1728.36 1641.85 1693.93 1698.86C1654.28 1764.55 1593.96 1797.85 1514.66 1797.85H1514.64ZM1517.72 1194.23C1442.04 1194.23 1389.18 1257.02 1389.18 1346.93C1389.18 1436.84 1441.7 1500.96 1519.9 1500.96C1558.21 1500.96 1591.03 1486.44 1614.83 1458.96C1638.54 1431.58 1651.07 1393.93 1651.07 1350.05C1651.07 1306.17 1637.86 1266.82 1613.91 1238.54C1589.71 1209.96 1555.54 1194.23 1517.7 1194.23H1517.72Z" fill="white"/>
<path d="M542.833 1796.07C478.769 1796.07 423.864 1779.07 384.06 1746.89C344.257 1714.71 323.211 1670.28 323.211 1618.43C323.211 1547.77 365.722 1487.94 434.167 1462.28L436.874 1461.27L434.189 1460.19C367.703 1433.66 328.032 1376.67 328.032 1307.71C328.032 1256.48 348.572 1212.6 387.451 1180.88C426.351 1149.09 480.09 1132.31 542.833 1132.31C605.576 1132.31 659.095 1149.09 698.061 1180.88C737.05 1212.67 757.656 1256.53 757.656 1307.71C757.656 1376.58 717.831 1433.57 651.147 1460.17L648.439 1461.24L651.169 1462.26C719.57 1487.81 762.037 1547.66 762.037 1618.43C762.037 1670.33 741.079 1714.76 701.408 1746.89C661.714 1779.07 606.875 1796.07 542.833 1796.07ZM542.833 1488.92C459.154 1488.92 405.085 1537.85 405.085 1613.53C405.085 1689.21 459.154 1738.12 542.833 1738.12C626.512 1738.12 680.141 1689.21 680.141 1613.53C680.141 1537.85 626.248 1488.92 542.833 1488.92ZM542.833 1189.78C461.289 1189.78 408.607 1237.82 408.607 1312.16C408.607 1386.49 461.289 1434.54 542.833 1434.54C624.377 1434.54 677.081 1386.49 677.081 1312.16C677.081 1237.82 624.399 1189.78 542.833 1189.78Z" fill="white"/>
<path d="M800.212 1060.89V739.842H544.991L415.3 1060.89H2.97949L485.132 7.61389H1357.87C1596.6 7.61389 1739.13 112.135 1739.13 287.225C1739.13 407.119 1674.6 492.927 1557.42 528.896L1553.92 529.971L1557.44 531.047C1677.86 567.665 1744.19 655.244 1744.19 777.603C1744.19 954.979 1600.59 1060.89 1360.05 1060.89H800.212ZM1172.44 982.812L1173.8 982.454C1299.73 950.228 1371.94 863.277 1371.94 743.876C1371.94 658.067 1336.78 586.31 1267.48 530.554C1334.4 475.178 1368.35 405.64 1368.35 323.865C1368.35 205.943 1295.64 117.02 1173.83 86.0269L1172.46 85.6683V982.79L1172.44 982.812ZM798.076 86.8785C760.21 195.299 665.81 440.376 578.476 656.969L577.859 658.516H800.234V80.7605L798.098 86.8785H798.076Z" fill="white"/>
<path fill-rule="evenodd" clip-rule="evenodd" d="M2948.76 1557.41C2990.81 1553.54 3007.92 1581.24 3009.44 1597.63C3010.97 1614.33 3003.54 1628.58 2988.06 1635.4V1635.91C3008.63 1638.66 3021.56 1653.02 3023.6 1674.3C3026.85 1709.83 2996.61 1730.4 2965.15 1733.25C2932.57 1736.2 2899.37 1722.76 2896.01 1686.21C2894.08 1664.73 2904.67 1648.44 2924.12 1641.72V1641.21C2907.22 1638.15 2897.54 1625.42 2896.01 1608.73C2893.27 1578.28 2921.27 1559.85 2948.76 1557.31V1557.41ZM2989.18 1676.23C2987.65 1660.04 2973.6 1650.37 2957.72 1651.8C2941.02 1653.32 2928.6 1664.01 2930.23 1681.32C2931.85 1698.73 2946.41 1708.81 2962.81 1707.29V1707.39C2979.2 1705.86 2990.71 1693.13 2989.18 1676.23ZM2978.69 1604.35C2977.88 1595.69 2972.48 1581.34 2951.2 1583.27C2937.45 1584.49 2926.15 1594.06 2927.48 1609.03C2928.8 1623.8 2941.63 1630.11 2955.37 1628.89C2969.43 1627.56 2980.01 1618.81 2978.69 1604.35Z" fill="white"/>
<path fill-rule="evenodd" clip-rule="evenodd" d="M2758.46 1597.22C2761.51 1566.78 2792.57 1554.15 2820.06 1556.9H2820.16C2862.11 1561.18 2873.72 1591.62 2871.99 1608.01C2870.26 1624.71 2860.28 1637.34 2843.78 1641V1641.51C2863.33 1648.13 2873.31 1664.73 2871.17 1686.01C2867.61 1721.44 2833.91 1735.9 2802.55 1732.64C2769.96 1729.28 2740.03 1709.73 2743.7 1673.28C2745.83 1651.8 2759.48 1637.85 2779.74 1635V1634.49C2763.86 1628.28 2756.73 1613.82 2758.46 1597.22ZM2810.79 1651.29C2794.09 1649.56 2779.94 1657.7 2778.11 1675.01C2776.38 1692.42 2788.7 1705.15 2805.09 1706.78H2805.19C2821.59 1708.41 2835.33 1698.12 2837.06 1681.22C2838.69 1665.03 2826.78 1652.81 2810.79 1651.29ZM2817.51 1582.66C2803.77 1581.24 2790.84 1588.47 2789.31 1603.43C2787.78 1618.2 2799.08 1626.85 2812.93 1628.28C2826.88 1629.7 2839.1 1623.08 2840.52 1608.63C2841.44 1599.97 2838.79 1584.8 2817.51 1582.66Z" fill="white"/>
<path fill-rule="evenodd" clip-rule="evenodd" d="M3066.16 1537.86C3115.44 1523.2 3141.5 1562.3 3153.72 1603.53C3165.53 1643.35 3161.25 1693.95 3115.03 1707.59C3086.93 1715.94 3061.06 1705.66 3048.85 1678.17L3080.21 1668.9V1668.8C3085.5 1679.08 3096.7 1685.91 3108.1 1682.55C3132.03 1675.42 3129.08 1642.23 3124.6 1623.8L3123.99 1623.49C3118.69 1638.97 3108.41 1647.83 3092.63 1652.51C3078.68 1656.68 3062.59 1654.34 3050.17 1646.91C3038.56 1639.48 3030.62 1627.16 3026.85 1614.33C3016.98 1581.03 3032.25 1547.94 3066.16 1537.86ZM3110.34 1587.24C3105.86 1572.17 3091.61 1559.96 3075.12 1564.84C3059.33 1569.53 3054.75 1587.35 3059.03 1602.01C3063.61 1617.38 3076.03 1630.41 3093.04 1625.32C3110.75 1620.13 3115.13 1603.33 3110.34 1587.24Z" fill="white"/>
<path d="M2735.55 1545.4L2685.66 1707.8V1707.69L2652.77 1697.61L2685.15 1592.33L2644.32 1579.81L2651.96 1554.97C2674.76 1562.5 2698.28 1561.08 2709.38 1537.35L2735.55 1545.4Z" fill="white"/>
<path d="M2961.89 500.232C2973.09 500.232 2982.25 509.397 2982.25 520.597C2982.25 531.797 2973.09 540.961 2961.89 540.961C2950.69 540.961 2941.53 531.797 2941.53 520.597C2941.53 509.397 2950.69 500.233 2961.89 500.232Z" fill="white"/>
<path d="M2810.39 500.131C2821.59 500.131 2830.75 509.295 2830.75 520.495C2830.75 531.695 2821.59 540.858 2810.39 540.858C2799.19 540.858 2790.02 531.695 2790.02 520.495C2790.02 509.295 2799.19 500.131 2810.39 500.131Z" fill="white"/>
<path fill-rule="evenodd" clip-rule="evenodd" d="M2882.27 274.91C3225.4 274.91 3504.58 554.095 3504.58 897.222C3504.58 1240.35 3225.4 1519.54 2882.27 1519.54C2539.14 1519.54 2259.96 1240.35 2259.96 897.222C2259.96 554.095 2539.14 274.91 2882.27 274.91ZM2878.5 1487.77H2891.23V1393.48C2886.95 1393.48 2882.68 1393.28 2878.5 1392.97V1487.77ZM2952.32 1386.05C2948.15 1387.17 2943.77 1388.19 2939.19 1389.11L2994.07 1475.85V1475.96L3004.86 1469.13L2952.32 1386.05ZM2762.43 1466.59L2773.12 1473.41L2830.44 1384.01C2826.17 1382.69 2821.99 1381.37 2818.02 1379.84L2762.43 1466.59ZM3012.9 1359.68C3009.54 1361.82 3005.78 1364.16 3001.4 1366.5L3089.37 1445.51L3097.92 1436.04L3012.9 1359.68ZM2665.09 1426.37V1426.47L2671.91 1437.16L2785.64 1364.67C2781.06 1362.02 2776.99 1359.48 2773.63 1357.24L2665.09 1426.37ZM2882.47 300.161C2553.4 300.161 2285.61 567.842 2285.61 897.02C2285.62 906.182 2285.92 915.244 2286.33 924.306C2286.43 926.75 2286.63 929.092 2286.74 931.535C2287.24 939.375 2287.85 947.215 2288.57 955.055C2288.67 956.379 2288.77 957.601 2288.87 958.822C2289.79 967.579 2290.91 976.335 2292.23 985.092C2292.64 987.433 2292.95 989.673 2293.35 991.913C2294.57 999.142 2295.8 1006.17 2297.22 1013.3C2297.63 1015.13 2297.93 1016.96 2298.34 1018.79C2300.07 1027.24 2302.01 1035.7 2304.15 1044.04C2304.65 1046.08 2305.27 1048.12 2305.77 1050.15C2307.51 1056.87 2309.44 1063.59 2311.48 1070.21C2312.09 1072.35 2312.7 1074.49 2313.41 1076.63C2315.96 1084.67 2318.71 1092.71 2321.56 1100.66C2322.17 1102.39 2322.88 1104.12 2323.49 1105.85C2325.93 1112.36 2328.48 1118.78 2331.13 1125.19C2332.04 1127.54 2332.96 1129.78 2333.98 1132.12C2337.24 1139.75 2340.7 1147.39 2344.26 1154.92C2344.77 1156.04 2345.38 1157.16 2345.99 1158.39C2349.15 1164.9 2352.41 1171.32 2355.87 1177.73C2357.19 1180.18 2358.42 1182.52 2359.74 1184.86C2363.2 1191.07 2366.76 1197.28 2370.43 1203.39C2371.14 1204.61 2371.85 1205.83 2372.57 1207.06C2376.74 1213.98 2381.22 1220.8 2385.7 1227.52C2387.23 1229.86 2388.76 1232.1 2390.39 1234.44C2393.95 1239.64 2397.51 1244.73 2401.28 1249.82C2402.6 1251.75 2403.93 1253.59 2405.35 1255.42C2410.14 1261.83 2415.03 1268.04 2420.01 1274.15C2421.85 1276.39 2423.68 1278.53 2425.51 1280.77C2429.28 1285.25 2433.05 1289.63 2436.92 1294.01C2438.75 1296.15 2440.58 1298.28 2442.52 1300.32C2447.71 1306.02 2453.11 1311.72 2458.6 1317.22C2460.64 1319.26 2462.68 1321.19 2464.71 1323.23C2468.68 1327.2 2472.76 1331.07 2476.93 1334.94C2479.27 1336.98 2481.51 1339.11 2483.85 1341.25C2489.66 1346.44 2495.46 1351.54 2501.37 1356.42C2503.4 1358.15 2505.54 1359.78 2507.58 1361.41C2512.06 1364.98 2516.54 1368.54 2521.12 1372C2523.77 1373.94 2526.41 1375.97 2529.06 1377.91C2534.15 1381.78 2539.45 1385.44 2544.74 1389.11C2547.59 1391.04 2550.44 1392.98 2553.29 1394.91C2558.39 1398.27 2563.58 1401.63 2568.87 1404.89C2571.72 1406.72 2574.68 1408.45 2577.53 1410.18C2582.41 1413.14 2587.4 1415.99 2592.39 1418.74C2594.73 1420.06 2597.18 1421.28 2599.52 1422.6C2608.79 1414.66 2620.9 1404.48 2631.39 1396.03C2651.75 1379.54 2688.71 1357.85 2715.39 1345.12C2731.58 1337.38 2744.41 1337.69 2752.04 1339.01L2761.61 1334.43C2762.94 1333.72 2786.56 1320.88 2786.56 1275.07C2786.56 1240.76 2781.57 1229.66 2769.45 1202.78L2765.59 1194.23C2743.39 1144.44 2715.8 1077.44 2693.6 1023.58C2682.3 996.19 2672.22 971.957 2664.99 954.853C2645.24 908.423 2626.71 843.972 2658.47 757.019C2680.97 695.317 2712.95 663.652 2728.12 651.23C2714.78 638.808 2691.05 607.855 2691.05 544.524C2691.05 512.554 2713.45 476.816 2723.53 462.357L2641.88 405.848L2777.6 408.292C2787.48 400.961 2827.69 375.201 2893.47 375.201C2959.24 375.201 2994.98 399.535 3004.35 406.968L3133.56 405.339L3060.86 458.793C3074.3 469.79 3095.78 497.281 3095.78 555.928C3095.78 614.574 3066.05 645.732 3051.49 657.542C3063.41 670.168 3089.37 700.307 3109.02 739.608C3135.49 792.655 3141.4 892.742 3101.49 981.63C3060.66 1072.35 3017.18 1190.66 3007.71 1226.1L3006.9 1229.35C2997.73 1263.67 2991.12 1288.51 3000.69 1305.62C3010.94 1323.8 3028.39 1334.58 3028.48 1334.63L3037.34 1339.93L3037.14 1340.13C3049.25 1343.29 3070.94 1352.45 3100.98 1379.33C3124.19 1400.1 3140.38 1417.62 3150.56 1429.83C3150.97 1429.63 3151.38 1429.43 3151.78 1429.22C3159.32 1425.35 3166.75 1421.38 3174.08 1417.21C3176.02 1416.09 3178.05 1414.97 3179.99 1413.85C3187.83 1409.37 3195.57 1404.79 3203.1 1399.9C3203.41 1399.7 3203.81 1399.49 3204.12 1399.29C3220.82 1388.6 3236.9 1377.09 3252.38 1364.77C3252.79 1364.57 3253.09 1364.26 3253.5 1363.96C3258.59 1359.88 3263.58 1355.71 3268.57 1351.54C3268.88 1351.33 3269.18 1351.03 3269.49 1350.82C3284.05 1338.4 3298 1325.27 3311.33 1311.42C3312.66 1310.1 3313.98 1308.77 3315.2 1307.45C3327.32 1294.72 3338.82 1281.48 3349.72 1267.74C3351.45 1265.5 3353.18 1263.36 3354.91 1261.12C3358.07 1257.15 3361.12 1253.08 3364.08 1249C3365.91 1246.36 3367.84 1243.71 3369.68 1241.06C3374.16 1234.65 3378.64 1228.13 3382.91 1221.51C3385.05 1218.15 3387.29 1214.9 3389.33 1211.54C3391.57 1207.87 3393.81 1204.2 3396.05 1200.44C3398.29 1196.67 3400.42 1192.9 3402.56 1189.14C3404.5 1185.67 3406.43 1182.42 3408.26 1178.95C3411.83 1172.34 3415.29 1165.72 3418.55 1159C3420.08 1155.84 3421.6 1152.58 3423.13 1149.32C3425.37 1144.74 3427.51 1139.96 3429.54 1135.27C3430.97 1132.22 3432.29 1129.06 3433.62 1125.91C3436.67 1118.58 3439.62 1111.14 3442.37 1103.71C3443.19 1101.47 3443.9 1099.23 3444.72 1096.99C3446.85 1091.08 3448.89 1085.08 3450.82 1078.97C3451.74 1076.12 3452.66 1073.16 3453.57 1070.31C3455.61 1063.7 3457.44 1056.98 3459.28 1050.26C3459.68 1048.63 3460.19 1046.9 3460.6 1045.27C3462.74 1037.02 3464.67 1028.67 3466.4 1020.32C3466.91 1017.78 3467.42 1015.23 3467.93 1012.68C3469.25 1006.07 3470.37 999.346 3471.49 992.626C3471.9 990.284 3472.31 988.044 3472.61 985.804C3473.94 977.15 3475.06 968.393 3475.97 959.637C3476.18 957.804 3476.28 955.87 3476.48 954.037C3477.09 946.808 3477.7 939.477 3478.11 932.146L3478.21 931.942C3478.32 929.397 3478.52 926.953 3478.62 924.408C3479.03 915.346 3479.33 906.182 3479.33 897.02C3479.33 567.943 3211.55 300.161 2882.47 300.161ZM2896.93 1224.36V1346.55H2909.66V1224.36H2896.93ZM2861.29 1223.04V1346.44H2874.02V1223.04H2861.29ZM2951.66 1185.85L2963.12 1191.4L2982.2 1152L2970.74 1146.45L2951.66 1185.85ZM2780.79 1123.42L2801.17 1178.2L2813.09 1173.76L2792.72 1118.98L2780.79 1123.42ZM2910.66 1161.34L2923.29 1162.95L2930.86 1103.56L2918.24 1101.95L2910.66 1161.34ZM2979.57 1097.86L2988.76 1106.67L3019.27 1074.85L3010.09 1066.05L2979.57 1097.86ZM2879.11 1051.27V1098.31H2891.84V1051.27H2879.11ZM2783.56 1029.89L2802.66 1070.64L2814.18 1065.25L2795.08 1024.5L2783.56 1029.89ZM2972.3 1042.88L2983.26 1049.35L3012.54 999.711L3001.57 993.245L2972.3 1042.88ZM2926.87 978.676V1033.45H2939.59V978.676H2926.87ZM2719.97 975.119L2746.68 1031.08L2758.16 1025.6L2731.46 969.642L2719.97 975.119ZM2772.78 964.755L2810.95 1016.94L2821.23 1009.42L2783.06 957.241L2772.78 964.755ZM2957.54 948.041L2967.73 1002.8L2980.24 1000.47L2970.06 945.709L2957.54 948.041ZM3032.45 925.323V962.183H3045.18V925.323H3032.45ZM2879.11 887.753V944.975H2891.84V887.753H2879.11ZM2704.29 929.034L2716.74 931.671L2730.74 865.53L2718.29 862.894L2704.29 929.034ZM2798.34 910.785L2811.03 911.844L2814.84 865.975L2802.15 864.926L2798.34 910.785ZM3037.97 850.288L3055.46 895.373L3067.33 890.771L3049.83 845.687L3037.97 850.288ZM2942.88 885.622L2954.26 891.313L2975.9 848.062L2964.51 842.369L2942.88 885.622ZM2851.72 822.183V870.545H2864.45V822.183H2851.72ZM2888.96 791.318L2906.77 839.661L2918.72 835.263L2900.91 786.919L2888.96 791.318ZM2796.07 831.496L2808.11 835.609L2825.96 783.396L2813.91 779.273L2796.07 831.496ZM2715.6 782.79L2716.87 831.133L2729.6 830.797L2728.33 782.454L2715.6 782.79ZM2957.42 777.603L2965.06 817.088L2977.56 814.675L2969.91 775.19L2957.42 777.603ZM2998.25 776.042L3003.35 811.72L3015.95 809.928L3010.85 774.239L2998.25 776.042ZM2725.47 710.793L2734.94 719.244L2770.47 679.433C2775.05 682.08 2782.89 686.153 2793.38 690.429L2765.59 741.338L2776.79 747.447L2805.4 695.011C2814.15 698.066 2824.13 700.916 2835.13 703.36L2821.79 761.396L2834.21 764.247L2847.65 705.702C2857.53 707.331 2868.32 708.247 2879.62 708.553V768.015H2892.35V708.655C2904.57 708.349 2916.38 707.433 2927.37 705.804L2943.26 761.498L2955.48 758.036L2940 703.666C2952.12 701.324 2963.32 698.473 2972.99 695.521L2995.6 747.244L3007.2 742.153L2985.11 691.549C2996.82 687.476 3005.78 683.607 3010.87 681.266L3043.96 724.538L3054.04 716.8L3014.59 665.254L3009.95 667.622C3009.44 667.927 2954.36 696.131 2886.85 696.131C2819.35 696.131 2773.23 666.304 2772.71 665.993L2768.13 663.04L2725.47 710.793ZM2885.53 546.561L2798.47 455.841L2789.31 464.699L2811.3 487.607H2810.49C2792.26 487.607 2777.4 502.473 2777.4 520.699C2777.4 538.924 2792.26 553.79 2810.49 553.79C2828.71 553.79 2843.17 539.23 2843.48 521.208L2879.83 559.084V669.557H2892.55V557.761L2928.8 520.495V520.699C2928.8 538.924 2943.67 553.79 2961.89 553.79C2980.12 553.79 2994.98 538.924 2994.98 520.699C2994.98 502.473 2980.12 487.607 2961.89 487.607V487.506C2961.87 487.508 2961.07 487.607 2960.67 487.607L2982.97 464.699L2973.8 455.841L2885.53 546.561ZM3014.53 665.178L3014.59 665.254L3014.74 665.178H3014.53ZM2900.41 641.808L2912.38 646.124L2935.3 582.519L2923.33 578.201L2900.41 641.808ZM2835.51 582.482L2858.41 646.089L2870.38 641.782L2847.48 578.176L2835.51 582.482ZM2886.24 509.499L2867.71 489.848L2858.44 498.604L2885.93 527.826L2915.05 498.706L2906.09 489.746L2886.24 509.499ZM2878.5 425.091V460.727H2893.78V425.091H2878.5ZM2844.09 425.091V448H2856.82V425.091H2844.09ZM2915.36 425.091V448H2928.09V425.091H2915.36Z" fill="white"/>
<path d="M2310.56 1394.71C2324 1381.37 2345.28 1381.47 2358.62 1394.91V1394.81C2371.96 1408.25 2371.96 1429.63 2358.62 1442.97C2345.18 1456.31 2323.59 1456.2 2310.25 1442.87C2296.92 1429.43 2297.12 1408.04 2310.56 1394.71Z" fill="white"/>
<path d="M3396.86 1394.2C3410.3 1380.86 3431.78 1380.86 3445.02 1394.2C3458.36 1407.64 3458.26 1429.22 3444.82 1442.56C3431.38 1455.9 3409.89 1455.59 3396.66 1442.25C3383.42 1428.92 3383.42 1407.53 3396.86 1394.2Z" fill="white"/>
<path fill-rule="evenodd" clip-rule="evenodd" d="M3665.15 1187.91H3665.05L3631.25 1261.02C3617.6 1290.65 3598.77 1306.23 3569.75 1292.79C3554.48 1285.76 3547.35 1273.24 3547.14 1256.64C3532.99 1273.03 3513.95 1275.88 3494.61 1266.92C3463.04 1252.36 3461.92 1219.27 3474.96 1191.27L3509.78 1116.03L3665.15 1187.91ZM3570.36 1227.62C3564.86 1239.64 3566.08 1251.04 3579.22 1257.05C3593.98 1263.87 3602.33 1253.99 3607.93 1241.77L3622.69 1209.8L3586.34 1193L3570.36 1227.62ZM3503.57 1199.01C3497.36 1212.55 3496.24 1226.3 3512.32 1233.73C3528.21 1241.06 3539.1 1234.04 3545.92 1219.37L3563.13 1182.21L3520.47 1162.46L3503.57 1199.01Z" fill="white"/>
<path fill-rule="evenodd" clip-rule="evenodd" d="M2273.8 1158.79L2245.6 1187.61L2274.52 1244.73L2314.63 1239.53L2331.84 1273.54L2149.79 1292.89V1292.79L2132.38 1258.37L2256.19 1123.97L2273.8 1158.79ZM2178.71 1256.64L2178.91 1257.05L2244.99 1248.6H2245.09L2225.03 1208.99L2178.71 1256.64Z" fill="white"/>
<path fill-rule="evenodd" clip-rule="evenodd" d="M2223.91 846.924L2185.63 859.345L2184.71 923.389L2222.69 937.338L2222.28 970.124L2230.43 1006.37L2166.59 1073.47L2192.55 1089.76L2246.31 1077.75V1077.64L2254.56 1114.4L2087.58 1151.87L2079.33 1115.11L2148.57 1099.64L2064.67 1049.85L2054.39 1004.03L2135.03 1054.53L2210.57 970.836L2051.94 908.116L2052.45 869.527L2224.42 807.826L2223.91 846.924ZM2094.3 889.484V889.993L2156.81 913.105L2157.43 868.713L2094.3 889.484Z" fill="white"/>
<path d="M3527.29 1018.39C3535.44 973.076 3562.21 950.676 3607.93 958.923L3712.7 977.862L3705.98 1014.92L3601.21 995.985C3582.78 992.625 3563.74 994.051 3558.34 1024.09C3553.56 1050.56 3563.54 1061.05 3588.58 1065.63L3693.36 1084.57L3686.64 1121.63L3581.86 1102.69L3581.97 1102.59C3536.45 1094.34 3519.14 1063.39 3527.29 1018.39Z" fill="white"/>
<path d="M3710.77 839.084L3571.48 846.72L3576.06 930.007L3544.5 931.738L3537.88 810.88L3708.73 801.62L3710.77 839.084Z" fill="white"/>
<path d="M3708.83 801.615L3708.73 801.62L3708.73 801.513L3708.83 801.615Z" fill="white"/>
<path d="M3670.65 636.873L3602.53 656.727L3689.38 701.018L3702.52 746.124L3618.93 700.815L3540.12 800.291L3526.88 754.982L3586.34 683.913L3559.36 669.354L3506.42 684.829L3495.83 648.684L3660.07 600.753L3670.65 636.873Z" fill="white"/>
<path fill-rule="evenodd" clip-rule="evenodd" d="M2081.06 682.793C2092.67 639.928 2128.2 615.084 2182.98 629.848C2230.94 642.778 2259.85 676.989 2246.21 727.389L2226.97 798.662L2061.84 753.996L2081.06 682.793ZM2176.77 667.215C2143.48 658.255 2119.04 664.058 2109.27 700.102L2102.24 726.066L2206.4 754.168L2215.16 721.789C2220.86 700.713 2213.32 677.091 2176.77 667.215Z" fill="white"/>
<path d="M2061.84 753.996L2061.82 754.066L2061.72 753.964L2061.84 753.996Z" fill="white"/>
<path d="M2210.88 463.68L2168.01 543.2L2200.29 560.611L2239.7 487.607L2265.45 501.455L2226.05 574.458L2263.01 594.415L2306.79 513.164L2334.69 528.233L2272.99 642.575L2122.3 561.324H2122.2L2182.98 448.611L2210.88 463.68Z" fill="white"/>
<path fill-rule="evenodd" clip-rule="evenodd" d="M3557.43 411.753L3595.51 474.982C3618.32 512.96 3611.7 555.927 3563.03 585.149C3520.47 610.706 3475.77 607.957 3448.79 563.157L3410.71 499.826L3557.43 411.651V411.753ZM3457.28 515.987L3474.55 544.727C3485.75 563.462 3508.05 574.357 3540.53 554.909C3570.16 537.091 3582.88 515.506 3563.54 483.433L3549.69 460.422L3457.28 515.987Z" fill="white"/>
<path d="M3660.07 600.753L3660.06 600.727H3660.16L3660.07 600.753Z" fill="white"/>
<path d="M2463.9 384.466L2440.89 408.8L2352.81 325.411L2352.51 325.716L2413.19 438.022L2394.25 458.08L2279.61 404.524L2279.3 404.829L2366.56 487.404L2343.55 511.738L2219.23 394.036V393.935L2253.85 357.382L2365.44 410.633L2365.75 410.327L2304.96 303.316L2339.58 266.764L2463.9 384.466Z" fill="white"/>
<path d="M3463.96 308L3364.28 405.644L3422.72 465.207L3400.12 487.404L3315.41 400.96L3437.64 281.169L3463.96 308Z" fill="white"/>
<path d="M2520.2 349.949L2489.35 371.535L2391.2 231.331L2422.05 209.746L2520.2 349.949Z" fill="white"/>
<path fill-rule="evenodd" clip-rule="evenodd" d="M3203.92 224.611C3230.8 181.44 3278.14 164.334 3323.14 192.334H3323.04C3368.05 220.334 3373.54 270.429 3346.77 313.498C3320.7 355.447 3273.36 372.553 3228.35 344.553C3183.35 316.553 3177.85 266.458 3203.92 224.611ZM3306.34 219.316C3277.63 201.498 3251.67 219.214 3235.78 244.567C3220.72 268.8 3216.24 299.956 3244.95 317.774H3245.05C3273.76 335.593 3299.73 317.876 3314.8 293.745C3330.58 268.291 3335.06 237.134 3306.34 219.316Z" fill="white"/>
<path d="M2534.97 142.443C2567.45 127.68 2603.8 128.189 2620.19 164.232L2587 179.302C2577.32 161.076 2561.85 162.298 2545.56 169.731C2534.66 174.72 2524.07 185.003 2530.08 198.138C2535.58 210.152 2543.62 208.32 2587.3 200.582C2599.93 198.24 2638.11 189.585 2654.2 224.916C2667.23 253.527 2654.5 285.091 2612.15 304.334C2577.63 320.014 2537.62 317.672 2520.61 279.083L2553.67 264.071C2563.17 284.686 2582.87 285.374 2601.15 277.047C2613.16 271.549 2629.86 259.738 2622.63 243.854C2615 227.055 2590.36 234.792 2564.7 239.171C2538.84 243.549 2511.35 245.28 2498.11 216.058C2483.65 184.189 2506.76 155.171 2534.97 142.443Z" fill="white"/>
<path d="M3437.64 281.169L3437.59 281.12H3437.69L3437.64 281.169Z" fill="white"/>
<path fill-rule="evenodd" clip-rule="evenodd" d="M3137.63 110.575C3168.79 120.146 3186.81 136.64 3177.44 167.186C3172.56 183.273 3161.05 192.029 3144.76 194.575C3162.98 206.386 3168.38 224.815 3162.07 245.28C3151.89 278.473 3119.3 284.073 3089.78 275.113L3010.46 250.88L3060.56 87.1562V87.0547L3137.63 110.575ZM3055.06 233.673V233.775L3093.54 245.586C3107.7 249.964 3121.54 249.149 3126.74 232.146C3131.83 215.449 3123.38 205.571 3108 200.786L3068.8 188.771L3055.06 233.673ZM3076.24 164.335L3112.69 175.433C3125.31 179.302 3136.41 176.451 3140.69 162.706C3145.47 147.128 3134.48 140.306 3121.65 136.335L3087.94 126.051L3076.24 164.335Z" fill="white"/>
<path d="M2553.8 264.014L2553.67 264.071C2553.65 264.018 2553.62 263.965 2553.6 263.912L2553.8 264.014Z" fill="white"/>
<path d="M2768.44 146.822L2858.14 236.626L2811.61 244.567L2747.87 177.367L2730.25 202.517L2739.52 256.887L2702.46 263.2L2673.85 94.4873L2673.64 94.2842L2710.71 87.9707L2722.62 157.92L2776.68 76.7715L2823.01 68.9307L2768.44 146.822Z" fill="white"/>
<path fill-rule="evenodd" clip-rule="evenodd" d="M2881.05 0C3375.07 0 3777.05 401.978 3777.05 896C3777.05 1390.02 3375.07 1792 2881.05 1792C2387.03 1792 1985.05 1390.02 1985.05 896C1985.05 401.978 2387.03 0 2881.05 0ZM2881.05 25.4551C2400.97 25.4551 2010.5 415.927 2010.5 896C2010.5 1376.07 2400.97 1766.55 2881.05 1766.55C3361.02 1766.55 3751.6 1376.07 3751.6 896C3751.6 415.927 3361.12 25.4551 2881.05 25.4551Z" fill="white"/>
</svg>
