<svg width="178" height="80" viewBox="0 0 178 80" fill="none" xmlns="http://www.w3.org/2000/svg">
<path d="M6.84379 79.2648V59.1941H0.0500488V56.9865C3.04801 56.8147 4.73394 56.3841 5.86345 55.5031C6.99492 54.621 7.61217 53.2534 7.98901 50.7891H10.4747V79.2648H6.84379Z" fill="white"/>
<path d="M46.3271 79.8212C43.4714 79.8212 41.024 79.063 39.2497 77.6285C37.4755 76.1941 36.5374 74.2142 36.5374 71.9026C36.5374 68.753 38.4323 66.0858 41.4833 64.942L41.604 64.8971L41.4842 64.8491C38.5206 63.6664 36.7523 61.1261 36.7523 58.0523C36.7523 55.7688 37.6678 53.8128 39.4009 52.3983C41.1349 50.9818 43.5303 50.2336 46.3271 50.2336C49.1239 50.2336 51.5095 50.9818 53.2465 52.3983C54.9844 53.8158 55.9029 55.7708 55.9029 58.0523C55.9029 61.1221 54.1277 63.6624 51.1552 64.8481L51.0345 64.8961L51.1562 64.941C54.2042 66.0798 56.0982 68.748 56.0982 71.9026C56.0982 74.2162 55.164 76.1961 53.3956 77.6285C51.6263 79.063 49.1818 79.8212 46.3271 79.8212ZM46.3271 66.1298C42.5971 66.1298 40.1869 68.3104 40.1869 71.6838C40.1869 75.0573 42.5971 77.238 46.3271 77.238C50.0571 77.238 52.4476 75.0573 52.4476 71.6838C52.4476 68.3104 50.0454 66.1298 46.3271 66.1298ZM46.3271 52.7949C42.6923 52.7949 40.3429 54.9366 40.3429 58.2501C40.3429 61.5636 42.6913 63.7053 46.3271 63.7053C49.9629 63.7053 52.3112 61.5636 52.3112 58.2501C52.3112 54.9366 49.9629 52.7949 46.3271 52.7949Z" fill="white"/>
<path d="M67.5658 79.9003C65.0841 79.9003 62.9565 79.1911 61.4139 77.8505C59.8182 76.463 58.8526 74.3902 58.62 71.8529H62.1921C62.5375 75.2513 64.4943 77.1982 67.5658 77.1982C69.921 77.1982 71.6933 75.9965 72.8317 73.627C73.8042 71.6011 74.2968 68.7831 74.2948 65.2499V65.0012L74.2006 65.2309C73.1643 67.7562 70.3685 69.3885 67.0781 69.3885C61.9006 69.3885 58.2834 65.5356 58.2834 60.0195C58.2834 54.2136 62.0998 50.3118 67.7808 50.3118C71.2321 50.3118 73.8552 51.7223 75.5774 54.5033C77.1201 56.9957 77.9032 60.4959 77.9032 64.9073C77.9032 69.3186 77.0926 72.9467 75.5578 75.488C73.7904 78.4159 71.1016 79.9003 67.5668 79.9003H67.5658ZM67.7032 52.9939C64.3294 52.9939 61.9732 55.7929 61.9732 59.8007C61.9732 63.8084 64.3147 66.6664 67.8004 66.6664C69.5079 66.6664 70.9711 66.0191 72.0319 64.7944C73.0888 63.5737 73.6471 61.8955 73.6471 59.9395C73.6471 57.9836 73.0583 56.2295 71.9907 54.9688C70.9122 53.6952 69.3892 52.9939 67.7023 52.9939H67.7032Z" fill="white"/>
<path d="M24.247 79.8212C21.3914 79.8212 18.9439 79.063 17.1697 77.6285C15.3954 76.1941 14.4573 74.2142 14.4573 71.9026C14.4573 68.753 16.3522 66.0858 19.4032 64.942L19.5239 64.8971L19.4042 64.8491C16.4405 63.6664 14.6722 61.1261 14.6722 58.0523C14.6722 55.7688 15.5878 53.8128 17.3208 52.3983C19.0548 50.9818 21.4502 50.2336 24.247 50.2336C27.0438 50.2336 29.4294 50.9818 31.1664 52.3983C32.9043 53.8158 33.8228 55.7708 33.8228 58.0523C33.8228 61.1221 32.0476 63.6624 29.0752 64.8481L28.9545 64.8961L29.0761 64.941C32.1251 66.0798 34.0181 68.748 34.0181 71.9026C34.0181 74.2162 33.0839 76.1961 31.3155 77.6285C29.5462 79.063 27.1017 79.8212 24.247 79.8212ZM24.247 66.1298C20.517 66.1298 18.1068 68.3104 18.1068 71.6838C18.1068 75.0573 20.517 77.238 24.247 77.238C27.9771 77.238 30.3676 75.0573 30.3676 71.6838C30.3676 68.3104 27.9653 66.1298 24.247 66.1298ZM24.247 52.7949C20.6122 52.7949 18.2639 54.9366 18.2639 58.2501C18.2639 61.5636 20.6122 63.7053 24.247 63.7053C27.8819 63.7053 30.2312 61.5636 30.2312 58.2501C30.2312 54.9366 27.8828 52.7949 24.247 52.7949Z" fill="white"/>
<path d="M35.7195 47.0497V32.7389H24.343L18.5619 47.0497H0.182617L21.6747 0.0996094H60.5776C71.2191 0.0996094 77.5722 4.75866 77.5722 12.5634C77.5722 17.9077 74.696 21.7326 69.4723 23.3359L69.3163 23.3839L69.4733 23.4318C74.8412 25.0641 77.7979 28.9679 77.7979 34.4221C77.7979 42.3287 71.3967 47.0497 60.6747 47.0497H35.7195ZM52.3118 43.5694L52.3727 43.5534C57.9859 42.117 61.2046 38.2411 61.2046 32.9187C61.2046 29.0938 59.6375 25.8952 56.5482 23.4098C59.5315 20.9415 61.0447 17.8418 61.0447 14.1966C61.0447 8.94022 57.8033 4.97643 52.3737 3.5949L52.3128 3.57891V43.5684L52.3118 43.5694ZM35.6243 3.63286C33.9364 8.46572 29.7285 19.3901 25.8356 29.0449L25.8081 29.1138H35.7205V3.36015L35.6253 3.63286H35.6243Z" fill="white"/>
<g clip-path="url(#clip0_1251_11)">
<path d="M145.03 54.4589C144.741 54.0595 144.403 53.7259 144.091 53.5108C144.214 53.0762 144.354 52.6504 144.517 52.1982C144.64 51.8514 144.771 51.4959 144.894 51.1096C145.043 50.6487 145.342 50.0165 145.715 49.2176C146.913 46.6716 148.918 42.4092 149.094 36.8693C149.112 36.2635 149.063 35.6929 148.962 35.1486C150.116 37.4137 150.178 40.3372 149.138 43.8665C148.291 46.7418 146.724 50.6091 145.03 54.4633M145.46 57.3957C145.482 57.3561 145.504 57.3166 145.526 57.2771C145.934 57.6415 146.32 58.0278 146.672 58.4404L145.68 58.515L144.995 58.0892C145.061 58.0014 145.136 57.9005 145.206 57.7907C145.219 57.7732 145.228 57.76 145.237 57.7424C145.311 57.6327 145.386 57.5186 145.465 57.3913M142.151 63.5632L138.285 60.7538V57.6854L141.234 56.7899C141.234 56.7899 141.234 56.8118 141.234 56.8206C141.234 56.9303 141.234 57.0401 141.234 57.1454C141.234 57.1762 141.234 57.2025 141.234 57.2332C141.23 57.343 141.221 57.4527 141.212 57.5581C141.212 57.58 141.208 57.602 141.204 57.6283C141.195 57.7205 141.182 57.8127 141.168 57.8961C141.168 57.9136 141.164 57.9312 141.16 57.9488C141.146 58.0453 141.129 58.1331 141.116 58.2121C141.116 58.2297 141.107 58.2473 141.107 58.2648C141.094 58.3394 141.076 58.4141 141.063 58.4667L140.923 59.0462L141.489 58.8574C141.568 58.8311 141.919 58.6775 142.467 57.9663C142.437 58.1375 142.406 58.3043 142.366 58.4667L142.226 59.0462L142.788 58.8574C142.862 58.8311 143.17 58.6994 143.648 58.1156C143.617 58.2999 143.582 58.4799 143.538 58.6555L143.398 59.2306L143.959 59.0418C143.959 59.0418 143.999 59.0286 144.03 59.0111C144.126 58.9628 144.306 58.8487 144.552 58.5984L145.267 59.0418L145.438 62.4702L142.143 63.5632H142.151ZM137.947 57.0972L134.748 56.127C134.783 55.9822 134.827 55.8417 134.889 55.7232C135.222 55.0998 135.841 54.9462 135.867 54.9418L136.903 54.4589C137.245 54.4282 137.592 54.4063 137.947 54.4063C138.303 54.4063 138.645 54.4282 138.987 54.4589L139.957 54.9199L140.027 54.9418C140.054 54.9462 140.677 55.0998 141.006 55.7232C141.046 55.7978 141.076 55.8856 141.103 55.9734C141.12 56.0261 141.133 56.0744 141.146 56.127L137.947 57.0972ZM137.614 60.7538L133.748 63.5632L130.452 62.4702L130.597 59.6125L130.623 59.0374L131.338 58.594C131.338 58.594 131.347 58.6028 131.351 58.6072C131.417 58.6731 131.474 58.7257 131.531 58.774C131.562 58.8004 131.588 58.8223 131.615 58.8399C131.632 58.853 131.65 58.8662 131.667 58.8794C131.803 58.9803 131.9 59.0242 131.935 59.0374L132.497 59.2262L132.356 58.6511C132.312 58.4755 132.277 58.2956 132.247 58.1112C132.729 58.695 133.037 58.8311 133.107 58.853L133.669 59.0418L133.528 58.4624C133.489 58.2999 133.458 58.1287 133.427 57.9619C133.976 58.6731 134.327 58.8267 134.406 58.853L134.967 59.0418L134.827 58.4624C134.752 58.1463 134.634 57.4483 134.656 56.7855L137.605 57.681V60.7494L137.614 60.7538ZM130.224 58.515L129.227 58.4404C129.578 58.0234 129.965 57.6371 130.373 57.2771C130.39 57.3122 130.408 57.3518 130.43 57.3869C130.601 57.6678 130.763 57.8961 130.908 58.0936L130.219 58.5194L130.224 58.515ZM126.844 43.8578C125.796 40.2977 125.866 37.3522 127.055 35.0783C126.95 35.6402 126.893 36.2372 126.915 36.8606C127.09 42.396 129.096 46.6628 130.294 49.2088C130.667 50.0078 130.965 50.6355 131.114 51.1008C131.237 51.4871 131.369 51.8427 131.492 52.1894C131.645 52.6109 131.777 53.0147 131.896 53.423C131.575 53.6249 131.22 53.9585 130.913 54.3667C129.232 50.5389 127.683 46.7111 126.84 43.8534M145.636 43.2476C145.21 44.8147 144.552 46.0263 144.174 46.6452C143.907 46.1668 143.45 45.4951 142.889 45.1922L142.761 45.122C143.301 44.0334 143.775 42.7208 143.74 41.5795C144.03 42.036 144.188 42.6243 144.236 42.9008L144.398 43.8402L144.85 42.9974C144.881 42.9403 145.531 41.7156 146.035 39.8807C146.127 40.8025 145.996 41.9263 145.636 43.2432M129.851 39.8412C130.36 41.7024 131.018 42.9447 131.049 43.0018L131.501 43.8402L131.663 42.9008C131.711 42.6243 131.869 42.036 132.159 41.5795C132.119 42.7208 132.598 44.029 133.133 45.1176L132.993 45.1922C132.431 45.4951 131.979 46.1668 131.707 46.6452C131.325 46.0263 130.671 44.8147 130.246 43.2476C129.881 41.9087 129.754 40.7762 129.855 39.8412M134.893 53.0411C134.862 52.3563 134.858 51.7285 134.858 51.3466C134.858 50.4116 134.853 50.1131 134.695 50.0034C134.634 49.9024 134.559 49.7927 134.476 49.6698C133.905 48.8269 132.966 47.4222 133.436 45.6883C133.875 46.4872 134.3 47.0974 134.476 47.3081L135.016 47.9622L135.055 47.1149C135.073 46.7462 135.235 46.5531 135.538 46.5355C136.231 46.5048 137.359 47.3739 137.644 49.1254L137.723 49.402L138.329 49.1166C138.553 47.4486 139.646 46.5531 140.339 46.5531C140.348 46.5531 140.361 46.5531 140.37 46.5531C140.664 46.5662 140.822 46.755 140.839 47.1105L140.879 47.9578L141.419 47.3037C141.594 47.093 142.011 46.4916 142.445 45.7058C142.902 47.431 141.967 48.8225 141.401 49.6654C141.313 49.7971 141.23 49.9156 141.164 50.0209C141.037 50.1175 141.037 50.2799 141.041 51.092C141.041 51.8251 141.028 52.466 140.997 53.0454C140.988 53.0454 140.984 53.0411 140.975 53.0411C140.953 53.0411 140.936 53.0367 140.914 53.0323C140.826 53.0235 140.743 53.0235 140.655 53.0323C140.642 53.0323 140.629 53.0367 140.611 53.0367C140.536 53.0454 140.462 53.063 140.387 53.085C140.37 53.0893 140.352 53.0937 140.33 53.1025C140.251 53.1288 140.172 53.1596 140.098 53.1947C140.08 53.2035 140.063 53.2123 140.045 53.221C139.979 53.2561 139.913 53.2913 139.847 53.3308C139.839 53.3396 139.826 53.3439 139.817 53.3527C139.747 53.3966 139.681 53.4449 139.615 53.4932C139.602 53.502 139.593 53.5108 139.58 53.5195C139.448 53.6249 139.334 53.7258 139.246 53.8136C138.812 53.7654 138.377 53.7346 137.934 53.7346C137.491 53.7346 137.056 53.7654 136.622 53.8136C136.293 53.4888 135.595 52.9181 134.875 53.0323M131.47 56.9216C131.47 57.2288 131.496 57.5361 131.531 57.8215C131.378 57.6283 131.193 57.3737 130.992 57.0445C130.772 56.6889 130.75 56.2499 130.917 55.7407C131.18 54.9506 131.821 54.2438 132.26 53.9848C131.931 54.3755 131.632 54.854 131.47 55.35C131.281 55.9251 131.286 56.4606 131.47 56.926M132.655 56.5045C132.633 56.8821 132.664 57.2815 132.707 57.6327C132.554 57.4395 132.37 57.1849 132.168 56.8513C131.948 56.4958 131.922 56.0568 132.093 55.5476C132.387 54.6653 133.155 53.8839 133.581 53.7127C133.642 53.6863 133.708 53.6776 133.774 53.6776C133.791 53.6776 133.809 53.6863 133.826 53.6863C133.392 54.1165 132.98 54.7135 132.773 55.3413C132.637 55.7495 132.602 56.1402 132.659 56.5002M134.037 57.6634C133.875 57.4659 133.686 57.2025 133.471 56.8513C133.252 56.4958 133.225 56.0568 133.396 55.5476C133.69 54.6653 134.458 53.8839 134.884 53.7171C134.946 53.6907 135.011 53.682 135.077 53.682C135.389 53.682 135.749 53.919 136.012 54.1429L135.683 54.3009C135.494 54.3536 134.731 54.6038 134.305 55.4071C133.963 56.0568 133.967 56.9786 134.037 57.6678M141.59 55.4159C141.164 54.6126 140.4 54.3624 140.212 54.3097L139.883 54.1517C140.203 53.8795 140.668 53.5898 141.01 53.7258C141.432 53.897 142.204 54.674 142.498 55.5608C142.665 56.07 142.643 56.5089 142.423 56.8645C142.208 57.2157 142.02 57.4791 141.857 57.6766C141.928 56.9874 141.932 56.0656 141.59 55.4159ZM143.121 55.3544C142.915 54.7267 142.498 54.1297 142.064 53.6951C142.151 53.6863 142.235 53.6951 142.314 53.7258C142.735 53.897 143.507 54.674 143.801 55.5608C143.968 56.07 143.946 56.5089 143.727 56.8645C143.521 57.1981 143.341 57.4527 143.187 57.6459C143.235 57.2903 143.262 56.8908 143.24 56.5177C143.297 56.1578 143.262 55.7671 143.126 55.3588M144.42 55.3544C144.258 54.8584 143.959 54.3843 143.63 53.9892C144.069 54.2482 144.71 54.955 144.973 55.7451C145.14 56.2543 145.118 56.6933 144.899 57.0489C144.697 57.3825 144.512 57.6371 144.359 57.8302C144.394 57.5493 144.42 57.2376 144.42 56.9303C144.609 56.465 144.613 55.9295 144.42 55.3544ZM130.588 30.1794L130.79 29.9906L130.64 29.7624C129.636 28.1909 129.105 26.7115 129.061 25.3639C129.004 23.5246 129.552 22.2999 129.908 21.7072C130.206 22.0189 130.509 22.3086 130.812 22.5852C130.342 23.0768 129.557 24.1743 129.719 25.9082C129.93 28.1645 131.847 29.6087 133.546 29.8282C133.708 29.8502 133.87 29.8589 134.028 29.8589C134.906 29.8589 135.678 29.5341 136.275 28.9371C136.288 28.981 136.302 29.0293 136.324 29.0776C136.846 30.3111 137.662 31.268 137.697 31.3076L137.952 31.6017L138.202 31.3032C138.241 31.2549 139.211 30.0916 139.61 28.9854C139.61 28.9766 139.61 28.9634 139.615 28.9547C140.212 29.5429 140.984 29.8677 141.862 29.8677C142.033 29.8677 142.208 29.8546 142.384 29.8326C144.087 29.6 145.987 28.147 146.158 25.9126C146.303 24.0426 145.623 23.0549 145.14 22.5984C145.443 22.3262 145.746 22.0365 146.044 21.7248C146.36 22.2516 146.93 23.4675 146.869 25.377C146.803 27.3919 145.671 29.2488 145.324 29.7712L145.171 30.0038L145.377 30.1926C146.334 31.0705 148.55 33.4849 148.44 36.8562C148.269 42.2599 146.299 46.4433 145.122 48.9454C144.736 49.7619 144.433 50.4116 144.271 50.912C144.148 51.2896 144.021 51.6407 143.898 51.9831C143.744 52.4177 143.604 52.8303 143.481 53.2474C143.27 53.2166 143.064 53.2386 142.867 53.3C142.757 53.2298 142.652 53.1684 142.555 53.1288C142.252 53.0103 141.95 53.0323 141.669 53.1201C141.699 52.466 141.708 51.7812 141.708 51.1096C141.708 50.833 141.708 50.5433 141.713 50.4204C141.778 50.315 141.862 50.1877 141.954 50.0517C142.459 49.3054 143.323 48.0236 143.227 46.4082C143.516 46.7945 143.74 47.2291 143.832 47.4442L144.06 47.9665L144.398 47.51C144.447 47.4442 145.605 45.8639 146.268 43.4363C146.838 41.3425 146.86 39.6744 146.347 38.4584C146.693 35.9255 145.627 34.174 145.579 34.095L145.021 34.4418C145.021 34.4418 146.053 36.145 145.675 38.5199H145.667C145.667 38.5199 145.667 38.5374 145.671 38.5374C145.649 38.6735 145.623 38.814 145.592 38.9544C145.307 40.2099 144.916 41.2591 144.631 41.9219C144.407 41.3468 144.012 40.6533 143.354 40.4031L142.652 40.1309L142.933 40.8289C143.358 41.8956 142.827 43.5066 142.187 44.8191C141.884 45.4337 141.559 45.9868 141.291 46.3862C141.103 46.0965 140.791 45.9253 140.405 45.9078C139.694 45.8726 138.886 46.3643 138.325 47.2422V36.9483C138.513 36.6981 139.277 35.7851 141.217 34.6481L140.883 34.0775C139.29 35.0125 138.434 35.8114 138.031 36.2679C137.666 35.807 136.85 35.0388 135.02 33.9941L134.695 34.5647C137.1 35.9387 137.596 36.764 137.666 36.9044V47.3081C137.078 46.3599 136.223 45.8331 135.503 45.8858C135.112 45.9078 134.801 46.0877 134.612 46.3819C133.778 45.1264 132.343 42.3916 132.971 40.8245L133.252 40.1265L132.549 40.3987C131.891 40.6533 131.496 41.3425 131.272 41.9175C130.987 41.2547 130.597 40.2055 130.311 38.9501C129.723 36.347 130.869 34.455 130.882 34.433L130.324 34.0863C130.276 34.1653 129.223 35.8992 129.552 38.4101C129.021 39.6305 129.039 41.3161 129.618 43.4276C130.281 45.8551 131.439 47.4354 131.487 47.5012L131.825 47.9578L132.054 47.4354C132.146 47.2247 132.37 46.7857 132.659 46.3994C132.567 48.0148 133.432 49.2966 133.936 50.0429C134.033 50.1877 134.121 50.315 134.186 50.4292C134.204 50.5696 134.204 50.9691 134.204 51.3554C134.204 51.948 134.217 52.5406 134.239 53.1069C133.954 53.0147 133.647 52.9884 133.344 53.1069C133.247 53.1464 133.142 53.2079 133.032 53.2781C132.87 53.2298 132.703 53.2079 132.536 53.2166C132.413 52.804 132.277 52.4002 132.124 51.9744C132.001 51.6363 131.874 51.2808 131.751 50.9033C131.588 50.4028 131.286 49.7532 130.899 48.9323C129.723 46.4301 127.757 42.2467 127.582 36.843C127.476 33.4717 129.653 31.0573 130.597 30.1794M127.748 19.0163C132.014 21.2288 134.48 23.6212 135.876 25.4429C135.573 25.1927 135.248 24.9512 134.884 24.7274C133.462 23.8538 131.821 22.7871 130.285 21.1541L130.294 21.141L127.748 19.0163ZM133.611 24.7713C133.967 24.982 134.292 25.1795 134.594 25.3683C134.594 25.3814 134.599 25.3946 134.603 25.4078C134.673 25.8336 134.379 26.2418 133.954 26.3121C133.862 26.3296 133.151 26.2725 133.05 25.6624C132.984 25.2585 133.243 24.8722 133.607 24.7757M132.405 25.7633C132.554 26.6764 133.436 26.9705 133.919 26.9705C133.971 26.9705 134.02 26.9705 134.063 26.9617C134.687 26.8608 135.143 26.3735 135.248 25.7853C135.775 26.1935 136.209 26.6281 136.556 27.0407V27.0583C136.556 27.1549 136.543 27.2515 136.525 27.348C135.999 28.6781 134.95 29.3497 133.629 29.1785C132.163 28.9898 130.544 27.6948 130.373 25.8511C130.232 24.3367 130.93 23.4017 131.308 23.0198C131.891 23.5114 132.475 23.9416 133.041 24.3279C132.58 24.6308 132.312 25.1883 132.405 25.7677M138.987 28.7571C138.742 29.4244 138.246 30.1487 137.943 30.5525C137.671 30.1882 137.236 29.5473 136.925 28.8142C136.841 28.6167 136.907 28.384 137.017 28.024C137.039 27.945 137.065 27.866 137.092 27.7826C137.153 27.8572 137.214 27.9319 137.276 28.0065C137.539 28.4191 137.666 28.7001 137.671 28.7045L137.974 29.3805L138.272 28.7045C138.272 28.7045 138.399 28.4235 138.658 28.0197C138.715 27.9494 138.772 27.8748 138.834 27.7958C138.856 27.8485 138.878 27.9011 138.9 27.9538C138.979 28.2611 139.053 28.5684 138.987 28.7483M132.791 19.1963H132.892L132.98 19.148C135.143 17.8136 137.21 17.7038 138.004 17.7126H138.061C138.834 17.7038 140.892 17.8311 143.029 19.148L143.117 19.2007H143.218C144.837 19.1217 146.026 19.0251 146.882 18.9373C141.414 22.0189 138.807 25.5921 137.96 27.6202C137.285 26.1013 135.095 22.3438 128.982 18.9285C129.868 19.0207 131.106 19.1173 132.791 19.1963ZM141.348 25.4034C141.348 25.4034 141.348 25.377 141.357 25.3639C141.66 25.1751 141.985 24.9776 142.336 24.7713C142.718 24.8766 142.963 25.2541 142.902 25.6536C142.805 26.2638 142.09 26.3208 142.002 26.3033C141.572 26.233 141.282 25.8292 141.353 25.399M141.892 26.9573C141.936 26.9661 141.985 26.9661 142.037 26.9661C142.52 26.9661 143.402 26.672 143.551 25.759C143.643 25.1795 143.376 24.622 142.911 24.3191C143.477 23.9328 144.056 23.507 144.64 23.0198C145.004 23.3402 145.631 24.1479 145.504 25.8511C145.364 27.6729 143.766 28.9722 142.296 29.1698C141.085 29.3366 140.098 28.8142 139.523 27.7299C139.523 27.7299 139.523 27.7212 139.523 27.7168C139.461 27.4753 139.395 27.2295 139.395 27.0451V27.032C139.747 26.6193 140.181 26.1804 140.712 25.7721C140.813 26.3647 141.274 26.852 141.897 26.9573M145.715 21.119H145.71C144.166 22.7652 142.502 23.845 141.063 24.7274C140.681 24.96 140.339 25.2146 140.027 25.478C141.414 23.6299 143.889 21.2024 148.194 18.9768L145.719 21.119H145.715ZM148.809 33.6473C148.638 33.419 148.458 33.2083 148.269 33.0064C147.593 31.5666 146.645 30.4955 146.018 29.8897C146.54 29.0468 147.457 27.3173 147.519 25.3902C147.589 23.2129 146.904 21.8433 146.535 21.2771L151.034 17.3878L148.629 18.0243C148.629 18.0243 147.334 18.3491 143.284 18.5379C141.032 17.1814 138.882 17.0541 138.053 17.0541H138C137.162 17.0454 134.998 17.1595 132.716 18.5379C128.631 18.3447 127.248 18.0374 127.235 18.033L124.874 17.4799L129.399 21.2639C129.008 21.8872 128.328 23.2919 128.394 25.3946C128.437 26.7905 128.955 28.305 129.934 29.8941C129.32 30.4998 128.394 31.5622 127.731 32.9932C127.538 33.2039 127.345 33.4234 127.169 33.6561C125.251 36.2197 124.927 39.7183 126.208 44.0553C127.09 47.0403 128.727 51.0745 130.487 55.0603C130.408 55.2184 130.338 55.3764 130.285 55.5388C130.162 55.9119 130.123 56.2675 130.158 56.6011C128.648 57.8741 127.454 59.5071 126.726 61.3684C126.717 61.3903 126.708 61.4122 126.7 61.4342C126.691 61.4605 126.682 61.4869 126.669 61.5132C126.66 61.5396 126.647 61.5659 126.638 61.5922C126.586 61.7327 126.533 61.8776 126.489 62.0224C126.199 62.9223 126.015 63.8661 125.949 64.8406C126.186 64.8626 126.423 64.8933 126.66 64.9328C126.713 64.1866 126.831 63.1637 127.103 62.2551C127.152 62.1014 127.204 61.9478 127.261 61.7942C127.266 61.7854 127.27 61.7722 127.275 61.7634C127.288 61.7239 127.305 61.6844 127.323 61.6449C127.81 60.4772 128.503 59.4457 128.762 59.0769L129.951 59.1647L129.78 62.615L128.209 65.2664C128.429 65.3235 128.648 65.3849 128.863 65.4508L130.25 63.1067L131.878 63.6466L133.532 64.1953L134.52 67.233C134.634 67.2594 134.748 67.2813 134.862 67.3033C134.994 67.3252 135.134 67.3471 135.266 67.3691L134.191 64.0592L137.943 61.3332L141.695 64.0592L141.05 66.0434L140.585 67.4701C140.734 67.4349 140.896 67.4174 141.067 67.4174C141.146 67.4174 141.212 67.4306 141.287 67.4393L141.699 66.1707L142.34 64.1953L143.995 63.6466L145.623 63.1067L147.347 66.0171C147.532 65.9073 147.738 65.8239 147.975 65.78L146.097 62.6106L145.925 59.1603L147.119 59.0725C147.378 59.4281 148.067 60.4246 148.528 61.5747C148.545 61.6186 148.563 61.6669 148.581 61.7108C148.66 61.9171 148.73 62.1234 148.796 62.3253C148.804 62.3516 148.809 62.3736 148.817 62.3999C148.875 62.5931 148.927 62.7818 148.971 62.9662C148.971 62.975 148.975 62.9882 148.98 62.9969C149.155 63.7256 149.23 64.3709 149.261 64.8713C149.449 64.7704 149.664 64.6958 149.906 64.6606C149.88 64.2963 149.84 63.9319 149.779 63.5764C149.779 63.5632 149.774 63.55 149.77 63.5369C149.743 63.3832 149.713 63.2296 149.678 63.0803C149.651 62.9662 149.625 62.8477 149.594 62.7248C149.577 62.6633 149.564 62.6019 149.546 62.5404C149.515 62.4263 149.48 62.3077 149.445 62.1936C149.427 62.1365 149.41 62.0751 149.392 62.018C149.357 61.9083 149.318 61.7985 149.278 61.6888C149.252 61.6186 149.23 61.5483 149.204 61.4825C149.199 61.4649 149.191 61.4518 149.186 61.4342C149.151 61.342 149.112 61.2498 149.076 61.162C148.344 59.3798 147.176 57.8215 145.719 56.5923C145.737 56.4299 145.732 56.2631 145.715 56.0919C145.715 56.0875 145.715 56.0831 145.715 56.0787C145.706 55.9997 145.693 55.9251 145.675 55.8461C145.675 55.8329 145.675 55.8241 145.671 55.811C145.649 55.7232 145.627 55.631 145.596 55.5432C145.552 55.4159 145.5 55.2842 145.443 55.1569C147.22 51.1359 148.879 47.0579 149.77 44.0465C151.047 39.7095 150.726 36.2109 148.809 33.6473Z" fill="white"/>
<path d="M132.866 31.4439C133.002 31.5054 133.191 31.5888 133.424 31.681L132.357 33.0199L132.871 33.4281L134.064 31.9268C134.253 31.997 134.455 32.0673 134.666 32.1375L133.946 33.0155L134.455 33.4325L135.346 32.3482C136.136 32.5721 136.996 32.7477 137.773 32.7521H137.821C138.712 32.7521 139.682 32.5809 140.555 32.3658L141.433 33.4369L141.942 33.0199L141.253 32.1814C141.472 32.12 141.678 32.0541 141.872 31.9927L143.021 33.4369L143.535 33.0286L142.534 31.7688C142.784 31.681 142.986 31.602 143.127 31.5449L144.513 33.3227L145.031 32.9189L143.337 30.7416L143.105 30.8382C143.074 30.8513 140.099 32.0936 137.817 32.0936H137.773C135.736 32.0805 132.945 30.7591 132.919 30.746L132.695 30.6406L130.874 32.6775L131.366 33.1164L132.858 31.4439H132.866Z" fill="white"/>
<path d="M137.93 20.1578L139.044 20.9567L140.427 19.9251L140.036 19.3984L139.04 20.1402L137.921 19.3457L136.85 20.1402L135.806 19.394L135.424 19.9295L136.859 20.9567L137.93 20.1578Z" fill="white"/>
<path d="M137.974 78.3433C116.672 78.3433 99.3379 61.0829 99.3379 39.8674C99.3379 18.6519 116.672 1.38715 137.974 1.38715C159.276 1.38715 176.61 18.6475 176.61 39.863C176.61 61.0785 159.28 78.3389 137.974 78.3389M137.974 0C115.904 0 97.9512 17.8837 97.9512 39.8674C97.9512 61.8511 115.904 79.7348 137.974 79.7348C160.044 79.7348 177.997 61.8511 177.997 39.8674C177.997 17.8837 160.044 0 137.974 0Z" fill="white"/>
<path d="M137.974 66.6098C123.185 66.6098 111.151 54.6259 111.151 39.8984C111.151 25.1709 123.185 13.187 137.974 13.187C152.763 13.187 164.796 25.1709 164.796 39.8984C164.796 54.6259 152.763 66.6098 137.974 66.6098ZM137.974 11.7998C122.421 11.7998 109.765 24.4071 109.765 39.8984C109.765 55.3897 122.417 67.997 137.974 67.997C153.531 67.997 166.183 55.3941 166.183 39.8984C166.183 24.4027 153.531 11.7998 137.974 11.7998Z" fill="white"/>
<path d="M105.245 42.449L102.77 43.4323L105.394 43.9239L105.249 42.449H105.245ZM101.506 44.8018L101.256 42.2865L107.773 39.5342L107.957 41.3691L106.601 41.909L106.829 44.1873L108.269 44.4507L108.449 46.2592L101.515 44.7975L101.506 44.8018Z" fill="white"/>
<path d="M101.146 38.2216L101.361 36.4832L104.007 36.8081L101.615 34.4245L101.874 32.3262L104.296 34.9029L108.593 33.0768L108.343 35.0873L105.53 36.2199L106.359 37.0978L108.071 37.3085L107.855 39.0468L101.146 38.2216Z" fill="white"/>
<path d="M107.351 28.2606L104.692 28.0719L106.847 29.6522L107.351 28.2606ZM102.963 28.7567L103.827 26.3818L110.897 26.733L110.265 28.467L108.808 28.3616L108.027 30.5126L109.208 31.3773L108.585 33.0849L102.963 28.7611V28.7567Z" fill="white"/>
<path d="M111.244 23.5245C111.871 22.5456 111.38 21.6588 110.436 21.0574C109.462 20.4297 108.602 20.5043 107.996 21.4437L107.658 21.9705L110.901 24.0512L111.239 23.5245H111.244ZM105.49 22.6597L106.877 20.4956C108.009 18.7309 109.734 18.4587 111.41 19.5342C113.174 20.6668 113.635 22.4797 112.529 24.2049L111.178 26.3075L105.49 22.6553V22.6597Z" fill="white"/>
<path d="M109.752 16.4434L113.105 12.9404L114.132 13.9193L111.99 16.1581L112.89 17.0185L114.86 14.9597L115.852 15.9079L113.881 17.9623L114.825 18.8622L116.967 16.6234L117.993 17.6067L114.641 21.1141L109.752 16.4434Z" fill="white"/>
<path d="M114.904 11.2597L116.989 9.92083L120.508 13.0068L119.148 8.53368L121.237 7.19043L124.892 12.8795L123.558 13.7399L120.947 9.6794L122.395 14.4861L121.048 15.3509L117.287 12.0367L119.894 16.0928L118.56 16.9488L114.904 11.2597Z" fill="white"/>
<path d="M125.079 5.69639L123.449 6.34961L125.965 12.6286L127.594 11.9754L125.079 5.69639Z" fill="white"/>
<path d="M127.823 9.56965L129.57 9.1219C129.728 9.66623 130.193 9.92522 130.808 9.76719C131.325 9.6355 131.567 9.31066 131.461 8.9068C131.374 8.5688 131.15 8.4371 130.663 8.45466L129.667 8.49856C128.28 8.56002 127.534 8.10349 127.257 7.01922C126.941 5.79449 127.744 4.6795 129.307 4.27565C130.873 3.8718 131.984 4.49514 132.339 5.63207L130.61 6.07544C130.487 5.64524 130.114 5.42576 129.583 5.56184C129.131 5.68036 128.85 6.01837 128.951 6.40027C129.035 6.72511 129.298 6.86119 129.842 6.83486L130.851 6.79096C131.949 6.73828 132.831 7.05873 133.129 8.23079C133.476 9.58282 132.708 10.6627 131.11 11.0709C129.509 11.4836 128.214 11.0007 127.823 9.56965Z" fill="white"/>
<path d="M134.218 3.45047L135.964 3.3934L136.057 6.06235L138.036 3.32317L140.147 3.25293L137.983 6.04918L140.458 10.0087L138.435 10.0789L136.877 7.47145L136.14 8.42841L136.197 10.1536L134.45 10.2106L134.218 3.45047Z" fill="white"/>
<path d="M147.014 7.14684C147.427 7.25658 147.782 7.11611 147.892 6.69031C147.989 6.32157 147.778 6.03624 147.366 5.9265L146.426 5.67628L146.102 6.90102L147.01 7.14245L147.014 7.14684ZM146.404 9.8553C146.905 9.98699 147.291 9.83774 147.418 9.36365C147.537 8.92029 147.313 8.60862 146.808 8.47692L145.759 8.20037L145.391 9.59191L146.404 9.85969V9.8553ZM145.084 3.91601L148.068 4.70616C149.402 5.06172 149.959 5.85626 149.696 6.84834C149.494 7.60776 148.923 8.04234 148.208 8.07746C148.95 8.46376 149.292 9.2144 149.077 10.0177C148.774 11.1503 147.822 11.6331 146.527 11.2863L143.346 10.4435L145.084 3.90723V3.91601Z" fill="white"/>
<path d="M152.487 12.2693C153.268 12.6732 154.023 12.265 154.646 11.0578C155.269 9.85061 155.155 8.999 154.382 8.59515C153.614 8.20007 152.846 8.59954 152.223 9.80671C151.6 11.0139 151.71 11.8655 152.491 12.265M150.613 8.98144C151.644 6.97973 153.312 6.42224 155.041 7.30896C156.77 8.20007 157.279 9.88133 156.247 11.883C155.216 13.8891 153.553 14.451 151.82 13.5599C150.073 12.66 149.581 10.9875 150.613 8.98144Z" fill="white"/>
<path d="M159.535 10.1406L160.909 11.2381L157.631 15.3424L159.763 17.0457L158.82 18.2221L155.313 15.4258L159.535 10.1406Z" fill="white"/>
<path d="M161.909 19.4987C162.659 20.3854 163.651 20.1791 164.507 19.4591C165.393 18.7129 165.573 17.8701 164.858 17.0141L164.454 16.5356L161.51 19.0202L161.913 19.4987H161.909ZM164.428 14.2617L166.082 16.2283C167.434 17.8306 167.184 19.5601 165.665 20.8419C164.064 22.1939 162.199 22.0974 160.873 20.5302L159.263 18.6163L164.428 14.2617Z" fill="white"/>
<path d="M169.404 20.6006L170.216 22.1545L167.846 23.3881L171.172 23.9938L172.147 25.8595L168.693 25.1132L166.187 29.0552L165.252 27.2554L166.929 24.7313L165.748 24.4767L164.217 25.2756L163.409 23.7217L169.404 20.6006Z" fill="white"/>
<path d="M172.7 27.5762L173.195 29.2618L168.157 30.7412L168.93 33.3618L167.482 33.7832L166.218 29.4813L172.7 27.5762Z" fill="white"/>
<path d="M169.839 33.9238L174.302 33.4893L174.473 35.2364L170.194 35.6578C169.518 35.7236 169.141 36.1319 169.207 36.7859C169.268 37.4137 169.724 37.7385 170.413 37.6727L174.67 37.2556L174.841 39.0027L170.378 39.4417C168.794 39.5954 167.886 38.5199 167.732 36.9264C167.574 35.3066 168.254 34.0907 169.839 33.9326" fill="white"/>
<path d="M171.906 43.5986C171.857 44.02 172.05 44.3536 172.485 44.4019C172.862 44.4458 173.117 44.1912 173.161 43.7698L173.266 42.8041L172.007 42.6636L171.901 43.603L171.906 43.5986ZM169.132 43.3967C169.075 43.9147 169.281 44.2746 169.768 44.3273C170.225 44.38 170.501 44.1122 170.558 43.5942L170.677 42.5143L169.246 42.3563L169.132 43.4011V43.3967ZM174.811 41.2106L174.468 44.2834C174.315 45.6574 173.613 46.3246 172.59 46.2105C171.809 46.1227 171.296 45.6223 171.155 44.9199C170.883 45.7101 170.194 46.1622 169.365 46.0656C168.197 45.9339 167.583 45.0604 167.732 43.7303L168.096 40.4512L174.815 41.2062L174.811 41.2106Z" fill="white"/>
<path d="M128.354 70.7538L126.849 70.3016L127.235 69.0154C128.301 69.3139 129.021 69.1384 129.319 68.4053L130.754 68.8399L128.802 75.3103L127.129 74.8055L128.354 70.7538Z" fill="white"/>
<path d="M133.77 72.0616C134.235 72.1187 134.626 71.8553 134.674 71.4295C134.722 71.0081 134.406 70.6657 133.941 70.6086C133.471 70.5515 133.081 70.8105 133.033 71.232C132.98 71.6578 133.296 72.0045 133.77 72.0616ZM133.419 74.9632C133.98 75.0291 134.397 74.7306 134.45 74.2652C134.507 73.7999 134.174 73.4005 133.612 73.3346C133.046 73.2688 132.624 73.5761 132.567 74.0414C132.51 74.5067 132.853 74.8974 133.414 74.9632M130.794 73.9975C130.882 73.2468 131.448 72.6411 132.282 72.5006C131.562 72.1714 131.26 71.4909 131.334 70.8457C131.462 69.7702 132.506 69.1117 134.099 69.3005C135.666 69.4892 136.539 70.3935 136.407 71.4822C136.328 72.1494 135.863 72.6937 135.104 72.8342C135.894 73.1722 136.289 73.8921 136.197 74.6428C136.056 75.8016 134.946 76.4821 133.261 76.2801C131.562 76.0738 130.654 75.1564 130.794 73.9931" fill="white"/>
<path d="M140.273 75.183C140.835 75.1479 141.191 74.7748 141.16 74.3095C141.129 73.8441 140.725 73.5105 140.164 73.5456C139.598 73.5808 139.238 73.9671 139.268 74.4324C139.299 74.8977 139.703 75.2225 140.273 75.183ZM140.08 72.2638C140.55 72.2331 140.883 71.9039 140.853 71.4737C140.826 71.0523 140.453 70.7713 139.984 70.8021C139.51 70.8328 139.176 71.1576 139.203 71.579C139.229 72.0092 139.606 72.2902 140.076 72.2595M137.513 74.7133C137.465 73.9627 137.908 73.2603 138.698 72.9662C137.93 72.7774 137.509 72.1629 137.465 71.5176C137.395 70.4333 138.299 69.5949 139.9 69.4895C141.476 69.3842 142.498 70.1173 142.569 71.2103C142.612 71.8819 142.257 72.5009 141.537 72.7818C142.375 72.9662 142.898 73.6071 142.946 74.3577C143.021 75.5254 142.055 76.3946 140.357 76.5087C138.65 76.6228 137.588 75.881 137.513 74.7177" fill="white"/>
<path d="M146.409 71.7503C146.887 71.6186 147.163 71.1577 147.019 70.6178C146.869 70.0779 146.404 69.8233 145.93 69.9506C145.426 70.0866 145.175 70.5388 145.325 71.0787C145.474 71.6186 145.908 71.8864 146.413 71.7503M144.372 74.0901L146.084 73.6247C146.246 74.0023 146.61 74.1822 147.062 74.0593C147.686 73.8881 148.041 73.2999 147.633 71.8162C147.506 72.4439 147.005 72.9443 146.259 73.1507C145.048 73.4799 143.995 72.9487 143.622 71.5791C143.258 70.2403 143.995 68.9848 145.553 68.559C147.378 68.0586 148.704 69.0419 149.279 71.1533C149.862 73.2999 149.213 74.8451 147.313 75.3631C145.873 75.7538 144.767 75.2402 144.368 74.0944" fill="white"/>
<path d="M123.396 69.5767C123.396 70.5337 122.619 71.3106 121.662 71.3106C120.705 71.3106 119.929 70.5337 119.929 69.5767C119.929 68.6198 120.705 67.8428 121.662 67.8428C122.619 67.8428 123.396 68.6198 123.396 69.5767Z" fill="white"/>
<path d="M156.379 69.5767C156.379 70.5337 155.602 71.3106 154.646 71.3106C153.689 71.3106 152.912 70.5337 152.912 69.5767C152.912 68.6198 153.689 67.8428 154.646 67.8428C155.602 67.8428 156.379 68.6198 156.379 69.5767Z" fill="white"/>
</g>
<defs>
<clipPath id="clip0_1251_11">
<rect width="80.05" height="79.7348" fill="white" transform="translate(97.9512)"/>
</clipPath>
</defs>
</svg>
