<svg width="2499" height="1123" viewBox="0 0 2499 1123" fill="none" xmlns="http://www.w3.org/2000/svg">
<path d="M96.2118 1113.36V831.196H0.700195V800.159C42.8478 797.744 66.5498 791.691 82.4293 779.304C98.3364 766.903 107.014 747.677 112.312 713.031H147.258V1113.36H96.2118Z" fill="white"/>
<path d="M651.298 1121.18C611.151 1121.18 576.743 1110.52 551.799 1090.36C526.856 1070.19 513.667 1042.36 513.667 1009.86C513.667 965.577 540.307 928.08 583.2 912L584.897 911.368L583.214 910.694C541.549 894.066 516.688 858.353 516.688 815.14C516.688 783.036 529.56 755.538 553.924 735.652C578.302 715.738 611.979 705.219 651.298 705.219C690.618 705.219 724.156 715.738 748.576 735.652C773.009 755.58 785.922 783.064 785.922 815.14C785.922 858.297 760.965 894.01 719.176 910.68L717.479 911.354L719.19 911.986C762.041 927.996 788.668 965.507 788.668 1009.86C788.668 1042.38 775.534 1070.22 750.673 1090.36C725.798 1110.52 691.431 1121.18 651.298 1121.18ZM651.298 928.698C598.859 928.698 564.975 959.356 564.975 1006.78C564.975 1054.21 598.859 1084.87 651.298 1084.87C703.738 1084.87 737.345 1054.21 737.345 1006.78C737.345 959.356 703.572 928.698 651.298 928.698ZM651.298 741.227C600.197 741.227 567.168 771.337 567.168 817.921C567.168 864.504 600.183 894.614 651.298 894.614C702.413 894.614 735.428 864.504 735.428 817.921C735.428 771.337 702.413 741.227 651.298 741.227Z" fill="white"/>
<path d="M949.889 1122.3C914.998 1122.3 885.088 1112.32 863.4 1093.48C840.967 1073.97 827.392 1044.83 824.122 1009.16H874.34C879.197 1056.94 906.706 1084.31 949.889 1084.31C983 1084.31 1007.92 1067.41 1023.92 1034.1C1037.59 1005.62 1044.52 966.002 1044.49 916.329V912.832L1043.17 916.062C1028.6 951.565 989.291 974.513 943.032 974.513C870.243 974.513 819.39 920.345 819.39 842.795C819.39 761.173 873.043 706.317 952.91 706.317C1001.43 706.317 1038.31 726.147 1062.52 765.245C1084.21 800.285 1095.22 849.494 1095.22 911.512C1095.22 973.529 1083.82 1024.54 1062.25 1060.26C1037.4 1101.43 999.597 1122.3 949.902 1122.3H949.889ZM951.82 744.025C904.389 744.025 871.264 783.376 871.264 839.72C871.264 896.064 904.182 936.243 953.186 936.243C977.191 936.243 997.762 927.143 1012.68 909.925C1027.53 892.763 1035.38 869.17 1035.38 841.672C1035.38 814.174 1027.11 789.513 1012.1 771.79C996.934 753.884 975.522 744.025 951.806 744.025H951.82Z" fill="white"/>
<path d="M340.88 1121.18C300.733 1121.18 266.325 1110.52 241.381 1090.36C216.437 1070.19 203.248 1042.36 203.248 1009.86C203.248 965.577 229.889 928.08 272.781 912L274.478 911.368L272.795 910.694C231.13 894.066 206.269 858.353 206.269 815.14C206.269 783.036 219.141 755.538 243.506 735.652C267.884 715.738 301.56 705.219 340.88 705.219C380.199 705.219 413.738 715.738 438.157 735.652C462.59 755.58 475.504 783.064 475.504 815.14C475.504 858.297 450.546 894.01 408.757 910.68L407.06 911.354L408.771 911.986C451.636 927.996 478.249 965.507 478.249 1009.86C478.249 1042.38 465.115 1070.22 440.254 1090.36C415.38 1110.52 381.013 1121.18 340.88 1121.18ZM340.88 928.698C288.44 928.698 254.556 959.356 254.556 1006.78C254.556 1054.21 288.44 1084.87 340.88 1084.87C393.319 1084.87 426.927 1054.21 426.927 1006.78C426.927 959.356 393.154 928.698 340.88 928.698ZM340.88 741.227C289.778 741.227 256.764 771.337 256.764 817.921C256.764 864.504 289.778 894.614 340.88 894.614C391.981 894.614 425.009 864.504 425.009 817.921C425.009 771.337 391.995 741.227 340.88 741.227Z" fill="white"/>
<path d="M502.172 660.461V459.269H342.232L260.958 660.461H2.56738L304.72 0.400391H851.645C1001.25 0.400391 1090.57 65.9008 1090.57 175.625C1090.57 250.76 1050.13 304.534 976.695 327.074L974.501 327.748L976.708 328.422C1052.17 351.37 1093.74 406.253 1093.74 482.933C1093.74 594.09 1003.75 660.461 853.011 660.461H502.172ZM735.439 611.532L736.295 611.307C815.209 591.112 860.461 536.622 860.461 461.797C860.461 408.023 838.428 363.054 794.998 328.113C836.938 293.411 858.212 249.833 858.212 198.587C858.212 124.688 812.643 68.9624 736.308 49.5398L735.453 49.3151V611.518L735.439 611.532ZM500.834 50.0734C477.104 118.018 417.946 271.601 363.216 407.335L362.829 408.304H502.186V46.2395L500.847 50.0734H500.834Z" fill="white"/>
<g clip-path="url(#clip0_1384_512)">
<mask id="mask0_1384_512" style="mask-type:luminance" maskUnits="userSpaceOnUse" x="1386" y="0" width="1114" height="1113">
<path d="M1386 2.28882e-05H2499V1113H1386V2.28882e-05Z" fill="white"/>
</mask>
<g mask="url(#mask0_1384_512)">
<path d="M1547.51 775.495L1535.05 750.895L1506.28 780.491L1506.41 780.744L1547.45 775.495H1547.51ZM1488.32 802.941L1477.51 781.566L1554.41 698.091L1565.35 719.719L1547.83 737.615L1565.79 773.092L1590.7 769.867L1601.39 790.989L1488.32 803.004V802.941Z" fill="white"/>
<path d="M1492.68 567.124L1453.86 552.769V552.453L1493.06 539.552L1492.68 567.124ZM1548.27 669.381L1514.88 676.843L1498.76 666.725L1538.41 625.051L1533.35 602.538L1533.6 582.175L1510.01 573.511L1510.58 533.734L1534.36 526.019L1534.68 501.736L1427.87 540.058L1427.55 564.026L1526.07 602.981L1479.15 654.963L1429.07 623.596L1435.45 652.054L1487.56 682.978L1444.56 692.59L1449.68 715.419L1553.39 692.147L1548.27 669.318V669.381Z" fill="white"/>
<path d="M1523.48 468.41L1528.92 448.3C1532.46 435.209 1527.78 420.538 1505.08 414.404C1484.4 408.839 1469.22 412.443 1463.15 434.83L1458.79 450.956L1523.48 468.41ZM1433.68 468.346L1445.63 424.079C1452.84 397.456 1474.91 382.026 1508.94 391.195C1538.72 399.227 1556.68 420.475 1548.21 451.778L1536.26 496.045L1433.62 468.283L1433.68 468.346Z" fill="white"/>
<path d="M1471.18 348.635L1508.94 278.63L1526.26 287.989L1499.64 337.379L1519.69 348.193L1544.16 302.85L1560.16 311.451L1535.69 356.793L1558.64 369.188L1585.84 318.723L1603.16 328.083L1564.84 399.1L1471.25 348.635H1471.18Z" fill="white"/>
<path d="M1531.45 244.671L1552.95 221.968L1622.26 255.042L1622.45 254.852L1584.7 188.388L1606.2 165.686L1683.41 238.79L1669.12 253.904L1614.42 202.111L1614.23 202.301L1651.92 272.053L1640.16 284.511L1568.95 251.248L1568.76 251.437L1622.96 302.724L1608.66 317.838L1531.45 244.734V244.671Z" fill="white"/>
<path d="M1638.26 143.678L1657.42 130.272L1718.38 217.351L1699.22 230.758L1638.26 143.678Z" fill="white"/>
<path d="M1739.13 163.914C1745.01 176.815 1757.27 177.258 1768.66 172.072C1776.12 168.657 1786.49 161.322 1782 151.456C1777.26 141.022 1761.95 145.828 1746.02 148.547C1729.96 151.267 1712.88 152.342 1704.66 134.192C1695.68 114.399 1710.04 96.3755 1727.55 88.4707C1747.73 79.3011 1770.3 79.6173 1780.48 102.004L1759.87 111.363C1753.86 100.043 1744.25 100.802 1734.13 105.419C1727.36 108.517 1720.79 114.904 1724.52 123.062C1727.93 130.524 1732.93 129.386 1760.06 124.58C1767.9 123.125 1791.61 117.75 1801.61 139.694C1809.7 157.464 1801.79 177.068 1775.49 189.02C1754.05 198.759 1729.2 197.304 1718.64 173.337L1739.25 163.978L1739.13 163.914Z" fill="white"/>
<path d="M1813.68 58.5598L1836.7 54.639L1844.1 98.0839L1877.68 47.6827L1906.45 42.8133L1872.56 91.1909L1928.27 146.967L1899.37 151.9L1859.78 110.162L1848.84 125.782L1854.6 159.552L1831.58 163.473L1813.81 58.6862L1813.68 58.5598Z" fill="white"/>
<path d="M2063.73 102.067L2086.37 108.96C2094.21 111.363 2101.1 109.593 2103.76 101.056C2106.73 91.3801 2099.9 87.1431 2091.93 84.6768L2071 78.2897L2063.73 102.067ZM2050.58 145.196L2074.48 152.532C2083.27 155.251 2091.87 154.745 2095.1 144.184C2098.26 133.813 2093.01 127.679 2083.46 124.707L2059.11 117.245L2050.58 145.133V145.196ZM2053.99 54.0693L2101.86 68.6774C2121.21 74.6218 2132.41 84.8665 2126.59 103.838C2123.55 113.83 2116.41 119.268 2106.29 120.849C2117.61 128.185 2120.96 139.631 2117.04 152.342C2110.72 172.958 2090.48 176.436 2072.14 170.871L2022.88 155.82L2053.99 54.1325V54.0693Z" fill="white"/>
<path d="M2168.58 197.368C2186.41 208.435 2202.54 197.431 2211.9 182.444C2221.7 166.634 2224.48 147.283 2206.65 136.216C2188.82 125.149 2172.69 136.153 2162.82 151.899C2153.46 166.95 2150.68 186.301 2168.52 197.368H2168.58ZM2217.02 119.458C2244.97 136.849 2248.39 167.962 2231.75 194.712C2215.56 220.766 2186.16 231.39 2158.21 214C2130.26 196.609 2126.84 165.496 2143.03 139.505C2159.73 112.691 2189.13 102.067 2217.08 119.458H2217.02Z" fill="white"/>
<path d="M2288.16 174.602L2304.54 191.297L2242.63 251.943L2278.93 288.938L2264.89 302.724L2212.28 249.034L2288.23 174.602H2288.16Z" fill="white"/>
<path d="M2300.37 320.43L2311.12 338.327C2318.08 349.963 2331.92 356.729 2352.1 344.651C2370.5 333.584 2378.41 320.177 2366.39 300.257L2357.79 285.965L2300.37 320.493V320.43ZM2362.6 255.737L2386.25 295.008C2400.41 318.596 2396.3 345.283 2366.07 363.432C2339.64 379.305 2311.88 377.598 2295.12 349.773L2271.47 310.438L2362.6 255.674V255.737Z" fill="white"/>
<path d="M2426.34 373.108L2432.92 395.558L2390.61 407.889L2444.55 435.398L2452.71 463.413L2400.79 435.272L2351.84 497.056L2343.62 468.914L2380.56 424.774L2363.8 415.731L2330.91 425.343L2324.34 402.893L2426.4 373.108H2426.34Z" fill="white"/>
<path d="M2456.57 497.815L2457.83 521.15L2371.32 525.893L2374.17 577.622L2354.56 578.697L2350.45 503.633L2456.63 497.878L2456.57 497.815Z" fill="white"/>
<path d="M2377.84 684.811C2349.57 679.689 2338.82 660.464 2343.88 632.513C2348.94 604.372 2365.57 590.459 2393.96 595.581L2459.03 607.344L2454.86 630.363L2389.79 618.6C2378.34 616.513 2366.52 617.399 2363.16 636.054C2360.19 652.496 2366.39 659.01 2381.95 661.855L2447.02 673.618L2442.84 696.637L2377.77 684.874L2377.84 684.811Z" fill="white"/>
<path d="M2380.55 740.967L2370.63 762.468C2367.21 769.93 2367.97 777.013 2376.13 780.744C2385.3 784.981 2390.48 778.847 2393.96 771.258L2403.13 751.401L2380.55 740.967ZM2339.64 721.995L2329.14 744.698C2325.28 753.109 2324.59 761.646 2334.58 766.262C2344.45 770.816 2351.21 766.452 2355.45 757.346L2366.14 734.264L2339.64 721.995ZM2429.44 737.805L2408.44 783.21C2399.97 801.613 2388.27 811.288 2370.25 802.941C2360.76 798.577 2356.33 790.799 2356.21 780.491C2347.42 790.673 2335.59 792.443 2323.58 786.878C2303.97 777.835 2303.28 757.283 2311.37 739.892L2333 693.159L2429.5 737.805H2429.44Z" fill="white"/>
<path d="M1618.02 866.306C1626.31 874.653 1626.31 887.933 1618.02 896.218C1609.68 904.502 1596.27 904.439 1587.99 896.155C1579.7 887.807 1579.83 874.527 1588.18 866.243C1596.52 857.958 1609.74 858.022 1618.02 866.369V866.306Z" fill="white"/>
<path d="M1821.15 1060.64L1800.72 1054.38L1820.83 988.989L1795.47 981.21L1800.21 965.78C1814.38 970.46 1828.99 969.574 1835.88 954.84L1852.13 959.836L1821.15 1060.7V1060.64Z" fill="white"/>
<path d="M1900.19 1011.31C1908.86 1012.2 1916.45 1008.09 1917.33 999.108C1917.9 993.733 1916.26 984.31 1903.04 982.982C1894.5 982.097 1886.47 986.587 1885.52 995.883C1884.57 1005.05 1891.59 1010.43 1900.19 1011.31ZM1895.39 1060.07C1905.57 1061.08 1914.11 1054.69 1915.18 1044.2C1916.19 1034.14 1908.8 1026.55 1898.87 1025.6C1888.5 1024.53 1879.71 1029.59 1878.57 1040.34C1877.49 1051.15 1885.14 1059.06 1895.33 1060.07H1895.39ZM1904.68 966.983C1930.74 969.639 1937.95 988.547 1936.87 998.728C1935.8 1009.1 1929.6 1016.94 1919.36 1019.22V1019.53C1931.5 1023.64 1937.7 1033.95 1936.37 1047.17C1934.15 1069.18 1913.22 1078.16 1893.74 1076.13C1873.51 1074.05 1854.92 1061.9 1857.19 1039.26C1858.52 1025.92 1866.99 1017.26 1879.58 1015.49V1015.17C1869.71 1011.31 1865.29 1002.33 1866.36 992.025C1868.26 973.117 1887.55 965.275 1904.62 966.983H1904.68Z" fill="white"/>
<path d="M1993.28 1060.45C2003.46 1059.5 2010.61 1051.6 2009.66 1041.1C2008.71 1031.04 1999.98 1025.03 1990.12 1025.92C1979.75 1026.87 1972.03 1033.51 1973.04 1044.26C1974.06 1055.07 1983.1 1061.33 1993.28 1060.39V1060.45ZM1988.66 1011.69C1997.39 1010.87 2003.97 1005.43 2003.15 996.451C2002.64 991.076 1999.29 982.159 1986.07 983.361C1977.53 984.119 1970.52 990.064 1971.34 999.36C1972.16 1008.53 1980.13 1012.45 1988.66 1011.69ZM1984.55 967.298C2010.67 964.895 2021.3 982.096 2022.24 992.277C2023.19 1002.65 2018.58 1011.5 2008.96 1015.74V1016.05C2021.74 1017.76 2029.77 1026.68 2031.03 1039.9C2033.06 1061.97 2014.28 1074.74 1994.74 1076.51C1974.5 1078.34 1953.88 1070 1951.8 1047.29C1950.59 1033.95 1957.17 1023.83 1969.25 1019.66V1019.34C1958.75 1017.45 1952.75 1009.54 1951.8 999.17C1950.09 980.262 1967.48 968.816 1984.55 967.235V967.298Z" fill="white"/>
<path d="M2084.91 985.827C2082.13 976.468 2073.28 968.879 2063.03 971.915C2053.23 974.824 2050.39 985.891 2053.04 994.997C2055.89 1004.55 2063.6 1012.64 2074.16 1009.48C2085.17 1006.25 2087.89 995.819 2084.91 985.827ZM2066.2 1036.48C2069.48 1042.87 2076.44 1047.11 2083.52 1045.02C2098.38 1040.59 2096.55 1019.98 2093.77 1008.53L2093.39 1008.34C2090.1 1017.95 2083.71 1023.45 2073.91 1026.36C2065.25 1028.96 2055.26 1027.5 2047.54 1022.89C2040.33 1018.27 2035.4 1010.62 2033.06 1002.65C2026.92 981.97 2036.41 961.417 2057.47 955.157C2088.08 946.05 2104.27 970.334 2111.85 995.945C2119.19 1020.67 2116.53 1052.1 2087.82 1060.58C2070.37 1065.76 2054.31 1059.37 2046.72 1042.3L2066.2 1036.54V1036.48Z" fill="white"/>
<path d="M2262.87 865.926C2271.21 857.642 2284.56 857.642 2292.78 865.926C2301.06 874.274 2301 887.681 2292.65 895.965C2284.31 904.249 2270.96 904.059 2262.74 895.775C2254.52 887.491 2254.52 874.211 2262.87 865.926Z" fill="white"/>
<path d="M1942.5 1097.19C1644.33 1097.19 1401.81 854.67 1401.81 556.5C1401.81 258.33 1644.33 15.8097 1942.5 15.8097C2240.67 15.8097 2483.19 258.33 2483.19 556.5C2483.19 854.67 2240.61 1097.19 1942.5 1097.19ZM1942.5 2.28882e-05C1635.67 2.28882e-05 1386 249.666 1386 556.5C1386 863.334 1635.67 1113 1942.5 1113C2249.33 1113 2499 863.334 2499 556.5C2499 249.666 2249.33 2.28882e-05 1942.5 2.28882e-05Z" fill="white"/>
<path d="M1943.26 170.744C2156.37 170.744 2329.77 344.145 2329.77 557.259C2329.77 770.373 2156.37 943.773 1943.26 943.773C1730.15 943.773 1556.75 770.373 1556.75 557.259C1556.75 344.145 1730.15 170.744 1943.26 170.744ZM1940.92 924.042H1948.83V865.483C1946.17 865.483 1943.51 865.357 1940.92 865.167V924.042ZM1986.77 860.867C1984.17 861.563 1981.46 862.196 1978.61 862.765L2012.7 916.644V916.707L2019.4 912.47L1986.77 860.867ZM1868.83 910.89L1875.47 915.126L1911.07 859.603C1908.42 858.78 1905.82 857.958 1903.36 857.01L1868.83 910.89ZM2024.39 844.488C2022.31 845.816 2019.97 847.271 2017.25 848.726L2071.89 897.799L2077.2 891.918L2024.39 844.488ZM1808.37 885.909V885.973L1812.61 892.613L1883.25 847.587C1880.4 845.943 1877.87 844.362 1875.78 842.971L1808.37 885.909ZM1943.39 186.428C1739 186.428 1572.68 352.682 1572.68 557.133C1572.68 562.824 1572.87 568.452 1573.12 574.08C1573.19 575.598 1573.31 577.053 1573.38 578.57C1573.69 583.44 1574.07 588.309 1574.52 593.179C1574.58 594.001 1574.64 594.76 1574.71 595.519C1575.27 600.957 1575.97 606.396 1576.79 611.834C1577.04 613.288 1577.23 614.68 1577.49 616.071C1578.25 620.561 1579.01 624.925 1579.89 629.352C1580.14 630.49 1580.33 631.628 1580.59 632.766C1581.66 638.014 1582.86 643.264 1584.19 648.449C1584.51 649.714 1584.89 650.979 1585.2 652.243C1586.28 656.417 1587.48 660.591 1588.74 664.701C1589.12 666.029 1589.5 667.358 1589.95 668.686C1591.53 673.681 1593.23 678.678 1595 683.61C1595.38 684.685 1595.83 685.76 1596.21 686.835C1597.72 690.882 1599.31 694.867 1600.95 698.851C1601.52 700.305 1602.09 701.696 1602.72 703.15C1604.74 707.893 1606.89 712.637 1609.11 717.316C1609.42 718.012 1609.8 718.707 1610.18 719.466C1612.14 723.513 1614.17 727.497 1616.32 731.481C1617.14 732.999 1617.9 734.454 1618.72 735.908C1620.87 739.766 1623.08 743.624 1625.36 747.418C1625.8 748.177 1626.24 748.936 1626.69 749.694C1629.28 753.994 1632.06 758.232 1634.84 762.405C1635.79 763.86 1636.74 765.251 1637.75 766.705C1639.97 769.93 1642.18 773.093 1644.52 776.255C1645.34 777.456 1646.16 778.594 1647.05 779.732C1650.02 783.716 1653.06 787.574 1656.16 791.368C1657.29 792.759 1658.43 794.088 1659.57 795.479C1661.91 798.262 1664.25 800.981 1666.65 803.7C1667.79 805.028 1668.93 806.356 1670.13 807.621C1673.36 811.162 1676.71 814.703 1680.12 818.118C1681.39 819.383 1682.65 820.585 1683.92 821.85C1686.38 824.316 1688.91 826.719 1691.51 829.122C1692.96 830.387 1694.35 831.715 1695.81 833.043C1699.41 836.268 1703.02 839.43 1706.68 842.465C1707.95 843.54 1709.28 844.553 1710.54 845.564C1713.32 847.778 1716.11 849.991 1718.95 852.141C1720.6 853.342 1722.24 854.607 1723.88 855.809C1727.05 858.212 1730.34 860.488 1733.62 862.765C1735.39 863.966 1737.16 865.168 1738.94 866.369C1742.1 868.456 1745.32 870.544 1748.61 872.567C1750.38 873.706 1752.22 874.78 1753.99 875.855C1757.02 877.689 1760.12 879.46 1763.22 881.167C1764.67 881.989 1766.19 882.748 1767.65 883.57C1773.4 878.638 1780.93 872.314 1787.44 867.065C1800.09 856.821 1823.04 843.351 1839.61 835.446C1849.67 830.64 1857.64 830.829 1862.38 831.651L1868.32 828.806C1869.15 828.361 1883.82 820.392 1883.82 791.938C1883.82 770.626 1880.72 763.733 1873.19 747.038L1870.79 741.727C1857 710.803 1839.86 669.192 1826.08 635.738C1819.06 618.727 1812.8 603.676 1808.31 593.052C1796.04 564.215 1784.53 524.185 1804.26 470.18C1818.24 431.857 1838.09 412.19 1847.52 404.475C1839.23 396.759 1824.5 377.535 1824.5 338.2C1824.5 318.343 1838.41 296.147 1844.67 287.167L1793.95 252.069L1878.25 253.587C1884.38 249.034 1909.36 233.034 1950.22 233.034C1991.07 233.034 2013.26 248.148 2019.08 252.765L2099.33 251.753L2054.18 284.953C2062.53 291.783 2075.87 308.858 2075.87 345.283C2075.87 381.709 2057.41 401.06 2048.36 408.396C2055.76 416.237 2071.89 434.955 2084.09 459.365C2100.53 492.313 2104.2 554.476 2079.41 609.684C2054.05 666.029 2027.05 739.512 2021.17 761.52L2020.66 763.544C2014.97 784.855 2010.86 800.285 2016.81 810.909C2023.19 822.229 2034.07 828.933 2034.07 828.933L2039.57 832.221L2039.45 832.347C2046.97 834.307 2060.44 839.999 2079.1 856.694C2093.51 869.595 2103.57 880.472 2109.89 888.061C2110.15 887.934 2110.4 887.807 2110.65 887.681C2115.33 885.278 2119.95 882.812 2124.5 880.219C2125.7 879.523 2126.97 878.827 2128.17 878.132C2133.04 875.349 2137.84 872.503 2142.52 869.468C2142.71 869.341 2142.97 869.215 2143.16 869.089C2153.53 862.449 2163.52 855.303 2173.13 847.651C2173.38 847.525 2173.58 847.334 2173.83 847.145C2176.99 844.615 2180.09 842.022 2183.19 839.43C2183.38 839.303 2183.57 839.114 2183.76 838.987C2192.8 831.272 2201.46 823.114 2209.75 814.514C2210.57 813.692 2211.39 812.87 2212.15 812.048C2219.68 804.143 2226.82 795.922 2233.59 787.385C2234.66 785.994 2235.74 784.666 2236.81 783.274C2238.77 780.808 2240.67 778.278 2242.5 775.749C2243.64 774.105 2244.85 772.461 2245.98 770.816C2248.77 766.832 2251.55 762.784 2254.2 758.674C2255.53 756.587 2256.92 754.563 2258.19 752.477C2259.58 750.2 2260.97 747.924 2262.36 745.584C2263.75 743.244 2265.08 740.904 2266.41 738.564C2267.61 736.414 2268.81 734.39 2269.95 732.24C2272.16 728.13 2274.31 724.019 2276.34 719.846C2277.29 717.885 2278.24 715.862 2279.18 713.838C2280.57 710.992 2281.9 708.02 2283.17 705.111C2284.05 703.214 2284.88 701.253 2285.7 699.293C2287.59 694.74 2289.43 690.123 2291.14 685.507C2291.64 684.116 2292.08 682.724 2292.59 681.333C2293.92 677.665 2295.18 673.934 2296.38 670.14C2296.95 668.369 2297.52 666.535 2298.09 664.765C2299.36 660.654 2300.49 656.48 2301.63 652.307C2301.89 651.295 2302.2 650.22 2302.46 649.208C2303.78 644.086 2304.98 638.9 2306.06 633.715C2306.38 632.134 2306.69 630.553 2307.01 628.972C2307.83 624.861 2308.53 620.687 2309.22 616.514C2309.47 615.059 2309.73 613.668 2309.92 612.276C2310.74 606.901 2311.43 601.463 2312 596.024C2312.13 594.886 2312.19 593.684 2312.32 592.546C2312.7 588.056 2313.08 583.503 2313.33 578.95L2313.4 578.823C2313.46 577.242 2313.59 575.724 2313.65 574.144C2313.9 568.515 2314.09 562.824 2314.09 557.133C2314.09 352.746 2147.77 186.428 1943.39 186.428ZM1950.28 242.646C1907.09 242.646 1883.18 261.871 1882.99 262.124L1881.67 263.262H1879.89L1825.32 262.25L1858.39 285.079L1855.29 289.063C1855.29 289.063 1834.17 316.572 1834.17 338.326C1834.17 385.945 1856.94 400.047 1857.89 400.616L1864.65 404.664L1857.95 408.774C1857.95 408.774 1830.63 426.165 1813.3 473.53C1794.71 524.437 1805.59 562.191 1817.16 589.384C1821.72 600.071 1827.91 615.122 1834.93 632.196C1848.72 665.586 1865.86 707.134 1879.58 737.932L1881.98 743.243C1889.89 760.76 1893.43 768.729 1893.43 792.063C1893.43 815.399 1884.57 827.604 1878.38 833.232C1888.56 840.505 1914.68 856.061 1951.16 856.062C1987.65 856.062 2013.64 840.504 2023.89 833.295C2019.46 829.69 2013.2 823.746 2008.71 815.715C2000.87 801.739 2005.36 784.728 2011.68 761.203L2012.19 759.18C2018.83 734.264 2047.22 658.63 2070.94 605.889C2094.53 553.401 2091.24 494.652 2075.74 463.729C2060.5 433.184 2038.18 411.493 2037.99 411.24V411.304L2033.44 406.94L2038.88 403.778C2040.01 403.146 2066.58 387.02 2066.58 345.409C2066.58 299.879 2045.08 290.076 2044.19 289.696L2036.6 286.407L2070.05 261.744L2015.67 262.44L2014.28 261.176C2014.28 261.176 1993.47 242.647 1950.28 242.646Z" fill="white"/>
<path d="M1989.93 482.964L1997.69 481.466L2002.44 505.99L1994.68 507.488L1989.93 482.964Z" fill="white"/>
<path d="M1947.42 491.483L1954.84 488.751L1965.9 518.777L1958.48 521.509L1947.42 491.483Z" fill="white"/>
<path d="M1924.29 510.652H1932.19V540.69H1924.29V510.652Z" fill="white"/>
<path d="M2025.53 413.139L2022.56 414.656C2022.24 414.846 1988.03 432.363 1946.11 432.363C1904.18 432.363 1875.53 413.834 1875.21 413.645L1872.37 411.811L1845.87 441.47L1851.75 446.718L1873.82 421.992C1876.67 423.636 1881.54 426.166 1888.05 428.822L1870.79 460.441L1877.74 464.236L1895.51 431.668C1900.95 433.565 1907.15 435.336 1913.98 436.853L1905.7 472.899L1913.41 474.67L1921.76 438.308C1927.89 439.32 1934.6 439.889 1941.62 440.078V477.01H1949.52V440.142C1957.11 439.952 1964.44 439.383 1971.27 438.371L1981.14 472.962L1988.73 470.812L1979.12 437.043C1986.64 435.588 1993.6 433.818 1999.61 431.984L2013.64 464.109L2020.85 460.947L2007.13 429.518C2014.4 426.988 2019.97 424.585 2023.13 423.13L2043.68 450.007L2049.94 445.201L2025.41 413.139H2025.53Z" fill="white"/>
<path d="M1914.22 361.776L1921.65 359.101L1935.88 398.606L1928.44 401.281L1914.22 361.776Z" fill="white"/>
<path d="M1919.54 264.021H1927.45V278.25H1919.54V264.021Z" fill="white"/>
<path d="M1963.81 264.021H1971.72V278.25H1963.81V264.021Z" fill="white"/>
<path d="M1940.92 264.022H1950.41V286.155H1940.92V264.022Z" fill="white"/>
<path d="M1992.71 335.987C1985.76 335.987 1980.06 330.296 1980.06 323.339C1980.06 316.383 1985.76 310.692 1992.71 310.692C1999.67 310.692 2005.36 316.383 2005.36 323.339C2005.36 330.296 1999.67 335.987 1992.71 335.987ZM1898.61 335.924C1891.66 335.924 1885.97 330.232 1885.97 323.276C1885.97 316.32 1891.66 310.628 1898.61 310.628C1905.57 310.628 1911.26 316.32 1911.26 323.276C1911.26 330.232 1905.57 335.924 1898.61 335.924ZM1992.71 302.787C1992.71 302.787 1992.21 302.85 1991.95 302.85L2005.8 288.621L2000.11 283.12L1945.28 339.465L1891.21 283.12L1885.52 288.621L1899.18 302.85H1898.68C1887.36 302.85 1878.12 312.083 1878.12 323.403C1878.12 334.722 1887.36 343.955 1898.68 343.955C1910 343.955 1918.98 334.912 1919.17 323.719L1941.74 347.243V415.857H1949.65V346.421L1972.16 323.276V323.403C1972.16 334.722 1981.39 343.955 1992.71 343.955C2004.03 343.955 2013.26 334.722 2013.26 323.403C2013.26 312.083 2004.03 302.85 1992.71 302.85V302.787Z" fill="white"/>
<path d="M1963.62 309.743L1958.06 304.178L1945.73 316.446L1934.22 304.241L1928.46 309.68L1945.54 327.829L1963.62 309.743Z" fill="white"/>
<path d="M1952.37 760.445H1960.27V836.331H1952.37V760.445Z" fill="white"/>
<path d="M1930.23 759.622H1938.14V836.268H1930.23V759.622Z" fill="white"/>
<path d="M1880.23 697.751L1887.64 694.994L1900.29 729.016L1892.89 731.773L1880.23 697.751Z" fill="white"/>
<path d="M1960.89 721.3L1965.6 684.413L1973.44 685.412L1968.73 722.299L1960.89 721.3Z" fill="white"/>
<path d="M1986.36 736.525L1998.21 712.052L2005.32 715.498L1993.47 739.972L1986.36 736.525Z" fill="white"/>
<path d="M2003.69 681.878L2022.64 662.115L2028.35 667.586L2009.4 687.348L2003.69 681.878Z" fill="white"/>
<path d="M1999.18 647.728L2017.36 616.899L2024.17 620.914L2005.99 651.743L1999.18 647.728Z" fill="white"/>
<path d="M1990.01 588.822L1997.78 587.374L2004.11 621.384L1996.34 622.832L1990.01 588.822Z" fill="white"/>
<path d="M1970.96 607.85H1978.86V641.872H1970.96V607.85Z" fill="white"/>
<path d="M1941.3 652.939H1949.2V682.155H1941.3V652.939Z" fill="white"/>
<path d="M1881.95 639.662L1889.11 636.31L1900.97 661.618L1893.81 664.97L1881.95 639.662Z" fill="white"/>
<path d="M1842.46 605.641L1849.59 602.238L1866.18 636.994L1859.04 640.396L1842.46 605.641Z" fill="white"/>
<path d="M1875.26 599.203L1881.64 594.536L1905.35 626.946L1898.97 631.613L1875.26 599.203Z" fill="white"/>
<path d="M1941.3 551.378H1949.2V586.918H1941.3V551.378Z" fill="white"/>
<path d="M2036.54 574.713H2044.44V597.605H2036.54V574.713Z" fill="white"/>
<path d="M2039.96 528.109L2047.33 525.251L2058.2 553.253L2050.82 556.111L2039.96 528.109Z" fill="white"/>
<path d="M1891.13 565.683L1893.5 537.2L1901.38 537.852L1899.01 566.341L1891.13 565.683Z" fill="white"/>
<path d="M1832.72 577.017L1841.41 535.938L1849.15 537.575L1840.45 578.655L1832.72 577.017Z" fill="white"/>
<path d="M1839.74 486.186L1847.65 485.978L1848.44 516.003L1840.53 516.212L1839.74 486.186Z" fill="white"/>
<path d="M1889.72 516.437L1900.8 484.002L1908.29 486.563L1897.2 518.992L1889.72 516.437Z" fill="white"/>
<path d="M1980.9 550.055L1994.34 523.191L2001.41 526.726L1987.97 553.59L1980.9 550.055Z" fill="white"/>
<path d="M2015.29 481.995L2023.12 480.875L2026.28 503.04L2018.46 504.153L2015.29 481.995Z" fill="white"/>
<path d="M1954.53 398.622L1968.76 359.117L1976.2 361.799L1961.96 401.304L1954.53 398.622Z" fill="white"/>
</g>
</g>
<defs>
<clipPath id="clip0_1384_512">
<rect width="1113" height="1113" fill="white" transform="translate(1386)"/>
</clipPath>
</defs>
</svg>
