<svg width="366" height="368" viewBox="0 0 366 368" fill="none" xmlns="http://www.w3.org/2000/svg">
<g clip-path="url(#clip0_973_482)">
<path d="M0 262.015V272.633H31.8984V365.074H49.4073V233.462H37.3077C34.0087 254.879 26.5812 260.552 0 262.019V262.015Z" fill="#D6A02A"/>
<path d="M240.259 298.656C253.146 293.613 262.698 282.323 262.698 267.145C262.698 245.543 244.272 230.899 217.511 230.899C190.75 230.899 172.324 245.543 172.324 267.145C172.324 282.327 181.816 293.622 194.69 298.66C180.341 303.938 171.315 316.19 171.315 330.935C171.315 352.808 190.105 367.637 217.511 367.637C244.917 367.637 263.615 352.808 263.615 330.935C263.615 316.185 254.653 303.933 240.259 298.656ZM217.511 243.16C234.375 243.16 245.378 252.955 245.378 268.055C245.378 283.156 234.379 292.951 217.511 292.951C200.643 292.951 189.644 283.156 189.644 268.055C189.644 252.955 200.55 243.16 217.511 243.16ZM217.511 355.279C200.186 355.279 188.912 345.304 188.912 329.928C188.912 314.552 200.186 304.577 217.511 304.577C234.836 304.577 246.018 314.552 246.018 329.928C246.018 345.304 234.743 355.279 217.511 355.279Z" fill="#D6A02A"/>
<path d="M318.242 231.262C290.928 231.262 273.419 249.749 273.419 276.204C273.419 302.659 291.384 319.585 314.943 319.585C330.319 319.585 343.713 311.975 348.597 300.294C348.615 329.841 340.778 355.095 317.233 355.095C302.844 355.095 293.767 346.215 292.209 330.475H274.977C277.175 355.187 293.951 368 317.233 368C352.799 368 365.995 336.608 365.995 298.716C365.995 260.823 352.702 231.262 318.242 231.262ZM318.334 306.588C301.927 306.588 291.205 293.774 291.205 275.196C291.205 256.618 301.931 244.076 317.878 244.076C333.825 244.076 345.561 257.529 345.561 275.836C345.561 294.142 334.562 306.588 318.339 306.588H318.334Z" fill="#D6A02A"/>
<path d="M136.592 298.656C149.48 293.613 159.031 282.323 159.031 267.145C159.031 245.543 140.606 230.899 113.845 230.899C87.0837 230.899 68.6579 245.543 68.6579 267.145C68.6579 282.327 78.1495 293.622 91.0231 298.66C76.6751 303.938 67.6488 316.19 67.6488 330.935C67.6488 352.808 86.4386 367.637 113.845 367.637C141.251 367.637 159.948 352.808 159.948 330.935C159.948 316.185 150.986 303.933 136.592 298.656ZM113.84 243.16C130.704 243.16 141.707 252.955 141.707 268.055C141.707 283.156 130.708 292.951 113.84 292.951C96.9716 292.951 85.9732 283.156 85.9732 268.055C85.9732 252.955 96.8794 243.16 113.84 243.16ZM113.84 355.279C96.5154 355.279 85.2406 345.304 85.2406 329.928C85.2406 314.552 96.5154 304.577 113.84 304.577C131.165 304.577 142.347 314.552 142.347 329.928C142.347 345.304 131.072 355.279 113.84 355.279Z" fill="#D6A02A"/>
<path d="M326.255 107.472C350.671 100.124 364.452 82.6499 364.452 57.635C364.452 21.5182 334.613 0 284.427 0H101.616L0.493042 216.701H87.3002L114.444 150.789H167.472V216.701H284.874C335.512 216.701 365.502 194.879 365.502 158.311C365.502 132.809 351.343 114.957 326.25 107.472H326.255ZM121.512 133.632C140.859 86.5652 160.068 37.3958 167.477 16.5815V133.632H121.512ZM245.843 200.147V16.5539C271.162 22.8755 286.385 41.0811 286.385 65.162C286.385 82.015 279.151 96.3145 265.135 107.6C279.755 119.038 287.136 133.784 287.136 151.391C287.136 175.771 272.217 193.526 245.843 200.147Z" fill="#006A52"/>
</g>
<defs>
<clipPath id="clip0_973_482">
<rect width="366" height="368" fill="white"/>
</clipPath>
</defs>
</svg>
