<svg width="1805" height="1819" viewBox="0 0 1805 1819" fill="none" xmlns="http://www.w3.org/2000/svg">
<path d="M0 1294.48V1346.93H157.303V1803.63H243.638V1153.4H183.972C167.7 1259.21 131.085 1287.24 0 1294.48Z" fill="#D7A02A"/>
<path d="M1072.65 1755.25C987.214 1755.25 931.614 1705.96 931.614 1630C931.614 1554.03 987.214 1504.74 1072.65 1504.74C1157.62 1504.74 1213.22 1554.03 1213.22 1630C1213.22 1705.96 1157.62 1755.25 1072.65 1755.25ZM1072.65 1201.33C1155.82 1201.33 1210.06 1249.71 1210.06 1324.32C1210.06 1398.93 1155.82 1447.31 1072.65 1447.31C989.022 1447.31 935.232 1398.93 935.232 1324.32C935.232 1249.71 989.022 1201.33 1072.65 1201.33ZM1184.83 1475.49C1248.39 1450.59 1295.49 1394.78 1295.49 1319.8C1295.49 1213.09 1204.64 1140.74 1072.65 1140.74C940.203 1140.74 849.8 1213.09 849.8 1319.8C849.8 1394.8 896.608 1450.62 960.095 1475.51C889.335 1501.59 844.826 1562.12 844.826 1634.97C844.826 1743.04 937.49 1816.29 1072.65 1816.29C1207.8 1816.29 1300.01 1743.04 1300.01 1634.97C1300.01 1562.1 1255.81 1501.56 1184.83 1475.49Z" fill="#D7A02A"/>
<path d="M1569.87 1514.69C1488.96 1514.69 1436.07 1451.39 1436.07 1359.59C1436.07 1269.61 1488.96 1205.85 1567.61 1205.85C1648.07 1205.85 1704.12 1272.32 1704.12 1362.76C1704.12 1452.74 1649.88 1514.69 1569.87 1514.69ZM1569.42 1142.54C1434.71 1142.54 1348.38 1233.88 1348.38 1364.57C1348.38 1495.25 1436.97 1578.9 1553.14 1578.9C1628.98 1578.9 1695.02 1541.3 1719.11 1483.59C1719.19 1629.58 1680.54 1754.34 1564.44 1754.34C1493.48 1754.34 1448.73 1710.48 1441.04 1632.71H1356.06C1366.91 1754.8 1449.63 1818.1 1564.44 1818.1C1739.83 1818.1 1804.92 1663.01 1804.92 1475.8C1804.92 1287.24 1739.37 1142.54 1569.42 1142.54Z" fill="#D7A02A"/>
<path d="M561.41 1755.25C475.978 1755.25 420.379 1705.96 420.379 1630C420.379 1554.03 475.978 1504.74 561.41 1504.74C646.389 1504.74 701.989 1554.03 701.989 1630C701.989 1705.96 646.389 1755.25 561.41 1755.25ZM561.41 1201.33C644.58 1201.33 698.823 1249.71 698.823 1324.32C698.823 1398.93 644.58 1447.31 561.41 1447.31C477.787 1447.31 423.996 1398.93 423.996 1324.32C423.996 1249.71 477.787 1201.33 561.41 1201.33ZM673.595 1475.49C737.156 1450.59 784.255 1394.78 784.255 1319.8C784.255 1213.09 693.4 1140.74 561.41 1140.74C428.968 1140.74 338.565 1213.09 338.565 1319.8C338.565 1394.8 385.375 1450.62 448.859 1475.51C378.099 1501.59 333.591 1562.12 333.591 1634.97C333.591 1743.04 426.255 1816.29 561.41 1816.29C696.565 1816.29 788.777 1743.04 788.777 1634.97C788.777 1562.1 744.575 1501.56 673.595 1475.49Z" fill="#D7A02A"/>
<path d="M1212.38 988.82V81.7817C1337.24 113.009 1412.3 202.969 1412.3 321.924C1412.3 405.194 1376.63 475.824 1307.51 531.584C1379.6 588.088 1416.02 660.948 1416.02 747.935C1416.02 868.378 1342.44 956.106 1212.38 988.82ZM599.229 660.204C694.649 427.67 789.369 184.759 825.909 81.9226V660.204H599.229ZM1608.92 530.962C1729.32 494.654 1797.29 408.34 1797.29 284.751C1797.29 106.317 1650.13 4.26769e-05 1402.64 4.26769e-05H501.125L2.42969 1070.6H430.519L564.386 744.962H825.909V1070.6H1404.87C1654.59 1070.6 1802.49 962.798 1802.49 782.135C1802.49 656.136 1732.66 567.944 1608.92 530.962Z" fill="#006C51"/>
</svg>
