<svg width="423" height="421" viewBox="0 0 423 421" fill="none" xmlns="http://www.w3.org/2000/svg">
<g clip-path="url(#clip0_624_9463)">
<path d="M248.511 287.464C246.982 285.355 245.198 283.594 243.553 282.459C244.202 280.165 244.943 277.917 245.8 275.53C246.449 273.7 247.144 271.823 247.793 269.784C248.58 267.351 250.155 264.014 252.124 259.797C258.448 246.358 269.035 223.858 269.961 194.616C270.054 191.418 269.799 188.406 269.266 185.533C275.359 197.489 275.683 212.921 270.193 231.551C265.722 246.728 257.452 267.142 248.511 287.487M250.781 302.965C250.897 302.757 251.012 302.548 251.128 302.339C253.283 304.263 255.321 306.302 257.174 308.48L251.939 308.874L248.325 306.626C248.673 306.163 249.067 305.63 249.437 305.051C249.507 304.958 249.553 304.888 249.599 304.796C249.993 304.216 250.387 303.614 250.804 302.942M233.315 335.521L212.907 320.691V304.494L228.473 299.767C228.473 299.767 228.473 299.883 228.473 299.93C228.473 300.509 228.473 301.088 228.473 301.644C228.473 301.807 228.473 301.946 228.473 302.108C228.45 302.687 228.404 303.266 228.357 303.822C228.357 303.938 228.334 304.054 228.311 304.193C228.265 304.68 228.195 305.166 228.126 305.607C228.126 305.699 228.103 305.792 228.079 305.885C228.01 306.394 227.917 306.858 227.848 307.275C227.848 307.368 227.801 307.46 227.801 307.553C227.732 307.947 227.639 308.341 227.57 308.619L226.829 311.678L229.817 310.681C230.234 310.542 232.087 309.731 234.982 305.977C234.82 306.881 234.658 307.762 234.45 308.619L233.708 311.678L236.674 310.681C237.067 310.542 238.689 309.847 241.214 306.765C241.052 307.738 240.866 308.688 240.635 309.615L239.893 312.651L242.858 311.654C242.858 311.654 243.067 311.585 243.229 311.492C243.739 311.237 244.688 310.635 245.986 309.314L249.762 311.654L250.665 329.751L233.268 335.521H233.315ZM211.123 301.389L194.236 296.269C194.421 295.504 194.653 294.762 194.977 294.137C196.738 290.847 200.004 290.036 200.143 290.012L205.61 287.464C207.417 287.301 209.247 287.185 211.123 287.185C212.999 287.185 214.806 287.301 216.613 287.464L221.732 289.896L222.103 290.012C222.242 290.036 225.531 290.847 227.269 294.137C227.477 294.531 227.639 294.994 227.778 295.458C227.871 295.736 227.94 295.991 228.01 296.269L211.123 301.389ZM209.362 320.691L188.954 335.521L171.558 329.751L172.322 314.667L172.461 311.631L176.237 309.291C176.237 309.291 176.283 309.337 176.306 309.36C176.654 309.708 176.955 309.986 177.256 310.241C177.418 310.38 177.557 310.496 177.696 310.588C177.789 310.658 177.882 310.728 177.974 310.797C178.692 311.33 179.202 311.562 179.387 311.631L182.352 312.628L181.611 309.592C181.379 308.665 181.194 307.715 181.032 306.742C183.58 309.824 185.202 310.542 185.572 310.658L188.537 311.654L187.796 308.596C187.588 307.738 187.425 306.835 187.263 305.954C190.159 309.708 192.012 310.519 192.429 310.658L195.394 311.654L194.653 308.596C194.259 306.927 193.634 303.243 193.749 299.744L209.316 304.471V320.668L209.362 320.691ZM170.353 308.874L165.095 308.48C166.948 306.279 168.986 304.24 171.141 302.339C171.233 302.525 171.326 302.733 171.442 302.919C172.345 304.402 173.202 305.607 173.967 306.649L170.33 308.897L170.353 308.874ZM152.516 231.505C146.98 212.713 147.35 197.165 153.628 185.162C153.072 188.128 152.771 191.279 152.887 194.57C153.813 223.789 164.4 246.311 170.724 259.751C172.693 263.968 174.268 267.281 175.055 269.737C175.704 271.777 176.399 273.653 177.048 275.484C177.858 277.708 178.553 279.84 179.179 281.995C177.488 283.061 175.611 284.822 173.99 286.977C165.118 266.772 156.941 246.566 152.493 231.482M251.707 228.284C249.46 236.556 245.986 242.951 243.994 246.219C242.581 243.693 240.171 240.148 237.206 238.549L236.535 238.178C239.384 232.432 241.886 225.503 241.7 219.479C243.229 221.889 244.063 224.994 244.318 226.453L245.175 231.412L247.561 226.963C247.723 226.662 251.151 220.197 253.815 210.512C254.302 215.378 253.607 221.309 251.707 228.261M168.384 210.303C171.071 220.128 174.546 226.685 174.708 226.986L177.094 231.412L177.951 226.453C178.206 224.994 179.04 221.889 180.569 219.479C180.36 225.503 182.885 232.408 185.711 238.155L184.97 238.549C182.005 240.148 179.619 243.693 178.183 246.219C176.167 242.951 172.716 236.556 170.469 228.284C168.546 221.217 167.874 215.239 168.407 210.303M195 279.979C194.838 276.364 194.815 273.051 194.815 271.035C194.815 266.1 194.792 264.524 193.958 263.945C193.634 263.412 193.24 262.832 192.8 262.184C189.788 257.735 184.831 250.32 187.31 241.167C189.626 245.384 191.873 248.605 192.8 249.717L195.649 253.17L195.857 248.698C195.95 246.752 196.807 245.732 198.405 245.639C202.065 245.477 208.019 250.065 209.524 259.31L209.941 260.77L213.138 259.264C214.32 250.459 220.088 245.732 223.748 245.732C223.794 245.732 223.863 245.732 223.91 245.732C225.462 245.802 226.296 246.798 226.388 248.675L226.597 253.147L229.446 249.694C230.373 248.582 232.573 245.408 234.867 241.26C237.276 250.366 232.342 257.712 229.353 262.16C228.89 262.856 228.45 263.481 228.103 264.037C227.431 264.547 227.431 265.404 227.454 269.691C227.454 273.561 227.384 276.944 227.222 280.002C227.176 280.002 227.153 279.979 227.106 279.979C226.991 279.979 226.898 279.956 226.782 279.933C226.319 279.886 225.879 279.886 225.415 279.933C225.346 279.933 225.276 279.956 225.184 279.956C224.79 280.002 224.396 280.095 224.002 280.211C223.91 280.234 223.817 280.257 223.701 280.304C223.284 280.443 222.867 280.605 222.474 280.79C222.381 280.837 222.288 280.883 222.196 280.929C221.848 281.115 221.501 281.3 221.153 281.508C221.107 281.555 221.037 281.578 220.991 281.624C220.62 281.856 220.273 282.111 219.925 282.366C219.856 282.412 219.81 282.459 219.74 282.505C219.045 283.061 218.443 283.594 217.98 284.057C215.686 283.802 213.393 283.64 211.053 283.64C208.714 283.64 206.42 283.802 204.127 284.057C202.39 282.343 198.707 279.33 194.908 279.933M176.932 300.463C176.932 302.085 177.071 303.707 177.256 305.213C176.445 304.193 175.472 302.849 174.407 301.111C173.249 299.235 173.133 296.917 174.013 294.23C175.403 290.059 178.785 286.328 181.101 284.961C179.364 287.023 177.789 289.549 176.932 292.167C175.936 295.203 175.959 298.03 176.932 300.486M183.186 298.261C183.07 300.254 183.233 302.363 183.464 304.216C182.653 303.197 181.681 301.853 180.615 300.092C179.457 298.215 179.318 295.898 180.221 293.21C181.773 288.553 185.827 284.428 188.074 283.524C188.398 283.385 188.746 283.339 189.093 283.339C189.186 283.339 189.279 283.385 189.371 283.385C187.078 285.656 184.9 288.807 183.812 292.121C183.094 294.276 182.908 296.338 183.209 298.238M190.483 304.379C189.626 303.336 188.63 301.946 187.495 300.092C186.337 298.215 186.198 295.898 187.101 293.21C188.653 288.553 192.707 284.428 194.954 283.548C195.278 283.409 195.626 283.362 195.973 283.362C197.618 283.362 199.517 284.613 200.907 285.795L199.17 286.629C198.174 286.907 194.143 288.228 191.896 292.469C190.089 295.898 190.112 300.764 190.483 304.402M230.35 292.515C228.103 288.275 224.072 286.954 223.076 286.676L221.338 285.842C223.03 284.405 225.485 282.876 227.292 283.594C229.516 284.498 233.593 288.599 235.145 293.28C236.025 295.967 235.909 298.285 234.751 300.161C233.616 302.015 232.62 303.405 231.763 304.448C232.133 300.81 232.156 295.944 230.35 292.515ZM238.434 292.19C237.345 288.877 235.145 285.726 232.851 283.432C233.315 283.385 233.755 283.432 234.172 283.594C236.396 284.498 240.473 288.599 242.025 293.28C242.905 295.967 242.789 298.285 241.631 300.161C240.542 301.922 239.592 303.266 238.782 304.286C239.036 302.409 239.175 300.3 239.059 298.331C239.361 296.431 239.175 294.369 238.457 292.214M245.291 292.19C244.434 289.572 242.858 287.07 241.121 284.984C243.438 286.351 246.82 290.082 248.21 294.253C249.09 296.941 248.974 299.258 247.816 301.135C246.75 302.896 245.777 304.24 244.966 305.259C245.152 303.776 245.291 302.131 245.291 300.509C246.287 298.053 246.31 295.226 245.291 292.19ZM172.276 159.303L173.341 158.307L172.554 157.102C167.249 148.806 164.446 140.998 164.214 133.884C163.913 124.175 166.809 117.711 168.685 114.582C170.26 116.228 171.859 117.757 173.457 119.217C170.978 121.812 166.832 127.605 167.689 136.757C168.801 148.667 178.924 156.291 187.889 157.449C188.746 157.565 189.603 157.612 190.437 157.612C195.07 157.612 199.147 155.897 202.297 152.746C202.367 152.977 202.436 153.232 202.552 153.487C205.309 159.998 209.617 165.05 209.802 165.258L211.146 166.811L212.466 165.235C212.675 164.98 217.794 158.84 219.902 153C219.902 152.954 219.902 152.885 219.925 152.838C223.076 155.943 227.153 157.658 231.786 157.658C232.689 157.658 233.616 157.588 234.542 157.472C243.53 156.244 253.561 148.575 254.464 136.781C255.228 126.91 251.638 121.696 249.09 119.286C250.688 117.85 252.287 116.32 253.862 114.675C255.53 117.456 258.541 123.874 258.217 133.954C257.869 144.589 251.893 154.391 250.063 157.148L249.252 158.376L250.341 159.373C255.391 164.007 267.089 176.751 266.51 194.547C265.606 223.07 255.205 245.153 248.997 258.36C246.959 262.67 245.36 266.1 244.503 268.741C243.855 270.734 243.183 272.588 242.534 274.395C241.723 276.689 240.982 278.867 240.334 281.068C239.222 280.906 238.133 281.022 237.09 281.346C236.511 280.976 235.955 280.651 235.446 280.443C233.847 279.817 232.249 279.933 230.767 280.396C230.929 276.944 230.975 273.329 230.975 269.784C230.975 268.324 230.975 266.795 230.998 266.146C231.346 265.59 231.786 264.918 232.272 264.2C234.936 260.26 239.5 253.494 238.99 244.967C240.519 247.006 241.7 249.3 242.187 250.436L243.391 253.193L245.175 250.783C245.43 250.436 251.545 242.094 255.043 229.28C258.055 218.228 258.17 209.423 255.46 203.004C257.29 189.634 251.661 180.389 251.406 179.972L248.464 181.802C248.464 181.802 253.908 190.793 251.916 203.329H251.87C251.87 203.329 251.87 203.421 251.893 203.421C251.777 204.14 251.638 204.881 251.476 205.622C249.97 212.249 247.908 217.787 246.403 221.286C245.221 218.251 243.136 214.59 239.662 213.269L235.955 211.832L237.438 215.517C239.685 221.147 236.882 229.651 233.5 236.579C231.902 239.823 230.187 242.743 228.774 244.851C227.778 243.322 226.134 242.419 224.095 242.326C220.342 242.14 216.08 244.736 213.115 249.37V195.033C214.111 193.712 218.142 188.893 228.381 182.891L226.62 179.879C218.211 184.815 213.694 189.032 211.563 191.442C209.64 189.009 205.332 184.954 195.672 179.439L193.958 182.451C206.652 189.704 209.27 194.06 209.64 194.801V249.717C206.536 244.712 202.019 241.932 198.22 242.21C196.158 242.326 194.514 243.276 193.518 244.828C189.116 238.201 181.542 223.766 184.854 215.493L186.337 211.809L182.63 213.246C179.156 214.59 177.071 218.228 175.889 221.263C174.384 217.764 172.322 212.226 170.816 205.599C167.712 191.859 173.758 181.872 173.828 181.756L170.886 179.925C170.631 180.343 165.071 189.495 166.809 202.749C164.006 209.191 164.099 218.089 167.156 229.234C170.654 242.048 176.77 250.389 177.024 250.737L178.808 253.147L180.013 250.389C180.499 249.277 181.681 246.96 183.209 244.921C182.723 253.448 187.286 260.214 189.95 264.153C190.46 264.918 190.923 265.59 191.271 266.192C191.363 266.934 191.363 269.042 191.363 271.081C191.363 274.21 191.433 277.338 191.549 280.327C190.043 279.84 188.421 279.701 186.823 280.327C186.313 280.535 185.758 280.86 185.178 281.23C184.321 280.976 183.441 280.86 182.561 280.906C181.912 278.728 181.194 276.596 180.383 274.349C179.735 272.564 179.063 270.687 178.414 268.695C177.557 266.053 175.959 262.624 173.92 258.291C167.712 245.083 157.334 223.001 156.408 194.477C155.852 176.682 167.342 163.937 172.322 159.303M157.288 100.378C179.804 112.057 192.823 124.685 200.189 134.301C198.591 132.98 196.877 131.706 194.954 130.524C187.449 125.913 178.785 120.283 170.677 111.663L170.724 111.593L157.288 100.378ZM188.236 130.756C190.112 131.868 191.827 132.911 193.425 133.907C193.425 133.977 193.448 134.046 193.471 134.116C193.842 136.363 192.29 138.518 190.043 138.889C189.557 138.982 185.804 138.681 185.271 135.46C184.924 133.328 186.29 131.289 188.213 130.779M181.866 135.993C182.653 140.812 187.31 142.365 189.858 142.365C190.136 142.365 190.39 142.365 190.622 142.318C193.911 141.786 196.321 139.214 196.877 136.109C199.656 138.263 201.95 140.557 203.78 142.736V142.828C203.78 143.338 203.71 143.848 203.618 144.358C200.838 151.378 195.301 154.924 188.329 154.02C180.592 153.024 172.044 146.188 171.141 136.456C170.399 128.462 174.083 123.527 176.075 121.511C179.156 124.106 182.236 126.377 185.225 128.416C182.792 130.014 181.379 132.957 181.866 136.016M216.613 151.796C215.316 155.318 212.698 159.141 211.1 161.273C209.663 159.349 207.37 155.966 205.725 152.097C205.285 151.054 205.633 149.826 206.212 147.926C206.328 147.509 206.467 147.092 206.606 146.651C206.93 147.045 207.254 147.439 207.579 147.833C208.969 150.011 209.64 151.494 209.663 151.517L211.262 155.086L212.837 151.517C212.837 151.517 213.509 150.035 214.876 147.903C215.177 147.532 215.478 147.138 215.802 146.721C215.918 146.999 216.034 147.277 216.15 147.555C216.567 149.177 216.96 150.799 216.613 151.749M183.904 101.328H184.437L184.9 101.074C196.321 94.0295 207.231 93.4502 211.424 93.4965H211.725C215.802 93.4502 226.666 94.1221 237.948 101.074L238.411 101.352H238.944C247.491 100.935 253.769 100.425 258.286 99.9613C229.423 116.228 215.663 135.089 211.192 145.794C207.625 137.777 196.066 117.942 163.797 99.915C168.477 100.402 175.009 100.911 183.904 101.328ZM229.075 134.093C229.075 134.093 229.076 133.954 229.122 133.884C230.72 132.888 232.434 131.845 234.288 130.756C236.303 131.312 237.6 133.305 237.276 135.413C236.766 138.634 232.99 138.935 232.527 138.843C230.257 138.472 228.728 136.34 229.099 134.069M231.948 142.295C232.18 142.342 232.434 142.342 232.712 142.342C235.26 142.342 239.917 140.789 240.704 135.97C241.191 132.911 239.778 129.968 237.322 128.369C240.31 126.33 243.368 124.083 246.449 121.511C248.372 123.202 251.684 127.466 251.012 136.456C250.271 146.072 241.839 152.931 234.079 153.974C227.686 154.854 222.474 152.097 219.439 146.373C219.439 146.373 219.439 146.327 219.439 146.304C219.115 145.029 218.767 143.732 218.767 142.759V142.689C220.62 140.511 222.914 138.194 225.717 136.039C226.249 139.167 228.682 141.739 231.971 142.295M252.124 111.477H252.101C243.947 120.167 235.168 125.867 227.57 130.524C225.554 131.752 223.748 133.096 222.103 134.487C229.423 124.731 242.488 111.918 265.212 100.17L252.148 111.477H252.124ZM268.455 177.608C267.552 176.403 266.602 175.291 265.606 174.225C262.039 166.625 257.035 160.971 253.723 157.774C256.479 153.325 261.321 144.195 261.645 134.023C262.016 122.53 258.402 115.301 256.456 112.312L280.2 91.7818L267.506 95.1417C267.506 95.1417 260.672 96.8564 239.291 97.8527C227.408 90.6928 216.057 90.0208 211.679 90.0208H211.401C206.976 89.9745 195.556 90.5769 183.511 97.8527C161.944 96.8332 154.647 95.2112 154.578 95.188L142.115 92.2684L165.998 112.242C163.936 115.532 160.346 122.947 160.693 134.046C160.925 141.415 163.658 149.409 168.824 157.797C165.581 160.995 160.693 166.602 157.195 174.156C156.176 175.268 155.157 176.427 154.23 177.655C144.107 191.187 142.393 209.654 149.157 232.548C153.813 248.304 162.454 269.598 171.743 290.638C171.326 291.472 170.955 292.306 170.677 293.164C170.029 295.133 169.82 297.01 170.006 298.771C162.037 305.491 155.736 314.111 151.891 323.935C151.844 324.051 151.798 324.167 151.752 324.283C151.705 324.422 151.659 324.561 151.59 324.7C151.543 324.839 151.474 324.978 151.427 325.117C151.149 325.858 150.871 326.623 150.64 327.388C149.111 332.138 148.138 337.12 147.791 342.264C149.041 342.38 150.292 342.542 151.543 342.75C151.821 338.811 152.447 333.412 153.883 328.616C154.138 327.805 154.416 326.994 154.717 326.183C154.74 326.136 154.763 326.067 154.786 326.021C154.856 325.812 154.948 325.603 155.041 325.395C157.612 319.231 161.272 313.786 162.639 311.84L168.917 312.303L168.013 330.516L159.72 344.511C160.879 344.812 162.037 345.137 163.172 345.484L170.492 333.111L179.086 335.961L187.819 338.857L193.031 354.892C193.634 355.031 194.236 355.147 194.838 355.263C195.533 355.379 196.274 355.494 196.969 355.61L191.294 338.139L211.1 323.75L230.906 338.139L227.5 348.613L225.045 356.143C225.832 355.958 226.69 355.865 227.593 355.865C228.01 355.865 228.357 355.935 228.751 355.981L230.929 349.285L234.311 338.857L243.044 335.961L251.638 333.111L260.742 348.474C261.715 347.894 262.803 347.454 264.054 347.222L254.14 330.493L253.236 312.28L259.537 311.817C260.904 313.693 264.541 318.953 266.973 325.024C267.066 325.256 267.158 325.511 267.251 325.743C267.668 326.832 268.039 327.921 268.386 328.986C268.432 329.126 268.455 329.241 268.502 329.38C268.803 330.4 269.081 331.396 269.313 332.37C269.313 332.416 269.336 332.485 269.359 332.532C270.285 336.378 270.679 339.784 270.841 342.426C271.838 341.893 272.973 341.499 274.247 341.314C274.108 339.39 273.899 337.467 273.575 335.59C273.575 335.521 273.552 335.451 273.529 335.382C273.39 334.571 273.227 333.76 273.042 332.972C272.903 332.37 272.764 331.744 272.602 331.095C272.509 330.771 272.44 330.446 272.347 330.122C272.185 329.519 272 328.894 271.814 328.291C271.722 327.99 271.629 327.666 271.536 327.365C271.351 326.785 271.143 326.206 270.934 325.627C270.795 325.256 270.679 324.885 270.54 324.538C270.517 324.445 270.471 324.375 270.448 324.283C270.262 323.796 270.054 323.31 269.869 322.846C266 313.439 259.838 305.213 252.148 298.725C252.24 297.867 252.217 296.987 252.124 296.083C252.124 296.06 252.124 296.037 252.124 296.014C252.078 295.597 252.009 295.203 251.916 294.786C251.916 294.716 251.916 294.67 251.893 294.6C251.777 294.137 251.661 293.65 251.499 293.187C251.267 292.515 250.989 291.82 250.688 291.148C260.07 269.923 268.826 248.397 273.529 232.501C280.269 209.608 278.578 191.14 268.455 177.608Z" fill="#006A52"/>
<path d="M184.299 165.978C185.017 166.302 186.013 166.742 187.241 167.229L181.612 174.296L184.322 176.451L190.623 168.526C191.619 168.897 192.685 169.268 193.797 169.639L189.998 174.273L192.685 176.474L197.387 170.751C201.557 171.933 206.097 172.86 210.197 172.883H210.452C215.154 172.883 220.274 171.979 224.884 170.844L229.516 176.497L232.204 174.296L228.567 169.87C229.725 169.546 230.814 169.198 231.833 168.874L237.902 176.497L240.612 174.342L235.331 167.692C236.651 167.229 237.717 166.812 238.458 166.511L245.778 175.895L248.512 173.763L239.57 162.27L238.342 162.78C238.18 162.85 222.474 169.407 210.429 169.407H210.197C199.449 169.337 184.716 162.363 184.577 162.293L183.396 161.737L173.782 172.489L176.377 174.806L184.253 165.978H184.299Z" fill="#006A52"/>
<path d="M211.031 106.402L216.915 110.619L224.211 105.174L222.15 102.393L216.891 106.309L210.984 102.115L205.332 106.309L199.819 102.37L197.804 105.197L205.379 110.619L211.031 106.402Z" fill="#006A52"/>
<path d="M211.262 413.538C98.8206 413.538 7.32004 322.429 7.32004 210.442C7.32004 98.4549 98.8206 7.32213 211.262 7.32213C323.703 7.32213 415.204 98.4317 415.204 210.419C415.204 322.406 323.727 413.515 211.262 413.515M211.262 0C94.7668 0 0 94.3999 0 210.442C0 326.484 94.7668 420.884 211.262 420.884C327.757 420.884 422.524 326.484 422.524 210.442C422.524 94.3999 327.757 0 211.262 0Z" fill="#006A52"/>
<path d="M211.262 351.601C133.197 351.601 69.6794 288.343 69.6794 210.604C69.6794 132.864 133.197 69.6063 211.262 69.6063C289.327 69.6063 352.845 132.864 352.845 210.604C352.845 288.343 289.327 351.601 211.262 351.601ZM211.262 62.2842C129.166 62.2842 62.3594 128.832 62.3594 210.604C62.3594 292.375 129.143 358.923 211.262 358.923C293.381 358.923 360.165 292.398 360.165 210.604C360.165 128.809 293.381 62.2842 211.262 62.2842Z" fill="#006A52"/>
<path d="M38.5001 224.068L25.4352 229.259L39.2877 231.854L38.5232 224.068H38.5001ZM18.7637 236.488L17.4434 223.211L51.8429 208.683L52.8158 218.368L45.658 221.218L46.8625 233.244L54.4605 234.634L55.4103 244.181L18.8101 236.465L18.7637 236.488Z" fill="#006A52"/>
<path d="M16.8643 201.754L17.9993 192.578L31.9676 194.293L19.3429 181.711L20.7096 170.635L33.4965 184.236L56.1747 174.597L54.8544 185.21L40.0058 191.188L44.3839 195.822L53.4181 196.934L52.2831 206.11L16.8643 201.754Z" fill="#006A52"/>
<path d="M49.6198 149.174L35.582 148.178L46.9558 156.519L49.6198 149.174ZM26.4551 151.793L31.0185 139.257L68.3368 141.111L65.0011 150.263L57.3104 149.707L53.1871 161.061L59.4184 165.626L56.1291 174.639L26.4551 151.816V151.793Z" fill="#006A52"/>
<path d="M70.1668 124.174C73.4793 119.007 70.8849 114.326 65.9045 111.152C60.7619 107.838 56.2216 108.232 53.0249 113.191L51.2412 115.972L68.3599 126.955L70.1436 124.174H70.1668ZM39.7979 119.609L47.1179 108.186C53.0944 98.8712 62.1981 97.4346 71.047 103.112C80.3592 109.09 82.7915 118.659 76.954 127.766L69.8193 138.865L39.7979 119.586V119.609Z" fill="#006A52"/>
<path d="M62.291 86.7964L79.9888 68.3057L85.4094 73.4729L74.105 85.2902L78.8538 89.8318L89.2547 78.9645L94.4899 83.9695L84.089 94.8136L89.0694 99.5638L100.374 87.7464L105.794 92.9368L88.0965 111.451L62.291 86.7964Z" fill="#006A52"/>
<path d="M89.4854 59.4349L100.489 52.3676L119.067 68.6571L111.886 45.0455L122.912 37.9551L142.208 67.9851L135.166 72.5267L121.383 51.0932L129.027 76.4658L121.916 81.0305L102.064 63.5362L115.824 84.9465L108.782 89.4649L89.4854 59.4349Z" fill="#006A52"/>
<path d="M143.196 30.0686L134.595 33.5166L147.875 66.6608L156.475 63.2127L143.196 30.0686Z" fill="#006A52"/>
<path d="M157.682 50.5134L166.901 48.15C167.735 51.0232 170.191 52.3903 173.434 51.5562C176.167 50.861 177.441 49.1463 176.885 47.0146C176.422 45.2304 175.241 44.5352 172.669 44.6279L167.411 44.8596C160.091 45.184 156.153 42.7742 154.694 37.0509C153.026 30.5861 157.265 24.7006 165.512 22.5688C173.781 20.4371 179.642 23.7274 181.518 29.7288L172.392 32.0691C171.743 29.7983 169.774 28.6397 166.971 29.358C164.585 29.9837 163.102 31.7679 163.635 33.7838C164.075 35.4984 165.465 36.2167 168.338 36.0777L173.666 35.846C179.457 35.568 184.113 37.2595 185.688 43.4462C187.518 50.583 183.464 56.2831 175.032 58.438C166.577 60.6161 159.744 58.0673 157.682 50.5134Z" fill="#006A52"/>
<path d="M191.433 18.2126L200.652 17.9114L201.139 31.9996L211.586 17.5407L222.728 17.1699L211.308 31.93L224.373 52.8306L213.694 53.2013L205.47 39.4375L201.579 44.4889L201.88 53.5952L192.66 53.8964L191.433 18.2126Z" fill="#006A52"/>
<path d="M258.983 37.7244C261.16 38.3037 263.037 37.5622 263.616 35.3146C264.125 33.3682 263.014 31.8621 260.836 31.2828L255.879 29.9621L254.165 36.4269L258.96 37.7013L258.983 37.7244ZM255.763 52.0211C258.404 52.7163 260.442 51.9285 261.114 49.426C261.739 47.0857 260.558 45.4405 257.894 44.7454L252.358 43.2856L250.412 50.6309L255.763 52.0443V52.0211ZM248.79 20.6704L264.542 24.8412C271.584 26.7181 274.526 30.9121 273.137 36.1488C272.071 40.1574 269.059 42.4514 265.284 42.6368C269.198 44.6758 271.005 48.6381 269.87 52.8785C268.272 58.8567 263.245 61.4055 256.412 59.575L239.617 55.1261L248.79 20.624V20.6704Z" fill="#006A52"/>
<path d="M287.867 64.7628C291.99 66.8945 295.975 64.7396 299.264 58.3675C302.554 51.9954 301.951 47.5001 297.874 45.3684C293.82 43.283 289.767 45.3915 286.477 51.7637C283.188 58.1358 283.767 62.631 287.89 64.7396M277.976 47.4074C283.419 36.8413 292.222 33.8986 301.349 38.5792C310.476 43.283 313.163 52.1576 307.719 62.7237C302.276 73.313 293.496 76.2789 284.346 71.5751C275.127 66.825 272.532 57.9967 277.976 47.4074Z" fill="#006A52"/>
<path d="M325.071 53.5283L332.321 59.3211L315.017 80.9863L326.275 89.9768L321.295 96.1867L302.786 81.4266L325.071 53.5283Z" fill="#006A52"/>
<path d="M337.601 102.926C341.562 107.606 346.797 106.517 351.315 102.717C355.994 98.7779 356.944 94.329 353.168 89.8106L351.037 87.285L335.493 100.4L337.624 102.926H337.601ZM350.898 75.2822L359.631 85.663C366.765 94.1205 365.445 103.25 357.43 110.016C348.975 117.153 339.13 116.643 332.134 108.371L323.633 98.2682L350.898 75.2822Z" fill="#006A52"/>
<path d="M377.169 108.74L381.455 116.943L368.946 123.454L386.505 126.652L391.647 136.499L373.417 132.56L360.19 153.368L355.256 143.868L364.104 130.544L357.873 129.2L349.789 133.418L345.526 125.215L377.169 108.74Z" fill="#006A52"/>
<path d="M394.564 145.562L397.181 154.46L370.588 162.269L374.665 176.102L367.021 178.327L360.35 155.619L394.564 145.562Z" fill="#006A52"/>
<path d="M379.461 179.068L403.02 176.774L403.923 185.997L381.338 188.221C377.77 188.569 375.778 190.724 376.126 194.176C376.45 197.49 378.859 199.204 382.496 198.857L404.966 196.655L405.869 205.878L382.311 208.195C373.948 209.006 369.153 203.329 368.342 194.918C367.508 186.367 371.099 179.949 379.461 179.115" fill="#006A52"/>
<path d="M390.373 230.138C390.118 232.363 391.137 234.124 393.43 234.379C395.423 234.61 396.766 233.266 396.998 231.042L397.554 225.944L390.905 225.203L390.35 230.161L390.373 230.138ZM375.733 229.072C375.431 231.807 376.52 233.707 379.091 233.985C381.501 234.263 382.96 232.849 383.261 230.115L383.887 224.415L376.335 223.581L375.733 229.096V229.072ZM405.708 217.533L403.901 233.753C403.09 241.006 399.384 244.528 393.986 243.925C389.863 243.462 387.153 240.82 386.412 237.113C384.975 241.284 381.338 243.67 376.96 243.161C370.799 242.465 367.555 237.854 368.343 230.833L370.266 213.524L405.731 217.51L405.708 217.533Z" fill="#006A52"/>
<path d="M160.485 373.476L152.539 371.089L154.578 364.3C160.207 365.876 164.006 364.949 165.581 361.079L173.156 363.373L162.847 397.528L154.022 394.863L160.485 373.476Z" fill="#006A52"/>
<path d="M189.07 380.38C191.525 380.682 193.587 379.291 193.842 377.044C194.096 374.819 192.428 373.012 189.973 372.711C187.494 372.409 185.433 373.776 185.178 376.001C184.9 378.249 186.568 380.079 189.07 380.38ZM187.216 395.697C190.181 396.044 192.382 394.468 192.66 392.012C192.961 389.556 191.201 387.448 188.236 387.1C185.247 386.752 183.024 388.374 182.722 390.831C182.421 393.287 184.228 395.349 187.193 395.697M173.364 390.599C173.827 386.637 176.815 383.439 181.217 382.697C177.418 380.96 175.819 377.368 176.213 373.962C176.885 368.285 182.398 364.809 190.807 365.806C199.077 366.802 203.687 371.575 202.992 377.322C202.575 380.844 200.119 383.717 196.112 384.458C200.281 386.243 202.366 390.043 201.88 394.005C201.138 400.122 195.278 403.714 186.382 402.648C177.418 401.559 172.623 396.716 173.364 390.576" fill="#006A52"/>
<path d="M223.399 396.856C226.364 396.671 228.241 394.701 228.078 392.245C227.916 389.789 225.785 388.028 222.82 388.213C219.832 388.399 217.932 390.438 218.095 392.894C218.257 395.35 220.388 397.065 223.399 396.856ZM222.38 381.447C224.859 381.285 226.619 379.547 226.457 377.276C226.318 375.052 224.349 373.569 221.87 373.731C219.369 373.893 217.608 375.608 217.747 377.833C217.886 380.103 219.878 381.586 222.357 381.424M208.829 394.377C208.574 390.415 210.913 386.707 215.083 385.155C211.029 384.158 208.805 380.914 208.574 377.508C208.203 371.785 212.975 367.359 221.43 366.803C229.746 366.247 235.144 370.117 235.514 375.886C235.746 379.431 233.87 382.699 230.071 384.182C234.495 385.155 237.252 388.538 237.507 392.5C237.9 398.664 232.804 403.251 223.839 403.854C214.828 404.456 209.222 400.54 208.829 394.4" fill="#006A52"/>
<path d="M255.785 378.737C258.31 378.042 259.769 375.609 259.005 372.759C258.217 369.909 255.762 368.565 253.26 369.237C250.596 369.955 249.276 372.342 250.063 375.192C250.851 378.042 253.144 379.455 255.808 378.737M245.037 391.087L254.071 388.631C254.928 390.624 256.851 391.574 259.237 390.925C262.526 390.021 264.402 386.916 262.248 379.084C261.576 382.398 258.936 385.039 254.998 386.129C248.604 387.866 243.045 385.063 241.076 377.833C239.153 370.766 243.045 364.139 251.268 361.891C260.905 359.25 267.9 364.44 270.935 375.586C274.016 386.916 270.587 395.073 260.557 397.807C252.959 399.869 247.122 397.158 245.014 391.11" fill="#006A52"/>
<path d="M134.311 367.263C134.311 372.314 130.211 376.416 125.161 376.416C120.111 376.416 116.011 372.314 116.011 367.263C116.011 362.212 120.111 358.11 125.161 358.11C130.211 358.11 134.311 362.212 134.311 367.263Z" fill="#006A52"/>
<path d="M308.413 367.263C308.413 372.314 304.313 376.416 299.263 376.416C294.213 376.416 290.113 372.314 290.113 367.263C290.113 362.212 294.213 358.11 299.263 358.11C304.313 358.11 308.413 362.212 308.413 367.263Z" fill="#006A52"/>
</g>
<defs>
<clipPath id="clip0_624_9463">
<rect width="422.547" height="420.884" fill="white"/>
</clipPath>
</defs>
</svg>
