<svg width="410" height="413" viewBox="0 0 410 413" fill="none" xmlns="http://www.w3.org/2000/svg">
<g clip-path="url(#clip0_563_220)">
<path d="M0 294.064V305.977H35.7248V409.723H55.344V262.016H41.7981C38.0937 286.048 29.7786 292.426 0 294.064Z" fill="#D6A02A"/>
<path d="M243.666 398.733C224.254 398.733 211.63 387.536 211.63 370.28C211.63 353.023 224.254 341.826 243.666 341.826C263.079 341.826 275.607 353.023 275.607 370.28C275.607 387.536 262.983 398.733 243.666 398.733ZM243.666 272.895C262.554 272.895 274.876 283.885 274.876 300.839C274.876 317.794 262.554 328.784 243.666 328.784C224.778 328.784 212.457 317.794 212.457 300.839C212.457 283.885 224.667 272.895 243.666 272.895ZM269.152 335.178C283.588 329.516 294.288 316.84 294.288 299.806C294.288 275.567 273.651 259.121 243.666 259.121C213.681 259.121 193.044 275.551 193.044 299.806C193.044 316.84 203.68 329.516 218.101 335.178C202.027 341.11 191.915 354.852 191.915 371.393C191.915 395.95 212.965 412.587 243.666 412.587C274.367 412.587 295.322 395.95 295.322 371.393C295.322 354.836 285.289 341.094 269.152 335.162" fill="#D6A02A"/>
<path d="M356.612 344.085C338.233 344.085 326.213 329.707 326.213 308.856C326.213 288.004 338.233 273.929 356.087 273.929C373.941 273.929 387.09 289.022 387.09 309.571C387.09 330.12 374.768 344.085 356.596 344.085M356.5 259.551C325.895 259.551 306.292 280.307 306.292 309.985C306.292 339.663 326.42 358.669 352.812 358.669C370.046 358.669 385.039 350.129 390.508 337.023C390.524 370.185 381.748 398.527 355.372 398.527C339.25 398.527 329.091 388.555 327.342 370.9H308.041C310.505 398.638 329.297 413.016 355.372 413.016C395.214 413.016 410 377.787 410 335.258C410 292.728 395.119 259.551 356.5 259.551Z" fill="#D6A02A"/>
<path d="M127.525 398.733C108.112 398.733 95.4885 387.536 95.4885 370.28C95.4885 353.023 108.112 341.826 127.525 341.826C146.937 341.826 159.466 353.023 159.466 370.28C159.466 387.536 146.842 398.733 127.525 398.733ZM127.525 272.895C146.413 272.895 158.734 283.885 158.734 300.839C158.734 317.794 146.413 328.784 127.525 328.784C108.637 328.784 96.3153 317.794 96.3153 300.839C96.3153 283.885 108.526 272.895 127.525 272.895ZM153.011 335.178C167.447 329.516 178.147 316.84 178.147 299.806C178.147 275.567 157.51 259.121 127.525 259.121C97.5395 259.121 76.9027 275.551 76.9027 299.806C76.9027 316.84 87.5391 329.516 101.959 335.178C85.8856 341.11 75.7739 354.852 75.7739 371.393C75.7739 395.95 96.824 412.587 127.525 412.587C158.225 412.587 179.18 395.95 179.18 371.393C179.18 354.836 169.132 341.094 153.011 335.162" fill="#D6A02A"/>
<path d="M275.4 224.624V18.5768C303.764 25.6704 320.807 46.108 320.807 73.1303C320.807 92.0411 312.699 108.089 297.007 120.749C313.383 133.584 321.65 150.141 321.65 169.895C321.65 197.251 304.94 217.18 275.4 224.608M136.126 149.982C157.796 97.1624 179.323 41.9728 187.622 18.6245V149.982H136.126ZM365.483 120.622C392.829 112.367 408.267 92.7727 408.267 64.6848C408.267 24.1435 374.832 0 318.613 0H113.836L0.556396 243.2H97.7939L128.208 169.227H187.622V243.2H319.138C375.865 243.2 409.459 218.707 409.459 177.673C409.459 149.044 393.592 129.02 365.483 120.622Z" fill="#006A52"/>
</g>
<defs>
<clipPath id="clip0_563_220">
<rect width="410" height="413" fill="white"/>
</clipPath>
</defs>
</svg>
