<svg width="411" height="422" viewBox="0 0 411 422" fill="none" xmlns="http://www.w3.org/2000/svg">
<path d="M244.081 420.814C229.035 420.814 216.141 416.812 206.793 409.24C197.445 401.668 192.502 391.217 192.502 379.015C192.502 362.39 202.486 348.311 218.56 342.273L219.196 342.036L218.566 341.783C202.951 335.54 193.634 322.131 193.634 305.906C193.634 293.852 198.458 283.528 207.589 276.061C216.725 268.584 229.346 264.635 244.081 264.635C258.816 264.635 271.386 268.584 280.537 276.061C289.694 283.544 294.533 293.863 294.533 305.906C294.533 322.11 285.18 335.519 269.519 341.778L268.883 342.031L269.524 342.268C285.583 348.279 295.562 362.363 295.562 379.015C295.562 391.227 290.64 401.678 281.323 409.24C272.001 416.812 259.122 420.814 244.081 420.814ZM244.081 348.543C224.429 348.543 211.73 360.054 211.73 377.861C211.73 395.667 224.429 407.178 244.081 407.178C263.733 407.178 276.328 395.667 276.328 377.861C276.328 360.054 263.671 348.543 244.081 348.543ZM244.081 278.155C224.93 278.155 212.552 289.46 212.552 306.95C212.552 324.44 224.925 335.746 244.081 335.746C263.237 335.746 275.61 324.44 275.61 306.95C275.61 289.46 263.237 278.155 244.081 278.155Z" fill="#006A52"/>
<path d="M355.982 421.23C342.906 421.23 331.697 417.487 323.569 410.41C315.163 403.086 310.075 392.145 308.85 378.752H327.67C329.49 396.69 339.799 406.967 355.982 406.967C368.391 406.967 377.729 400.624 383.726 388.116C388.85 377.423 391.445 362.548 391.435 343.897V342.584L390.939 343.797C385.479 357.127 370.749 365.743 353.413 365.743C326.134 365.743 307.076 345.405 307.076 316.288C307.076 285.642 327.184 265.046 357.115 265.046C375.299 265.046 389.119 272.491 398.193 287.171C406.32 300.327 410.446 318.804 410.446 342.089C410.446 365.374 406.176 384.525 398.089 397.94C388.778 413.395 374.611 421.23 355.987 421.23H355.982ZM356.706 279.204C338.931 279.204 326.517 293.979 326.517 315.134C326.517 336.289 338.853 351.374 357.218 351.374C366.214 351.374 373.923 347.958 379.512 341.493C385.081 335.049 388.023 326.191 388.023 315.866C388.023 305.542 384.921 296.283 379.295 289.628C373.613 282.905 365.589 279.204 356.701 279.204H356.706Z" fill="#006A52"/>
<path d="M127.749 420.814C112.703 420.814 99.8086 416.812 90.4607 409.24C81.1127 401.668 76.1699 391.217 76.1699 379.015C76.1699 362.39 86.1538 348.311 102.228 342.273L102.864 342.036L102.233 341.783C86.6191 335.54 77.3022 322.131 77.3022 305.906C77.3022 293.852 82.1261 283.528 91.2569 276.061C100.393 268.584 113.014 264.635 127.749 264.635C142.484 264.635 155.053 268.584 164.205 276.061C173.362 283.544 178.201 293.863 178.201 305.906C178.201 322.11 168.848 335.519 153.187 341.778L152.551 342.031L153.192 342.268C169.256 348.279 179.23 362.363 179.23 379.015C179.23 391.227 174.308 401.678 164.991 409.24C155.669 416.812 142.789 420.814 127.749 420.814ZM127.749 348.543C108.097 348.543 95.3983 360.054 95.3983 377.861C95.3983 395.667 108.097 407.178 127.749 407.178C147.401 407.178 159.996 395.667 159.996 377.861C159.996 360.054 147.339 348.543 127.749 348.543ZM127.749 278.155C108.598 278.155 96.2256 289.46 96.2256 306.95C96.2256 324.44 108.598 335.746 127.749 335.746C146.9 335.746 159.278 324.44 159.278 306.95C159.278 289.46 146.905 278.155 127.749 278.155Z" fill="#006A52"/>
<path d="M36.0588 417.876V311.932H0.264648V300.279C16.06 299.372 24.9426 297.099 30.8936 292.448C36.855 287.792 40.1071 280.574 42.0925 267.565H55.1889V417.876H36.0588Z" fill="#006A52"/>
<path d="M188.194 247.828V172.288H128.254L97.7958 247.828H0.960938L114.196 0H319.163C375.23 0 408.703 24.593 408.703 65.7904C408.703 94.0007 393.548 114.191 366.027 122.654L365.205 122.907L366.032 123.16C394.314 131.776 409.892 152.383 409.892 181.173C409.892 222.908 376.166 247.828 319.675 247.828H188.194ZM275.613 229.457L275.934 229.373C305.508 221.79 322.467 201.331 322.467 173.237C322.467 153.047 314.21 136.163 297.934 123.044C313.651 110.015 321.624 93.6526 321.624 74.4117C321.624 46.6655 304.547 25.7425 275.939 18.45L275.619 18.3656V229.452L275.613 229.457ZM187.692 18.6504C178.799 44.1609 156.629 101.826 136.118 152.789L135.973 153.152H188.199V17.2109L187.697 18.6504H187.692Z" fill="#006A52"/>
</svg>
