<?xml version="1.0" encoding="utf-8"?>
<!-- Generator: Adobe Illustrator 16.0.0, SVG Export Plug-In . SVG Version: 6.00 Build 0)  -->
<!DOCTYPE svg PUBLIC "-//W3C//DTD SVG 1.1 Tiny//EN" "http://www.w3.org/Graphics/SVG/1.1/DTD/svg11-tiny.dtd">
<svg version="1.1" baseProfile="tiny" id="Layer_1" xmlns="http://www.w3.org/2000/svg" xmlns:xlink="http://www.w3.org/1999/xlink"
	 x="0px" y="0px" width="606.614px" height="153.071px" viewBox="0 0 606.614 153.071" xml:space="preserve">
<g>
	<path fill="#051C48" d="M193.273,66.242L181.522,25.62v-2.148h9.729l8.213,32.156c0.19,0.948,0.19,0.695,0.505,2.59h0.127
		c0.19-1.074,0.442-2.211,0.568-2.59l8.213-32.156h9.666v2.211l-11.751,40.559H193.273z"/>
	<path fill="#051C48" d="M251.516,31.116h-5.937v27.481h5.937v7.645h-21.795v-7.645h6.002V31.116h-6.002v-7.644h21.795V31.116z"/>
	<path fill="#051C48" d="M266.172,66.242v-42.77h13.898c9.917,0,17.247,3.664,17.247,13.583c0,4.612-2.528,9.098-7.898,10.929
		c1.706,1.011,3.982,3.159,4.993,6.255l3.663,9.792v2.211h-9.729l-3.599-9.918c-1.201-3.222-3.096-5.181-6.066-5.181h-2.528v15.099
		H266.172z M276.152,44.257h4.424c3.917,0,6.949-1.896,6.949-6.191c0-4.548-3.287-6.191-6.634-6.191h-4.739V44.257z"/>
	<path fill="#051C48" d="M311.717,50.89V23.472h9.982v27.734c0,4.359,1.769,7.202,6.254,7.202c4.485,0,6.254-2.843,6.254-7.265
		V23.472h9.982V50.89c0,7.834-2.843,16.236-16.236,16.236C314.559,67.126,311.717,58.724,311.717,50.89z"/>
	<path fill="#051C48" d="M360.673,66.242v-42.77h12.129l7.645,19.016c0.441,1.137,0.695,2.211,0.883,3.285h0.19
		c0.253-1.201,0.441-2.148,0.885-3.285l7.643-19.016h12.13v42.77h-9.539V42.488c0-1.833,0-3.665,0.378-5.496l-0.251-0.063
		l-8.213,21.227H378.3l-8.15-21.227l-0.253,0.063c0.38,1.832,0.38,3.664,0.38,5.433v23.817H360.673z"/>
	<path fill="#051C48" d="M445.829,32.19h-9.541l-0.441-8.718h29.943l-0.504,8.718h-9.475v34.052h-9.982V32.19z"/>
	<path fill="#051C48" d="M475.454,44.825c0-14.783,6.508-22.3,18.447-22.3c11.877,0,18.258,7.518,18.258,22.3
		c0,14.783-6.443,22.301-18.322,22.301C481.961,67.126,475.454,59.608,475.454,44.825z M501.799,44.763
		c0-9.666-2.844-13.52-8.023-13.52s-7.961,3.854-7.961,13.583c0,9.793,2.969,13.583,7.961,13.583
		C498.956,58.408,501.799,54.491,501.799,44.763z"/>
	<path fill="#051C48" d="M527.002,66.242v-42.77h13.898c9.918,0,17.248,3.664,17.248,13.583c0,4.612-2.529,9.098-7.898,10.929
		c1.705,1.011,3.98,3.159,4.992,6.255l3.662,9.792v2.211h-9.729l-3.6-9.918c-1.201-3.222-3.096-5.181-6.066-5.181h-2.527v15.099
		H527.002z M536.983,44.257h4.424c3.916,0,6.949-1.896,6.949-6.191c0-4.548-3.287-6.191-6.635-6.191h-4.738V44.257z"/>
	<path fill="#051C48" d="M580.129,66.242L568.377,25.62v-2.148h9.729l8.213,32.156c0.191,0.948,0.191,0.695,0.506,2.59h0.127
		c0.189-1.074,0.441-2.211,0.568-2.59l8.213-32.156h9.666v2.211l-11.752,40.559H580.129z"/>
	<path fill="#051C48" d="M214.941,129.598v1.58h-4.358l-3.601-11.688h-16.679l-3.601,11.688h-4.612v-1.58l11.941-37.589
		c-1.581,0.126-3.286,0.253-4.992,0.253h-1.264v-3.854h14.025L214.941,129.598z M191.567,115.321h14.087l-6.505-21.038l-0.505-1.833
		h-0.063c-0.19,0.569-0.317,1.201-0.505,1.833L191.567,115.321z"/>
	<path fill="#051C48" d="M230.795,131.178v-42.77h11.876c11.5,0,18.701,6.381,18.701,21.353c0,12.825-5.181,21.417-18.511,21.417
		H230.795z M235.534,92.578v34.43h6.759c10.17,0,14.089-5.749,14.089-17.31c0-10.361-3.538-17.121-13.962-17.121H235.534z"/>
	<path fill="#051C48" d="M286.576,131.178l-13.394-41.191v-1.579h4.424l11.75,36.894c0.19,0.569,0.317,1.201,0.505,1.833h0.063
		c0.19-0.632,0.317-1.264,0.505-1.833l11.751-36.894h4.422v1.579l-13.392,41.191H286.576z"/>
	<path fill="#051C48" d="M318.412,109.761c0-14.53,6.003-22.364,17.12-22.364c11.056,0,16.995,7.834,16.995,22.364
		c0,14.467-5.939,22.301-16.995,22.301C324.415,132.063,318.412,124.229,318.412,109.761z M347.537,109.761
		c0-11.813-4.233-18.194-12.066-18.194c-7.835,0-12.068,6.381-12.068,18.194c0,11.814,4.17,18.131,12.005,18.131
		C343.304,127.893,347.537,121.575,347.537,109.761z"/>
	<path fill="#051C48" d="M370.148,131.178v-42.77h4.738v18.7h8.531l0.883-2.084l8.97-16.615h5.244v0.948l-9.917,17.436
		c-0.444,0.759-0.822,1.453-1.264,2.148l1.264,2.337l10.424,18.384v1.517h-4.614L384.3,113.425l-0.883-2.147h-8.531v19.9H370.148z"
		/>
	<path fill="#051C48" d="M442.924,129.598v1.58h-4.361l-3.6-11.688h-16.68l-3.599,11.688h-4.611v-1.58l11.939-37.589
		c-1.578,0.126-3.285,0.253-4.99,0.253h-1.264v-3.854h14.026L442.924,129.598z M419.547,115.321h14.09l-6.508-21.038l-0.506-1.833
		h-0.063c-0.191,0.569-0.314,1.201-0.506,1.833L419.547,115.321z"/>
	<path fill="#051C48" d="M463.01,92.578h-11.688l-0.254-4.169h28.621l-0.318,4.169h-11.625v38.601h-4.736V92.578z"/>
	<path fill="#051C48" d="M520.813,131.178h-26.537v-42.77h26.156l-0.314,4.169h-21.039v14.341h17.373v4.17h-17.373v15.919h21.48
		L520.813,131.178z"/>
	<path fill="#051C48" d="M537.043,131.178v-42.77h12.066c7.771,0,14.723,3.538,14.723,12.762c0,4.738-3.539,9.919-9.479,11.434
		c1.705,0.759,3.789,2.843,4.865,5.307l5.244,11.75v1.517h-4.611l-5.434-12.13c-1.77-4.043-4.613-5.244-8.465-5.244h-4.17v17.374
		H537.043z M541.784,109.636h7.199c5.563,0,9.982-2.717,9.982-8.213c0-6.254-4.611-8.845-9.602-8.845h-7.58V109.636z"/>
</g>
<g>
	<path fill="#051C48" d="M108.429,73.113c-7.489-13.317-16.361-19.589-31.174-19.589c-16.617,0-27.788,5.809-27.788,14.449
		c0,2.252,0,9.132,20.587,14.178l12.909,3.199c7.971,2.014,26.968,8.226,31.907,22.505c1.481,4.27,2.09,10.651-2.03,18.383
		c-3.279-2.436-7.007-4.567-11.087-6.352c2.238-4.365,1.375-6.896,1.039-7.857c-1.953-5.647-10.955-11.252-22.934-14.284
		L66.99,94.558c-7.482-1.832-30.301-7.43-30.301-26.584c0-16.545,15.932-27.224,40.567-27.224c5.047,0,9.694,0.546,13.969,1.598
		L76.84,16.577l-9.533,16.445c-6.228,0.737-12.071,2.249-17.315,4.389L70.373,2.25C31.853,5.458,1.486,37.817,1.486,77.149
		c0,11.348,2.543,22.101,7.057,31.755l17.99-31.038c1.715,4.185,4.488,8.054,8.13,11.461L16.01,121.505
		c4.533,6.18,9.982,11.645,16.154,16.193c1.212-3.859,3.02-7.689,5.453-11.414l10.694,7.004c-2.477,3.777-4.052,7.592-4.76,11.339
		c9.998,4.925,21.241,7.709,33.112,7.709c9.94,0,19.416-1.958,28.106-5.467c-2.916-3.5-8.363-6.988-18.451-9.951l-0.304-0.097
		l-7.45-2.604c-11.109-2.758-30.253-9.29-36.058-22.4c-1.84-4.145-3.106-10.778,1.258-18.846l11.234,6.09
		c-2.049,3.797-1.443,6.141-0.805,7.581c2.576,5.837,13.204,11.676,27.715,15.237l0.583,0.174l7.588,2.652
		c12.791,3.792,21.488,9.171,26.264,16.271c7.62-4.754,14.321-10.829,19.798-17.911L108.429,73.113z"/>
	<path fill="#051C48" d="M83.519,2.288l60.386,108.459c5.077-10.124,7.951-21.521,7.951-33.598
		C151.856,38.003,121.777,5.766,83.519,2.288z"/>
</g>
</svg>
